<?xml version="1.0" encoding="utf-8"?>
<!-- Generator: Adobe Illustrator 16.0.0, SVG Export Plug-In . SVG Version: 6.00 Build 0)  -->
<!DOCTYPE svg PUBLIC "-//W3C//DTD SVG 1.1//EN" "http://www.w3.org/Graphics/SVG/1.1/DTD/svg11.dtd">
<svg version="1.1" xmlns="http://www.w3.org/2000/svg" xmlns:xlink="http://www.w3.org/1999/xlink" x="0px" y="0px" width="750px"
	 height="500px" viewBox="0 0 750 500" enable-background="new 0 0 750 500" xml:space="preserve">
<g id="BACKGROUND">
</g>
<g id="OBJECTS">
	<g>
		<linearGradient id="SVGID_1_" gradientUnits="userSpaceOnUse" x1="374.9985" y1="101.8721" x2="374.9985" y2="447.0725">
			<stop  offset="0" style="stop-color:#DFDEEE"/>
			<stop  offset="1" style="stop-color:#C1BED7"/>
		</linearGradient>
		<path fill="url(#SVGID_1_)" d="M620.766,271.4c0.021,19.997-4.953,40.024-14.627,57.555c-14.587,26.453-39.7,46.917-68.559,55.87
			c-29.518,9.146-61.279,6.415-91.936,2.527c-18.24-2.314-36.512-5.015-54.804-7.146c-5.542-0.649-11.095-1.248-16.647-1.766
			c-20.91-1.96-41.841-2.822-62.772-1.168c-22.717,1.787-45.13,6.517-67.857,8.091c-22.717,1.583-46.389-0.214-66.629-10.659
			c-40.847-21.072-57.605-75.866-41.852-119.048c10.009-27.427,30.787-50.794,35.873-79.541
			c6.558-37.101-13.846-78.709,5.055-111.293c14.536-25.052,47.099-33.548,76.04-32.178c20.149,0.964,40.014,5.502,60.011,7.989
			c0.741,0.091,1.481,0.183,2.233,0.264c7.979,0.934,15.977,1.502,24.017,1.35c19.723-0.375,38.898-5.045,58.083-9.927
			c0.762-0.193,1.513-0.386,2.274-0.579c12.941-3.309,25.895-6.639,39.029-8.75c25.833-4.142,55.575-2.669,77.806,12.587
			c12.841,8.801,20.139,21.012,25.295,34.441c5.513,14.394,8.567,30.188,13.328,44.714c11.643,35.568,30.564,69.279,49.16,101.599
			C614.016,234.979,620.745,249.333,620.766,271.4z"/>
		<g>
			<g>
				<g>
					<rect x="451.059" y="72.041" fill="#C1BED7" width="28.807" height="13.485"/>
					<rect x="485.423" y="71.749" fill="#C1BED7" width="28.807" height="13.485"/>
				</g>
				<rect x="468.24" y="53.688" fill="#C1BED7" width="28.807" height="13.485"/>
			</g>
			<g>
				<polygon fill="#C1BED7" points="358.132,152.301 374.114,146.855 378.733,177.709 				"/>
				<polygon fill="#C1BED7" points="388.908,152.188 397.374,157.175 385.513,170.918 				"/>
				<polygon fill="#C1BED7" points="349.389,171.395 353.596,162.516 368.347,173.097 				"/>
			</g>
			<g>
				<g>
					<rect x="312.982" y="319.322" fill="#DFDEEE" width="28.807" height="13.485"/>
					<rect x="278.618" y="319.614" fill="#DFDEEE" width="28.807" height="13.485"/>
				</g>
				<rect x="295.8" y="337.675" fill="#DFDEEE" width="28.807" height="13.485"/>
			</g>
			<g>
				<g>
					<rect x="189.386" y="123.585" fill="#C1BED7" width="28.807" height="13.485"/>
				</g>
				<rect x="206.568" y="105.232" fill="#C1BED7" width="28.807" height="13.485"/>
			</g>
			<g>
				<g>
					<g>
						<path fill="#C1BED7" d="M365.211,122.174c-3.29,0.396-6.68,0.477-9.948,0.264l-0.132,2.03
							c1.208,0.081,2.437,0.122,3.665,0.122c2.223,0,4.456-0.132,6.649-0.396L365.211,122.174z M336.108,117.464l-0.873,1.837
							c3.106,1.472,6.375,2.659,9.704,3.522l0.507-1.959C342.25,120.032,339.103,118.885,336.108,117.464z M384.061,116.155
							c-2.913,1.583-5.989,2.903-9.146,3.908l0.619,1.929c3.279-1.046,6.476-2.406,9.501-4.05L384.061,116.155z M320.121,105.781
							l-1.482,1.391c2.355,2.507,4.954,4.812,7.735,6.842l1.198-1.634C324.892,110.42,322.384,108.197,320.121,105.781z
							 M399.389,103.608c-2.132,2.548-4.508,4.893-7.075,6.994l1.289,1.573c2.659-2.183,5.126-4.619,7.339-7.258L399.389,103.608z
							 M309.523,89.052l-1.888,0.751c1.269,3.187,2.842,6.283,4.69,9.196l1.715-1.086C312.264,95.112,310.742,92.128,309.523,89.052
							z M409.052,86.332c-1.046,3.146-2.396,6.202-4.02,9.095l1.776,0.995c1.685-3.005,3.086-6.182,4.172-9.44L409.052,86.332z
							 M305.839,69.604h-2.03c0,3.451,0.325,6.913,0.964,10.272l1.99-0.375C306.153,76.262,305.839,72.933,305.839,69.604z
							 M413.701,66.609l-2.03,0.102c0.05,0.964,0.081,1.939,0.081,2.893c0,2.355-0.162,4.73-0.467,7.044l2.01,0.274
							c0.324-2.406,0.487-4.873,0.487-7.319C413.782,68.609,413.751,67.604,413.701,66.609z M305.748,55.108
							c-0.903,3.309-1.502,6.729-1.766,10.171l2.02,0.152c0.264-3.309,0.832-6.608,1.705-9.795L305.748,55.108z M408.768,46.653
							l-1.838,0.842c1.381,3.015,2.487,6.172,3.279,9.39l1.969-0.487C411.356,53.058,410.209,49.779,408.768,46.653z
							 M312.062,40.633c-0.975,1.563-1.868,3.167-2.67,4.812l1.827,0.893c0.914-1.868,1.939-3.685,3.076-5.441
							C313.543,40.816,312.802,40.725,312.062,40.633z M398.668,31.741c-0.762,0.193-1.513,0.386-2.274,0.579
							c2.021,2.04,3.888,4.243,5.542,6.578l1.655-1.177C402.088,35.619,400.444,33.619,398.668,31.741z"/>
					</g>
				</g>
				<g>
					<g>
						<path fill="#C1BED7" d="M284.917,272.493c-1.226-0.001-2.459-0.042-3.664-0.121l0.134-2.026
							c3.264,0.215,6.661,0.129,9.94-0.267l0.243,2.017C289.376,272.359,287.138,272.493,284.917,272.493z M271.061,270.732
							c-3.329-0.864-6.594-2.052-9.703-3.527l0.87-1.834c2.994,1.421,6.138,2.564,9.343,3.396L271.061,270.732z M301.657,269.898
							l-0.617-1.935c3.152-1.006,6.229-2.319,9.143-3.905l0.97,1.784C308.126,267.488,304.932,268.854,301.657,269.898z
							 M252.49,261.918c-2.778-2.032-5.378-4.336-7.727-6.847l1.483-1.388c2.263,2.419,4.767,4.638,7.442,6.597L252.49,261.918z
							 M319.719,260.077l-1.286-1.57c2.563-2.099,4.944-4.45,7.074-6.99l1.555,1.305
							C324.852,255.458,322.38,257.899,319.719,260.077z M238.443,246.906c-1.845-2.912-3.42-6.008-4.683-9.203l1.889-0.746
							c1.215,3.076,2.733,6.058,4.509,8.862L238.443,246.906z M332.928,244.326l-1.771-0.991c1.621-2.896,2.972-5.956,4.015-9.093
							l1.926,0.64C336.015,238.141,334.612,241.318,332.928,244.326z M230.893,227.785c-0.636-3.363-0.959-6.821-0.959-10.275h2.03
							c0,3.329,0.311,6.659,0.924,9.899L230.893,227.785z M339.418,224.823l-2.013-0.268c0.309-2.318,0.465-4.689,0.465-7.046
							c0-0.961-0.026-1.933-0.078-2.891l2.027-0.109c0.053,0.995,0.081,2.003,0.081,3
							C339.9,219.956,339.738,222.417,339.418,224.823z M232.125,213.34l-2.024-0.159c0.269-3.439,0.862-6.861,1.765-10.169
							l1.958,0.533C232.955,206.732,232.383,210.027,232.125,213.34z M336.332,204.786c-0.793-3.216-1.898-6.373-3.284-9.385
							l1.844-0.849c1.439,3.127,2.587,6.408,3.411,9.748L336.332,204.786z M237.334,194.245l-1.823-0.892
							c1.511-3.085,3.326-6.047,5.393-8.804l1.624,1.217C240.537,188.422,238.79,191.275,237.334,194.245z M328.06,186.799
							c-1.923-2.698-4.112-5.228-6.505-7.522l1.405-1.465c2.485,2.381,4.757,5.009,6.754,7.81L328.06,186.799z M249.212,178.403
							l-1.369-1.499c2.544-2.324,5.316-4.417,8.24-6.221l1.067,1.727C254.333,174.149,251.663,176.165,249.212,178.403z
							 M313.764,173.096c-2.779-1.809-5.742-3.362-8.805-4.616l0.769-1.879c3.181,1.302,6.257,2.915,9.143,4.794L313.764,173.096z
							 M266.065,168.011l-0.724-1.897c3.21-1.224,6.558-2.149,9.952-2.748l0.353,1.999
							C272.379,165.941,269.156,166.831,266.065,168.011z M295.444,165.603c-3.234-0.653-6.561-1.003-9.887-1.043l0.023-2.03
							c3.453,0.041,6.907,0.406,10.265,1.083L295.444,165.603z"/>
					</g>
				</g>
			</g>
			<g>
				<g>
					<path fill="#C1BED7" d="M507.826,165.135c-18.562-18.562-48.764-18.562-67.325,0c-1.063,1.062-1.062,2.784,0,3.845
						s2.783,1.062,3.845,0c16.441-16.441,43.193-16.441,59.635,0c1.063,1.062,2.784,1.062,3.846,0S508.888,166.197,507.826,165.135z
						"/>
					<path fill="#C1BED7" d="M449.051,173.686c-1.062,1.062-1.062,2.783,0,3.845c1.063,1.062,2.783,1.062,3.846,0
						c11.727-11.727,30.808-11.727,42.534,0c1.062,1.062,2.783,1.062,3.846,0c1.062-1.062,1.062-2.783,0-3.845
						C485.429,159.838,462.898,159.838,449.051,173.686z"/>
					<path fill="#C1BED7" d="M457.652,182.287c-1.063,1.062-1.062,2.784,0,3.845c1.062,1.062,2.783,1.062,3.845,0
						c6.984-6.984,18.349-6.984,25.332,0c1.063,1.062,2.783,1.062,3.846,0c1.062-1.062,1.062-2.783,0-3.845
						C481.57,173.183,466.757,173.183,457.652,182.287z"/>
					<circle fill="#C1BED7" cx="475.281" cy="193.73" r="7.523"/>
				</g>
			</g>
		</g>
		<path fill="#0CC3BE" d="M601.185,346.45v-90.858c0-15.886-12.878-28.763-28.764-28.763h-46.06V346.45H601.185z"/>
		<ellipse fill="#DFDEEE" cx="511.822" cy="439.509" rx="108.946" ry="13.069"/>
		<path fill="#456997" d="M513.544,199.421c0,0-7.444,3.553-9.306,8.036c-1.86,4.483-10.665,40.232-10.665,40.232l-37.889,15.349
			l1.794,11.722h24.767l28.771-15.053l6.399-57.898L513.544,199.421z"/>
		<path fill="#456997" d="M522.859,196.376l-9.315,3.045c0,0-11.957,86.372-11.957,91.783s0,21.905,0,21.905l18.024,7.105
			l-1.754-32.482L522.859,196.376z"/>
		<path fill="#343C4B" d="M526.361,193.838l-3.502,2.538c0,0-12.107,92.372-11.346,97.955c0.761,5.583,2.791,18.778,2.791,18.778
			l49.731,13.45l2.037-61.405v-66.24l-6.344-7.106l-21.206,9.372L526.361,193.838z"/>
		<g>
			<g>
				<g>
					<g>
						<path fill="#DE624C" d="M440.509,438.817c0.139-1.023,0.593-2.222,1.879-2.829c3.755-1.773,17.555-7.314,21.257-10.389
							c2.874-2.387,5.334-7.502,6.29-9.67l25.931,0.771c1.657,6.693,2.939,19.627,3.196,22.335L440.509,438.817z"/>
						
							<rect x="440.497" y="438.927" transform="matrix(-1 -0.0037 0.0037 -1 937.8938 885.4824)" fill="#FFFFFF" width="58.553" height="5.877"/>
						<g>
							<path fill="#FFEEDE" d="M468.569,427.265c0.041,0.067,0.08,0.136,0.118,0.204c0.284,0.516,0.466,1.308-0.214,1.615
								c-0.348,0.157-0.75,0.108-1.124,0.034c-1.287-0.255-2.472-0.813-3.604-1.46c-1.218-0.695-2.516-1.449-3.308-2.647
								c-0.819-1.239,0.313-2.39,1.706-2.097C464.551,423.421,467.273,425.11,468.569,427.265z"/>
							<path fill="#FFEEDE" d="M464.159,430.396c0.041,0.067,0.08,0.136,0.118,0.204c0.284,0.516,0.466,1.308-0.214,1.615
								c-0.348,0.157-0.75,0.108-1.124,0.034c-1.286-0.255-2.472-0.812-3.604-1.459c-1.218-0.696-2.516-1.45-3.308-2.648
								c-0.819-1.239,0.313-2.39,1.706-2.097C460.141,426.553,462.864,428.242,464.159,430.396z"/>
							<path fill="#FFEEDE" d="M458.732,432.451c0.04,0.068,0.08,0.137,0.117,0.205c0.285,0.516,0.467,1.308-0.214,1.615
								c-0.347,0.157-0.75,0.108-1.123,0.034c-1.287-0.255-2.473-0.813-3.605-1.46c-1.218-0.695-2.515-1.449-3.308-2.647
								c-0.818-1.239,0.314-2.39,1.706-2.097C454.714,428.608,457.437,430.297,458.732,432.451z"/>
						</g>
					</g>
				</g>
				<polygon fill="#343C4B" points="507.473,327.571 483.609,321.914 474.163,416.056 495.863,416.695 				"/>
				<polygon fill="#0CC3BE" points="488.3,348.478 495.569,346.45 601.185,346.45 601.185,356.758 488.3,356.758 				"/>
			</g>
			<g>
				<g>
					<g>
						<g>
							<path fill="#FD7658" d="M419.353,435.699c0.209-1.011,0.742-2.176,2.067-2.695c3.866-1.515,18.011-6.106,21.912-8.922
								c3.029-2.187,5.831-7.123,6.932-9.222l25.819,2.529c1.198,6.79,1.601,19.78,1.673,22.499L419.353,435.699z"/>
							
								<rect x="419.068" y="437.786" transform="matrix(-0.9974 -0.0715 0.0715 -0.9974 864.0059 912.3993)" fill="#FFFFFF" width="58.553" height="5.877"/>
							<g>
								<path fill="#FFFFFF" d="M448.133,426.076c0.036,0.07,0.07,0.142,0.104,0.212c0.249,0.534,0.377,1.337-0.322,1.598
									c-0.357,0.133-0.756,0.058-1.124-0.042c-1.267-0.342-2.411-0.979-3.497-1.701c-1.168-0.777-2.411-1.617-3.12-2.866
									c-0.733-1.292,0.475-2.363,1.844-1.977C444.385,421.97,446.986,423.839,448.133,426.076z"/>
								<path fill="#FFFFFF" d="M443.521,428.902c0.036,0.07,0.071,0.141,0.104,0.212c0.249,0.533,0.377,1.336-0.322,1.597
									c-0.357,0.133-0.756,0.058-1.124-0.042c-1.267-0.342-2.411-0.979-3.497-1.701c-1.168-0.776-2.411-1.616-3.12-2.866
									c-0.733-1.292,0.475-2.362,1.844-1.976C439.772,424.795,442.374,426.665,443.521,428.902z"/>
								<path fill="#FFFFFF" d="M437.967,430.585c0.035,0.07,0.07,0.141,0.104,0.212c0.249,0.533,0.376,1.336-0.323,1.597
									c-0.357,0.133-0.756,0.058-1.123-0.042c-1.267-0.342-2.412-0.979-3.498-1.701c-1.168-0.776-2.411-1.616-3.12-2.866
									c-0.733-1.292,0.476-2.362,1.844-1.976C434.218,426.478,436.82,428.348,437.967,430.585z"/>
							</g>
						</g>
					</g>
				</g>
			</g>
			<g>
				<path fill="#414C5B" d="M586.014,328.536c0,0,0.282,25.515-25.094,25.515c-10.049,0-65.351-7.601-65.351-7.601l-19.486,70.939
					l-29.906-2.529c5.209-24.938,19.261-108.691,26.504-110.557c16.872-4.318,86.36,19.175,86.36,19.175l18.536,3.479
					L586.014,328.536z"/>
				<path fill="#515D6C" d="M474.016,315.466c-1.92,2.902-2.484,6.522-2.255,9.954c0.193,2.887,1.284,6.145,3.99,7.013
					c1.451,0.466,3.092,0.105,4.446-0.666c1.355-0.771,2.468-1.918,3.494-3.104c1.55-1.79,2.971-3.739,3.823-5.946
					c0.854-2.207,1.098-4.708,0.299-6.888C485.392,309.22,477.503,310.194,474.016,315.466z"/>
			</g>
		</g>
		<g>
			<g>
				<g>
					<g>
						<path fill="#FFA07F" d="M553.947,188.051c-0.411,0.411-18.449,13.759-18.449,13.759s0.414-8.223,0.611-12.506
							c0.058-1.327,0.099-2.275,0.099-2.485c0-1.712-1.462-9.13-1.462-9.13l18.203-8.325c0,0,0.287,3.754,0.566,7.898
							C553.853,182.26,554.173,187.825,553.947,188.051z"/>
						<path fill="#FF7D6F" d="M553.516,177.262c-5.056,3.672-16.194,11.705-17.308,12.021c-0.032,0.008-0.065,0.017-0.099,0.021
							c0.058-1.327,0.099-2.275,0.099-2.485c0-1.712-1.462-9.13-1.462-9.13l18.203-8.325
							C552.949,169.364,553.236,173.118,553.516,177.262z"/>
					</g>
				</g>
			</g>
			<g>
				<g>
					<g>
						<path fill="#FFA07F" d="M555.44,169.999c0,0-0.455,1.314-2.488,3.113h-0.005c-0.414,0.37-0.899,0.76-1.457,1.163
							c-2.136,1.532-22.13,10.099-25.21,9.688c-3.081-0.411-5.983-10.996-6.144-12.109c-0.99-6.83-3.714-31.28-3.714-31.28
							c7.599-23,34.705-7.745,37.786-5.486C557.289,137.347,555.44,169.999,555.44,169.999z"/>
						<path fill="#FFBF90" d="M552.947,173.112c-0.414,0.37-0.899,0.76-1.457,1.163c-2.136,1.532-22.13,10.099-25.21,9.688
							c-3.081-0.411-5.983-10.996-6.144-12.109c1.918,4.649,4.086,11.078,6.267,10.873
							C529.689,182.419,550.521,174.39,552.947,173.112z"/>
					</g>
					<g>
						<g>
							<g>
								<path fill="#FC5B68" d="M538.523,172.238c-1.719,1.57-4.146,2.331-6.453,2.023c1.008,0.839,2.179,1.171,3.428,0.769
									C536.746,174.627,537.935,173.409,538.523,172.238z"/>
							</g>
						</g>
						<path fill="#FC5B68" d="M539.668,167.93c-3.23,2.6-7.382,4.032-11.528,3.978c2.114,0.722,4.409,0.937,6.547,0.291
							C536.825,171.553,538.308,169.702,539.668,167.93z"/>
						<g>
							<path fill="#FF7D6F" d="M527.965,166c0.214-0.679,0.429-1.358,0.643-2.038c1.63-0.358,3.203-1.313,4.277-2.59
								c0.223,0.505,0.438,1.022,0.516,1.569s0.008,1.134-0.302,1.591c-0.288,0.425-0.75,0.698-1.218,0.913
								C530.579,166.042,529.39,166.146,527.965,166z"/>
							<g>
								<path fill="#FC5B68" d="M533.364,164.416c0,0-0.166,0.2-0.523,0.516c-0.359,0.308-0.927,0.725-1.734,1.054
									c-0.401,0.164-0.862,0.306-1.373,0.392c-0.546,0.082-0.905,0.139-2.07,0.01l-0.193-0.021
									c-0.027-0.006-0.075-0.001-0.086-0.016l0.029-0.081l0.122-0.328c0.085-0.226,0.17-0.454,0.257-0.684
									c0.052-0.135,0.076-0.209,0.093-0.268l0.063-0.204l0.13-0.411c0.148-0.561,0.293-1.144,0.389-1.751
									c0.413-2.429,0.211-4.705-0.161-6.305c-0.174-0.806-0.389-1.445-0.54-1.887c-0.163-0.435-0.256-0.682-0.256-0.682
									s0.145,0.223,0.398,0.615c0.239,0.406,0.576,1.008,0.879,1.807c0.632,1.574,1.12,3.996,0.674,6.619
									c-0.103,0.653-0.273,1.278-0.461,1.871c-0.102,0.267-0.201,0.529-0.299,0.787c-0.018,0.045-0.119,0.175-0.087,0.187
									c-0.093,0.03,0.614,0.084,1.044,0.055c0.466-0.022,0.901-0.092,1.294-0.186c0.786-0.188,1.394-0.479,1.799-0.703
									C533.153,164.571,533.364,164.416,533.364,164.416z"/>
							</g>
						</g>
						<g>
							<path fill="#343C4B" d="M519.293,150.408c0,0,3.668-4.938,5.727-2.993c2.06,1.945,1.136,2.153,1.136,2.153L519.293,150.408z"
								/>
							<path fill="#343C4B" d="M547.265,147.153c0,0-8.021-6.561-10.291-3.351c-1.325,1.874-0.026,2.771-0.026,2.771
								L547.265,147.153z"/>
							<g>
								
									<ellipse transform="matrix(0.9959 -0.0902 0.0902 0.9959 -11.698 49.4927)" fill="#343C4B" cx="541.432" cy="154.101" rx="2.305" ry="3.701"/>
								<path fill="#FFFFFF" d="M545.733,151.636c0,0-0.692,1.339-2.04,2.032s-2.84,0.477-2.84,0.477s0.692-1.339,2.04-2.032
									S545.733,151.636,545.733,151.636z"/>
							</g>
							<g>
								<path fill="#343C4B" d="M521.011,158.059c0.148,1.775,1.097,3.133,2.118,3.033s1.729-1.621,1.58-3.396
									c-0.149-1.775-1.098-3.133-2.118-3.033C521.569,154.764,520.862,156.284,521.011,158.059z"/>
								<path fill="#FFFFFF" d="M519.293,156.655c0,0,0.729,0.884,1.831,1.246c1.103,0.362,2.162,0.064,2.162,0.064
									s-0.729-0.884-1.831-1.246C520.352,156.357,519.293,156.655,519.293,156.655z"/>
							</g>
							
								<ellipse transform="matrix(0.9365 0.3506 -0.3506 0.9365 90.5565 -171.7479)" fill="#FF7D6F" cx="519.611" cy="164.225" rx="3.728" ry="1.628"/>
							
								<ellipse transform="matrix(0.968 -0.2508 0.2508 0.968 -23.0353 141.9894)" fill="#FF7D6F" cx="545.566" cy="161.372" rx="5.439" ry="2.375"/>
						</g>
					</g>
				</g>
				<g>
					<g>
						<path fill="#343C4B" d="M560.988,153.753c-0.609,0.071-1.229,0.243-1.827,0.497c-2.314,0.954-4.396,3.065-4.964,5.359
							c-1.137-1.309-1.086-3.268-0.762-4.974c0.314-1.715,0.854-3.472,0.447-5.157c-0.143-0.568-0.376-1.116-0.589-1.665
							c-0.863-2.253-1.188-4.812-1.076-7.228c-3.431,1.655-8.07,0-9.674-3.451c-4.07,3.34-10.414,3.543-14.688,0.467
							c-1.594,2.477-3.381,4.893-5.705,6.709c-2.324,1.807-5.258,2.984-8.191,2.69c-2.934-0.284-5.776-2.253-6.599-5.085
							c-0.051-0.183-0.102-0.366-0.132-0.548c-0.497-2.518,0.589-5.217,2.376-7.105c1.928-2.01,4.547-3.218,7.196-4.101
							c0.66-3.522,2.396-7.136,5.634-8.679c3.238-1.553,7.217-1.462,10.384,0.233c2.954-2.852,7.441-4.03,11.42-2.974
							c3.969,1.056,7.288,4.304,8.436,8.252c2.984-1.096,6.658,0.163,8.354,2.853c1.686,2.7,1.219,6.547-1.076,8.76
							c2.264,1.563,3.787,4.162,4.051,6.902S562.917,151.784,560.988,153.753z"/>
						<g>
							<path fill="#414C5B" d="M560.988,153.753c-0.609,0.071-1.229,0.243-1.827,0.497c-0.822-2.05-0.731-4.436,0.64-6.171
								c-4.548-2.162-6.608-8.354-4.284-12.811c-4.872,1.848-10.983-0.893-12.851-5.755c-2.842,5.755-11.815,7.126-16.252,2.487
								c-1.37,4.122-4.628,7.573-8.668,9.176c-3.33,1.32-7.137,1.371-10.517,0.193c-0.355-1.827,0.112-3.746,1.076-5.38
								c0.365-0.619,0.802-1.208,1.3-1.726c1.928-2.01,4.547-3.218,7.196-4.101c0.66-3.522,2.396-7.136,5.634-8.679
								c3.238-1.553,7.217-1.462,10.384,0.233c2.954-2.852,7.441-4.03,11.42-2.974c3.969,1.056,7.288,4.304,8.436,8.252
								c2.984-1.096,6.658,0.163,8.354,2.853c1.686,2.7,1.219,6.547-1.076,8.76c1.625,1.117,2.863,2.771,3.533,4.619
								c0.264,0.73,0.446,1.502,0.518,2.284C564.267,148.251,562.917,151.784,560.988,153.753z"/>
							<path fill="#495969" d="M558.207,131.767c-1.807-2.426-5.776-2.822-8.02-0.792c-0.589-3.401-3.116-6.385-6.364-7.532
								c-3.248-1.147-7.096-0.406-9.684,1.858c1.188,0.934,2.375,1.857,3.563,2.792c-3.269-0.193-6.537-0.376-9.806-0.569
								c0.822-0.457,1.645-0.923,2.467-1.38c-2.791-0.741-5.918,0.021-8.06,1.939s-3.229,4.954-2.802,7.796
								c-3.613-1.157-7.593-1.086-11.196,0.111c0.365-0.619,0.802-1.208,1.3-1.726c1.928-2.01,4.547-3.218,7.196-4.101
								c0.66-3.522,2.396-7.136,5.634-8.679c3.238-1.553,7.217-1.462,10.384,0.233c2.954-2.852,7.441-4.03,11.42-2.974
								c3.969,1.056,7.288,4.304,8.436,8.252c2.984-1.096,6.658,0.163,8.354,2.853c1.686,2.7,1.219,6.547-1.076,8.76
								c1.625,1.117,2.863,2.771,3.533,4.619c-2.102-1.492-4.405-2.7-6.832-3.553C559.242,138.111,560.003,134.193,558.207,131.767z
								"/>
						</g>
					</g>
					<g>
						<path fill="#FFBF90" d="M552.499,170.813c4.118-0.324,7.115-2.767,8.721-4.812c0.36-0.461,0.65-0.902,0.867-1.294
							c1.176-2.133,1.515-9.529-1.514-11.248c-2.122-1.203-3.666,0.542-4.4,1.698c0,0.001,0,0.003,0,0.003
							c-0.313,0.491-0.479,0.875-0.479,0.875L552.499,170.813z"/>
						<path fill="#FFA07F" d="M552.499,170.813c4.118-0.324,7.115-2.767,8.721-4.812c0.139-0.208,0.26-0.408,0.363-0.596
							c1.176-2.133,1.514-9.529-1.514-11.246c-1.719-0.976-3.059-0.016-3.896,0.998c0,0.001,0,0.003,0,0.003
							c-0.313,0.491-0.479,0.875-0.479,0.875L552.499,170.813z"/>
						<path fill="#FF7D6F" d="M561.528,159.333c0.151,0.592,0.056,1.208-0.139,1.792c-0.827,2.482-3.306,4.376-5.68,6.135
							c0.716-1.204,0.979-2.563,0.833-3.887c-0.052-0.46-0.15-0.918-0.155-1.381C556.37,160.131,560.632,155.836,561.528,159.333z"
							/>
						<g>
							<path fill="#CF4A57" d="M554.519,167.966c0,0,0.047-0.026,0.135-0.076c0.086-0.052,0.225-0.121,0.383-0.229
								c0.317-0.212,0.757-0.552,1.171-1.058c0.411-0.503,0.785-1.175,0.963-1.971c0.16-0.792,0.127-1.717-0.3-2.607
								c-0.045-0.113-0.108-0.22-0.172-0.326l-0.048-0.08c-0.012-0.02-0.004-0.007-0.006-0.009l0.001,0.002l-0.002-0.001h-0.001
								c0,0-0.003,0.004,0.007-0.013l0.039-0.071l0.08-0.141c0.055-0.093,0.108-0.186,0.165-0.276
								c0.225-0.364,0.467-0.705,0.715-1.022c0.25-0.317,0.508-0.609,0.763-0.876c0.258-0.265,0.505-0.514,0.751-0.698
								c0.245-0.186,0.515-0.306,0.768-0.339c0.254-0.028,0.493,0.029,0.654,0.108c0.163,0.082,0.254,0.186,0.291,0.264
								c0.04,0.078,0.037,0.125,0.041,0.125c0,0,0.013-0.045-0.007-0.132c-0.017-0.086-0.082-0.217-0.244-0.337
								c-0.162-0.117-0.415-0.227-0.75-0.236c-0.335-0.003-0.695,0.109-1.018,0.291c-0.325,0.183-0.616,0.412-0.924,0.662
								c-0.306,0.253-0.615,0.538-0.912,0.856s-0.583,0.667-0.844,1.046c-0.065,0.094-0.128,0.191-0.19,0.29l-0.091,0.148
								l-0.121,0.21l-0.084,0.147c0.021,0.049,0.055,0.098,0.082,0.147l0.121,0.21c0.054,0.092,0.109,0.184,0.147,0.283
								c0.37,0.772,0.453,1.581,0.384,2.306c-0.086,0.726-0.33,1.371-0.628,1.882c-0.299,0.512-0.64,0.893-0.896,1.144
								c-0.127,0.127-0.242,0.214-0.313,0.28C554.557,167.932,554.519,167.966,554.519,167.966z"/>
						</g>
					</g>
				</g>
			</g>
		</g>
		<path fill="#FFFFFF" d="M536.109,189.304c0,0-8.265,3.52-9.748,4.535l-2.329,18.271l11.466-10.3l5.355,12.499
			c0,0,17.522-17.933,18.876-22.501l-5.782-3.757l-18.283,12.724L536.109,189.304z"/>
		<polygon fill="#FD7658" points="535.498,201.81 527.965,208.577 529.446,215.324 520.92,281.389 527.146,293.569 536.637,282.657 
			535.572,216.17 539.381,210.873 		"/>
		<g>
			<path fill="#456997" d="M559.729,191.808c0,0-8.374,47.201-9.897,60.905c-1.522,13.703-1.015,56.083,0,63.442
				c1.016,7.359,11.42,16.748,18.271,19.286s21.57-7.105,21.57-7.105l-14.465-72.701l2.03-51.899
				C577.239,203.735,571.91,197.645,559.729,191.808z"/>
			<polygon fill="#254F79" points="556.684,311.188 559.729,305.243 582.061,318.186 578.508,321.914 			"/>
		</g>
		<g>
			<g>
				<g>
					<rect x="340.823" y="265.625" fill="#FFFFFF" width="91.357" height="18.683"/>
					<rect x="340.823" y="281.514" fill="#C1BED7" width="91.357" height="2.794"/>
					<rect x="340.823" y="274.281" fill="#C1BED7" width="31.651" height="2.794"/>
					<rect x="400.529" y="277.075" fill="#C1BED7" width="31.65" height="2.794"/>
					<rect x="400.529" y="268.616" fill="#C1BED7" width="31.65" height="2.794"/>
					<rect x="340.823" y="270.014" fill="#C1BED7" width="50.176" height="2.794"/>
				</g>
				<g>
					<rect x="345.32" y="246.994" fill="#FFFFFF" width="91.356" height="18.682"/>
					<rect x="405.026" y="254.226" fill="#C1BED7" width="31.65" height="2.795"/>
					<rect x="345.32" y="251.432" fill="#C1BED7" width="31.65" height="2.794"/>
					<rect x="345.32" y="259.891" fill="#C1BED7" width="31.65" height="2.794"/>
					<rect x="386.501" y="258.493" fill="#C1BED7" width="50.176" height="2.795"/>
				</g>
				<g>
					<rect x="335.931" y="228.362" fill="#FFFFFF" width="91.356" height="18.682"/>
					<rect x="386.501" y="230.516" fill="#C1BED7" width="40.786" height="2.794"/>
					<rect x="335.931" y="235.847" fill="#C1BED7" width="38.488" height="2.794"/>
					<rect x="335.931" y="241.259" fill="#C1BED7" width="55.068" height="2.794"/>
					<rect x="406.901" y="239.861" fill="#C1BED7" width="20.386" height="2.794"/>
				</g>
			</g>
			<g>
				<g>
					<rect x="347.391" y="209.679" fill="#FFFFFF" width="91.357" height="18.683"/>
					<rect x="347.391" y="225.567" fill="#C1BED7" width="91.357" height="2.794"/>
					<rect x="347.391" y="218.335" fill="#C1BED7" width="31.651" height="2.794"/>
					<rect x="407.098" y="221.129" fill="#C1BED7" width="31.65" height="2.794"/>
					<rect x="407.098" y="212.67" fill="#C1BED7" width="31.65" height="2.794"/>
					<rect x="347.391" y="214.067" fill="#C1BED7" width="50.175" height="2.794"/>
				</g>
				<g>
					<rect x="351.889" y="191.047" fill="#FFFFFF" width="91.356" height="18.682"/>
					<rect x="411.595" y="198.28" fill="#C1BED7" width="31.65" height="2.794"/>
					<rect x="351.889" y="195.485" fill="#C1BED7" width="31.65" height="2.794"/>
					<rect x="351.889" y="203.944" fill="#C1BED7" width="31.65" height="2.794"/>
					<rect x="393.069" y="202.547" fill="#C1BED7" width="50.176" height="2.794"/>
				</g>
			</g>
		</g>
		<g>
			<rect x="256.31" y="284.308" fill="#FFFFFF" width="252.412" height="13.793"/>
			<path fill="#515D6C" d="M433.377,308.299H331.654c-5.633,0-10.199-4.566-10.199-10.198l0,0h122.121l0,0
				C443.576,303.732,439.01,308.299,433.377,308.299z"/>
			<path fill="#515D6C" d="M390.841,308.298v71.908c-5.542-0.649-11.095-1.248-16.647-1.766v-70.143H390.841z"/>
		</g>
		<g>
			<rect x="496.625" y="356.758" fill="#515D6C" width="93.049" height="9.475"/>
			<g>
				<polygon fill="#515D6C" points="598.673,439.509 589.198,439.509 568.884,356.758 578.358,356.758 				"/>
				<polygon fill="#515D6C" points="487.627,439.509 497.102,439.509 517.415,356.758 507.941,356.758 				"/>
			</g>
		</g>
		<path fill="#0CC3BE" d="M158.373,346.45v-90.858c0-15.886,12.878-28.763,28.764-28.763h46.06V346.45H158.373z"/>
		<path fill="#DE624C" d="M265.226,237c-1.238,7.999-8.577,13.612-15.947,16.972c-12.749,5.806-27.356,7.115-41.029,4.304
			c-11.074-2.273-23.895-7.075-30.371-16.84c-4.273-6.426-8.182-13.156-5.329-21.083c0.64-1.776,1.553-3.451,2.528-5.096
			c1.888-3.197,3.999-6.293,4.75-9.897c1.147-5.471-0.812-11.958,2.801-16.21c2.995-3.533,8.669-3.857,11.521-7.491
			c3.42-4.345,1.045-10.577,0.548-16.079c-1.097-11.958,7.978-22.991,18.89-27.985c6.832-3.126,14.627-4.426,21.976-2.873
			c7.359,1.553,14.181,6.131,17.744,12.749c2.578,4.801,3.36,10.344,4.091,15.744c1.33,9.745,2.66,19.571,1.929,29.376
			c-0.477,6.324-1.797,12.709-0.66,18.952c1.086,5.908,4.344,11.48,5.897,17.185v0.01C265.307,231.447,265.662,234.188,265.226,237z
			"/>
		<ellipse fill="#DFDEEE" cx="247.736" cy="439.509" rx="108.946" ry="13.069"/>
		<g>
			<g>
				<g>
					<g>
						<path fill="#343C4B" d="M319.049,438.817c-0.139-1.023-0.593-2.222-1.879-2.829c-3.754-1.773-17.555-7.314-21.256-10.389
							c-2.875-2.387-5.334-7.502-6.291-9.67l-25.931,0.771c-1.657,6.693-2.939,19.627-3.196,22.335L319.049,438.817z"/>
						
							<rect x="260.507" y="438.927" transform="matrix(1 -0.0037 0.0037 1 -1.6488 1.0857)" fill="#FFFFFF" width="58.553" height="5.877"/>
						<g>
							<path fill="#FFEEDE" d="M290.988,427.265c-0.041,0.067-0.08,0.136-0.118,0.204c-0.285,0.516-0.466,1.308,0.214,1.615
								c0.347,0.157,0.75,0.108,1.124,0.034c1.287-0.255,2.472-0.813,3.605-1.46c1.218-0.695,2.515-1.449,3.308-2.647
								c0.819-1.239-0.314-2.39-1.706-2.097C295.007,423.421,292.284,425.11,290.988,427.265z"/>
							<path fill="#FFEEDE" d="M295.398,430.396c-0.041,0.067-0.08,0.136-0.118,0.204c-0.284,0.516-0.466,1.308,0.214,1.615
								c0.347,0.157,0.75,0.108,1.124,0.034c1.287-0.255,2.472-0.812,3.604-1.459c1.218-0.696,2.516-1.45,3.308-2.648
								c0.819-1.239-0.314-2.39-1.706-2.097C299.417,426.553,296.694,428.242,295.398,430.396z"/>
							<path fill="#FFEEDE" d="M300.826,432.451c-0.041,0.068-0.08,0.137-0.118,0.205c-0.285,0.516-0.466,1.308,0.214,1.615
								c0.347,0.157,0.75,0.108,1.124,0.034c1.287-0.255,2.472-0.813,3.605-1.46c1.218-0.695,2.515-1.449,3.308-2.647
								c0.819-1.239-0.314-2.39-1.706-2.097C304.844,428.608,302.121,430.297,300.826,432.451z"/>
						</g>
					</g>
				</g>
				<polygon fill="#254F79" points="285.395,416.059 266.312,416.617 261.551,386.845 252.081,327.574 275.945,321.91 
					282.289,385.129 				"/>
				<polygon fill="#FF7D6F" points="285.395,416.059 266.312,416.617 261.551,386.845 282.289,385.129 				"/>
				<rect x="158.373" y="346.45" fill="#0CC3BE" width="112.885" height="10.308"/>
			</g>
			<g>
				<g>
					<g>
						<g>
							<path fill="#414C5B" d="M340.205,435.699c-0.208-1.011-0.742-2.176-2.067-2.695c-3.866-1.515-18.011-6.106-21.913-8.922
								c-3.029-2.187-5.831-7.123-6.932-9.222l-25.819,2.529c-1.199,6.79-1.601,19.78-1.673,22.499L340.205,435.699z"/>
							
								<rect x="281.937" y="437.786" transform="matrix(0.9974 -0.0715 0.0715 0.9974 -30.736 23.3967)" fill="#FFFFFF" width="58.553" height="5.877"/>
							<g>
								<path fill="#FFFFFF" d="M311.425,426.076c-0.036,0.07-0.07,0.142-0.104,0.212c-0.249,0.534-0.376,1.337,0.323,1.598
									c0.357,0.133,0.755,0.058,1.123-0.042c1.267-0.342,2.412-0.979,3.498-1.701c1.168-0.777,2.411-1.617,3.12-2.866
									c0.733-1.292-0.475-2.363-1.844-1.977C315.173,421.97,312.571,423.839,311.425,426.076z"/>
								<path fill="#FFFFFF" d="M316.037,428.902c-0.036,0.07-0.071,0.141-0.104,0.212c-0.249,0.533-0.376,1.336,0.323,1.597
									c0.357,0.133,0.756,0.058,1.124-0.042c1.267-0.342,2.411-0.979,3.498-1.701c1.167-0.776,2.411-1.616,3.12-2.866
									c0.733-1.292-0.475-2.362-1.844-1.976C319.786,424.795,317.184,426.665,316.037,428.902z"/>
								<path fill="#FFFFFF" d="M321.591,430.585c-0.036,0.07-0.07,0.141-0.104,0.212c-0.249,0.533-0.376,1.336,0.323,1.597
									c0.357,0.133,0.756,0.058,1.124-0.042c1.267-0.342,2.412-0.979,3.498-1.701c1.168-0.776,2.411-1.616,3.121-2.866
									c0.733-1.292-0.476-2.362-1.845-1.976C325.34,426.478,322.738,428.348,321.591,430.585z"/>
							</g>
						</g>
					</g>
				</g>
			</g>
			<g>
				<path fill="#456997" d="M303.809,415.398l-17.002,1.665l-7.451-33.822l-8.1-36.786c0,0-62.569,7.593-72.619,7.593
					c-12.049,0-18.18-6.202-21.286-12.709s-3.431-13.998-1.299-20.88l3.786-12.161l62.305-8.726l0.918,11.616
					c19.672-5.42,35.27-9.072,43.816-6.89c5.116,1.319,10.831,42.521,14.191,76.253C302.469,394.6,303.454,407.359,303.809,415.398z
					"/>
				<path fill="#FFA07F" d="M303.809,415.398l-17.002,1.665l-7.451-33.822l21.712-2.689
					C302.469,394.6,303.454,407.359,303.809,415.398z"/>
				<path fill="#698BB1" d="M285.542,315.466c1.92,2.902,2.485,6.522,2.255,9.954c-0.193,2.887-1.284,6.145-3.99,7.013
					c-1.452,0.466-3.092,0.105-4.447-0.666c-1.355-0.771-2.467-1.918-3.494-3.104c-1.55-1.79-2.971-3.739-3.824-5.946
					s-1.097-4.708-0.298-6.888C274.166,309.22,282.055,310.194,285.542,315.466z"/>
			</g>
		</g>
		<g>
			<rect x="169.884" y="356.758" fill="#515D6C" width="93.048" height="9.475"/>
			<g>
				<polygon fill="#515D6C" points="160.885,439.509 170.359,439.509 190.674,356.758 181.2,356.758 				"/>
				<polygon fill="#515D6C" points="271.931,439.509 262.457,439.509 242.143,356.758 251.617,356.758 				"/>
			</g>
		</g>
		<path fill="#FFA07F" d="M504.238,257.027c0,0-9.319,0.338-10.665,0.761c-1.347,0.423-19.448,13.365-18.941,14.804
			c0.508,1.438,1.861,2.368,2.792,2.114s2.876-2.114,2.876-2.114s-0.169,1.944,1.945,2.156c2.115,0.212,4.061-2.156,4.061-2.156
			s1.49,1.106,3.124,1.269c1.635,0.161,7.195-1.945,7.195-1.945l7.613,0.084V257.027z"/>
		<polygon fill="#FFFFFF" points="504.238,254.399 515.543,254.399 512.224,273.353 504.238,273.353 		"/>
		<path fill="#456997" d="M577.239,203.735c0,0,4.314,3.468,4.821,7.528c0.508,4.061,10.32,63.223,7.613,68.831
			s-80.952-4.214-80.952-4.214l3.502-24.69l50.21,1.691l6.45-45.001L577.239,203.735z"/>
		<path fill="#254F79" d="M570.598,207.598c-5.267,4.917-6.617,12.009-7.262,18.896c-0.795,8.51-1.443,17.036-2.154,25.554
			c-0.033-0.006-0.062-0.02-0.099-0.02c-2.989,0.005-5.978,0.01-8.967,0.015c-0.653,0.002-0.654,1.017,0,1.016
			c2.614-0.005,5.23,0.057,7.844-0.062c0.479-0.021,1.396,0.099,1.823-0.114c0.516-0.258,0.404-0.707,0.452-1.287
			c0.11-1.315,0.221-2.629,0.331-3.944c0.441-5.258,0.883-10.516,1.325-15.773c0.07-0.841,0.142-1.683,0.212-2.524
			c0.632-7.512,1.375-15.589,7.212-21.039C571.794,207.87,571.075,207.153,570.598,207.598z"/>
		<path fill="#254F79" d="M575.461,280.58c-7.756,0.327-15.494-0.019-23.189-1.035c-0.646-0.085-0.64,0.931,0,1.015
			c7.695,1.018,15.434,1.362,23.189,1.035C576.111,281.567,576.115,280.552,575.461,280.58z"/>
		<g>
			<g>
				<g>
					<rect x="406.235" y="275.881" fill="#343C4B" width="102.486" height="8.427"/>
					<polygon fill="#414C5B" points="406.235,284.308 493.573,284.308 478.987,224.49 391.65,224.49 					"/>
					<path fill="#FFFFFF" d="M431.065,255.063c3.059,0,5.539-2.479,5.539-5.538c0-1.295-0.463-2.47-1.207-3.413
						c0.741-0.207,1.507-0.354,2.314-0.354c4.771,0,8.641,3.868,8.641,8.641c0,4.771-3.869,8.64-8.641,8.64
						c-4.673,0-8.455-3.717-8.611-8.352C429.713,254.922,430.371,255.063,431.065,255.063z"/>
				</g>
			</g>
		</g>
		<path fill="#254F79" d="M511.502,214.003c-0.729-2.222-1.762-4.293-3.113-6.202c-0.375-0.528-1.256-0.022-0.877,0.513
			c1.304,1.84,2.309,3.815,3.012,5.959C510.726,214.891,511.707,214.626,511.502,214.003z"/>
		<path fill="#254F79" d="M510.552,220.263c-1.172,10.868-2.529,21.714-4.074,32.535c-0.092,0.64,0.887,0.915,0.979,0.271
			c1.558-10.911,2.929-21.847,4.11-32.805C511.637,219.615,510.621,219.62,510.552,220.263z"/>
		<g>
			<g>
				<path fill="#FFFFFF" d="M481.401,162.985H414.84c-2.868,0-5.193-2.325-5.193-5.193v-45.473c0-2.868,2.325-5.193,5.193-5.193
					h66.562c2.869,0,5.194,2.325,5.194,5.193v45.473C486.596,160.66,484.271,162.985,481.401,162.985z"/>
				<polygon fill="#FFFFFF" points="486.596,150.409 501.722,167.919 467.046,162.746 				"/>
			</g>
			<g>
				<g>
					<g>
						<circle fill="#DFDEEE" cx="422.158" cy="119.883" r="5.042"/>
						<g>
							<polygon fill="#0CC3BE" points="422.188,122.726 418.908,119.726 420.194,118.32 422.129,120.089 426.772,115.446 
								428.12,116.793 							"/>
						</g>
					</g>
					<rect x="433.763" y="118.049" fill="#C1BED7" width="45.284" height="3.668"/>
				</g>
				<g>
					<g>
						<circle fill="#DFDEEE" cx="422.197" cy="135.055" r="5.042"/>
						<g>
							<polygon fill="#0CC3BE" points="422.227,137.898 418.947,134.897 420.233,133.492 422.168,135.262 426.812,130.618 
								428.159,131.965 							"/>
						</g>
					</g>
					<rect x="433.802" y="133.221" fill="#C1BED7" width="45.284" height="3.668"/>
				</g>
				<g>
					<g>
						<circle fill="#DFDEEE" cx="422.237" cy="150.228" r="5.042"/>
						<g>
							<polygon fill="#0CC3BE" points="422.266,153.07 418.986,150.07 420.273,148.664 422.208,150.434 426.852,145.79 
								428.198,147.138 							"/>
						</g>
					</g>
					<rect x="433.842" y="148.394" fill="#C1BED7" width="45.284" height="3.668"/>
				</g>
			</g>
		</g>
		<g>
			<g>
				<g>
					<path fill="#FFFFFF" d="M223.09,71.471c-6.447,0-11.674,5.227-11.674,11.674h23.348
						C234.764,76.698,229.538,71.471,223.09,71.471z"/>
					<circle fill="#FFFFFF" cx="223.09" cy="66.429" r="6.075"/>
				</g>
				<g>
					<path fill="#FFFFFF" d="M272.382,71.471c-6.447,0-11.674,5.227-11.674,11.674h23.348
						C284.056,76.698,278.829,71.471,272.382,71.471z"/>
					<circle fill="#FFFFFF" cx="272.382" cy="66.429" r="6.075"/>
				</g>
			</g>
			<g>
				<polygon fill="#FF7658" points="257.132,67.024 249.486,62.608 249.486,65.252 238.34,65.252 238.34,68.794 249.486,68.794 
					249.486,71.439 				"/>
				<polygon fill="#FF7658" points="238.34,76.475 245.986,80.89 245.986,78.246 257.132,78.246 257.132,74.704 245.986,74.704 
					245.986,72.06 				"/>
			</g>
		</g>
		<g>
			<g>
				<g>
					<path fill="#FCC700" d="M573.547,97.071l-1.156-3.424l-1.156,3.424c-1.489,4.408-4.582,8.095-8.665,10.328l0,0l0,0
						c4.083,2.233,7.176,5.92,8.665,10.328l1.156,3.424l1.156-3.424c1.489-4.408,4.582-8.095,8.665-10.328l0,0l0,0
						C578.129,105.167,575.036,101.479,573.547,97.071z"/>
				</g>
				<g>
					<path fill="#FCC700" d="M588.038,126.373l-0.802-2.375l-0.803,2.375c-1.032,3.058-3.178,5.615-6.01,7.164l0,0l0,0
						c2.832,1.549,4.978,4.106,6.01,7.164l0.803,2.375l0.802-2.375c1.033-3.058,3.179-5.615,6.01-7.164l0,0l0,0
						C591.217,131.988,589.071,129.431,588.038,126.373z"/>
				</g>
			</g>
		</g>
		<g>
			<g>
				<g>
					<path fill="#FCC700" d="M153.536,154.16l1.157-3.424l1.156,3.424c1.489,4.408,4.583,8.095,8.665,10.328l0,0l0,0
						c-4.082,2.233-7.175,5.919-8.665,10.328l-1.156,3.424l-1.157-3.424c-1.489-4.409-4.582-8.095-8.665-10.328l0,0l0,0
						C148.954,162.255,152.047,158.568,153.536,154.16z"/>
				</g>
				<g>
					<path fill="#FCC700" d="M139.045,183.462l0.802-2.375l0.802,2.375c1.033,3.058,3.178,5.615,6.01,7.164l0,0l0,0
						c-2.832,1.548-4.977,4.106-6.01,7.164l-0.802,2.375l-0.802-2.375c-1.033-3.058-3.178-5.615-6.01-7.164l0,0l0,0
						C135.867,189.077,138.012,186.52,139.045,183.462z"/>
				</g>
			</g>
		</g>
		<path fill="#FCC700" d="M248.473,206.497c0,0,5.945,2.073,6.339,4.604c0.395,2.532,8.12,39.075,8.12,39.075l21.205,13.701
			l-7.867,13.199l-34.621-8.459L248.473,206.497z"/>
		<path fill="#FCC700" d="M234.591,205.339l13.882,1.157c0,0,11.098,42.055,3.925,49.126s-13.331,12.993-13.331,12.993l3.075,30.956
			l-62.305,8.726c0,0,18.191-84.774,15.947-108.879l8.993,0.957l23.74,15.089L234.591,205.339z"/>
		<g>
			<path fill="#FFA07F" d="M239.899,215.429c-2.913,3.258-7.176,6.009-13.328,6.497c-13.562,1.056-19.966-15.704-21.793-21.55
				l5.512,0.751c0.649-0.304,1.604-2.72,2.538-5.552c1.482-4.477,2.883-9.999,2.883-9.999l12.13,5.644c0,0-1.726,4.547-2.538,8.202
				c-0.345,1.583-0.528,3.004-0.314,3.796c0,0,0,0.01,0.01,0.021c0.02,0.111,0.071,0.233,0.132,0.325
				c0.05,0.071,0.122,0.142,0.233,0.203c1.056,0.67,4.883,1.188,9.227,1.573C234.591,205.339,237.87,210.395,239.899,215.429z"/>
			<path fill="#FFFFFF" d="M240.153,224.818c-4.933,3.289-13.582-2.893-13.582-2.893s-2.497,6.76-11.48,3.644
				c-8.984-3.126-10.313-25.194-10.313-25.194l5.512,0.751c0,0,8.202,16.566,16.007,15.734c6.852-0.731,0.69-10.648-0.934-13.094
				c-0.193-0.294-0.325-0.478-0.365-0.528c-0.01-0.01-0.01-0.021-0.01-0.021l9.603,2.122c0,0,3.279,5.055,5.309,10.09
				C241.503,219.408,242.336,223.367,240.153,224.818z"/>
			<path fill="#FF7D6F" d="M212.826,195.571c3.49,1.365,8.945,2.911,12.48,3.847c0.809-3.646,2.538-8.202,2.538-8.202l-12.135-5.642
				C215.709,185.575,214.309,191.102,212.826,195.571z"/>
			<g>
				<path fill="#FFBF90" d="M226.738,140.875c0.483,0.019,18.024,4.916,20.677,11.15s5.618,28.767,0.362,39.199
					c-5.256,10.432-12.437,8.531-14.98,7.623c-2.544-0.909-14.405-6.706-16.98-10.841c-2.575-4.134-7.383-24.968-5.721-30.223
					C211.758,152.529,226.738,140.875,226.738,140.875z"/>
				<path fill="#FFA07F" d="M226.005,139.22c0.483,0.019,18.024,4.916,20.677,11.15s5.618,28.767,0.362,39.199
					c-5.256,10.432-12.437,8.531-14.98,7.623c-2.543-0.909-14.405-6.706-16.98-10.841c-2.575-4.134-7.383-24.968-5.721-30.223
					C211.024,150.874,226.005,139.22,226.005,139.22z"/>
				<g>
					<path fill="#FF7D6F" d="M236.067,178.719c-0.552-0.122-1.115-0.339-1.665-0.208c0.724,1.197,1.936,2.088,3.293,2.424
						c0.105,0.026,0.213,0.049,0.32,0.031c0.13-0.022,0.242-0.103,0.346-0.184c0.658-0.514,1.214-1.159,1.624-1.887
						c0.083-0.147,0.162-0.303,0.178-0.471c0.056-0.558-0.3-0.39-0.605-0.22c-0.353,0.196-0.732,0.347-1.122,0.452
						C237.667,178.864,236.847,178.891,236.067,178.719z"/>
					<path fill="#FC5B68" d="M237.77,180.609c0.29-0.338,0.627-0.637,0.927-0.97c0.37-0.41,0.707-0.849,0.99-1.324
						c-1.919-0.977-2.145-2.813-2.338-4.905c-0.087-0.943,0.051-1.904,0.397-2.786c0.182-0.463,0.421-0.904,0.709-1.309
						c0.146-0.206,0.306-0.403,0.477-0.59c0.167-0.182,0.349-0.295,0.563-0.418c-0.091,0.138-0.146,0.292-0.227,0.432
						c-0.211,0.366-0.438,0.711-0.61,1.101c-0.172,0.389-0.31,0.793-0.414,1.205c-0.208,0.825-0.28,1.686-0.197,2.533
						c0.081,0.831,0.314,1.65,0.72,2.381c0.463,0.834,1.191,1.627,2.062,2.034c0.008,0.003-1.014,1.559-1.117,1.688
						c-0.266,0.334-0.563,0.645-0.891,0.919c-0.321,0.269-0.689,0.587-1.121,0.627c-0.135,0.013-0.277,0.001-0.397-0.063
						c0.067-0.059,0.129-0.124,0.184-0.193c0.024-0.031,0.046-0.063,0.069-0.094C237.625,180.786,237.696,180.696,237.77,180.609z"
						/>
				</g>
				<path fill="#FFA07F" d="M215.296,176.859c-0.631-0.348-3.662-4.824-6.107-2.342s-3.302,6.761-1.268,9.302
					c1.857,2.319,4.481,4.856,7.895,4.187L215.296,176.859z"/>
				<path fill="#FF7D6F" d="M209.078,177.815c-0.165,0.569-0.105,1.171,0.046,1.747c0.645,2.447,2.824,4.393,4.914,6.201
					c-0.6-1.2-0.779-2.532-0.586-3.813c0.067-0.445,0.179-0.886,0.203-1.335C213.755,178.808,210.054,174.455,209.078,177.815z"/>
				<g>
					<path fill="#CF4A57" d="M215.095,186.5c0,0-0.041-0.027-0.12-0.08c-0.076-0.054-0.2-0.127-0.339-0.238
						c-0.281-0.22-0.667-0.569-1.022-1.077c-0.354-0.506-0.665-1.175-0.792-1.956c-0.11-0.777-0.039-1.674,0.39-2.521
						c0.047-0.108,0.109-0.209,0.172-0.31l0.047-0.075c0.011-0.019,0.004-0.007,0.006-0.009l0,0.002l0.002-0.001h0
						c0,0,0.002,0.004-0.005-0.013l-0.033-0.071l-0.067-0.141c-0.046-0.092-0.09-0.185-0.139-0.275
						c-0.188-0.363-0.395-0.705-0.607-1.024c-0.213-0.319-0.436-0.614-0.657-0.884c-0.223-0.268-0.438-0.521-0.654-0.71
						c-0.216-0.191-0.457-0.319-0.687-0.362c-0.23-0.039-0.451,0.007-0.602,0.078c-0.153,0.072-0.24,0.17-0.277,0.244
						c-0.04,0.074-0.04,0.121-0.044,0.12c0.004,0-0.009-0.044,0.012-0.128c0.019-0.083,0.085-0.208,0.239-0.318
						c0.153-0.107,0.389-0.204,0.695-0.198c0.306,0.011,0.631,0.135,0.917,0.326c0.289,0.191,0.545,0.426,0.815,0.683
						c0.267,0.259,0.537,0.549,0.794,0.87c0.256,0.321,0.503,0.673,0.724,1.052c0.056,0.094,0.108,0.191,0.161,0.289l0.077,0.148
						l0.101,0.209l0.069,0.147c-0.022,0.047-0.054,0.093-0.081,0.14l-0.12,0.199c-0.054,0.087-0.108,0.175-0.148,0.269
						c-0.373,0.735-0.484,1.517-0.454,2.225c0.046,0.709,0.24,1.347,0.489,1.856c0.25,0.51,0.544,0.895,0.767,1.15
						c0.11,0.128,0.212,0.218,0.273,0.285C215.062,186.466,215.095,186.5,215.095,186.5z"/>
				</g>
				<path fill="#FD7658" d="M248.71,163.2c0,0-3.066-2.654-5.081-2.576c-2.015,0.078-2.722,1.881-1.953,2.291
					C242.445,163.325,248.71,163.2,248.71,163.2z"/>
				<path fill="#FD7658" d="M220.208,164.715c0,0,4.852-3.802,7.995-4.217s4.204,1.469,2.994,2.13S220.208,164.715,220.208,164.715z
					"/>
				<g>
					<path fill="#343C4B" d="M222.807,166.771c0.301,0.821,1.352,1.479,2.089,1.854c0.389-0.43,0.858-0.681,1.362-0.672
						c1.285,0.023,2.296,1.715,2.258,3.779c-0.038,2.063-1.11,3.717-2.395,3.693s-2.296-1.715-2.258-3.779
						c0.012-0.639,0.123-1.238,0.309-1.761C223.207,169.005,222.807,166.771,222.807,166.771z"/>
					<path fill="#FFFFFF" d="M226.303,172.084c0,0-1.441,0.49-2.907,0.052c-1.465-0.439-2.4-1.64-2.4-1.64s1.441-0.49,2.907-0.051
						C225.368,170.883,226.303,172.084,226.303,172.084z"/>
				</g>
				<g>
					<path fill="#343C4B" d="M247.057,166.729c-0.229,0.679-1.074,1.241-1.669,1.563c-0.328-0.343-0.718-0.538-1.13-0.52
						c-1.051,0.048-1.841,1.455-1.765,3.143s0.991,3.018,2.042,2.97s1.841-1.455,1.765-3.143c-0.023-0.523-0.128-1.011-0.292-1.435
						C246.779,168.566,247.057,166.729,247.057,166.729z"/>
					<path fill="#FFFFFF" d="M244.313,171.155c0,0,1.191,0.369,2.38-0.022c1.19-0.392,1.929-1.396,1.929-1.396
						s-1.19-0.369-2.38,0.022S244.313,171.155,244.313,171.155z"/>
				</g>
				<g>
					
						<ellipse transform="matrix(0.9823 0.1872 -0.1872 0.9823 37.3537 -38.5892)" fill="#FF7D6F" cx="223.032" cy="178.518" rx="4.605" ry="1.743"/>
					
						<ellipse transform="matrix(0.9273 -0.3744 0.3744 0.9273 -48.3222 106)" fill="#FF7D6F" cx="248.676" cy="177.378" rx="3.979" ry="1.32"/>
				</g>
				<g>
					<path fill="#FC5B68" d="M243.061,185.928c0,0-8.33-5.05-16.937-1.513c0,0,3.177,7.139,7.576,7.418
						C239.039,192.172,243.061,185.928,243.061,185.928z"/>
					<path fill="#FFFFFF" d="M242.546,186.086c0,0-5.858-2.178-15.929-1.5c0,0,1.836,5.65,7.642,5.913
						C240.063,190.762,242.546,186.086,242.546,186.086z"/>
				</g>
			</g>
			<g>
				<path fill="#DE624C" d="M204.51,162.767c0.139,1.189,0.318,2.396,0.498,3.59c-0.001,0.014-0.001,0.014,0.011,0.029
					c1.002,6.468,1.877,12.685,1.877,12.685c0.458-2.202,2.865-4.448,2.865-4.448c2.571-1.04,5.709,2.44,5.709,2.44l-0.271-14.765
					c0,0,0.029-0.011,0.072-0.02c4.324-1.081,8.513-3.04,12.85-4.201c8.33-2.23,16.58-3.003,25.106-3.813
					c-0.111-4.79-2.24-9.501-5.763-12.748c-2.623-2.417-5.99-3.999-9.511-4.533c-3.106-0.472-6.205-1.43-9.375-1.43
					c-7.48,0-21.494,12.765-23.922,16.659c-0.052,0.092-0.105,0.198-0.16,0.318c-0.037,0.08-0.075,0.174-0.114,0.281
					C203.779,154.678,203.98,158.558,204.51,162.767z"/>
			</g>
			<g>
				<path fill="#FD7658" d="M264.566,228.727c-2.842-5.918-5.674-11.856-8.526-17.774c-1.898-3.969-3.827-8.06-4.132-12.445
					c-0.345-5.126,1.574-10.09,2.649-15.115c2.944-13.683-0.599-28.604-9.379-39.506c0.061,3.624-2.548,7.105-6.03,8.08
					c0.802-2.903-0.396-6.243-2.852-7.979c0.304,5.989-5.715,11.47-11.643,10.597c1.827-1.452,2.284-4.354,0.974-6.293
					c0.163,4.294-4.497,7.075-8.658,8.202c-4.152,1.116-8.953,1.888-11.338,5.471c-4.243,6.354,2.72,15.733-1.208,22.281
					c-3.198,5.339-11.166,4.933-16.14,8.659c-4.061,3.045-5.522,8.344-7.268,13.115c-1.259,3.451-3.126,7.085-5.938,9.237
					c1.888-3.197,3.999-6.293,4.75-9.897c1.147-5.471-0.812-11.958,2.801-16.21c1.401-1.655,3.391-2.599,5.4-3.512
					c2.284-1.045,4.599-2.041,6.121-3.979c3.42-4.345,1.045-10.577,0.548-16.079c-1.097-11.958,7.978-22.991,18.89-27.985
					c6.832-3.126,14.627-4.426,21.976-2.873c7.359,1.553,14.181,6.131,17.744,12.749c0.67,1.238,1.218,2.538,1.675,3.868
					c1.31,3.796,1.878,7.877,2.416,11.876c1.33,9.745,2.66,19.571,1.929,29.376c-0.477,6.324-1.797,12.709-0.66,18.952
					C259.754,217.449,263.013,223.022,264.566,228.727z"/>
				<path fill="#F88859" d="M254.983,151.337c-3.766-4.75-8.313-8.862-13.47-12.059l-0.579,5.725
					c-1.452-3.461-4.964-5.958-8.709-6.202c1.594,3.177-0.67,7.572-4.172,8.141c1.005-2.608-0.365-5.877-2.923-7.004
					c-0.375,6.618-7.451,11.998-13.937,10.597c1.766-2.091,3.522-4.192,5.278-6.283c-3.573,1.492-7.197,3.005-10.303,5.329
					c-3.096,2.325-5.674,5.583-6.374,9.39c-0.944,5.126,1.583,10.364,0.923,15.541c-0.771,6.091-6.608,11.014-12.688,11.125
					c2.284-1.045,4.599-2.041,6.121-3.979c3.42-4.345,1.045-10.577,0.548-16.079c-1.097-11.958,7.978-22.991,18.89-27.985
					c6.832-3.126,14.627-4.426,21.976-2.873c7.359,1.553,14.181,6.131,17.744,12.749
					C253.979,148.708,254.527,150.008,254.983,151.337z"/>
			</g>
		</g>
		<path fill="#FCC700" d="M195.785,199.418c0,0-8.757-1.52-11.125,4.317c-2.369,5.837-19.062,62.683-14.775,73.34
			s73.177-2.794,73.177-2.794l-1.688-21.452h-41.487L195.785,199.418z"/>
		<path fill="#FFA07F" d="M242.725,270.014l14.312-1.397l18.641,5.665l2.94-7.865c0,0-11.061-12.53-12.246-12.017
			c-1.184,0.513-9.336,1.936-9.336,1.936h-15.388L242.725,270.014z"/>
		<g>
			<g>
				<g>
					<rect x="256.31" y="275.881" fill="#DE624C" width="102.487" height="8.427"/>
					<polygon fill="#FD7658" points="358.796,284.308 271.458,284.308 286.044,224.49 373.381,224.49 					"/>
					<path fill="#FFFFFF" d="M333.966,255.063c-3.059,0-5.539-2.479-5.539-5.538c0-1.295,0.462-2.47,1.207-3.413
						c-0.741-0.207-1.507-0.354-2.314-0.354c-4.771,0-8.64,3.868-8.64,8.641c0,4.771,3.869,8.64,8.64,8.64
						c4.673,0,8.456-3.717,8.611-8.352C335.318,254.922,334.66,255.063,333.966,255.063z"/>
				</g>
			</g>
		</g>
		<path fill="#FDA859" d="M199.655,216.281c-1.184-5.271-5.467-9.344-10.802-10.231c-0.639-0.106-0.914,0.872-0.27,0.979
			c5.006,0.832,8.98,4.565,10.093,9.522C198.819,217.188,199.798,216.918,199.655,216.281z"/>
		<path fill="#FDA859" d="M235.399,253.08c-12.385,1.241-24.77,2.482-37.154,3.724c4.155-8.589,5.579-18.115,4.112-27.565
			c-0.1-0.644-1.078-0.37-0.979,0.27c1.47,9.475-0.076,19.087-4.421,27.632c-0.158,0.31,0.028,0.805,0.438,0.764
			c12.668-1.27,25.336-2.539,38.003-3.81C236.043,254.03,236.049,253.015,235.399,253.08z"/>
		<path fill="#FDA859" d="M235.024,275.314c-15.358,2.942-30.922,4.573-46.557,4.886c-0.652,0.013-0.654,1.028,0,1.015
			c15.724-0.314,31.38-1.963,46.827-4.922C235.935,276.17,235.663,275.191,235.024,275.314z"/>
		<path fill="#FDA859" d="M253.937,237.48c-0.891-6.816-2.314-13.543-4.197-20.153c-0.179-0.627-1.159-0.36-0.979,0.27
			c1.603,5.627,2.88,11.338,3.767,17.124c0.865,5.646,2.749,13.562-2.306,17.788c-0.501,0.419,0.22,1.134,0.718,0.718
			C255.603,249.328,254.637,242.844,253.937,237.48z"/>
		<g>
			<g>
				<path fill="#FFFFFF" d="M284.486,150.879h66.562c2.868,0,5.193-2.325,5.193-5.193v-45.472c0-2.868-2.325-5.193-5.193-5.193
					h-66.562c-2.868,0-5.193,2.325-5.193,5.193v45.472C279.292,148.554,281.618,150.879,284.486,150.879z"/>
				<polygon fill="#FFFFFF" points="279.292,138.304 264.166,155.814 298.842,150.64 				"/>
			</g>
			<g>
				<g>
					<g>
						<g>
							<g>
								
									<rect x="291.96" y="101.32" transform="matrix(9.933271e-004 -1 1 9.933271e-004 186.8263 410.4494)" fill="#FCC700" width="13.764" height="20.797"/>
							</g>
							<g>
								<path fill="#FDA859" d="M288.45,104.827l0,0.12l7.606,6.766l2.782,2.477l2.257-1.999l0.53-0.473l7.623-6.75v-0.12
									l-0.928-0.001l-7.223,6.402l-2.257,1.999l-2.253-2.003l-7.207-6.416L288.45,104.827z"/>
							</g>
							<g>
								<path fill="#FDA859" d="M288.437,118.456v0.134l20.797,0.021l0-0.131l-7.609-6.762l-0.529-0.47l-2.257,1.999l-2.253-2.003
									l-0.53,0.469L288.437,118.456z M289.368,118.577l7.216-6.388l2.253,2l2.257-1.999l7.207,6.405L289.368,118.577z"/>
							</g>
						</g>
						<g>
							<circle fill="#DFDEEE" cx="308.774" cy="116.285" r="5.042"/>
							<g>
								<polygon fill="#0CC3BE" points="308.803,119.128 305.523,116.128 306.81,114.722 308.745,116.492 313.388,111.849 
									314.735,113.196 								"/>
							</g>
						</g>
					</g>
					<g>
						<rect x="321.948" y="104.827" fill="#C1BED7" width="26.772" height="2.299"/>
						<rect x="321.948" y="110.569" fill="#C1BED7" width="26.772" height="2.299"/>
						<rect x="321.948" y="116.312" fill="#C1BED7" width="26.772" height="2.299"/>
					</g>
				</g>
				<g>
					<rect x="288.437" y="126.657" fill="#414C5B" width="60.284" height="2.299"/>
					<rect x="288.437" y="132.915" fill="#414C5B" width="34.59" height="2.299"/>
					<rect x="288.437" y="139.171" fill="#414C5B" width="52.417" height="2.299"/>
				</g>
			</g>
		</g>
		<g>
			<circle fill="#FFFFFF" cx="293.511" cy="179.488" r="4.515"/>
			<circle fill="#FFFFFF" cx="309.002" cy="194.794" r="4.515"/>
			<circle fill="#FFFFFF" cx="324.7" cy="182.755" r="3.851"/>
			<circle fill="#FF7658" cx="311.889" cy="172.795" r="3.194"/>
		</g>
	</g>
</g>
<g id="DESIGNED_BY_FREEPIK">
</g>
</svg>
