<?xml version="1.0" encoding="utf-8"?>
<!-- Generator: Adobe Illustrator 16.0.0, SVG Export Plug-In . SVG Version: 6.00 Build 0)  -->
<!DOCTYPE svg PUBLIC "-//W3C//DTD SVG 1.1//EN" "http://www.w3.org/Graphics/SVG/1.1/DTD/svg11.dtd">
<svg version="1.1" xmlns="http://www.w3.org/2000/svg" xmlns:xlink="http://www.w3.org/1999/xlink" x="0px" y="0px" width="500px"
	 height="500px" viewBox="0 0 500 500" enable-background="new 0 0 500 500" xml:space="preserve">
<g id="BACKGROUND">
</g>
<g id="OBJECTS">
	<g>
		<circle fill="#ECEFF1" cx="250" cy="249.984" r="126.061"/>
		
			<circle fill="none" stroke="#78909C" stroke-width="1.5" stroke-linecap="round" stroke-linejoin="round" stroke-miterlimit="10" cx="250" cy="249.984" r="165.288"/>
		<g>
			<g>
				
					<line fill="none" stroke="#78909C" stroke-width="2" stroke-linecap="round" stroke-linejoin="round" x1="158.74" y1="412.461" x2="158.74" y2="412.461"/>
				
					<path fill="none" stroke="#78909C" stroke-width="2" stroke-linecap="round" stroke-linejoin="round" stroke-dasharray="0,6.0257" d="
					M164.037,415.33c20.115,10.477,42.382,17.392,65.963,19.909"/>
				
					<line fill="none" stroke="#78909C" stroke-width="2" stroke-linecap="round" stroke-linejoin="round" x1="232.998" y1="435.534" x2="232.998" y2="435.534"/>
				
					<line fill="none" stroke="#78909C" stroke-width="2" stroke-linecap="round" stroke-linejoin="round" stroke-dasharray="0,6.2021" x1="232.998" y1="429.332" x2="232.998" y2="358.009"/>
				
					<line fill="none" stroke="#78909C" stroke-width="2" stroke-linecap="round" stroke-linejoin="round" x1="232.998" y1="354.907" x2="232.998" y2="354.907"/>
			</g>
		</g>
		<g>
			<g>
				
					<line fill="none" stroke="#78909C" stroke-width="2" stroke-linecap="round" stroke-linejoin="round" x1="267.002" y1="354.907" x2="267.002" y2="354.907"/>
				
					<line fill="none" stroke="#78909C" stroke-width="2" stroke-linecap="round" stroke-linejoin="round" stroke-dasharray="0,6.2021" x1="267.002" y1="361.109" x2="267.002" y2="432.434"/>
				
					<line fill="none" stroke="#78909C" stroke-width="2" stroke-linecap="round" stroke-linejoin="round" x1="267.002" y1="435.534" x2="267.002" y2="435.534"/>
				
					<path fill="none" stroke="#78909C" stroke-width="2" stroke-linecap="round" stroke-linejoin="round" stroke-dasharray="0,6.0071" d="
					M272.976,434.897c92.065-11.322,163.355-89.786,163.355-184.914c0-102.908-83.424-186.331-186.331-186.331
					c-102.908,0-186.331,83.423-186.331,186.331c0,59.656,28.037,112.758,71.652,146.859"/>
				
					<line fill="none" stroke="#78909C" stroke-width="2" stroke-linecap="round" stroke-linejoin="round" x1="137.701" y1="398.673" x2="137.701" y2="398.673"/>
			</g>
		</g>
		<circle fill="#26C6DA" cx="355.492" cy="400.737" r="31"/>
		<path fill="#FFFFFF" d="M355.492,381.886c-7.553,0-13.676,6.124-13.676,13.677c0,7.554,13.676,23.847,13.676,23.847
			s13.677-16.293,13.677-23.847C369.169,388.01,363.046,381.886,355.492,381.886z M355.492,400.605
			c-3.233,0-5.855-2.622-5.855-5.855c0-3.234,2.622-5.855,5.855-5.855c3.234,0,5.855,2.621,5.855,5.855
			C361.348,397.983,358.727,400.605,355.492,400.605z"/>
		<g>
			
				<circle fill="#FFFFFF" stroke="#78909C" stroke-width="2" stroke-linecap="round" stroke-linejoin="round" stroke-miterlimit="10" cx="62.337" cy="202.528" r="22.5"/>
			<g>
				<text transform="matrix(1 0 0 1 54.2866 213.8579)" fill="#49828D" font-family="'Antonio-Regular'" font-size="31.3825">$</text>
			</g>
		</g>
		<g>
			<g>
				<g>
					<path fill="#26C6DA" d="M146.381,421.736c-6.816,0-12.361-5.545-12.361-12.361s5.545-12.361,12.361-12.361
						c6.817,0,12.362,5.545,12.362,12.361S153.198,421.736,146.381,421.736z M146.381,399.926c-5.21,0-9.449,4.239-9.449,9.449
						c0,5.211,4.239,9.45,9.449,9.45c5.211,0,9.45-4.239,9.45-9.45C155.831,404.165,151.592,399.926,146.381,399.926z"/>
				</g>
				<path fill="#26C6DA" d="M164.931,412.569c-1.134-0.597-2.285-1.082-2.669-1.24c0.013-0.08,0.024-0.163,0.038-0.239
					c0.071-1.027,0.098-1.715,0.098-1.715s-0.027-0.688-0.098-1.715c-0.014-0.076-0.025-0.158-0.038-0.238
					c0.384-0.158,1.535-0.644,2.669-1.241c0.691-0.359,1.392-0.755,1.887-1.062c0.495-0.315,0.825-0.525,0.825-0.525
					s-0.083-0.326-0.208-0.815c-0.065-0.244-0.142-0.528-0.223-0.833c-0.107-0.297-0.221-0.613-0.335-0.931
					c-0.117-0.315-0.234-0.631-0.344-0.927c-0.119-0.292-0.255-0.553-0.361-0.782c-0.22-0.454-0.366-0.757-0.366-0.757
					s-1.556,0.171-3.096,0.525c-1.25,0.271-2.442,0.638-2.84,0.764c-0.041-0.066-0.086-0.144-0.126-0.207
					c-0.299-0.419-0.563-0.758-0.741-1c-0.09-0.12-0.161-0.215-0.209-0.279c-0.054-0.06-0.083-0.091-0.083-0.091
					s-0.116-0.127-0.318-0.349c-0.101-0.111-0.224-0.247-0.364-0.401c-0.137-0.159-0.299-0.331-0.496-0.497
					c-0.059-0.051-0.12-0.108-0.18-0.163c0.188-0.357,0.76-1.474,1.254-2.677c0.309-0.732,0.56-1.448,0.749-2.01
					c0.179-0.562,0.298-0.937,0.298-0.937s-0.27-0.2-0.674-0.501c-0.397-0.311-0.991-0.633-1.56-0.988
					c-0.564-0.367-1.19-0.625-1.64-0.853c-0.457-0.216-0.761-0.358-0.761-0.358s-1.1,1.17-2.043,2.406
					c-0.477,0.615-0.921,1.243-1.24,1.718c-0.21,0.312-0.362,0.551-0.446,0.686c-0.077-0.023-0.155-0.049-0.23-0.067
					c-0.499-0.128-0.914-0.235-1.205-0.311c-0.297-0.046-0.466-0.072-0.466-0.072s-0.169-0.026-0.467-0.071
					c-0.296-0.048-0.72-0.123-1.236-0.129c-0.078-0.005-0.161-0.01-0.243-0.014c-0.09-0.412-0.37-1.637-0.761-2.864
					c-0.462-1.468-1.092-2.921-1.092-2.921s-0.334,0.019-0.836,0.046c-0.502,0.022-1.166,0.152-1.831,0.247
					c-0.668,0.081-1.314,0.283-1.805,0.4c-0.488,0.129-0.813,0.215-0.813,0.215s-0.024,0.396-0.038,0.992
					c-0.014,0.597-0.013,1.385,0.02,2.163c0.046,1.283,0.2,2.524,0.253,2.926c-0.074,0.031-0.151,0.062-0.221,0.094
					c-0.464,0.224-0.851,0.41-1.121,0.54c-0.261,0.147-0.405,0.241-0.405,0.241s-0.147,0.09-0.403,0.246
					c-0.129,0.077-0.285,0.172-0.464,0.28c-0.177,0.112-0.358,0.264-0.567,0.415c-0.061,0.045-0.132,0.099-0.196,0.146
					c-0.128-0.098-0.352-0.267-0.651-0.493c-0.465-0.341-1.116-0.801-1.768-1.208c-1.299-0.826-2.721-1.539-2.721-1.539
					s-0.246,0.229-0.615,0.57c-0.339,0.372-0.791,0.869-1.243,1.365c-0.43,0.515-0.818,1.065-1.121,1.467
					c-0.151,0.202-0.275,0.371-0.348,0.499c-0.077,0.125-0.122,0.196-0.122,0.196s0.954,1.282,1.999,2.422
					c0.848,0.951,1.787,1.816,2.086,2.087c-0.034,0.07-0.079,0.146-0.109,0.214c-0.219,0.466-0.426,0.844-0.511,1.133
					c-0.103,0.282-0.162,0.443-0.162,0.443s-0.059,0.161-0.163,0.443c-0.123,0.275-0.197,0.701-0.335,1.197
					c-0.021,0.074-0.04,0.155-0.059,0.234c-0.421,0.016-1.69,0.076-2.933,0.258c-1.533,0.202-3.087,0.571-3.087,0.571
					s-0.012,0.083-0.033,0.229c-0.026,0.146-0.047,0.354-0.057,0.605c-0.024,0.502-0.057,1.172-0.09,1.841
					c0.033,0.67,0.065,1.34,0.09,1.842c0.01,0.251,0.031,0.459,0.057,0.604c0.021,0.146,0.033,0.229,0.033,0.229
					s1.554,0.369,3.087,0.571c1.243,0.182,2.511,0.242,2.933,0.258c0.02,0.079,0.038,0.16,0.059,0.234
					c0.138,0.495,0.212,0.921,0.335,1.197c0.104,0.281,0.163,0.442,0.163,0.442s0.059,0.161,0.162,0.443
					c0.085,0.29,0.292,0.668,0.511,1.133c0.031,0.068,0.075,0.145,0.109,0.214c-0.299,0.271-1.238,1.136-2.086,2.087
					c-1.045,1.141-1.999,2.422-1.999,2.422s0.044,0.072,0.122,0.197c0.073,0.128,0.197,0.297,0.348,0.499
					c0.303,0.401,0.691,0.952,1.121,1.467c0.452,0.496,0.904,0.992,1.243,1.364c0.369,0.343,0.615,0.57,0.615,0.57
					s1.422-0.713,2.721-1.539c0.651-0.407,1.303-0.867,1.768-1.207c0.3-0.228,0.523-0.396,0.651-0.493
					c0.063,0.048,0.135,0.101,0.196,0.146c0.208,0.151,0.39,0.303,0.567,0.415c0.179,0.108,0.335,0.202,0.464,0.28
					c0.256,0.156,0.403,0.245,0.403,0.245s0.144,0.094,0.405,0.242c0.271,0.13,0.657,0.315,1.121,0.539
					c0.07,0.033,0.146,0.063,0.221,0.095c-0.053,0.401-0.207,1.642-0.253,2.925c-0.033,0.778-0.034,1.567-0.02,2.163
					c0.014,0.597,0.038,0.993,0.038,0.993s0.325,0.086,0.813,0.215c0.491,0.117,1.137,0.319,1.805,0.4
					c0.665,0.094,1.328,0.225,1.831,0.247c0.502,0.027,0.836,0.045,0.836,0.045s0.629-1.452,1.092-2.921
					c0.391-1.228,0.67-2.452,0.761-2.863c0.082-0.005,0.165-0.01,0.243-0.014c0.517-0.007,0.94-0.081,1.236-0.129
					c0.297-0.046,0.467-0.071,0.467-0.071s0.169-0.026,0.466-0.073c0.291-0.074,0.706-0.182,1.205-0.311
					c0.075-0.018,0.153-0.043,0.23-0.066c0.084,0.135,0.236,0.374,0.446,0.685c0.319,0.476,0.764,1.103,1.24,1.719
					c0.944,1.236,2.043,2.406,2.043,2.406s0.304-0.144,0.761-0.358c0.45-0.229,1.075-0.486,1.64-0.853
					c0.569-0.356,1.163-0.679,1.56-0.989c0.404-0.301,0.674-0.501,0.674-0.501s-0.12-0.374-0.298-0.936
					c-0.189-0.563-0.44-1.277-0.749-2.011c-0.494-1.203-1.066-2.318-1.254-2.676c0.06-0.056,0.121-0.112,0.18-0.163
					c0.197-0.167,0.359-0.338,0.496-0.497c0.141-0.155,0.263-0.29,0.364-0.401c0.203-0.222,0.318-0.349,0.318-0.349
					s0.029-0.032,0.083-0.092c0.048-0.064,0.119-0.158,0.209-0.278c0.177-0.243,0.442-0.581,0.741-1.001
					c0.04-0.063,0.085-0.14,0.126-0.207c0.397,0.127,1.589,0.493,2.84,0.764c1.54,0.355,3.096,0.526,3.096,0.526
					s0.146-0.303,0.366-0.757c0.105-0.229,0.242-0.491,0.361-0.783c0.11-0.295,0.227-0.611,0.344-0.927
					c0.114-0.316,0.228-0.633,0.335-0.931c0.081-0.305,0.157-0.589,0.223-0.832c0.125-0.49,0.208-0.816,0.208-0.816
					s-0.33-0.21-0.825-0.524C166.323,413.325,165.622,412.93,164.931,412.569z M158.657,410.695
					c-0.08,0.387-0.106,0.851-0.227,1.328c-0.131,0.475-0.23,0.993-0.44,1.478c-0.325,1.003-0.882,1.906-1.291,2.58
					c-0.236,0.317-0.433,0.581-0.571,0.767c-0.068,0.093-0.122,0.166-0.159,0.216c-0.042,0.046-0.065,0.069-0.065,0.069
					s-0.089,0.097-0.247,0.267c-0.078,0.086-0.171,0.189-0.279,0.31c-0.103,0.123-0.227,0.256-0.381,0.382
					c-0.303,0.255-0.614,0.603-1.029,0.875c-0.201,0.145-0.398,0.308-0.611,0.455c-0.222,0.134-0.448,0.27-0.673,0.405
					c-0.217,0.151-0.458,0.26-0.693,0.367c-0.235,0.108-0.459,0.23-0.685,0.33c-0.47,0.147-0.886,0.352-1.271,0.438
					c-0.383,0.094-0.699,0.179-0.921,0.24c-0.228,0.033-0.358,0.053-0.358,0.053s-0.13,0.02-0.358,0.054
					c-0.227,0.038-0.551,0.101-0.95,0.1c-0.396,0.02-0.859,0.063-1.354,0.011c-0.247-0.019-0.505-0.012-0.763-0.042
					c-0.256-0.041-0.516-0.081-0.776-0.122c-0.264-0.024-0.518-0.092-0.767-0.163c-0.25-0.063-0.498-0.125-0.736-0.185
					c-0.455-0.188-0.901-0.31-1.256-0.481c-0.353-0.176-0.65-0.315-0.859-0.412c-0.2-0.114-0.31-0.188-0.31-0.188
					s-0.112-0.068-0.309-0.188c-0.099-0.06-0.219-0.131-0.357-0.212c-0.136-0.085-0.273-0.206-0.433-0.322
					c-0.16-0.117-0.332-0.244-0.515-0.379c-0.173-0.146-0.342-0.316-0.528-0.479c-0.389-0.311-0.712-0.732-1.079-1.112
					c-0.655-0.825-1.25-1.703-1.571-2.426c-0.165-0.357-0.333-0.643-0.392-0.867c-0.078-0.216-0.123-0.339-0.123-0.339
					s-0.046-0.123-0.126-0.339c-0.102-0.209-0.146-0.538-0.255-0.916c-0.22-0.759-0.317-1.813-0.362-2.871
					c0.045-1.058,0.143-2.111,0.362-2.87c0.109-0.378,0.153-0.708,0.255-0.917c0.08-0.215,0.126-0.338,0.126-0.338
					s0.044-0.124,0.123-0.34c0.059-0.224,0.227-0.51,0.392-0.867c0.321-0.723,0.916-1.6,1.571-2.426
					c0.367-0.379,0.69-0.801,1.079-1.111c0.186-0.164,0.355-0.333,0.528-0.479c0.183-0.135,0.355-0.262,0.515-0.379
					c0.16-0.116,0.297-0.237,0.433-0.322c0.138-0.082,0.258-0.153,0.357-0.212c0.197-0.12,0.309-0.189,0.309-0.189
					s0.11-0.073,0.31-0.188c0.209-0.097,0.506-0.235,0.859-0.412c0.355-0.171,0.801-0.293,1.256-0.48
					c0.239-0.061,0.486-0.122,0.736-0.186c0.249-0.071,0.503-0.139,0.767-0.162c0.26-0.041,0.52-0.082,0.776-0.122
					c0.258-0.03,0.516-0.024,0.763-0.042c0.495-0.053,0.958-0.009,1.354,0.011c0.399-0.001,0.723,0.062,0.95,0.1
					c0.228,0.034,0.358,0.054,0.358,0.054s0.13,0.019,0.358,0.052c0.222,0.062,0.539,0.147,0.921,0.24
					c0.385,0.088,0.802,0.292,1.271,0.439c0.226,0.099,0.45,0.221,0.685,0.329c0.235,0.108,0.476,0.217,0.693,0.367
					c0.226,0.137,0.452,0.272,0.673,0.405c0.213,0.148,0.411,0.312,0.611,0.456c0.415,0.272,0.727,0.62,1.029,0.875
					c0.154,0.125,0.278,0.258,0.381,0.382c0.108,0.119,0.202,0.224,0.279,0.31c0.157,0.169,0.247,0.266,0.247,0.266
					s0.023,0.024,0.065,0.069c0.037,0.05,0.09,0.123,0.159,0.217c0.138,0.185,0.334,0.449,0.571,0.767
					c0.409,0.674,0.966,1.577,1.291,2.58c0.21,0.484,0.309,1.002,0.44,1.477c0.121,0.478,0.147,0.941,0.227,1.328
					c0.046,0.793,0.076,1.32,0.076,1.32S158.703,409.903,158.657,410.695z"/>
			</g>
			<g>
				<g>
					<path fill="#49828D" d="M179.962,385.97c-4.507,0-8.173-3.667-8.173-8.174s3.667-8.173,8.173-8.173
						c4.507,0,8.174,3.666,8.174,8.173S184.469,385.97,179.962,385.97z M179.962,371.548c-3.445,0-6.248,2.803-6.248,6.248
						s2.803,6.249,6.248,6.249s6.249-2.804,6.249-6.249S183.407,371.548,179.962,371.548z"/>
				</g>
				<path fill="#49828D" d="M192.227,379.908c-0.75-0.395-1.511-0.716-1.765-0.82c0.008-0.053,0.016-0.107,0.025-0.157
					c0.047-0.68,0.064-1.134,0.064-1.134s-0.018-0.455-0.064-1.135c-0.009-0.05-0.017-0.104-0.025-0.157
					c0.254-0.104,1.015-0.426,1.765-0.82c0.457-0.238,0.92-0.5,1.248-0.702c0.327-0.209,0.545-0.348,0.545-0.348
					s-0.055-0.216-0.138-0.539c-0.043-0.161-0.093-0.35-0.147-0.551c-0.071-0.196-0.146-0.406-0.221-0.615
					c-0.078-0.209-0.155-0.417-0.228-0.613c-0.079-0.192-0.169-0.365-0.239-0.517c-0.145-0.301-0.242-0.501-0.242-0.501
					s-1.029,0.113-2.047,0.348c-0.827,0.18-1.615,0.422-1.878,0.505c-0.027-0.044-0.057-0.095-0.083-0.137
					c-0.198-0.277-0.373-0.501-0.49-0.661c-0.06-0.08-0.107-0.143-0.139-0.185c-0.036-0.039-0.055-0.061-0.055-0.061
					s-0.076-0.084-0.21-0.23c-0.066-0.073-0.148-0.163-0.241-0.266c-0.09-0.105-0.198-0.218-0.328-0.328
					c-0.039-0.034-0.079-0.071-0.119-0.108c0.124-0.236,0.503-0.974,0.829-1.77c0.205-0.484,0.371-0.957,0.496-1.329
					c0.118-0.371,0.197-0.619,0.197-0.619s-0.178-0.132-0.445-0.331c-0.263-0.205-0.655-0.418-1.032-0.653
					c-0.373-0.243-0.787-0.413-1.084-0.564c-0.302-0.142-0.503-0.236-0.503-0.236s-0.728,0.773-1.352,1.591
					c-0.315,0.407-0.609,0.822-0.82,1.137c-0.139,0.205-0.239,0.363-0.295,0.452c-0.051-0.015-0.103-0.032-0.152-0.044
					c-0.33-0.085-0.604-0.156-0.796-0.205c-0.196-0.031-0.309-0.049-0.309-0.049s-0.112-0.017-0.309-0.047
					c-0.196-0.031-0.476-0.081-0.817-0.085c-0.052-0.003-0.106-0.006-0.161-0.009c-0.06-0.272-0.245-1.082-0.503-1.894
					c-0.306-0.971-0.722-1.932-0.722-1.932s-0.222,0.012-0.553,0.03c-0.332,0.015-0.771,0.101-1.21,0.163
					c-0.442,0.054-0.869,0.188-1.194,0.265c-0.323,0.085-0.538,0.142-0.538,0.142s-0.016,0.263-0.025,0.657
					c-0.009,0.394-0.009,0.915,0.013,1.43c0.031,0.849,0.132,1.669,0.167,1.935c-0.049,0.021-0.1,0.041-0.146,0.063
					c-0.307,0.147-0.563,0.271-0.741,0.356c-0.173,0.098-0.268,0.16-0.268,0.16s-0.097,0.059-0.267,0.162
					c-0.085,0.051-0.188,0.113-0.307,0.186c-0.117,0.074-0.237,0.174-0.375,0.274c-0.04,0.029-0.087,0.065-0.129,0.097
					c-0.084-0.064-0.232-0.176-0.431-0.326c-0.307-0.225-0.738-0.529-1.168-0.799c-0.859-0.546-1.799-1.018-1.799-1.018
					s-0.163,0.151-0.407,0.377c-0.224,0.246-0.523,0.574-0.822,0.903c-0.285,0.34-0.541,0.704-0.741,0.97
					c-0.1,0.133-0.182,0.245-0.23,0.33c-0.051,0.082-0.08,0.13-0.08,0.13s0.631,0.848,1.322,1.602
					c0.561,0.629,1.182,1.2,1.379,1.379c-0.023,0.047-0.052,0.097-0.073,0.142c-0.145,0.309-0.281,0.559-0.338,0.75
					c-0.068,0.186-0.107,0.293-0.107,0.293s-0.039,0.106-0.107,0.293c-0.082,0.182-0.13,0.463-0.222,0.791
					c-0.014,0.049-0.026,0.103-0.039,0.154c-0.278,0.011-1.117,0.051-1.939,0.172c-1.014,0.133-2.042,0.377-2.042,0.377
					s-0.008,0.056-0.022,0.151c-0.017,0.097-0.031,0.234-0.038,0.4c-0.016,0.332-0.038,0.774-0.059,1.218
					c0.021,0.442,0.043,0.885,0.059,1.217c0.006,0.166,0.021,0.305,0.038,0.4c0.014,0.096,0.022,0.151,0.022,0.151
					s1.028,0.244,2.042,0.378c0.822,0.12,1.661,0.16,1.939,0.17c0.013,0.053,0.025,0.106,0.039,0.155
					c0.091,0.328,0.14,0.609,0.222,0.792c0.068,0.186,0.107,0.293,0.107,0.293s0.039,0.106,0.107,0.293
					c0.057,0.191,0.193,0.44,0.338,0.749c0.021,0.045,0.05,0.095,0.073,0.142c-0.198,0.179-0.819,0.75-1.379,1.379
					c-0.691,0.754-1.322,1.602-1.322,1.602s0.029,0.048,0.08,0.13c0.048,0.085,0.13,0.197,0.23,0.33
					c0.201,0.266,0.457,0.63,0.741,0.97c0.299,0.328,0.598,0.657,0.822,0.903c0.244,0.226,0.407,0.377,0.407,0.377
					s0.94-0.472,1.799-1.018c0.43-0.27,0.861-0.574,1.168-0.799c0.198-0.15,0.346-0.262,0.431-0.326
					c0.042,0.031,0.089,0.067,0.129,0.097c0.138,0.101,0.258,0.201,0.375,0.274c0.118,0.072,0.222,0.135,0.307,0.186
					c0.169,0.104,0.267,0.162,0.267,0.162s0.095,0.063,0.268,0.16c0.179,0.086,0.435,0.209,0.741,0.356
					c0.046,0.021,0.097,0.042,0.146,0.063c-0.035,0.266-0.136,1.086-0.167,1.935c-0.022,0.515-0.022,1.036-0.013,1.43
					c0.009,0.396,0.025,0.657,0.025,0.657s0.215,0.057,0.538,0.142c0.325,0.077,0.752,0.211,1.194,0.265
					c0.439,0.063,0.878,0.148,1.21,0.163c0.332,0.019,0.553,0.03,0.553,0.03s0.416-0.961,0.722-1.932
					c0.258-0.812,0.443-1.621,0.503-1.893c0.054-0.004,0.109-0.007,0.161-0.01c0.342-0.004,0.621-0.054,0.817-0.085
					c0.196-0.03,0.309-0.047,0.309-0.047s0.112-0.018,0.309-0.049c0.192-0.049,0.467-0.12,0.796-0.205
					c0.049-0.012,0.101-0.028,0.152-0.044c0.056,0.089,0.156,0.247,0.295,0.453c0.211,0.313,0.505,0.729,0.82,1.136
					c0.624,0.817,1.352,1.591,1.352,1.591s0.201-0.095,0.503-0.236c0.297-0.151,0.711-0.321,1.084-0.564
					c0.376-0.235,0.769-0.448,1.032-0.653c0.267-0.199,0.445-0.331,0.445-0.331s-0.079-0.248-0.197-0.619
					c-0.125-0.371-0.291-0.845-0.496-1.329c-0.326-0.796-0.705-1.533-0.829-1.77c0.04-0.037,0.08-0.074,0.119-0.108
					c0.13-0.109,0.238-0.223,0.328-0.328c0.093-0.103,0.174-0.191,0.241-0.266c0.134-0.146,0.21-0.23,0.21-0.23
					s0.02-0.021,0.055-0.061c0.032-0.042,0.079-0.104,0.139-0.185c0.117-0.16,0.292-0.384,0.49-0.661
					c0.026-0.042,0.056-0.093,0.083-0.137c0.263,0.083,1.051,0.325,1.878,0.505c1.018,0.234,2.047,0.348,2.047,0.348
					s0.097-0.2,0.242-0.501c0.07-0.151,0.16-0.324,0.239-0.517c0.073-0.196,0.15-0.404,0.228-0.613
					c0.075-0.209,0.15-0.419,0.221-0.615c0.054-0.201,0.104-0.39,0.147-0.551c0.083-0.323,0.138-0.539,0.138-0.539
					s-0.218-0.139-0.545-0.347C193.147,380.408,192.684,380.146,192.227,379.908z M188.079,378.669
					c-0.053,0.256-0.07,0.563-0.15,0.879c-0.087,0.313-0.152,0.656-0.291,0.977c-0.215,0.663-0.583,1.261-0.854,1.706
					c-0.156,0.21-0.286,0.385-0.377,0.507c-0.045,0.062-0.081,0.11-0.104,0.143c-0.028,0.03-0.043,0.046-0.043,0.046
					s-0.06,0.064-0.163,0.176c-0.051,0.057-0.114,0.126-0.185,0.205c-0.068,0.082-0.15,0.17-0.252,0.252
					c-0.2,0.169-0.406,0.398-0.68,0.579c-0.133,0.096-0.263,0.203-0.404,0.301c-0.147,0.089-0.296,0.179-0.445,0.269
					c-0.144,0.1-0.303,0.171-0.458,0.242c-0.155,0.072-0.304,0.153-0.453,0.218c-0.311,0.099-0.586,0.233-0.841,0.291
					c-0.253,0.062-0.462,0.118-0.609,0.159c-0.15,0.021-0.236,0.034-0.236,0.034s-0.086,0.013-0.237,0.035
					c-0.15,0.025-0.364,0.066-0.628,0.065c-0.262,0.014-0.568,0.043-0.896,0.008c-0.163-0.012-0.334-0.008-0.504-0.028
					c-0.169-0.026-0.341-0.054-0.513-0.08c-0.174-0.016-0.342-0.061-0.506-0.107c-0.166-0.042-0.329-0.083-0.487-0.122
					c-0.301-0.125-0.596-0.205-0.831-0.318c-0.233-0.116-0.43-0.209-0.568-0.272c-0.132-0.076-0.205-0.124-0.205-0.124
					s-0.074-0.046-0.204-0.125c-0.066-0.039-0.146-0.086-0.237-0.141c-0.09-0.056-0.181-0.136-0.286-0.213s-0.22-0.161-0.34-0.25
					c-0.114-0.097-0.227-0.209-0.349-0.317c-0.257-0.205-0.471-0.484-0.713-0.735c-0.433-0.546-0.827-1.126-1.039-1.604
					c-0.109-0.236-0.22-0.426-0.259-0.573c-0.052-0.144-0.081-0.225-0.081-0.225s-0.03-0.082-0.083-0.224
					c-0.067-0.139-0.096-0.356-0.168-0.606c-0.146-0.502-0.21-1.198-0.239-1.897c0.029-0.7,0.094-1.396,0.239-1.898
					c0.072-0.25,0.102-0.468,0.168-0.606c0.053-0.142,0.083-0.224,0.083-0.224s0.029-0.081,0.081-0.225
					c0.039-0.147,0.15-0.337,0.259-0.573c0.212-0.478,0.605-1.058,1.039-1.604c0.243-0.251,0.457-0.53,0.713-0.735
					c0.123-0.108,0.235-0.221,0.349-0.317c0.121-0.089,0.235-0.173,0.34-0.25s0.196-0.157,0.286-0.213
					c0.091-0.055,0.171-0.102,0.237-0.141c0.13-0.079,0.204-0.125,0.204-0.125s0.072-0.048,0.205-0.124
					c0.138-0.063,0.335-0.155,0.568-0.272c0.235-0.113,0.53-0.193,0.831-0.318c0.158-0.039,0.321-0.08,0.487-0.122
					c0.164-0.047,0.332-0.092,0.506-0.107c0.172-0.026,0.344-0.054,0.513-0.08c0.17-0.021,0.341-0.017,0.504-0.028
					c0.328-0.035,0.633-0.006,0.896,0.008c0.264-0.001,0.478,0.04,0.628,0.065c0.15,0.022,0.237,0.035,0.237,0.035
					s0.086,0.013,0.236,0.035c0.147,0.04,0.356,0.097,0.609,0.158c0.255,0.059,0.53,0.192,0.841,0.291
					c0.149,0.065,0.297,0.146,0.453,0.217c0.155,0.072,0.314,0.144,0.458,0.243c0.149,0.09,0.298,0.18,0.445,0.269
					c0.141,0.098,0.271,0.205,0.404,0.301c0.274,0.181,0.48,0.41,0.68,0.579c0.102,0.083,0.184,0.17,0.252,0.252
					c0.071,0.079,0.134,0.148,0.185,0.205c0.104,0.111,0.163,0.176,0.163,0.176s0.015,0.016,0.043,0.046
					c0.024,0.033,0.06,0.081,0.104,0.143c0.091,0.123,0.221,0.297,0.377,0.507c0.271,0.446,0.639,1.043,0.854,1.706
					c0.139,0.32,0.204,0.663,0.291,0.977c0.08,0.316,0.097,0.623,0.15,0.879c0.03,0.523,0.05,0.873,0.05,0.873
					S188.109,378.146,188.079,378.669z"/>
			</g>
		</g>
		<g>
			<polygon fill="#26C6DA" points="452.757,285.176 402.63,285.176 407.846,232.94 447.541,232.94 			"/>
			<path fill="none" stroke="#FFFFFF" stroke-width="2" stroke-linecap="round" stroke-linejoin="round" stroke-miterlimit="10" d="
				M440.788,242.992v2.129c0,7.232-5.862,13.095-13.095,13.095l0,0c-7.231,0-13.095-5.862-13.095-13.095v-2.129"/>
			<circle fill="#FFFFFF" cx="414.599" cy="242.992" r="1.405"/>
			<circle fill="#FFFFFF" cx="440.788" cy="242.992" r="1.405"/>
		</g>
		<g>
			<path fill="#49828D" d="M97.739,320.374H44.768c-1.86,0-3.368-1.508-3.368-3.368v-30.598c0-1.86,1.508-3.368,3.368-3.368h52.972
				c1.86,0,3.367,1.508,3.367,3.368v30.598C101.106,318.866,99.599,320.374,97.739,320.374z"/>
			<rect x="41.4" y="290.763" fill="#26C6DA" width="59.707" height="8.944"/>
			<rect x="41.4" y="302.707" fill="#26C6DA" width="59.707" height="2.056"/>
		</g>
		<g>
			
				<rect x="355.385" y="114.78" fill="#FFFFFF" stroke="#78909C" stroke-width="1.5" stroke-linecap="round" stroke-linejoin="round" stroke-miterlimit="10" width="62.216" height="39.446"/>
			
				<polygon fill="#FFFFFF" stroke="#78909C" stroke-width="1.5" stroke-linecap="round" stroke-linejoin="round" stroke-miterlimit="10" points="
				355.385,114.78 386.492,92.507 417.601,114.78 386.492,133.887 			"/>
			
				<line fill="#FFFFFF" stroke="#78909C" stroke-width="1.5" stroke-linecap="round" stroke-linejoin="round" stroke-miterlimit="10" x1="377.997" y1="128.669" x2="355.385" y2="154.227"/>
			
				<line fill="#FFFFFF" stroke="#78909C" stroke-width="1.5" stroke-linecap="round" stroke-linejoin="round" stroke-miterlimit="10" x1="394.988" y1="128.669" x2="417.601" y2="154.227"/>
			
				<polygon fill="#FFFFFF" stroke="#78909C" stroke-width="1.5" stroke-linecap="round" stroke-linejoin="round" stroke-miterlimit="10" points="
				408.392,120.296 386.492,133.887 364.594,120.296 364.594,99.32 408.392,99.32 			"/>
		</g>
		<g>
			<g>
				<rect x="194.078" y="76.055" fill="#26C6DA" width="61.788" height="42.487"/>
				<polygon fill="#26C6DA" points="219.979,111.273 245.807,133.349 245.807,111.273 				"/>
			</g>
			<g>
				<g>
					
						<line fill="none" stroke="#FFFFFF" stroke-width="7" stroke-linecap="round" stroke-linejoin="round" x1="203.869" y1="89.481" x2="203.869" y2="89.481"/>
					
						<line fill="none" stroke="#FFFFFF" stroke-width="7" stroke-linecap="round" stroke-linejoin="round" stroke-dasharray="0,13.9795" x1="217.848" y1="89.481" x2="238.817" y2="89.481"/>
					
						<line fill="none" stroke="#FFFFFF" stroke-width="7" stroke-linecap="round" stroke-linejoin="round" x1="245.807" y1="89.481" x2="245.807" y2="89.481"/>
				</g>
			</g>
		</g>
		<g>
			<g>
				<path fill="#26C6DA" d="M318.685,62.526c-4.508,0-8.174-3.667-8.174-8.174s3.666-8.173,8.174-8.173
					c4.507,0,8.173,3.667,8.173,8.173S323.191,62.526,318.685,62.526z M318.685,48.104c-3.445,0-6.248,2.803-6.248,6.248
					s2.803,6.248,6.248,6.248s6.248-2.803,6.248-6.248S322.13,48.104,318.685,48.104z"/>
			</g>
			<path fill="#26C6DA" d="M330.949,56.464c-0.75-0.395-1.511-0.716-1.765-0.82c0.009-0.053,0.017-0.108,0.025-0.158
				c0.047-0.679,0.064-1.134,0.064-1.134s-0.018-0.455-0.064-1.134c-0.009-0.05-0.017-0.105-0.025-0.158
				c0.254-0.104,1.015-0.425,1.765-0.82c0.457-0.238,0.921-0.5,1.248-0.702c0.327-0.208,0.545-0.347,0.545-0.347
				s-0.055-0.215-0.138-0.539c-0.043-0.161-0.093-0.35-0.147-0.551c-0.07-0.196-0.146-0.406-0.221-0.615
				c-0.078-0.208-0.155-0.417-0.228-0.613c-0.079-0.193-0.169-0.366-0.239-0.518c-0.145-0.3-0.242-0.5-0.242-0.5
				s-1.028,0.113-2.047,0.348c-0.826,0.179-1.614,0.422-1.877,0.505c-0.027-0.044-0.058-0.095-0.084-0.137
				c-0.197-0.277-0.372-0.501-0.489-0.662c-0.06-0.079-0.106-0.142-0.139-0.184c-0.036-0.04-0.055-0.061-0.055-0.061
				s-0.077-0.084-0.211-0.23c-0.066-0.074-0.147-0.163-0.24-0.266c-0.091-0.105-0.198-0.218-0.328-0.329
				c-0.039-0.034-0.079-0.071-0.119-0.107c0.124-0.237,0.503-0.974,0.829-1.77c0.204-0.485,0.37-0.958,0.495-1.329
				c0.118-0.372,0.197-0.619,0.197-0.619s-0.179-0.133-0.445-0.332c-0.263-0.205-0.655-0.418-1.032-0.653
				c-0.373-0.243-0.786-0.413-1.084-0.564c-0.302-0.142-0.503-0.237-0.503-0.237s-0.727,0.774-1.351,1.591
				c-0.315,0.407-0.609,0.822-0.82,1.136c-0.139,0.206-0.239,0.364-0.295,0.453c-0.051-0.016-0.103-0.033-0.152-0.044
				c-0.33-0.085-0.604-0.156-0.797-0.206c-0.196-0.03-0.308-0.048-0.308-0.048s-0.112-0.017-0.309-0.047
				c-0.196-0.032-0.477-0.082-0.818-0.086c-0.051-0.002-0.106-0.006-0.16-0.009c-0.06-0.272-0.245-1.082-0.503-1.894
				c-0.306-0.971-0.722-1.931-0.722-1.931s-0.222,0.012-0.554,0.03c-0.332,0.015-0.771,0.101-1.21,0.164
				c-0.442,0.054-0.869,0.188-1.193,0.265c-0.323,0.085-0.538,0.142-0.538,0.142s-0.017,0.262-0.025,0.656
				c-0.01,0.394-0.009,0.916,0.013,1.43c0.031,0.849,0.133,1.669,0.168,1.935c-0.049,0.021-0.1,0.041-0.146,0.063
				c-0.308,0.147-0.563,0.271-0.742,0.356c-0.172,0.098-0.268,0.16-0.268,0.16s-0.097,0.059-0.267,0.162
				c-0.085,0.051-0.188,0.114-0.307,0.186c-0.117,0.074-0.237,0.174-0.375,0.274c-0.04,0.03-0.087,0.065-0.13,0.097
				c-0.084-0.064-0.231-0.176-0.43-0.326c-0.308-0.225-0.738-0.529-1.169-0.798c-0.859-0.546-1.799-1.018-1.799-1.018
				s-0.163,0.151-0.407,0.377c-0.225,0.246-0.522,0.574-0.821,0.902c-0.285,0.34-0.541,0.705-0.742,0.97
				c-0.1,0.134-0.182,0.246-0.229,0.33c-0.051,0.083-0.08,0.13-0.08,0.13s0.631,0.848,1.322,1.602
				c0.56,0.628,1.181,1.201,1.379,1.379c-0.022,0.046-0.053,0.097-0.072,0.142c-0.146,0.308-0.282,0.558-0.338,0.749
				c-0.068,0.187-0.107,0.293-0.107,0.293s-0.039,0.107-0.107,0.293c-0.082,0.183-0.13,0.464-0.222,0.792
				c-0.014,0.049-0.026,0.103-0.039,0.155c-0.278,0.011-1.117,0.051-1.938,0.171c-1.014,0.133-2.042,0.378-2.042,0.378
				s-0.008,0.055-0.021,0.151c-0.018,0.096-0.031,0.234-0.038,0.4c-0.017,0.333-0.038,0.775-0.06,1.218
				c0.021,0.443,0.043,0.886,0.06,1.218c0.007,0.166,0.021,0.304,0.038,0.4c0.014,0.096,0.021,0.151,0.021,0.151
				s1.028,0.245,2.042,0.378c0.821,0.12,1.66,0.16,1.938,0.171c0.013,0.052,0.025,0.105,0.039,0.155
				c0.092,0.328,0.14,0.609,0.222,0.792c0.068,0.187,0.107,0.293,0.107,0.293s0.039,0.106,0.107,0.293
				c0.056,0.191,0.192,0.441,0.338,0.749c0.02,0.045,0.05,0.095,0.072,0.142c-0.198,0.179-0.819,0.751-1.379,1.38
				c-0.691,0.754-1.322,1.602-1.322,1.602s0.029,0.047,0.08,0.13c0.048,0.085,0.13,0.196,0.229,0.33
				c0.201,0.265,0.457,0.629,0.742,0.97c0.299,0.328,0.597,0.656,0.821,0.903c0.244,0.226,0.407,0.376,0.407,0.376
				s0.939-0.471,1.799-1.018c0.431-0.269,0.861-0.573,1.169-0.798c0.198-0.15,0.346-0.262,0.43-0.326
				c0.043,0.031,0.09,0.066,0.13,0.096c0.138,0.1,0.258,0.201,0.375,0.275c0.118,0.071,0.222,0.134,0.307,0.185
				c0.17,0.104,0.267,0.163,0.267,0.163s0.096,0.062,0.268,0.16c0.18,0.086,0.435,0.209,0.742,0.356
				c0.046,0.022,0.097,0.042,0.146,0.063c-0.035,0.266-0.137,1.086-0.168,1.935c-0.021,0.514-0.022,1.036-0.013,1.43
				c0.009,0.395,0.025,0.656,0.025,0.656s0.215,0.057,0.538,0.142c0.324,0.078,0.751,0.211,1.193,0.265
				c0.439,0.063,0.878,0.148,1.21,0.164c0.332,0.018,0.554,0.03,0.554,0.03s0.416-0.96,0.722-1.931
				c0.258-0.812,0.443-1.622,0.503-1.894c0.054-0.003,0.109-0.006,0.16-0.009c0.342-0.004,0.622-0.054,0.818-0.085
				c0.196-0.03,0.309-0.047,0.309-0.047s0.111-0.018,0.308-0.048c0.192-0.05,0.467-0.121,0.797-0.206
				c0.05-0.012,0.102-0.029,0.152-0.044c0.056,0.089,0.156,0.248,0.295,0.453c0.211,0.314,0.505,0.729,0.82,1.136
				c0.624,0.817,1.351,1.591,1.351,1.591s0.201-0.095,0.503-0.237c0.298-0.151,0.711-0.321,1.084-0.564
				c0.377-0.235,0.77-0.448,1.032-0.653c0.267-0.199,0.445-0.332,0.445-0.332s-0.079-0.248-0.197-0.619
				c-0.125-0.372-0.291-0.845-0.495-1.329c-0.326-0.796-0.705-1.533-0.829-1.77c0.04-0.036,0.08-0.074,0.119-0.107
				c0.13-0.11,0.237-0.224,0.328-0.329c0.093-0.103,0.174-0.192,0.24-0.266c0.134-0.146,0.211-0.23,0.211-0.23
				s0.019-0.021,0.055-0.061c0.032-0.042,0.079-0.105,0.139-0.184c0.117-0.161,0.292-0.384,0.489-0.662
				c0.026-0.042,0.057-0.093,0.084-0.137c0.263,0.083,1.051,0.326,1.877,0.505c1.019,0.234,2.047,0.348,2.047,0.348
				s0.098-0.2,0.242-0.5c0.07-0.152,0.16-0.324,0.239-0.518c0.072-0.195,0.149-0.404,0.228-0.613
				c0.075-0.209,0.15-0.419,0.221-0.615c0.055-0.201,0.104-0.39,0.147-0.551c0.083-0.323,0.138-0.539,0.138-0.539
				s-0.218-0.139-0.545-0.347C331.87,56.964,331.406,56.702,330.949,56.464z M326.801,55.225c-0.052,0.255-0.069,0.563-0.149,0.878
				c-0.087,0.313-0.152,0.656-0.291,0.976c-0.215,0.663-0.584,1.261-0.854,1.707c-0.156,0.209-0.287,0.384-0.378,0.507
				c-0.045,0.062-0.08,0.11-0.104,0.143c-0.028,0.03-0.043,0.046-0.043,0.046s-0.06,0.064-0.163,0.176
				c-0.052,0.057-0.113,0.125-0.185,0.205c-0.068,0.082-0.15,0.169-0.252,0.252c-0.2,0.168-0.406,0.398-0.681,0.579
				c-0.133,0.095-0.264,0.204-0.404,0.301c-0.146,0.088-0.296,0.178-0.445,0.268c-0.144,0.1-0.303,0.171-0.458,0.243
				s-0.304,0.152-0.453,0.218c-0.311,0.098-0.586,0.232-0.84,0.291c-0.254,0.062-0.463,0.118-0.609,0.159
				c-0.151,0.022-0.237,0.035-0.237,0.035s-0.086,0.013-0.236,0.035c-0.15,0.025-0.364,0.066-0.628,0.066
				c-0.262,0.013-0.567,0.042-0.896,0.007c-0.163-0.012-0.334-0.008-0.504-0.028c-0.17-0.026-0.342-0.053-0.514-0.08
				c-0.174-0.016-0.342-0.061-0.507-0.107c-0.165-0.042-0.329-0.083-0.486-0.123c-0.302-0.125-0.596-0.205-0.831-0.318
				c-0.233-0.116-0.43-0.208-0.568-0.272c-0.132-0.076-0.205-0.125-0.205-0.125s-0.074-0.045-0.204-0.125
				c-0.065-0.039-0.145-0.086-0.236-0.141c-0.09-0.056-0.181-0.136-0.286-0.212c-0.105-0.078-0.22-0.162-0.34-0.251
				c-0.114-0.097-0.227-0.208-0.35-0.317c-0.257-0.205-0.471-0.484-0.713-0.735c-0.434-0.545-0.827-1.126-1.039-1.604
				c-0.109-0.237-0.221-0.425-0.26-0.574c-0.051-0.143-0.08-0.225-0.08-0.225s-0.031-0.081-0.084-0.224
				c-0.067-0.138-0.096-0.356-0.168-0.606c-0.146-0.501-0.21-1.198-0.24-1.898c0.03-0.7,0.095-1.396,0.24-1.898
				c0.072-0.25,0.101-0.468,0.168-0.606c0.053-0.143,0.084-0.224,0.084-0.224s0.029-0.082,0.08-0.225
				c0.039-0.148,0.15-0.337,0.26-0.574c0.212-0.478,0.605-1.058,1.039-1.604c0.242-0.251,0.456-0.53,0.713-0.735
				c0.123-0.108,0.235-0.22,0.35-0.317c0.12-0.089,0.234-0.173,0.34-0.251c0.105-0.077,0.196-0.156,0.286-0.212
				c0.092-0.054,0.171-0.102,0.236-0.141c0.13-0.079,0.204-0.125,0.204-0.125s0.073-0.049,0.205-0.125
				c0.139-0.063,0.335-0.156,0.568-0.272c0.235-0.113,0.529-0.194,0.831-0.318c0.157-0.04,0.321-0.081,0.486-0.123
				c0.165-0.047,0.333-0.091,0.507-0.107c0.172-0.027,0.344-0.054,0.514-0.08c0.17-0.021,0.341-0.016,0.504-0.028
				c0.328-0.035,0.634-0.005,0.896,0.007c0.264,0,0.478,0.041,0.628,0.066c0.15,0.022,0.236,0.035,0.236,0.035
				s0.086,0.013,0.237,0.035c0.146,0.041,0.355,0.097,0.609,0.159c0.254,0.058,0.529,0.193,0.84,0.291
				c0.149,0.065,0.298,0.146,0.453,0.217s0.314,0.143,0.458,0.243c0.149,0.09,0.299,0.18,0.445,0.268
				c0.141,0.098,0.271,0.206,0.404,0.301c0.274,0.181,0.48,0.41,0.681,0.579c0.102,0.083,0.184,0.171,0.252,0.253
				c0.071,0.079,0.133,0.147,0.185,0.204c0.104,0.112,0.163,0.176,0.163,0.176s0.015,0.016,0.043,0.046
				c0.024,0.033,0.06,0.081,0.104,0.143c0.091,0.123,0.222,0.297,0.378,0.507c0.27,0.446,0.639,1.043,0.854,1.707
				c0.139,0.32,0.204,0.663,0.291,0.976c0.08,0.316,0.098,0.623,0.149,0.878c0.03,0.524,0.051,0.873,0.051,0.873
				S326.831,54.701,326.801,55.225z"/>
		</g>
		<g>
			<g>
				<g>
					<g>
						<g>
							<path fill="#49828D" d="M379.275,327.746H120.724V177.951c0-6.172,5.003-11.176,11.176-11.176h236.2
								c6.173,0,11.176,5.003,11.176,11.176V327.746z"/>
						</g>
						<rect x="132.606" y="177.616" fill="#26C6DA" width="234.787" height="139.289"/>
						<rect x="112.347" y="327.746" fill="#ECEFF1" width="275.305" height="11.827"/>
						<polygon fill="#B0BEC5" points="112.347,339.573 119.246,345.157 380.754,345.157 387.652,339.573 						"/>
						
							<line fill="#ECEFF1" stroke="#90A4AE" stroke-width="1.5" stroke-linecap="round" stroke-linejoin="round" stroke-miterlimit="10" x1="334.27" y1="333.659" x2="367.394" y2="333.659"/>
					</g>
					<g>
						
							<path fill="none" stroke="#FFFFFF" stroke-width="1.5" stroke-linecap="round" stroke-linejoin="round" stroke-miterlimit="10" d="
							M316.324,298.879H183.676c-10.996,0-19.91-8.914-19.91-19.91v-0.001c0-10.996,8.914-19.91,19.91-19.91h132.648
							c10.996,0,19.91,8.914,19.91,19.91v0.001C336.234,289.965,327.32,298.879,316.324,298.879z"/>
						<text transform="matrix(1 0 0 1 189.0981 286.876)" fill="#FFFFFF" font-family="'OpenSans-Extrabold'" font-size="21.0814">e-commerce</text>
					</g>
				</g>
				
					<line fill="none" stroke="#FFFFFF" stroke-width="1.5" stroke-linecap="round" stroke-linejoin="round" stroke-miterlimit="10" x1="207.002" y1="210.333" x2="292.998" y2="210.333"/>
				
					<line fill="none" stroke="#FFFFFF" stroke-width="1.5" stroke-linecap="round" stroke-linejoin="round" stroke-miterlimit="10" x1="207.002" y1="222.249" x2="292.998" y2="222.249"/>
				
					<line fill="none" stroke="#FFFFFF" stroke-width="1.5" stroke-linecap="round" stroke-linejoin="round" stroke-miterlimit="10" x1="207.002" y1="234.164" x2="292.998" y2="234.164"/>
			</g>
		</g>
		<g>
			
				<line fill="none" stroke="#78909C" stroke-width="1.5" stroke-linecap="round" stroke-linejoin="round" stroke-miterlimit="10" x1="313.685" y1="120.681" x2="323.685" y2="120.681"/>
			
				<line fill="none" stroke="#78909C" stroke-width="1.5" stroke-linecap="round" stroke-linejoin="round" stroke-miterlimit="10" x1="318.685" y1="115.681" x2="318.685" y2="125.681"/>
		</g>
		<g>
			
				<line fill="none" stroke="#78909C" stroke-width="1.5" stroke-linecap="round" stroke-linejoin="round" stroke-miterlimit="10" x1="289.812" y1="385.97" x2="299.812" y2="385.97"/>
			
				<line fill="none" stroke="#78909C" stroke-width="1.5" stroke-linecap="round" stroke-linejoin="round" stroke-miterlimit="10" x1="294.812" y1="380.97" x2="294.812" y2="390.97"/>
		</g>
		<g>
			
				<line fill="none" stroke="#78909C" stroke-width="1.5" stroke-linecap="round" stroke-linejoin="round" stroke-miterlimit="10" x1="58.669" y1="337.365" x2="68.669" y2="337.365"/>
			
				<line fill="none" stroke="#78909C" stroke-width="1.5" stroke-linecap="round" stroke-linejoin="round" stroke-miterlimit="10" x1="63.669" y1="332.365" x2="63.669" y2="342.365"/>
		</g>
		
			<path fill="none" stroke="#78909C" stroke-width="1.5" stroke-linecap="round" stroke-linejoin="round" stroke-miterlimit="10" d="
			M99.9,231.528c2.761,0,5,2.238,5,5c0,2.761-2.239,5-5,5"/>
		<g>
			
				<line fill="none" stroke="#78909C" stroke-width="1.5" stroke-linecap="round" stroke-linejoin="round" stroke-miterlimit="10" x1="158.74" y1="128.669" x2="173.384" y2="128.669"/>
			
				<line fill="none" stroke="#78909C" stroke-width="1.5" stroke-linecap="round" stroke-linejoin="round" stroke-miterlimit="10" x1="182.188" y1="128.669" x2="188.724" y2="128.669"/>
		</g>
		<g>
			
				<line fill="none" stroke="#78909C" stroke-width="1.5" stroke-linecap="round" stroke-linejoin="round" stroke-miterlimit="10" x1="387.652" y1="224.656" x2="387.652" y2="214.846"/>
			
				<line fill="none" stroke="#78909C" stroke-width="1.5" stroke-linecap="round" stroke-linejoin="round" stroke-miterlimit="10" x1="387.652" y1="208.948" x2="387.652" y2="204.569"/>
		</g>
		<g>
			
				<line fill="none" stroke="#78909C" stroke-width="1.5" stroke-linecap="round" stroke-linejoin="round" stroke-miterlimit="10" x1="117.832" y1="419.419" x2="117.832" y2="409.608"/>
			
				<line fill="none" stroke="#78909C" stroke-width="1.5" stroke-linecap="round" stroke-linejoin="round" stroke-miterlimit="10" x1="117.832" y1="403.71" x2="117.832" y2="399.332"/>
		</g>
		
			<circle fill="none" stroke="#78909C" stroke-width="1.5" stroke-linecap="round" stroke-linejoin="round" stroke-miterlimit="10" cx="178.68" cy="62.526" r="3.5"/>
		
			<circle fill="none" stroke="#78909C" stroke-width="1.5" stroke-linecap="round" stroke-linejoin="round" stroke-miterlimit="10" cx="324.492" cy="439.034" r="3.5"/>
		<g>
			<path fill="#26C6DA" d="M139.494,157.296h-39.293c-1.701,0-3.081-1.379-3.081-3.081V92.52c0-1.702,1.379-3.081,3.081-3.081
				h39.293c1.702,0,3.081,1.379,3.081,3.081v61.695C142.574,155.917,141.195,157.296,139.494,157.296z"/>
			<rect x="102.4" y="96.935" fill="#FFFFFF" width="34.895" height="10.883"/>
			<rect x="102.4" y="113.356" fill="#FFFFFF" width="34.895" height="37.716"/>
			<g>
				<rect x="107.054" y="118.244" fill="#26C6DA" width="4.874" height="4.874"/>
				<rect x="113.958" y="118.244" fill="#26C6DA" width="4.874" height="4.874"/>
				<rect x="120.862" y="118.244" fill="#26C6DA" width="4.874" height="4.874"/>
				<rect x="127.767" y="118.244" fill="#26C6DA" width="4.874" height="4.874"/>
				<rect x="107.054" y="125.933" fill="#26C6DA" width="4.874" height="4.874"/>
				<rect x="113.958" y="125.933" fill="#26C6DA" width="4.874" height="4.874"/>
				<rect x="120.862" y="125.933" fill="#26C6DA" width="4.874" height="4.874"/>
				<rect x="127.767" y="125.933" fill="#26C6DA" width="4.874" height="4.874"/>
				<rect x="107.054" y="133.622" fill="#26C6DA" width="4.874" height="4.874"/>
				<rect x="113.958" y="133.622" fill="#26C6DA" width="4.874" height="4.874"/>
				<rect x="120.862" y="133.622" fill="#26C6DA" width="4.874" height="4.874"/>
				<rect x="127.767" y="133.622" fill="#26C6DA" width="4.874" height="4.874"/>
				<rect x="107.054" y="141.312" fill="#26C6DA" width="4.874" height="4.874"/>
				<rect x="113.958" y="141.312" fill="#26C6DA" width="4.874" height="4.874"/>
				<rect x="120.862" y="141.312" fill="#26C6DA" width="4.874" height="4.874"/>
				<rect x="127.767" y="133.502" fill="#26C6DA" width="4.874" height="12.684"/>
			</g>
		</g>
	</g>
</g>
<g id="TEXTURE">
</g>
<g id="DESIGNED_BY_FREEPIK">
</g>
</svg>
