<?xml version="1.0" encoding="utf-8"?>
<!-- Generator: Adobe Illustrator 16.0.0, SVG Export Plug-In . SVG Version: 6.00 Build 0)  -->
<!DOCTYPE svg PUBLIC "-//W3C//DTD SVG 1.1//EN" "http://www.w3.org/Graphics/SVG/1.1/DTD/svg11.dtd">
<svg version="1.1" id="Слой_1" xmlns="http://www.w3.org/2000/svg" xmlns:xlink="http://www.w3.org/1999/xlink" x="0px" y="0px"
	 width="3000px" height="2000px" viewBox="0 0 3000 2000" enable-background="new 0 0 3000 2000" xml:space="preserve">
<rect fill="#FFFFFF" width="3000" height="2000"/>
<g>
	<path fill="#E3EAFF" d="M234.599,1921.826c-184.436-295.436-242.226-468.009-83.957-782.195
		c77.962-154.765-107.504-307.422,14.722-424.404c101.062-96.725,212.215,33.638,340.419-263.341
		c204.47-473.646,463.763-39.55,729.798-253.154c405.676-325.724,857.755-69.375,1149.454,321.987
		c56.57,75.9,162.49,68.817,245.868,100.131c249.538,105.252,231.334,294.059,181.731,563.978
		c-21.725,118.224,42.375,156.849,72.509,217.029c92.722,192.35-5.614,375.906-103.983,538.584
		C2781.163,1940.443,234.599,1921.826,234.599,1921.826z"/>
	<g>
		<path fill="#95A6DB" d="M2661.605,1851.828c0.354-37.229,21.187-69.73,62.498-97.506
			C2716.035,1803.468,2695.203,1835.971,2661.605,1851.828z"/>
		<path fill="#95A6DB" d="M2725.319,1818.391c5.459-33.497,28.71-59.898,69.753-79.206
			C2781.04,1782.373,2757.789,1808.773,2725.319,1818.391z"/>
		<path fill="#95A6DB" d="M2791.027,1787.338c9.811-30.715,35.346-52.277,76.608-64.689
			C2848.48,1761.311,2822.944,1782.873,2791.027,1787.338z"/>
		<path fill="#95A6DB" d="M2932.293,1726.384c-22.678,28.575-47.627,41.918-74.846,40.027
			C2871.061,1742.686,2896.009,1729.344,2932.293,1726.384z"/>
		<path fill="#95A6DB" d="M2978.152,1745.104c-22.924,20.172-45.436,27.469-67.533,21.891
			C2925.285,1749.494,2947.797,1742.197,2978.152,1745.104z"/>
		<path fill="#95A6DB" d="M2928.286,1783.082c19.946-11.098,43.586-9.857,70.92,3.721
			C2970.56,1797.43,2946.92,1796.189,2928.286,1783.082z"/>
		<path fill="#95A6DB" d="M2781.906,1900.461c-49.07,10.756-87.291,3.262-114.663-22.482
			C2702.234,1864.539,2740.455,1872.033,2781.906,1900.461z"/>
		<path fill="#95A6DB" d="M2779.764,1809.066c30.705-0.601,58.02,15.838,81.939,49.315
			C2820.99,1852.895,2793.678,1836.456,2779.764,1809.066z"/>
		<path fill="#95A6DB" d="M2900.18,1837.101c-35.438-4.743-59.203-19.046-71.295-42.903
			C2855.602,1793.651,2879.366,1807.953,2900.18,1837.101z"/>
		<path fill="#95A6DB" d="M2881.014,1788.855c26.695-0.488,50.461,13.813,71.295,42.904
			C2916.854,1827.004,2893.089,1812.702,2881.014,1788.855z"/>
		<path fill="#95A6DB" d="M2605.766,1901.672c70.252-54.744,67.646-47.844,115.491-73.924c12.92-7.059,25.685-13.334,38.296-18.826
			c25.979-10.93,53.068-19.008,80.79-24.096c32.37-6.623,57.087-8.205,74.147-4.746l2.215-0.406c0.576-0.352,1.32-0.238,1.766,0.27
			c0.643,0.164,1.188,0.587,1.508,1.168c0.131,0.682,0.1,1.383-0.089,2.051c-0.164,0.643-0.587,1.189-1.168,1.51l-1.253,0.674
			c-0.688,0.117-1.391,0.094-2.068-0.066l-0.195,0.252l-1.456-0.434c-16.745-3.018-40.8-1.375-72.167,4.928
			c-27.398,5.218-54.143,13.419-79.756,24.457c-12.924,5.416-25.561,11.496-37.857,18.215l-3.195,1.767
			c32.994-7.334,66.079,4.435,99.255,35.304c-45.175,3.049-78.259-8.72-99.255-35.304c-46.853,25.899-42.861,18.231-111.335,71.624
			L2605.766,1901.672z"/>
	</g>
	<g>
		<path fill="#95A6DB" d="M2846.954,1416.611c0,0,11.901,27.764-15.877,72.266c-28.315,45.34-27.308,79.068-27.308,79.068
			l-23.332,16.103c0,0,0.995-51.036,25.481-86.39C2836.623,1453.445,2846.954,1416.611,2846.954,1416.611z"/>
		<path fill="#95A6DB" d="M2909.076,1437.719c0,0,1.711,22.201-27.416,49.928c-29.748,28.22-36.73,52.977-36.73,52.977l-19.34,12.49
			c0,0,12.07-41.672,36.916-63.287C2893.547,1462.77,2909.076,1437.719,2909.076,1437.719z"/>
		<path fill="#95A6DB" d="M2795.252,1461.84c0,0-20.91,11.574-38.951,65.24c-14.707,43.732-6.877,68.211-16.058,94.992
			l30.685-26.994c3.672-19.291-7.524-33.401,3.892-73.703C2785.494,1483.641,2795.252,1461.84,2795.252,1461.84z"/>
		<path fill="#95A6DB" d="M2603.143,1609.869c0,0-10.922,21.336,4.032,75.889c12.177,44.51,33.931,52.496,37.224,62.813
			l11.832-20.627c-10.188-18.033-23.87-17.396-36.867-57.217C2607.205,1633.361,2603.143,1609.869,2603.143,1609.869z"/>
		<path fill="#95A6DB" d="M2746.207,1491.465c0,0-17.406,37.408-23.018,61.826c-8.043,34.695,3.904,54.945-1.764,90.977
			l-21.842,21.556c0,0-13.189-39.776-1.554-82.191C2717.551,1512.455,2746.207,1491.465,2746.207,1491.465z"/>
		<path fill="#95A6DB" d="M2677.126,1502.688c1.521,23.098-0.347,46.295-5.54,68.854c-16.23,68.244,14.862,124.457,14.862,124.457
			l-15.896,12.324c0,0-40.924-41.168-25.684-98.1C2661.042,1550.076,2677.126,1502.688,2677.126,1502.688z"/>
		<path fill="#95A6DB" d="M2768.93,1599.831c0,0,16.941-4.065,83.878,11.759c42.893,10.157,31.919-7.664,71.646,9.106
			c-31.521-0.554-44.576,21.124-85.02,13.995c-32.342-5.723-65.082-8.903-97.922-9.511L2768.93,1599.831z"/>
		<path fill="#95A6DB" d="M2895.858,1657.884c0,0-30.2,30.72-89.938,20.042c-36.779-6.478-74.374-6.863-111.278-1.144l21.371-28.403
			c0,0,26.854-15.462,87.902,1.605C2845.861,1661.699,2895.858,1657.884,2895.858,1657.884z"/>
		<path fill="#95A6DB" d="M2853.914,1711.289c0,0-30.2,30.721-89.938,20.044c-36.779-6.478-74.373-6.865-111.279-1.146
			l21.373-28.402c0,0,26.854-15.462,87.9,1.605C2803.917,1715.105,2853.914,1711.289,2853.914,1711.289z"/>
		<path fill="#95A6DB" d="M2950.055,1552.193c0,0-21.051,15.365-58.549,7.199c-38.022-8.301-67.185-3.014-67.185-3.014
			l12.024-10.182c0,0,16.973-9.773,55.564,1C2918.449,1554.596,2950.055,1552.193,2950.055,1552.193z"/>
		<path fill="#95A6DB" d="M2806.031,1573.205c0,0,29.951,0.135,73.094,8.578c27.236,5.243,65.531-7.43,65.531-7.43
			s-32.348,36.383-72.795,25.969c-46.379-11.957-93.598-10.529-93.598-10.529L2806.031,1573.205z"/>
		<path fill="#95A6DB" d="M2832.987,1550.439c0,0,28.691-36.002,70.827-39.283c24.955-2.156,49.374-8.467,72.25-18.668
			c0,0-27.074,37.429-66.072,36.272c-36.003-0.97-63.275,19.969-63.275,19.969L2832.987,1550.439z"/>
		<path fill="#95A6DB" d="M2647.662,1749.623l-5.932-3.247c20.034-36.577,105.225-153.286,202.414-205.687l3.21,5.955
			C2751.516,1598.327,2667.454,1713.519,2647.662,1749.623z"/>
	</g>
	<path fill="#95A6DB" d="M2809.088,1950.471H193.509c-8.814,0-15.96-7.146-15.96-15.961v-1.902c0-8.814,7.146-15.961,15.96-15.961
		h2615.579c8.814,0,15.961,7.146,15.961,15.961v1.902C2825.049,1943.324,2817.902,1950.471,2809.088,1950.471z"/>
	<g id="c_5_">
		<g>
			<polygon id="v-2_1_" fill="#F37A50" points="1933.477,628.265 1933.431,628.265 1894.352,628.409 1885.5,720.713 1931.12,744.8 
				1979.768,720.984 1971.905,628.409 			"/>
			<g>
				<g>
					
						<ellipse transform="matrix(0.9958 0.0919 -0.0919 0.9958 58.5294 -174.3082)" fill="#F37A50" cx="1922.097" cy="548.422" rx="92.062" ry="117.217"/>
					<path fill="#DE623C" d="M1897.443,563.013c-8.779,12.438-19.871,27.592-19.871,27.592s3.956,13.859,21.879,15.056
						c-7.416-3.564-14.636-9.093-10.975-19.038C1892.138,576.677,1897.443,563.013,1897.443,563.013z"/>
					<path d="M2032.479,504.499c3.016-61.313-53.967-79.126-53.967-79.126s12.404-4.928,8.613-23.277
						c-8.656,5.81-19.415,8.77-29.822,8.158c-70.129-4.122-113.638,9.128-105.592,36.225c2.863,9.643-42.247,16.451-19.478,80.282
						c4.013-7.806,6.747-36.612,20.077-43.466c13.379-6.877,6.186,15.804,36.897,11.094c30.989-4.752,50.737-18.481,73.909-7.093
						c18.58,10.417,44.238,83.895,43.406,89.022C2008.43,564.559,2031.153,531.444,2032.479,504.499z"/>
					<path d="M1831.333,574.989c0,0,7.345,34.608,15.325,43.614c1.048-15.067,34.332-6.946,48.682-6.265
						c25.984,1.234,51.35-22.797,61.436,10.862c33.05,0.59,42.146-72.482,42.146-72.482c23.188,71.73-17.498,128.457-97.149,139.029
						C1849.296,696.713,1823.921,628.299,1831.333,574.989z"/>
					<g>
						<path fill="#DE623C" d="M1918.734,629.222c4.541-2.618,9.043-6.125,13.484-10.515c1.156-1.142,1.167-3.004,0.025-4.159
							c-1.143-1.156-3.004-1.167-4.16-0.025c-9.847,9.73-19.81,14.626-29.613,14.553c-12.12-0.091-19.975-7.946-20.052-8.025
							c-1.136-1.156-2.996-1.179-4.156-0.049c-1.159,1.133-1.189,2.986-0.062,4.15c0.382,0.394,9.521,9.648,24.113,9.806
							C1905.163,635.03,1911.992,633.108,1918.734,629.222z"/>
					</g>
					<circle cx="1937.487" cy="551.447" r="9.202"/>
					<circle cx="1864.171" cy="549.464" r="9.202"/>
					<g>
						<path d="M1848.188,540.738c1.509,0.041,3-0.693,3.863-2.063c2.375-3.77,5.189-5.992,8.363-6.605
							c5.485-1.059,10.789,2.727,10.842,2.766c1.969,1.426,4.731,1.002,6.168-0.96c1.438-1.961,1.031-4.708-0.922-6.155
							c-0.338-0.25-8.355-6.094-17.663-4.35c-5.714,1.071-10.514,4.635-14.267,10.591c-1.303,2.065-0.683,4.794,1.383,6.095
							C1846.65,540.496,1847.422,540.717,1848.188,540.738z"/>
					</g>
					<g>
						<path d="M1955.15,544.079c0.97,0.026,1.953-0.264,2.787-0.895c1.945-1.474,2.327-4.247,0.854-6.192
							c-5.611-7.406-11.932-11.525-18.786-12.243c-8.845-0.927-15.085,4.374-15.346,4.601c-1.846,1.598-2.046,4.389-0.448,6.234
							c1.59,1.836,4.36,2.043,6.205,0.473c0.133-0.108,3.838-3.072,8.779-2.504c4.287,0.492,8.51,3.446,12.55,8.778
							C1952.588,543.443,1953.855,544.045,1955.15,544.079z"/>
					</g>
					<g>
						
							<ellipse transform="matrix(-0.7176 -0.6964 0.6964 -0.7176 3068.0073 2377.3418)" fill="#F37A50" cx="2015.965" cy="566.69" rx="22.557" ry="27.563"/>
						<g>
							<path fill="#DE623C" d="M2010.975,581.599c-0.476-0.159-0.922-0.428-1.299-0.808c-5.421-5.438-6.808-12.208-3.709-18.108
								c3.172-6.043,10.139-9.581,16.564-8.412c1.809,0.331,3.008,2.063,2.68,3.871c-0.329,1.809-2.063,3.007-3.871,2.679
								c-3.52-0.64-7.684,1.536-9.479,4.956c-1.725,3.285-0.827,6.948,2.529,10.315c1.297,1.302,1.295,3.409-0.008,4.708
								C2013.459,581.719,2012.131,581.986,2010.975,581.599z"/>
						</g>
					</g>
				</g>
			</g>
		</g>
		<path fill="#201D40" d="M1862.162,1835.846c-34.555,47.676-119.412,18.421-116.604,82.905c129.043-0.827,182.674,0,182.674,0
			c-0.17-14.81-2.721-49.964-5.697-63.726L1862.162,1835.846z"/>
		<path fill="#201D40" d="M2052.186,1835.846c-34.554,47.676-119.412,18.421-116.604,82.905c129.045-0.827,182.675,0,182.675,0
			c-0.17-14.81-2.722-49.964-5.697-63.726L2052.186,1835.846z"/>
		<path fill="#748DDB" d="M1778.357,1108.328c0,0-12.369,315.229-3.857,383.164s55.119,144.016,51.703,368.722
			c42.066,10.532,103.013,0,103.013,0s9.036-254.083-35.434-367.569c18.083-110.236,76.108-362.723,76.108-362.723
			L1778.357,1108.328z"/>
		<path fill="#89A2F0" d="M1868.578,1116.34c0,0,42.306,343.055,63.015,408.122c20.709,65.068,51.823,113.251,89.316,334.614
			c43.229,2.162,82.733,7.064,82.733,7.064s19.721-283.51-47.608-347.365c-2.278-111.787-4.644-400.232-4.644-400.232
			L1868.578,1116.34z"/>
		<g id="v_1_">
			<path id="h-5_1_" fill="#E62552" d="M2077.074,726.999c0,0-73.477-25.725-97.979-13.927c-76.133,36.659-93.596,0-93.596,0
				c-26.705-5.926-89.783-5.926-89.783-5.926c-7.984,106.564-31.871,446.858-31.871,446.858s91.662,21.742,168.297,22.296
				c76.634-0.498,154.631-20.929,154.631-20.929s-4.094-148.973-7.496-204.343C2080.383,888.964,2077.074,808.792,2077.074,726.999z
				"/>
		</g>
		<path fill="#C4204A" d="M2077.074,726.999c67.129,28.878,149.5,95.438,200.191,200.868c17.383,36.153-65.26,43.452-81.734,29.201
			c-16.475-14.251-118.457-120.691-118.457-120.691V726.999z"/>
		<polygon fill="#C4204A" points="1795.717,707.146 1477.837,837.559 1493.705,917.739 1788.237,834.059 		"/>
	</g>
	<g>
		<path d="M2414.934,1835.477c-35.326,47.121-122.081,18.207-119.209,81.941c131.928-0.818,186.757,0,186.757,0
			c-0.173-14.639-2.782-49.384-5.824-62.984L2414.934,1835.477z"/>
		<path d="M2612.322,1836.712c-35.327,47.121-122.082,18.207-119.211,81.94c131.929-0.818,186.758,0,186.758,0
			c-0.174-14.638-2.781-49.383-5.824-62.983L2612.322,1836.712z"/>
		<path fill="#201D40" d="M2353.861,1116.094c0,0-35.806,303.373-27.104,370.518s48.393,153.639,44.9,375.729
			c43.007,10.41,110.823-1.775,110.823-1.775s9.237-251.123-36.226-363.289c18.486-108.953,77.811-358.498,77.811-358.498
			L2353.861,1116.094z"/>
		<path fill="#2C2858" d="M2435.266,1124.349c0,0,43.252,339.06,64.424,403.37s48.592,110.447,86.922,329.232
			c44.197,2.138,110.734-0.504,110.734-0.504s-17.477-268.774-86.311-331.887c-2.33-110.485,11.131-398.034,11.131-398.034
			L2435.266,1124.349z"/>
		<g>
			
				<ellipse transform="matrix(0.998 0.0631 -0.0631 0.998 38.2305 -154.7092)" fill="#F37A50" cx="2468.698" cy="527.966" rx="89.732" ry="114.251"/>
			<circle cx="2409.429" cy="535.857" r="9.341"/>
			<circle cx="2484.48" cy="536.311" r="10.112"/>
			<path fill="#DE623C" d="M2439.088,542.179c-4.406,14.169-10.143,31.553-10.143,31.553s7.83,11.663,24.809,7.392
				c-7.947-1.079-16.302-4.038-15.893-14.36C2438.27,556.443,2439.088,542.179,2439.088,542.179z"/>
			<g>
				<path fill="#201D40" d="M2410.266,510.938c-1.141,0.445-2.478,0.295-3.511-0.51c-0.103-0.078-3.608-2.685-7.435-1.921
					c-2.699,0.538-5.149,2.684-7.281,6.377c-0.989,1.714-3.182,2.302-4.895,1.313c-1.715-0.99-2.303-3.182-1.313-4.896
					c3.233-5.6,7.333-8.912,12.188-9.844c7.107-1.364,12.914,3.138,13.157,3.33c1.554,1.227,1.819,3.479,0.593,5.034
					C2411.361,510.339,2410.838,510.714,2410.266,510.938z"/>
			</g>
			<g>
				<path fill="#201D40" d="M2479.408,508.417c1.139,0.445,2.477,0.295,3.51-0.51c0.102-0.078,3.608-2.685,7.436-1.922
					c2.697,0.539,5.148,2.684,7.279,6.378c0.99,1.714,3.182,2.302,4.896,1.313c1.713-0.989,2.301-3.181,1.312-4.895
					c-3.232-5.6-7.333-8.912-12.188-9.843c-7.107-1.365-12.913,3.137-13.157,3.33c-1.554,1.226-1.819,3.479-0.593,5.033
					C2478.311,507.817,2478.834,508.193,2479.408,508.417z"/>
			</g>
			<path fill="#201D40" d="M2539.559,572.515c-25.848-30.31-7.528-81.619-7.528-81.619c-14.767-1.516-19.915,4.036-19.915,4.036
				c-9.46-15.474-4.451-27.688-4.451-27.688c-31.068-8.806-44.123,12.014-70.518,21.135c-36.146,12.49-83.262,2.104-91.866-42.655
				c-1.245-6.479,5.54-11.399,11.349-8.27c5.389,2.902,12.374,5,20.719,3.963c0,0-8.589-8.002-10.144-20.062
				c-0.857-6.652,6.618-11.001,12.157-7.221c8.305,5.666,23.158,10.349,48.146,3.146c16.632-4.794,52.802-35.629,77.46-32.645
				c20.157,2.44,37.43,17.746,46.475,41.146c0,0,49.01,0.385,58.988,53.324c9.803,52.012-70.807,116.153-70.807,116.153
				S2546.205,581.613,2539.559,572.515z"/>
			<path fill="#FFFFFF" d="M2418.967,597.432c-1.455-1.936,0.086-4.664,2.492-4.392c6.117,0.69,16.229,1.62,25.875,1.559
				c9.645-0.062,19.744-1.122,25.852-1.891c2.402-0.302,3.979,2.406,2.549,4.36c-4.396,6.011-13.502,15.147-28.287,15.243
				C2432.662,612.405,2423.439,603.386,2418.967,597.432z"/>
			<g>
				<g>
					<path d="M2484.45,563.954c-16.345,0-29.642-11.609-29.642-25.88c0-14.269,13.297-25.879,29.642-25.879
						c16.344,0,29.641,11.61,29.641,25.879C2514.091,552.344,2500.794,563.954,2484.45,563.954z M2484.45,518.819
						c-12.69,0-23.017,8.637-23.017,19.254c0,10.617,10.326,19.254,23.017,19.254s23.016-8.638,23.016-19.254
						C2507.466,527.456,2497.141,518.819,2484.45,518.819z"/>
				</g>
				<g>
					<path d="M2407.616,562.122c-15.146,0-27.468-10.758-27.468-23.982s12.322-23.982,27.468-23.982
						c15.146,0,27.469,10.758,27.469,23.982S2422.763,562.122,2407.616,562.122z M2407.616,520.295
						c-11.761,0-21.329,8.004-21.329,17.844s9.568,17.843,21.329,17.843s21.329-8.003,21.329-17.843
						S2419.377,520.295,2407.616,520.295z"/>
				</g>
				<g>
					<path d="M2455.293,542.206c-10.914-4.707-21.799-1.369-21.908-1.333l-2.756-8.567c0.57-0.185,14.119-4.449,28.229,1.636
						L2455.293,542.206z"/>
				</g>
				<g>
					<polygon points="2508.596,540.693 2508.549,531.677 2538.082,532.47 2538.129,541.486 					"/>
				</g>
			</g>
			<g>
				
					<ellipse transform="matrix(-0.5737 -0.8191 0.8191 -0.5737 3559.7371 2950.8914)" fill="#F37A50" cx="2547.807" cy="549.062" rx="21.986" ry="26.867"/>
				<g>
					<path fill="#DE623C" d="M2540.293,562.417c-0.426-0.239-0.803-0.58-1.096-1.011c-4.19-6.201-4.275-12.936-0.227-18.016
						c4.146-5.202,11.465-7.309,17.4-5.012c1.672,0.649,2.502,2.527,1.855,4.197c-0.647,1.671-2.526,2.5-4.197,1.854
						c-3.253-1.259-7.638,0.061-9.984,3.004c-2.254,2.828-2.066,6.499,0.529,10.337c1.003,1.486,0.613,3.501-0.872,4.505
						C2542.65,562.989,2541.329,562.999,2540.293,562.417z"/>
				</g>
			</g>
		</g>
		<polygon fill="#95A6DB" points="2418.326,668.283 2477.402,657.013 2536.609,667.574 2478.033,740.66 		"/>
		<path fill="#3F964F" d="M2547.128,685.678l-143.812,12.398l0,0l-55.563,3.992l7.006,329.075l-6.768,102.873
			c76.963,17.668,200.391,5.019,281.305-14.131l-13.52-113.727l17.977-298.355L2547.128,685.678z"/>
		<path fill="#F37A50" d="M2438.968,702.068c26.2,17.619,56.97,19.355,84.644,0v-85.827l-84.644,1.418V702.068z"/>
		<path fill="#FFFFFF" d="M2477.75,715.144c0,0-20.039,24.522-39.891,32.207l-39.776-52.207l20.243-26.861L2477.75,715.144z"/>
		<path fill="#FFFFFF" d="M2477.75,715.144c0,0,14.725,20.514,40.276,31.727l40.423-58.301l-21.84-20.996L2477.75,715.144z"/>
		<g id="c_6_">
			<path fill="#F37A50" d="M2676.789,1068.35l-27.89,19.977c0,0-12.011-17.523-25.126-14.9l3.104,26.108c0,0-0.146,18-40.564,21.298
				c-33.037,12.854-6.706,25.533-15.206,33.432c-12.545,11.656,30.123,29.365,61.617,14.313
				c40.752-19.477,40.195-36.473,40.195-36.473l22.309-27.452L2676.789,1068.35z"/>
		</g>
		<path fill="#3F964F" d="M2633.754,707.803c0,0,135.02,70.279,198.553,222.149c-39.725,55.92-92.459,24.071-92.459,24.071
			L2623.984,835.99L2633.754,707.803z"/>
		<path fill="#3F964F" d="M2655.731,1074.306l84.116-120.282c0,0,17.703-47.476,92.459-24.071
			c5.193,39.46-5.789,98.971-133.611,191.286C2689.299,1099.408,2655.731,1074.306,2655.731,1074.306z"/>
		<path fill="#3F964F" d="M2347.754,702.068c0,0-134.834,70.058-198.586,221.836c39.643,55.978,92.424,24.204,92.424,24.204
			l116.033-117.865L2347.754,702.068z"/>
	</g>
	<g>
		<path fill="#95A6DB" d="M214.654,1778.658c-6.129-28.166-27.03-49.518-62.7-64.059
			C165.727,1750.629,186.627,1771.98,214.654,1778.658z"/>
		<path fill="#95A6DB" d="M258.243,1802.938c5.821-28.229-4.622-56.225-31.329-83.982
			C224.89,1757.475,235.333,1785.469,258.243,1802.938z"/>
		<path fill="#95A6DB" d="M94.094,1712.447c17.763,27.352,38.836,41.34,63.22,41.962
			C147.209,1732.142,126.136,1718.154,94.094,1712.447z"/>
		<path fill="#95A6DB" d="M278.573,1754.975c-1.407,32.584,7.639,56.204,27.134,70.861
			C310.4,1801.838,301.355,1778.217,278.573,1754.975z"/>
		<path fill="#95A6DB" d="M51.696,1725.223c18.694,19.895,38.11,28.295,58.249,25.202
			C98.374,1733.609,78.958,1725.208,51.696,1725.223z"/>
		<path fill="#95A6DB" d="M92.859,1763.246c-16.811-11.566-37.955-12.465-63.431-2.695
			C54.022,1772.435,75.165,1773.333,92.859,1763.246z"/>
		<path fill="#95A6DB" d="M213.191,1880.107c42.758,13.728,77.408,10.295,103.949-10.299
			C287.137,1854.884,252.488,1858.316,213.191,1880.107z"/>
		<path fill="#95A6DB" d="M222.838,1798.95c-27.277-3.136-52.977,9.181-77.1,36.948
			C182.435,1834.464,208.135,1822.146,222.838,1798.95z"/>
		<path fill="#95A6DB" d="M113.297,1813.701c31.941-1.221,54.302-11.936,67.083-32.145
			C156.65,1778.809,134.289,1789.523,113.297,1813.701z"/>
		<path fill="#95A6DB" d="M134.441,1772.389c-23.717-2.695-46.078,8.019-67.084,32.144
			C99.313,1803.303,121.674,1792.588,134.441,1772.389z"/>
		<path fill="#95A6DB" d="M369.846,1896.102c-57.885-54.67-56.15-48.309-96.522-75.57c-10.9-7.375-21.729-14.041-32.487-20
			c-22.195-11.926-45.619-21.41-69.86-28.285c-28.247-8.636-50.109-12.137-65.586-10.504l-1.937-0.549
			c-0.482-0.36-1.155-0.322-1.593,0.091c-0.586,0.091-1.108,0.421-1.441,0.911c-0.174,0.596-0.207,1.223-0.095,1.833
			c0.091,0.586,0.421,1.108,0.912,1.442l1.058,0.706c0.602,0.163,1.23,0.202,1.848,0.116l0.151,0.24l1.333-0.262
			c15.157-1.268,36.427,2.23,63.809,10.497c23.94,6.964,47.048,16.528,68.908,28.521c11.043,5.916,21.774,12.396,32.149,19.418
			l2.694,1.842c-28.743-9.322-59.184-1.65-91.324,23.014c39.945,6.537,70.387-1.133,91.324-23.014
			c39.503,27.018,36.6,19.855,93.017,73.172L369.846,1896.102z"/>
	</g>
	<g>
		<path fill="#95A6DB" d="M350.04,1714.379c25.147-35.076,27.899-79.745,8.255-134.007
			C332.208,1631.877,329.457,1676.547,350.04,1714.379z"/>
		<path fill="#95A6DB" d="M313.308,1639.486c17.818-35.078,14.132-75.695-11.058-121.85
			C285.823,1567.65,289.509,1608.267,313.308,1639.486z"/>
		<path fill="#95A6DB" d="M273.081,1565.461c11.841-35.453,2.705-73.105-27.409-112.959
			C237.135,1501.787,246.271,1539.439,273.081,1565.461z"/>
		<path fill="#95A6DB" d="M182.616,1411.746c1.664,42.258,15.876,71.816,42.637,88.678
			C228.754,1468.907,214.542,1439.348,182.616,1411.746z"/>
		<path fill="#95A6DB" d="M126.895,1397.875c7.645,34.564,23.714,56.799,48.208,66.703
			C173.357,1438.166,157.288,1415.933,126.895,1397.875z"/>
		<path fill="#95A6DB" d="M147.562,1467.54c-11.067-24.035-34.036-39.054-68.905-45.056
			C98.188,1452.033,121.156,1467.051,147.562,1467.54z"/>
		<path fill="#95A6DB" d="M204.193,1677.551c38.552,43.646,79.443,62.793,122.674,57.438
			C303.326,1698.465,262.434,1679.32,204.193,1677.551z"/>
		<path fill="#95A6DB" d="M268.748,1593.501c-28.32-21.577-65.127-24.89-110.421-9.937
			C200.177,1606.295,236.984,1609.605,268.748,1593.501z"/>
		<path fill="#95A6DB" d="M136.89,1537.32c36.407,19.814,68.431,22.698,96.072,8.65
			C208.338,1527.176,176.313,1524.291,136.89,1537.32z"/>
		<path fill="#95A6DB" d="M187.843,1505.295c-24.645-18.727-56.669-21.61-96.073-8.65
			C128.199,1516.46,160.223,1519.344,187.843,1505.295z"/>
		<path fill="#95A6DB" d="M368.176,1799.232c-28.267-99.303-30.552-91.063-57.47-148.211c-7.259-15.445-14.908-30.054-22.947-43.824
			c-16.83-28.006-36.646-54.105-59.104-77.838c-25.755-28.352-47.799-46.746-66.13-55.188l-1.794-1.895
			c-0.299-0.723-1.073-1.126-1.837-0.955c-0.713-0.287-1.513-0.266-2.21,0.059c-0.588,0.549-1.041,1.227-1.32,1.98
			c-0.287,0.714-0.265,1.514,0.06,2.211l0.711,1.489c0.563,0.579,1.237,1.04,1.981,1.354l0.01,0.368l1.658,0.591
			c17.733,8.637,39.118,26.637,64.154,54.002c22.064,23.633,41.475,49.611,57.886,77.467c8.386,13.914,16.048,28.251,22.957,42.953
			l1.781,3.842c-25.853-29.444-64.863-41.076-117.033-34.896c40.183,33.768,79.194,45.4,117.033,34.896
			c26.113,56.297,27.626,46.391,55.155,143.211L368.176,1799.232z"/>
	</g>
	<g>
		<g id="c_3_">
			<path fill="#F37A50" d="M524.535,477.247l8.996-32.24c0,0,22.636,6.189,28.18-9.178l-22.127-10.242
				c0,0-7.052-16.34,21.667-43.558c17.265-29.97-10.509-23.514-8.873-34.718c2.413-16.532-37.029,1.079-51.776,31.777
				c-19.082,39.723-12.279,81.827-12.279,81.827L524.535,477.247z"/>
		</g>
		<g id="c_2_">
			<path fill="#F37A50" d="M1083.852,810.218l11.009-27.675c0,0-19.357-36.229,3.375-44.197c6.129-2.148-0.309,26.16,12.127,21.488
				c2.594-0.977,6.49-13.52,10.949-32.805c0.475-20.112,17.285-28.585,26.24-29.19c16.669-1.128,31.931,25.529,21.396,57.915
				c-13.632,41.907-47.627,67.66-47.627,67.66L1083.852,810.218z"/>
		</g>
		<path d="M799.019,1845.373c32.686,45.975,112.953,17.764,110.296,79.947c-122.063-0.799-172.792,0-172.792,0
			c0.161-14.281,2.574-48.182,5.389-61.452L799.019,1845.373z"/>
		<path d="M616.392,1846.578c32.685,45.975,112.953,17.764,110.296,79.947c-122.063-0.799-172.792,0-172.792,0
			c0.161-14.282,2.574-48.182,5.389-61.451L616.392,1846.578z"/>
		<path fill="#0E6A41" d="M855.525,1143.488c0,0,19.818,294.666,11.767,360.178c-8.051,65.511-36.56,149.497-33.33,366.185
			c-39.79,10.157-97.439,0-97.439,0s-8.547-245.016,33.517-354.452c-17.104-106.303-71.991-349.777-71.991-349.777L855.525,1143.488
			z"/>
		<path fill="#3F964F" d="M796.377,1151.543c0,0-40.017,330.813-59.606,393.559c-19.588,62.746-47.46,106.904-82.924,320.367
			c-40.892,2.086-99.951,0.364-99.951,0.364s16.169-262.237,79.856-323.812c2.155-107.799-10.297-388.354-10.297-388.354
			L796.377,1151.543z"/>
		<path fill="#95A6DB" d="M641.964,754.197c0,0-3.611,0.875-142.416-92.505c-0.039-0.026-0.089-0.034-0.135-0.02l-73.567,21.487
			c-0.089,0.026-0.141,0.12-0.112,0.208c19.99,61.655,207.138,202.008,207.138,202.008L641.964,754.197z"/>
		<polygon fill="#607EDB" points="712.043,718.065 769.973,708.727 827.421,720.684 768.248,790.323 		"/>
		<path fill="#F37A50" d="M733.313,751.913c22.912,17.891,47.163,25.546,72.373,7.416l3.476-89.157l-75.571-0.901L733.313,751.913z"
			/>
		<path fill="#95A6DB" d="M844.475,750.919L844.475,750.919l-17.733-5.681l0.68-24.555l-45.346,41.689l-13.389,3.058l-13.236-3.662
			l-43.407-43.703l-0.435,24.561l-15.039,4.076l0,0l-63.698,8.743v283.176l-23.777,130.971
			c74.565,19.383,185.646,20.428,265.096,4.016l-13.138-119.336l25.286-287.236L844.475,750.919z"/>
		<path fill="#E62552" d="M771.407,796.99c0,0-7.959,173.177-20.992,261.828c4.203,5.086,23.193,28.065,23.193,28.065
			s23.063-21.854,29.308-25.801c14.191-156.27-11.385-263.276-11.385-263.276L771.407,796.99z"/>
		<polygon fill="#C4204A" points="756.848,766.874 781.279,760.569 799.159,767.71 791.531,797.807 769.909,797.741 		"/>
		<path fill="#FFFFFF" d="M781.279,760.569c0,0-19.675,26.047-37.588,36.386l-45.993-48.774l14.145-30.138L781.279,760.569z"/>
		<path fill="#FFFFFF" d="M781.279,760.569c0,0,15.564,22.616,35.828,37.583l35.828-44.883l-25.514-32.585L781.279,760.569z"/>
		<path fill="#95A6DB" d="M484.853,453.848c26.392,5.208,39.964,8.517,57.217,18.316c-28.259,144.748-25.2,207.069-57.152,235.084
			c-26.638,23.356-57.312,2.854-60.571-27.834C420.048,638.931,463.849,519.282,484.853,453.848z"/>
		<path fill="#95A6DB" d="M886.339,767.035c35.717-15.901,157.444,128.328,157.444,128.328l32.629-106.624l65.229,34.876
			c0,0-39.798,173.636-84.13,180.996c-41.399,6.873-182.271-97.286-182.271-97.286L886.339,767.035z"/>
		<g>
			<path fill="#2C2858" d="M709.982,666.074c-37.195,4.417-56.637-43.084-56.637-43.084c-22.783-3.765-18.94-26.454-18.94-26.454
				c-10.809-3.313-25.209-14.917-20.571-35.542c3.927-17.463,21.053-16.642,23.259-37.093c1.77-16.411-10.006-56.635,42.377-59.741
				c0,0,1.293-30.503,32.758-37.788c38.575-8.931,48.111,14.253,65.019,18.417c18.884,4.65,59.497-12.712,64.783,31.008
				c0,0,26.963,0.634,39.355,20.26c11.545,18.286,4.769,41.65-2.994,50.239c0,0,21.617,7.37,26.582,27.854
				c3.328,13.733-2.028,31.479-15.707,40.089c-8.703,5.479-16.968,5.984-16.968,5.984c-8.832,1.439-9.392,25.085-17.171,29.654
				c-12.489,7.333-26.055,12.505-39.849,16.599L709.982,666.074z"/>
			<path fill="#F37A50" d="M852.958,575.262c4.288,64.143-30.918,118.727-78.634,121.916c-47.716,3.19-89.874-46.222-94.161-110.365
				c-4.288-64.143,33.867-105.573,81.583-108.763C809.462,474.861,848.67,511.119,852.958,575.262z"/>
			<circle cx="731.258" cy="599.066" r="9.202"/>
			<circle cx="804.438" cy="594.175" r="9.203"/>
			<g>
				<path fill="#2C2858" d="M820.063,584.822c-1.506,0.101-3.026-0.574-3.942-1.908c-2.523-3.672-5.424-5.781-8.62-6.268
					c-5.523-0.84-10.672,3.154-10.724,3.194c-1.91,1.504-4.687,1.189-6.201-0.713c-1.514-1.903-1.216-4.664,0.678-6.188
					c0.327-0.263,8.106-6.421,17.476-5.046c5.752,0.843,10.69,4.213,14.676,10.017c1.382,2.011,0.872,4.763-1.14,6.145
					C821.589,584.519,820.827,584.771,820.063,584.822z"/>
			</g>
			<g>
				<path fill="#2C2858" d="M713.316,592.406c-0.968,0.064-1.963-0.188-2.82-0.785c-2.002-1.395-2.494-4.15-1.098-6.153
					c5.313-7.622,11.465-11.989,18.285-12.979c8.8-1.277,15.246,3.772,15.516,3.988c1.908,1.523,2.219,4.304,0.696,6.212
					c-1.517,1.897-4.276,2.215-6.182,0.718c-0.137-0.103-3.957-2.917-8.872-2.154c-4.265,0.662-8.367,3.781-12.191,9.269
					C715.852,591.667,714.608,592.318,713.316,592.406z"/>
			</g>
			<path fill="#DE623C" d="M777.518,608.083c12.449,7.769,16.388,11.036,21.161,13.584c-2.457,10.814-18.734,17.191-23.545,16.284
				c11.201-6.484,12.315-14.327,12.315-14.327L777.518,608.083z"/>
			
				<ellipse transform="matrix(0.8308 -0.5566 0.5566 0.8308 -224.4705 480.382)" fill="#F37A50" cx="677.73" cy="609.322" rx="21.487" ry="28.992"/>
			<g>
				<path fill="#DE623C" d="M686.791,622.581c-0.381,0.025-0.774-0.023-1.158-0.156c-1.538-0.532-2.354-2.209-1.823-3.747
					c1.767-5.11,1.547-9.113-0.652-11.895c-3.396-4.295-10.797-5.197-16.092-4.665c-1.618,0.166-3.063-1.019-3.226-2.638
					c-0.163-1.619,1.018-3.063,2.637-3.227c7.107-0.713,16.436,0.718,21.303,6.874c2.425,3.067,4.671,8.589,1.6,17.475
					C688.981,621.757,687.937,622.504,686.791,622.581z"/>
			</g>
			<path fill="#FFFFFF" d="M741.444,652.815c-1.468-2.076,0.231-4.894,2.75-4.536c6.401,0.909,16.989,2.189,27.118,2.415
				c10.129,0.227,20.764-0.583,27.199-1.206c2.531-0.245,4.104,2.646,2.544,4.654c-4.796,6.178-14.632,15.496-30.157,15.15
				C755.372,668.947,745.96,659.2,741.444,652.815z"/>
			<path fill="#2C2858" d="M649.855,541.134l102.089-85.597l115.594,56.106l-12.515,82.822
				c-3.66-38.078-26.784-25.317-39.074-36.228c-12.458-11.063-18.131-28.609-46.611-12.443c0,0-23.682-15.623-35.223,7.281
				c-8.924,17.711-21.583,14.597-34.108,15.764c-14.774,1.377-10.967,15.682-20.017,15.396L649.855,541.134z"/>
		</g>
		<path fill="#F37A50" d="M533.653,425.592c6.292,0.398,10.074,0.947,14.542-6.92c4.468-7.865,8.523-18.625,13.851-12.13
			c5.328,6.495,2.888,24.826-1.236,30.937C550.753,438.701,533.653,425.592,533.653,425.592z"/>
	</g>
	<g>
		<path fill="#201D40" d="M1252.137,695.382c-40.066-0.377-180.31,218.022-180.31,218.022l-25.533,256.22l65.348,2.569
			l60.778-223.873l63.409-33.436L1252.137,695.382z"/>
		<g id="c_7_">
			<path fill="#F37A50" d="M1567.67,1114.359l0.789,34.295c0,0-24.475-0.73-25.329,15.988l22.983,0.713
				c0,0,13.985,18.066-6.063,53.314c-7.994,34.533,17.314,19.925,19.051,31.398c2.562,16.93,35.987-12.096,41.296-46.594
				c6.87-44.639-2.242-50-2.242-50l-10.108-33.896L1567.67,1114.359z"/>
		</g>
		<path fill="#201D40" d="M1534.627,723.739c39.128,8.629,111.126,240.858,111.126,240.858l-21.599,177.594l-64.993-7.271
			l3.905-138.47l-48.699-131.253L1534.627,723.739z"/>
		<path d="M1449.34,1845.381c35.324,47.118,122.073,18.207,119.201,81.936c-131.918-0.818-186.744,0-186.744,0
			c0.173-14.637,2.782-49.379,5.824-62.98L1449.34,1845.381z"/>
		<path d="M1251.966,1846.616c35.324,47.117,122.073,18.206,119.201,81.935c-131.918-0.818-186.744,0-186.744,0
			c0.174-14.637,2.782-49.379,5.824-62.979L1251.966,1846.616z"/>
		<path fill="#201D40" d="M1525.205,1124.076c0,0,21.177,303.551,12.475,370.69c-8.701,67.14-54.066,153.627-50.576,375.701
			c-43.003,10.408-105.307,0-105.307,0s-9.237-251.106,36.223-363.263c-18.485-108.945-77.804-358.475-77.804-358.475
			L1525.205,1124.076z"/>
		<path fill="#2C2858" d="M1394.374,1134.707c0,0-8.613,338.633-29.783,402.938s-55.669,106.677-93.997,325.446
			c-44.193,2.137-107.831,3.049-107.831,3.049s31.231-275.766,100.061-338.872c2.33-110.478-20.701-390.788-20.701-390.788
			L1394.374,1134.707z"/>
		<polygon fill="#95A6DB" points="1453.515,686.749 1394.654,674.43 1335.272,683.935 1392.534,758.046 		"/>
		<path fill="#F37A50" d="M1437.37,726.099c-26.507,17.148-62.145,17.483-89.469-2.36l1.28-90.895l84.6,2.925L1437.37,726.099z"/>
		<path fill="#95A6DB" d="M1316.373,714.076L1316.373,714.076l18.425-4.972l0.473-25.169l44.438,44.839l13.562,3.768l13.725-3.119
			l46.519-42.674l-0.725,25.164l15.202,4.89l0,0l55.068,15.465l-28.731,312.143l10.087,108.457
			c-77.259,16.295-161.21,13.008-241.766-7.578l14.844-106.039l-23.527-310.93L1316.373,714.076z"/>
		<polygon fill="#2C2858" points="1407.321,764.866 1425.083,1006.094 1403.558,1031.799 1379.528,1010.365 1388.786,765.497 		"/>
		<polygon fill="#2C2858" points="1421.858,735.323 1399.751,730.588 1375.223,735.791 1388.768,765.972 1407.38,765.67 		"/>
		<g>
			<path fill="#2C2858" d="M1458.397,697.936l-1.985,272.519l-5.798,191.843c0,0,54.865,19.577,95.795-11.368l-11.048-427.19
				L1458.397,697.936z"/>
			<polygon fill="#494C7F" points="1457.055,695.06 1455.84,989.368 1499.1,761.003 			"/>
		</g>
		<g>
			<path fill="#2C2858" d="M1333.642,686.629l14.258,483.133c0,0-99.314,17.403-139.851-9.39l21.973-152.671l19.536-312.289
				L1333.642,686.629z"/>
			<polygon fill="#494C7F" points="1334.6,685.687 1342.337,981.258 1290.91,748.585 			"/>
		</g>
		<g id="c_1_">
			<path fill="#F37A50" d="M1119.172,1146.898l-0.789,34.294c0,0,24.474-0.729,25.329,15.989l-22.983,0.712
				c0,0-13.986,18.066,6.061,53.315c7.996,34.533-17.314,19.924-19.05,31.396c-2.562,16.932-35.987-12.096-41.296-46.593
				c-6.87-44.638,2.242-50,2.242-50l10.109-33.896L1119.172,1146.898z"/>
		</g>
		<g>
			<g>
				<g>
					
						<ellipse transform="matrix(-0.9771 0.2126 -0.2126 -0.9771 2900.1304 786.2537)" fill="#F37A50" cx="1407.799" cy="549.026" rx="89.726" ry="114.242"/>
					<circle cx="1468.851" cy="544.609" r="9.291"/>
					<circle cx="1398.541" cy="546.466" r="9.329"/>
					<path fill="#DE623C" d="M1450.119,546.413c6.655,15.15,15.186,33.696,15.186,33.696s-7.216,13.904-26.565,11.295
						c8.671-2.189,17.559-6.513,15.814-17.9C1452.809,562.117,1450.119,546.413,1450.119,546.413z"/>
					<g>
						<path fill="#2C2858" d="M1380.199,536.771c1.779,0.786,3.929,0.283,5.158-1.333c0.289-0.375,7.458-9.457,16.262-5.619
							c2.177,0.95,4.711-0.045,5.66-2.223c0.949-2.177-0.061-4.718-2.223-5.66c-12.021-5.241-22.62,3.135-26.545,8.297
							c-1.438,1.891-1.07,4.588,0.82,6.026C1379.605,536.466,1379.897,536.637,1380.199,536.771z"/>
					</g>
					<g>
						<path fill="#2C2858" d="M1485.229,536.771c-1.779,0.786-3.929,0.283-5.157-1.333c-0.29-0.375-7.458-9.457-16.263-5.619
							c-2.177,0.95-4.711-0.045-5.66-2.223c-0.95-2.177,0.061-4.718,2.223-5.66c12.021-5.241,22.621,3.135,26.545,8.297
							c1.437,1.891,1.071,4.588-0.82,6.026C1485.823,536.466,1485.531,536.637,1485.229,536.771z"/>
					</g>
					<path fill="#2C2858" d="M1329.635,570.616c2.575-22.76,21.854-15.686,27.362-45.465c5.509-29.778,10.942-52.222,38.862-44.049
						s35.497,2.222,47.76-3.22c36.871-16.362,50.517,46.451,50.517,46.451s26.671-50.462-0.899-78.047
						c-30.565-30.58-39.584-9.583-68.042-31.811c-28.458-22.227-73.884-14.53-84.932,3.131
						c-11.646,18.618-14.913,32.518-43.126,43.302c-28.214,10.785-44.131,32.245-22.496,63.55
						c21.635,31.307-21.657,47.351,17.103,78.352c15.035,12.025,42.738,17.584,47.855,12.262
						C1346.452,607.947,1327.975,585.288,1329.635,570.616z"/>
					<path fill="#2C2858" d="M1498.759,563.744c0,0-4.687,30.636-11.542,39.972c-2.333-14.35-15.88-2.336-26.22-3.014
						c-24.987-1.637-67.287-18.515-78.924,17.132c-31.628,3.481-48.194-64.501-48.194-64.501
						c-15.901,70.801,29.502,120.329,106.784,123.438C1491.577,678.819,1510.564,614.189,1498.759,563.744z"/>
					<path fill="#FFFFFF" d="M1469.78,620.76c1.488-1.909-0.004-4.664-2.414-4.436c-6.127,0.582-16.254,1.332-25.896,1.099
						c-9.643-0.234-19.72-1.473-25.813-2.35c-2.396-0.346-4.02,2.333-2.625,4.313c4.288,6.087,13.23,15.384,28.009,15.743
						C1455.821,635.486,1465.203,626.634,1469.78,620.76z"/>
					<g>
						
							<ellipse transform="matrix(0.732 -0.6813 0.6813 0.732 -34.3165 1054.0388)" fill="#F37A50" cx="1322.673" cy="570.641" rx="22.733" ry="27.78"/>
						<g>
							<path fill="#DE623C" d="M1327.388,585.767c0.482-0.15,0.937-0.412,1.326-0.786c5.576-5.365,7.115-12.157,4.117-18.168
								c-3.069-6.155-10.014-9.866-16.514-8.823c-1.83,0.295-3.075,2.014-2.781,3.844c0.294,1.829,2.015,3.074,3.844,2.781
								c3.561-0.571,7.711,1.71,9.448,5.192c1.668,3.346,0.687,7.019-2.766,10.34c-1.335,1.285-1.376,3.408-0.091,4.744
								C1324.882,585.837,1326.214,586.133,1327.388,585.767z"/>
						</g>
					</g>
				</g>
			</g>
		</g>
		<polygon fill="#FFFFFF" points="1399.751,730.588 1357.042,768.571 1323.998,700.949 1335.272,683.935 		"/>
		<polygon fill="#FFFFFF" points="1399.751,730.588 1432.581,765.45 1463.489,705.155 1453.515,686.749 		"/>
	</g>
	<g>
		<g>
			<path fill="#F37A50" d="M1135.567,1798.574c-3.427-34.184,14.209-294.324,14.209-294.324
				c49.876-228.699,30.285-392.41,30.285-392.41l-85.727,6.022l-33.786,129.235l16.025,215.828c0,0-6.016,16.613-9.19,29.9
				c-17.212,72.043-0.068,158.143,10.531,215.531c4.912,26.594,12.552,82.484,12.752,95.188l-21.538,27.842
				c0,0,77.945,86.264,89.936,86.805c23.307,1.053,16.439-22.029,16.439-22.029
				C1143.467,1863.263,1136.548,1808.363,1135.567,1798.574z"/>
			<path fill="#E62552" d="M1067.795,1861.953l4.289,55.423l9.961,0.45l5.039-51.471c26.516,6.769,45.513,54.887,45.513,54.887
				c18.263,6.551,64.688,11.043,81.211,2.531c3.989-16.193-38.375-27.547-38.375-27.547c-3.828,4.533-26.442,8.006-34.473,3.15
				c-29.571-25.178-43.991-61.787-50.294-95.832C1090.666,1803.545,1043.939,1806.803,1067.795,1861.953z"/>
		</g>
		<g>
			<path fill="#F37A50" d="M1106.577,1128.475L985.81,1111.84c-46.198,104.521-61.258,286.506-73.799,351.334
				c-50.34,84.408-66.325,340.371-66.325,340.371l-21.538,27.842c0,0,77.945,86.264,89.936,86.805
				c23.306,1.053,16.439-22.029,16.439-22.029c-32.037-32.899-38.282-76.607-40.356-86.225
				c-3.117-14.453,97.75-298.411,97.75-298.411l10.768-26.942c123.202-203.487,143.417-357.32,143.417-357.32L1106.577,1128.475z"/>
			<path fill="#E62552" d="M822.815,1861.953l4.288,55.423l9.962,0.45l5.039-51.471c26.516,6.769,45.512,54.887,45.512,54.887
				c18.263,6.551,64.689,11.043,81.211,2.531c3.99-16.193-38.375-27.547-38.375-27.547c-3.828,4.533-26.441,8.006-34.473,3.15
				c-29.571-25.178-43.991-61.787-50.294-95.832C845.686,1803.545,798.959,1806.803,822.815,1861.953z"/>
		</g>
		<path d="M1150.854,831.964c39.321-13.697,122.875-55.887,83.291-112.775c-39.584-56.887-56.4-33.052-41.178-101.458
			c15.222-68.406-32.937-122.877-79.563-109.738c-46.626,13.139-58.902,50.619-115.768,40.474
			c-56.866-10.146-104.806,42.619-83.868,89.059c20.938,46.44,29.853,68.789,9.52,94.146
			c-20.333,25.357-110.987,51.914-73.977,113.601s54.324,58.118,40.889,89.382s16.364,67.356,68.798,63.049
			c52.436-4.308,100.068-23.593,119.921-81.868C1098.772,857.56,1150.854,831.964,1150.854,831.964z"/>
		<path fill="#C4204A" d="M1140.423,814.055c17.791,1.841,38.849,10.884,46.505,32.046s2.781,76.479,2.781,76.479L1140.423,814.055z
			"/>
		<path fill="#F37A50" d="M1041.943,756.955l0.586,77.464c0,0,37.588,22.872,67.266,4.608c-4.566-22.83-11.205-74.896-11.205-74.896
			L1041.943,756.955z"/>
		<g>
			<ellipse fill="#F37A50" cx="1072.21" cy="667.03" rx="77.524" ry="104.214"/>
			<path d="M989.53,667.03c42.796-5.472,82.586-29.32,105.061-60.136c14.518,36.018,55.144,60.136,55.144,60.136
				s30.445-68.898-24.926-106.065C1071.985,525.509,945.954,549.735,989.53,667.03z"/>
			<circle cx="1039.597" cy="681.028" r="8.239"/>
			<circle cx="1105.261" cy="681.028" r="8.239"/>
			<g>
				<path d="M1119.778,673.605c-1.352,0-2.668-0.692-3.407-1.939c-2.035-3.431-4.5-5.488-7.326-6.113
					c-4.883-1.081-9.721,2.179-9.77,2.212c-1.796,1.229-4.258,0.783-5.497-1.007s-0.808-4.238,0.975-5.487
					c0.308-0.215,7.625-5.252,15.913-3.465c5.088,1.098,9.298,4.402,12.513,9.824c1.115,1.88,0.495,4.307-1.385,5.422
					C1121.159,673.426,1120.464,673.605,1119.778,673.605z"/>
			</g>
			<g>
				<path d="M1023.967,674.005c-0.868,0-1.742-0.283-2.472-0.869c-1.705-1.366-1.98-3.856-0.614-5.562
					c5.201-6.492,10.958-10.025,17.109-10.502c7.938-0.616,13.394,4.28,13.623,4.49c1.613,1.474,1.725,3.977,0.25,5.59
					c-1.468,1.604-3.953,1.724-5.565,0.273c-0.116-0.1-3.36-2.842-7.796-2.455c-3.849,0.337-7.7,2.878-11.444,7.552
					C1026.276,673.498,1025.126,674.005,1023.967,674.005z"/>
			</g>
			<path fill="#DE623C" d="M1080.383,691.845c10.657,7.683,13.98,10.837,18.093,13.397c-2.841,9.515-17.762,14.239-22.006,13.141
				c10.393-5.123,11.857-12.063,11.857-12.063L1080.383,691.845z"/>
			
				<ellipse transform="matrix(0.7848 -0.6197 0.6197 0.7848 -212.4695 762.0198)" fill="#F37A50" cx="991.168" cy="686.992" rx="19.237" ry="25.958"/>
			<g>
				<path fill="#DE623C" d="M998.47,699.377c-0.342,0-0.689-0.066-1.024-0.208c-1.342-0.566-1.971-2.114-1.404-3.456
					c1.883-4.46,1.926-8.047,0.126-10.664c-2.777-4.04-9.334-5.287-14.096-5.129c-1.455,0.052-2.676-1.092-2.724-2.548
					c-0.049-1.457,1.092-2.676,2.548-2.725c6.392-0.212,14.639,1.622,18.621,7.412c1.982,2.885,3.66,7.951,0.386,15.706
					C1000.476,698.772,999.498,699.377,998.47,699.377z"/>
			</g>
			<path fill="#FFFFFF" d="M1051.642,732.455c-1.104-1.806,0.464-4.049,2.534-3.613c5.262,1.109,13.979,2.761,22.373,3.509
				c8.394,0.749,17.265,0.669,22.64,0.509c2.115-0.063,3.26,2.423,1.854,4.004c-4.323,4.861-13.004,12.049-25.87,10.901
				C1062.307,746.616,1055.036,738.004,1051.642,732.455z"/>
		</g>
		<path fill="#C4204A" d="M973.579,810.045c0,0-100.428,44.561-156.545,161.214c32.773,46.135,68.13,18.696,68.13,18.696
			l93.552-73.073c0,0,23.791-43.068,20.726-65.774C994.885,817.366,973.579,810.045,973.579,810.045z"/>
		<g>
			<g>
				<g>
					<g>
						<path fill="#070635" d="M990.851,1453.877c-32.312-5.844-63.31-5.811-81.49-5.411c11.503-38.487,4.953-278.554,77.873-360.257
							l186.75,2.475c64.963,111.475,30.553,281.172,70.698,348.832c-15.682,7.578-49.748,22.039-107.314,27.848
							C1073.71,1473.787,1045.457,1463.754,990.851,1453.877z"/>
					</g>
				</g>
			</g>
		</g>
		<g>
			<g>
				<g>
					<path fill="#F5A3B7" d="M1172.358,1041.916c0-38.148,33.063-95.301,17.213-133.811c-11.543-30.979-31.763-86.834-55.378-95.511
						c-11.143-4.095-16.616-7.227-30.5-11.066c0,0-0.725,29.517-17.045,30.826c-31.416,2.52-44.421-37.886-44.421-37.886
						c-16.938-1.619-79.517,16.14-79.479,22.521c0.184,49.971,22.161,130.779,35.437,184.807c2.462,27.511,0.514,48.85-2.241,64.418
						c-5.031,16.225-13.736,24.576-13.774,28.084c0,0,119.01,40.504,193.101-0.285
						C1175.27,1094.012,1172.358,1067.681,1172.358,1041.916z"/>
				</g>
			</g>
		</g>
		<path fill="#E62552" d="M1028.374,795.496c0,0,36.739,137.003,36.739,194.93c0,65.826-33.754,176.803-33.754,176.803
			l-82.601-3.229c0,0,10.111-46.239,35.311-87.341c26.019-42.439-2.548-132.959-8.847-157.046
			c-6.299-24.088-16.539-101.748-16.539-101.748S993.074,795.287,1028.374,795.496z"/>
		<path fill="#E62552" d="M1115.906,805.415c8.215,17.44,39.967,88.905,37.992,132.351c-1.975,43.444-6.016,192.643,5.878,233.239
			c29.667-0.874,43.217-9.826,43.217-9.826c4.223-11.454-40.231-77.159-28.254-128.22c11.978-51.063,22.425-87.445,19.132-108.358
			c-3.692-23.448-21.853-82.899-53.449-110.546C1129.271,809.115,1115.906,805.415,1115.906,805.415z"/>
		<g id="c_12_">
			<path fill="#F37A50" d="M962.613,1077.811l5.312,2.211c0,0,10.789-14.558,21.809-14.008l-6.738,14.186
				c0,0,12.671,20.852,46.055,18.643c28.519,6.482,8.568,20.021,16.463,25.438c11.65,7.99-21.022,27.615-48.547,19.15
				c-35.618-10.952-58.758-44.586-58.758-44.586L962.613,1077.811z"/>
		</g>
		<path fill="#C4204A" d="M962.613,1077.811l-75.614-95.47c0,0-15.931-30.469-69.965-11.081
			c-2.616,29.052,28.454,68.625,124.83,132.375L962.613,1077.811z"/>
	</g>
	<g>
		<g>
			<path fill="#201D40" d="M2167.716,533.207c-67.216-18.967-201.474,35.39-162.403,279.865
				c39.068,244.475,214.855,210.547,214.855,210.547s80.669-25.356,87.91-180.673
				C2315.318,687.629,2280.753,565.103,2167.716,533.207z"/>
			<g>
				<g>
					<path fill="#7890DB" d="M2085.502,872.07c-14.313,41.219-68.008,121.836-87.188,136.625
						c-12.77-18.191-59.903-9.121-59.903-9.121s47.134-114.218,89.697-169.569C2047.961,792.729,2108.998,804.817,2085.502,872.07z"
						/>
					<path fill="#F37A50" d="M1938.411,999.574c9.151,50.228,69.87,115.529,69.87,115.529s6.828-3.931,8.311-33.536
						c-7.529-20.272-18.277-72.872-18.277-72.872S1974.412,983.006,1938.411,999.574z"/>
				</g>
			</g>
			<g>
				<g>
					<g>
						<path fill="#F37A50" d="M2109.337,755.254l50.101-7.505l-3.99,46.506c0,0-25.373,45.722-49.447,37.848
							c-24.074-7.874-12.333-28.073-12.333-28.073L2109.337,755.254z"/>
					</g>
				</g>
			</g>
			<g>
				
					<ellipse transform="matrix(0.9892 0.1466 -0.1466 0.9892 120.873 -303.7573)" fill="#F37A50" cx="2121.383" cy="668.226" rx="78.989" ry="100.572"/>
				<g>
					<path fill="#201D40" d="M2152.617,664.981c-0.6-0.176-1.146-0.551-1.531-1.105c-5.594-8.031-16.846-7.805-16.959-7.802
						c-1.572,0.045-2.891-1.191-2.939-2.766c-0.049-1.573,1.18-2.889,2.753-2.943c0.587-0.02,14.44-0.367,21.833,10.246
						c0.901,1.294,0.583,3.074-0.711,3.976C2154.321,665.103,2153.422,665.219,2152.617,664.981z"/>
				</g>
				<g>
					<path fill="#201D40" d="M2056.374,663.387c-0.285-0.112-0.557-0.272-0.804-0.481c-1.202-1.02-1.35-2.823-0.33-4.025
						c7.923-9.339,18.932-6.727,19.396-6.61c1.527,0.381,2.463,1.931,2.08,3.461c-0.379,1.526-1.922,2.457-3.447,2.084
						c-0.361-0.085-8.102-1.809-13.674,4.759C2058.785,663.533,2057.479,663.821,2056.374,663.387z"/>
				</g>
				<path fill="#DE623C" d="M2096.219,686.645c-3.592,4.413-6.688,8.905-10.25,11.614c-1.201,0.913-1.459,2.641-0.605,3.885
					c3.523,5.134,12.811,8.797,18.469,10.634c0.826,0.268,1.387-0.832,0.687-1.346c-5.931-4.342-8.608-7.688-9.774-9.553
					c-0.578-0.927-0.666-2.069-0.26-3.083c0.932-2.33,2.778-7.076,3.967-10.974C2098.861,686.475,2097.107,685.554,2096.219,686.645
					z"/>
				<path fill="#FFFFFF" d="M2132.38,728.144c1.097-1.681-0.327-3.852-2.303-3.496c-5.021,0.907-13.334,2.231-21.315,2.709
					c-7.981,0.479-16.393,0.157-21.486-0.144c-2.004-0.118-3.158,2.208-1.869,3.746c3.966,4.73,12,11.788,24.233,11.055
					C2121.874,741.281,2129.008,733.314,2132.38,728.144z"/>
				<path fill="#201D40" d="M2217.082,674.773c-51.039-2.31-118.164-49.417-126.277-75.281
					c6.965-32.542,32.623-50.931,63.271-38.841C2184.723,572.741,2234.936,633.021,2217.082,674.773z"/>
				<path fill="#201D40" d="M2102.463,612.57c0,0-30.373,30.871-61.131,37.924c10.766-36.007,18.455-63.306,36.909-72.148
					s38.831-10.38,38.831-10.38L2102.463,612.57z"/>
				<g>
					
						<ellipse transform="matrix(-0.681 -0.7323 0.7323 -0.681 3197.4673 2763.8574)" fill="#F37A50" cx="2200.768" cy="685.444" rx="19.354" ry="23.65"/>
					<g>
						<path fill="#DE623C" d="M2195.835,697.999c-0.399-0.157-0.771-0.407-1.077-0.749c-4.405-4.898-5.295-10.76-2.381-15.68
							c2.984-5.038,9.109-7.762,14.564-6.478c1.535,0.362,2.486,1.899,2.125,3.434c-0.361,1.536-1.899,2.487-3.435,2.125
							c-2.989-0.703-6.651,0.979-8.341,3.829c-1.623,2.74-1.014,5.917,1.713,8.95c1.056,1.173,0.96,2.979-0.213,4.033
							C2197.959,698.212,2196.809,698.382,2195.835,697.999z"/>
					</g>
				</g>
				<circle cx="2138.362" cy="673.384" r="8.77"/>
				<circle cx="2074.453" cy="673.384" r="8.77"/>
			</g>
			<g>
				<path fill="#F37A50" d="M2062.432,1808.268c3.354-33.459-13.909-288.107-13.909-288.107
					c-48.823-223.869-29.646-384.123-29.646-384.123l83.916,5.896l33.073,126.507l-15.687,211.27c0,0,5.889,16.264,8.996,29.268
					c16.848,70.523,0.066,154.804-10.31,210.982c-4.808,26.031-12.286,80.741-12.482,93.175l21.083,27.255
					c0,0-76.299,84.441-88.037,84.971c-22.813,1.031-16.092-21.564-16.092-21.564
					C2054.698,1871.592,2061.471,1817.852,2062.432,1808.268z"/>
				<path fill="#C4204A" d="M2128.771,1870.309l-4.197,54.253l-9.752,0.44l-4.932-50.383c-25.956,6.625-44.552,53.727-44.552,53.727
					c-17.877,6.412-63.323,10.811-79.496,2.478c-3.905-15.85,37.564-26.964,37.564-26.964c3.747,4.438,25.884,7.836,33.745,3.084
					c28.946-24.647,43.062-60.482,49.231-93.81C2106.384,1813.134,2152.124,1816.323,2128.771,1870.309z"/>
			</g>
			<g>
				<path fill="#F37A50" d="M2090.809,1152.32l118.217-16.283c45.223,102.314,59.965,280.456,72.24,343.915
					c49.277,82.625,64.925,333.182,64.925,333.182l21.083,27.255c0,0-76.299,84.441-88.037,84.971
					c-22.813,1.031-16.092-21.564-16.092-21.564c31.36-32.203,37.474-74.988,39.504-84.402
					c3.052-14.148-95.686-292.109-95.686-292.109l-10.541-26.373c-120.6-199.189-140.388-349.775-140.388-349.775L2090.809,1152.32z
					"/>
				<path fill="#C4204A" d="M2368.578,1870.309l-4.198,54.253l-9.751,0.44l-4.932-50.383c-25.956,6.625-44.553,53.727-44.553,53.727
					c-17.877,6.412-63.322,10.811-79.495,2.478c-3.905-15.85,37.564-26.964,37.564-26.964c3.746,4.438,25.884,7.836,33.744,3.084
					c28.946-24.647,43.062-60.482,49.232-93.81C2346.19,1813.134,2391.93,1816.323,2368.578,1870.309z"/>
			</g>
			<g>
				<g>
					<g>
						<g>
							<path fill="#070635" d="M2310.594,1468.33c-11.807-39.5-6.669-322.234-110.893-399.115l-179.352,18.896
								c-41.445,67.089-26.24,241.65-12.285,385.313C2092.391,1503.523,2159.438,1515.604,2310.594,1468.33z"/>
						</g>
					</g>
				</g>
			</g>
			<g>
				<g>
					<g>
						<path fill="#95A6DB" d="M2018.162,1043.857c0-39.277-34.04-98.12-17.723-137.77c11.885-31.894,32.703-89.402,57.016-98.336
							c11.473-4.215,22.299-3.185,36.595-7.138c0,0-4.446,26.135,12.357,27.483c32.345,2.594,49.345-38.873,49.345-38.873
							c17.438-1.667,78.258,16.484,78.221,23.052c-0.189,51.451-22.816,134.648-36.485,190.274
							c-2.536,28.323-0.529,50.294,2.308,66.321c5.178,16.707,11.502,26.273,11.543,29.887c0,0-119.892,40.73-196.174-1.265
							C2015.164,1097.493,2018.162,1070.384,2018.162,1043.857z"/>
					</g>
				</g>
			</g>
			<g id="c_10_">
				<path fill="#F37A50" d="M2231.465,1081.188l-10.219,4.084c0,0-10.65-16.938-21.451-16.4l5.383,16.18
					c0,0-6.109,18.912-38.829,16.748c-27.95,6.354-8.397,19.623-16.136,24.931c-11.418,7.832,20.604,27.065,47.582,18.771
					c34.908-10.735,57.588-43.699,57.588-43.699L2231.465,1081.188z"/>
			</g>
			<path fill="#F37A50" d="M2231.465,809.196c0,0,85.424,50.04,126.785,169.979c-37.15,41.185-68.449,10.452-68.449,10.452
				l-82.76-81.776c0,0-24.328-29.882-12.694-66.386C2204.48,809.671,2231.465,809.196,2231.465,809.196z"/>
			<path fill="#F37A50" d="M2231.465,1081.188l59.72-87.464c0,0,14.106-33.549,67.065-14.547
				c2.563,28.473-18.055,69.021-112.512,131.5C2239.639,1094.732,2231.465,1081.188,2231.465,1081.188z"/>
			<path fill="#FFFFFF" d="M2106.407,828.097c-2.884,13.456,4.935,29.588,27.478,22.023c27-9.06,39.611-59.738,39.611-59.738
				l-16.93-9.17C2156.566,781.212,2143.713,816.216,2106.407,828.097z"/>
			<path fill="#FFFFFF" d="M2106.407,828.097c-3.333,6.931-22.321,24.704-31.321,14.117s1.506-38.373,1.506-38.373l20.477-10.402
				C2097.068,793.44,2089.04,818.466,2106.407,828.097z"/>
			<path fill="#7890DB" d="M2231.465,809.196c0,0,85.424,50.04,126.785,169.979c-37.15,41.185-71.674,7.266-71.674,7.266
				l-79.535-78.59c0,0-24.328-29.882-12.694-66.386C2204.48,809.671,2231.465,809.196,2231.465,809.196z"/>
			<path id="c_13_" fill="#F37A50" d="M1998.543,1121.924c0.611-0.422,1.281-0.693,1.971-0.9c-0.073-0.102-0.152-0.196-0.225-0.301
				c-4.234-6.154-4.085-13.605,0.331-16.64c0.726-0.498,1.524-0.832,2.365-1.039c-1.24-4.589-0.274-9.009,2.879-11.176
				c1.252-0.86,2.715-1.259,4.262-1.269c-1.536-4.504-0.46-9.279,3.071-11.705c4.416-3.035,10.928-1.236,14.541,4.018
				c3.613,5.253,2.963,11.973-1.454,15.008c-1.118,0.768-2.37,1.225-3.677,1.395c3.072,5.744,2.582,12.097-1.412,14.842
				c-0.725,0.498-1.523,0.832-2.364,1.039c1.239,4.59,0.274,9.01-2.879,11.176c-1.163,0.799-2.508,1.203-3.933,1.266
				c1.545,3.938,0.681,8.221-2.424,10.354c-3.73,2.564-9.229,1.047-12.28-3.393
				C1994.264,1130.162,1994.813,1124.486,1998.543,1121.924z"/>
		</g>
	</g>
	<g>
		<g>
			<path fill="#F37A50" d="M1626.377,1866.914l-34.251,15.916l-17.378-36.245l-49.753-325.359
				c8.593-108.831,91.944-340.362,91.944-340.362l96.24,139.928l-109.24,220.119
				C1646.865,1584.844,1620.875,1720.011,1626.377,1866.914z"/>
			<path fill="#F37A50" d="M1673.388,1188.535c0.859-6.724,108.245-16.341,108.245-16.341c20.336,84.88,21.94,222.105,5.9,315.811
				c23.486,81.099,12.208,271.72-0.863,368.946l-56.598-0.143c-3.723-52.524-0.945-224.48-47.277-368.804
				C1673.629,1433.799,1669.664,1224.672,1673.388,1188.535z"/>
		</g>
		<g>
			<path fill="#E62552" d="M1596.781,1868.53c-7.023-19.747-22.033-21.945-22.033-21.945
				c-29.18,41.685-100.835,16.106-98.463,72.489c108.967-0.725,154.254,0,154.254,0c-0.143-12.95-2.298-43.688-4.811-55.719
				l-5.679,1.08L1596.781,1868.53z"/>
			<path fill="#FFFFFF" d="M1482.813,1934.125h141.142c3.637,0,6.585-2.947,6.585-6.585v-10.019h-154.312v10.019
				C1476.227,1931.178,1479.175,1934.125,1482.813,1934.125z"/>
		</g>
		<g>
			<path fill="#E62552" d="M1716.582,1919.621c0,0,8.747-34.956,9.519-39.445c0.876-5.107,3.448-17.177,3.972-23.367
				c0.129-1.524,15.149-11.362,26.617-11.343c15.535,0.026,29.694,9.666,29.98,11.485c1.834,11.665,1.889,25.379,4.859,36.738
				c2.209,8.451,8.212,28.141,8.212,28.141L1716.582,1919.621z"/>
			<g>
				<g>
					<g>
						<g>
							<path fill="#FFFFFF" d="M1716.583,1916.904c2.04,6.938,27.191-1.066,45.546-1.062c15.409,0.005,35.348,6.399,37.613,3.911
								c3.853,7.287,0.68,22.396,0.68,22.396s-16.059,0.89-35.318,0c-19.261-0.889-41.52,0.426-49.904-2.24
								C1709.91,1930.434,1716.583,1916.904,1716.583,1916.904z"/>
						</g>
					</g>
				</g>
			</g>
		</g>
		<path d="M1539.515,619.331c-3.525-47.996,10.352-90.398,48.62-111.992c38.789-21.887,87.381-0.421,87.381-0.421l0,0
			c0.004-0.001,41.131-14.632,78.405,26.427c37.276,41.061,9.08,77.192,24.329,107.138c9.031,17.733,54.949,21.39,43.088,79.153
			c-3.422,16.659-23.457,27.871-40.428,28.986c-29.815,1.958-57.58-9.568-69.666,1.958
			c-39.828,37.981-128.088,24.245-140.439-10.498c-3.83-10.773-83.223,10.074-75.302-63.3
			C1499.516,639.602,1542.664,662.217,1539.515,619.331z"/>
		<g>
			<g>
				<g>
					<path fill="#F37A50" d="M1628.194,723.001l51.183-7.665l-4.078,47.509c0,0-15.151,44.395-45.344,45.248
						c-30.191,0.854-18.989-34.75-18.989-34.75L1628.194,723.001z"/>
				</g>
			</g>
		</g>
		<g>
			<g>
				<g>
					<path fill="#3F964F" d="M1535.053,1017.831c0-40.124-34.774-100.236-18.104-140.741c12.141-32.582,32.423-87.28,57.262-96.406
						c11.72-4.306,23.495-7.23,38.1-11.269c0,0-4.272,26.625,12.892,28.001c33.043,2.65,50.551-39.858,50.551-39.858
						c17.816-1.703,98.785,24.938,102.605,37.962c-0.194,52.559-46.146,123.287-60.111,180.113
						c-5.493,61.373,7.62,94.139,7.697,101.121c0,0-116.025,38.771-193.953-4.129
						C1531.99,1072.625,1535.053,1044.93,1535.053,1017.831z"/>
				</g>
			</g>
		</g>
		<g>
			
				<ellipse transform="matrix(0.9828 0.1847 -0.1847 0.9828 146.3842 -292.5609)" fill="#F37A50" cx="1643.353" cy="639.356" rx="80.693" ry="102.741"/>
			<g>
				<path d="M1675.82,631.809c-0.623-0.14-1.206-0.484-1.637-1.021c-6.256-7.799-17.709-6.792-17.824-6.782
					c-1.6,0.155-3.029-1.014-3.188-2.615c-0.158-1.6,1.004-3.027,2.604-3.19c0.596-0.062,14.693-1.371,22.959,8.936
					c1.008,1.257,0.807,3.093-0.45,4.102C1677.564,631.815,1676.656,631.995,1675.82,631.809z"/>
			</g>
			<g>
				<path d="M1581.622,630.989c-0.3-0.089-0.59-0.229-0.858-0.421c-1.311-0.937-1.614-2.759-0.678-4.07
					c7.275-10.179,18.705-8.45,19.188-8.372c1.588,0.258,2.67,1.758,2.412,3.348c-0.259,1.585-1.75,2.664-3.335,2.414
					c-0.375-0.056-8.4-1.156-13.517,6.004C1584.088,630.932,1582.784,631.337,1581.622,630.989z"/>
			</g>
			<path fill="#DE623C" d="M1617.246,654.338c-3.428,3.975-6.356,8.085-9.816,10.372c-1.166,0.771-1.36,2.458-0.462,3.791
				c3.708,5.5,13.122,10.197,18.843,12.666c0.836,0.361,1.356-0.669,0.638-1.258c-6.085-4.989-8.884-8.618-10.116-10.603
				c-0.613-0.987-0.742-2.131-0.374-3.094c0.846-2.208,2.517-6.713,3.562-10.45C1619.881,654.47,1618.094,653.355,1617.246,654.338z
				"/>
			<path fill="#FFFFFF" d="M1654.613,697.059c1.086-1.74-0.412-3.93-2.422-3.525c-5.111,1.026-13.574,2.545-21.717,3.194
				c-8.143,0.648-16.74,0.487-21.949,0.282c-2.049-0.081-3.182,2.318-1.834,3.863c4.146,4.752,12.492,11.799,24.974,10.806
				C1644.145,710.686,1651.271,702.406,1654.613,697.059z"/>
			<circle cx="1662.193" cy="640.899" r="9.02"/>
			<circle cx="1595.592" cy="640.899" r="9.02"/>
			<path d="M1611.201,535.991C1611.201,535.991,1611.201,535.991,1611.201,535.991c19.691-18.745,55.152-26.961,78.35-16.756
				c30.808,13.552,62.385,76.585,42.51,118.501c-40.746-3.428-95.533-34.293-120.844-60.353
				c-7.029,6.274-24.795,21.18-47.354,33.109C1561.161,590.577,1602.074,539.922,1611.201,535.991z"/>
			<g>
				
					<ellipse transform="matrix(-0.6522 -0.7581 0.7581 -0.6522 2357.0317 2374.9927)" fill="#F37A50" cx="1723.389" cy="646.744" rx="19.772" ry="24.16"/>
				<g>
					<path fill="#DE623C" d="M1717.857,659.365c-0.402-0.177-0.77-0.446-1.07-0.806c-4.303-5.175-4.98-11.194-1.811-16.101
						c3.245-5.025,9.605-7.563,15.123-6.037c1.553,0.43,2.463,2.037,2.033,3.589s-2.037,2.463-3.59,2.034
						c-3.023-0.836-6.828,0.736-8.665,3.579c-1.765,2.732-1.269,6.001,1.396,9.204c1.03,1.239,0.861,3.079-0.377,4.109
						C1720.018,659.667,1718.838,659.793,1717.857,659.365z"/>
				</g>
			</g>
		</g>
		<g>
			<g>
				<g>
					<g>
						<path fill="#3F964F" d="M1842.459,1456.797c-58.787-72.618-15.733-330.109-122.206-408.65l-182.966,14.895
							c-61.06,79.15-18.73,248.52-68.897,409.895C1554.535,1503.684,1688.043,1505.092,1842.459,1456.797z"/>
					</g>
				</g>
			</g>
		</g>
		<g id="c_11_">
			<path fill="#F37A50" d="M1767.334,1072.256l-10.748,4.295c0,0-11.203-17.814-22.563-17.248l5.662,17.016
				c0,0-6.426,19.893-40.84,17.615c-29.398,6.683-8.832,20.641-16.971,26.223c-12.01,8.236,21.67,28.467,50.045,19.742
				c36.716-11.291,60.57-45.963,60.57-45.963L1767.334,1072.256z"/>
		</g>
		<path fill="#F37A50" d="M1767.334,1072.256l62.811-91.994c0,0,14.838-35.286,70.539-15.3
			c2.695,29.948-18.99,72.595-118.338,138.31C1775.93,1086.502,1767.334,1072.256,1767.334,1072.256z"/>
		<path fill="#F37A50" d="M1767.334,786.181c0,0,89.847,52.63,133.35,178.781c-39.074,43.317-75.385,7.643-75.385,7.643
			l-83.654-82.66c0,0-25.588-31.43-13.352-69.822C1738.951,786.68,1767.334,786.181,1767.334,786.181z"/>
		<circle fill="#FFFFFF" cx="1596.336" cy="779.874" r="8.52"/>
		<circle fill="#FFFFFF" cx="1596.336" cy="796.913" r="8.52"/>
		<circle fill="#FFFFFF" cx="1599.087" cy="812.442" r="8.52"/>
		<circle fill="#FFFFFF" cx="1608.934" cy="824.671" r="8.52"/>
		<circle fill="#FFFFFF" cx="1625.117" cy="829.482" r="8.52"/>
		<circle fill="#FFFFFF" cx="1641.014" cy="824.671" r="8.52"/>
		<circle fill="#FFFFFF" cx="1654.978" cy="816.152" r="8.52"/>
		<circle fill="#FFFFFF" cx="1666.211" cy="805.433" r="8.52"/>
		<circle fill="#FFFFFF" cx="1677.829" cy="794.701" r="8.52"/>
		<circle fill="#FFFFFF" cx="1686.349" cy="781.862" r="8.52"/>
		<circle fill="#FFFFFF" cx="1691.852" cy="767.799" r="8.52"/>
	</g>
	<g>
		<path fill="#DE623C" d="M518.125,815.32c52.259,10.318,139.503,115.237,146.002,195.127
			c-28.947,5.789-61.404-13.519-61.404-13.519l-69.238-87.819L518.125,815.32z"/>
		<path fill="#201D40" d="M417.24,544.921c-32.546-33.332-98.705-38.465-110.922,9.972c-12.217,48.438-10.995,81.231-71.526,70.034
			c-48.203-8.916-100.72,31.719-104.754,100.251c-5.162,87.677,57.607,57.138,40.971,99.616
			c-16.637,42.478-28.299,85.872,34.291,90.996c62.59,5.124,114.366-44.486,111.236-116.193
			c-3.13-71.707,40.954-42.85,56.315-77.314C394.692,673.274,417.24,544.921,417.24,544.921z"/>
		<g>
			<path fill="#F37A50" d="M569.084,1871.676l28.227-111.175l-70.032-9.64c-2.403,52.578-6.334,104.346-5.991,118.365
				L569.084,1871.676z"/>
			<path fill="#F37A50" d="M401.976,1750.223h-73.122c2.403,17.526,11.993,112.408,11.993,112.408
				c6.179,14.021,60.671,10.821,60.671,2.934C397.399,1848.478,401.633,1752.414,401.976,1750.223z"/>
			<path fill="#C4204A" d="M521.541,1793.676l72.112,10.646l50.003-299.024c-10.299-113.48-110.198-354.901-110.198-354.901
				l-112.601,39.434l-2.746,106.471l135.602,229.59C536.037,1570.291,523.945,1713.846,521.541,1793.676z"/>
			<path fill="#E62552" d="M465.803,1158.396c-1.03-7.01-1.374-9.201-7.209-12.707l-108.138-30.67l-25.748,25.412
				c-24.374,88.506-9.269,211.626,9.956,309.333c-28.15,84.563-17.139,258.89-5.81,340.823h76.898
				c4.463-54.768,3.063-156.363,3.407-205.436l0,0c9.956-39.434,19.568-81.496,28.15-125.748
				c10.986-56.521,24.718-111.29,28.494-162.554C469.236,1248.217,470.266,1196.076,465.803,1158.396z"/>
		</g>
		
			<ellipse transform="matrix(-1 -0.007 0.007 -1 872.157 1345.8838)" fill="#F37A50" cx="438.423" cy="671.422" rx="83.588" ry="106.427"/>
		<path fill="#F37A50" d="M383.199,729.307l67.134,38.125c0,0,5.957,27.183,8.931,36.002c6.136,18.199-17.374,26.151-37.248,14.823
			c-19.874-11.33-32.742-26.487-32.742-26.487L383.199,729.307z"/>
		<path fill="#2C2858" d="M524.343,660.499c-16.002-1.459-105.084-24.464-115.384-40.559c0.841,38.226-56.751,81.844-64.47,70.622
			c-26.97-70.673-7.314-131.182,71.767-146.959C524.697,521.966,524.343,660.499,524.343,660.499z"/>
		<circle cx="430.881" cy="685.48" r="9.258"/>
		<circle cx="495.114" cy="684.911" r="8.691"/>
		<g>
			<path fill="#2C2858" d="M511.681,671.18c0.328-0.146,0.634-0.356,0.905-0.627c1.323-1.326,1.304-3.648-0.042-5.187
				c-10.45-11.95-23.285-8.477-23.826-8.323c-1.779,0.506-2.725,2.511-2.104,4.479c0.618,1.961,2.556,3.144,4.334,2.65
				c0.421-0.114,9.457-2.409,16.807,5.995C508.824,671.391,510.411,671.75,511.681,671.18z"/>
		</g>
		<g>
			<path fill="#2C2858" d="M414.038,672.888c-0.328-0.147-0.634-0.355-0.906-0.627c-1.323-1.326-1.304-3.649,0.042-5.187
				c10.45-11.951,23.285-8.477,23.826-8.323c1.779,0.505,2.726,2.511,2.105,4.479c-0.618,1.961-2.556,3.145-4.334,2.649
				c-0.421-0.113-9.457-2.409-16.807,5.996C416.894,673.098,415.308,673.458,414.038,672.888z"/>
		</g>
		<path fill="#DE623C" d="M481.174,695.805c2.715,5.707,4.875,11.37,8.006,15.23c1.056,1.302,0.88,3.234-0.368,4.351
			c-5.153,4.614-16.139,6.124-22.729,6.619c-0.962,0.072-1.278-1.263-0.387-1.632c7.543-3.126,11.313-6.034,13.062-7.739
			c0.869-0.848,1.264-2.058,1.092-3.259c-0.393-2.759-1.137-8.367-1.395-12.887C478.366,694.926,480.502,694.394,481.174,695.805z"
			/>
		
			<ellipse transform="matrix(0.7167 -0.6974 0.6974 0.7167 -391.5686 453.1715)" fill="#F37A50" cx="361.943" cy="708.497" rx="20.481" ry="25.027"/>
		<g>
			<path fill="#DE623C" d="M370.142,718.262c0.385-0.243,0.721-0.575,0.973-0.991c3.619-5.958,3.394-12.228-0.604-16.772
				c-4.092-4.653-10.996-6.282-16.416-3.876c-1.525,0.679-2.213,2.463-1.536,3.988c0.677,1.526,2.463,2.213,3.989,1.536
				c2.969-1.318,7.109-0.289,9.425,2.344c2.225,2.529,2.216,5.954-0.024,9.643c-0.866,1.426-0.412,3.285,1.015,4.151
				C367.975,718.9,369.203,718.851,370.142,718.262z"/>
		</g>
		<path fill="#3F964F" d="M550.168,1168.057c0,0-27.702,32.799-32.381,35.26l-24.809-27.092l-0.176,0.467l-5.885,15.498
			l-6.881,18.105c-5.756,0-178.756-38.749-178.756-38.749c0.354-15.596,15.017-66.113,38.749-119.894
			c-5.756-45.549-3.558-113.984-5.359-140.24c13.972-70.438,7.337-76.396-5.269-109.582l43.893-12.958l79.008,27.864l5.869-19.053
			c0,0,49.536,11.881,59.955,17.637l18.714,78.108l-4.052,165.941C532.788,1059.369,539.01,1126.189,550.168,1168.057z"/>
		<path fill="#0E6A41" d="M388.144,780.163l-30.545,13.068c3.267,37.17,86.44,59.382,86.44,59.382l8.258-35.877L388.144,780.163z"/>
		<path fill="#0E6A41" d="M452.298,816.736l24.491,27.212c0,0,21.175-21.904,13.511-35.44
			c-7.664-13.537-35.733-22.669-35.733-22.669L452.298,816.736z"/>
		<g>
			<path fill="#DE623C" d="M460.076,752.634c-1.94,0.192-3.885,0.199-5.834,0.02c-14.384-1.319-23.461-12.372-23.841-12.841
				c-1.173-1.453-0.946-3.581,0.506-4.754c1.45-1.171,3.573-0.947,4.748,0.5l0,0c0.076,0.093,7.754,9.345,19.269,10.37
				c7.502,0.668,15.128-2.27,22.667-8.73c1.417-1.215,3.551-1.051,4.767,0.366c1.215,1.417,1.05,3.553-0.367,4.767
				C474.854,748.447,467.505,751.898,460.076,752.634z"/>
		</g>
		<g>
			<path fill="#2C2858" d="M552.048,1869.881c7.325-19.23,22.98-21.369,22.98-21.369c30.433,40.592,105.167,15.684,102.694,70.588
				c-113.65-0.706-160.882,0-160.882,0c0.149-12.611,2.396-42.542,5.017-54.258l5.923,1.052L552.048,1869.881z"/>
			<path fill="#FFFFFF" d="M671.146,1933.756H523.477c-3.666,0-6.636-2.971-6.636-6.637v-9.531h160.942v9.531
				C677.783,1930.785,674.811,1933.756,671.146,1933.756z"/>
		</g>
		<g>
			<path fill="#0E6A41" d="M492.802,1176.691l-5.885,15.498c-5.337-35.66-25.226-184.896-14.004-226.105
				c10.531-38.699-2.637-79.505-15.386-118.961c-3.104-9.647-6.335-19.615-9.101-29.279l3.875-1.108l3.859-1.11
				c2.733,9.535,5.933,19.438,9.02,29.021c13.104,40.581,26.641,82.544,15.483,123.56
				C470.983,1003.771,485.824,1126.287,492.802,1176.691z"/>
		</g>
		<g>
			<path fill="#2C2858" d="M414.542,1919.631c0,0-9.123-34.039-9.928-38.41c-0.915-4.973-3.596-16.727-4.143-22.754
				c-0.135-1.484-15.8-11.064-27.761-11.045c-16.203,0.025-30.97,9.412-31.268,11.184c-1.913,11.359-1.971,24.713-5.068,35.775
				c-2.304,8.229-8.565,27.402-8.565,27.402L414.542,1919.631z"/>
			<g>
				<g>
					<g>
						<g>
							<path fill="#FFFFFF" d="M414.541,1916.985c-2.127,6.757-28.359-1.038-47.502-1.032c-16.072,0.006-36.867,6.23-39.231,3.808
								c-4.017,7.097-0.708,21.81-0.708,21.81s16.749,0.865,36.836,0c20.088-0.865,43.304,0.414,52.048-2.182
								C421.501,1930.161,414.541,1916.985,414.541,1916.985z"/>
						</g>
					</g>
				</g>
			</g>
		</g>
		<path fill="#DE623C" d="M664.127,1010.447c0,0-77.584,86.195-127.54,97.793c-2.972-16.447-1.005-23.98-1.005-23.98l67.141-87.331
			L664.127,1010.447z"/>
		<path id="c_4748_" fill="#F37A50" d="M533.496,1115.089c0.234-0.705,0.605-1.326,1.03-1.905c-0.12-0.038-0.24-0.066-0.361-0.105
			c-7.09-2.354-11.466-8.386-9.775-13.471c0.277-0.834,0.713-1.582,1.26-2.254c-3.758-2.914-5.654-7.02-4.447-10.65
			c0.479-1.441,1.406-2.643,2.633-3.584c-3.943-2.664-5.965-7.123-4.613-11.188c1.691-5.084,7.969-7.578,14.02-5.568
			c6.052,2.01,9.587,7.761,7.896,12.846c-0.428,1.287-1.152,2.407-2.09,3.331c5.915,2.728,9.356,8.089,7.827,12.688
			c-0.277,0.834-0.713,1.582-1.259,2.255c3.758,2.913,5.654,7.019,4.447,10.649c-0.445,1.34-1.274,2.473-2.372,3.381
			c3.606,2.209,5.502,6.146,4.313,9.721c-1.429,4.295-6.729,6.402-11.84,4.703C535.054,1124.242,532.067,1119.384,533.496,1115.089z
			"/>
		<g id="c_9_">
			<path fill="#F37A50" d="M301.517,1073.943l10.694,4.274c0,0,12.303-17.399,23.606-16.835l-6.79,16.605
				c0,0,6.394,19.793,40.636,17.526c29.251,6.649,8.788,20.537,16.886,26.091c11.949,8.197-21.562,28.326-49.795,19.645
				c-36.533-11.234-60.268-45.732-60.268-45.732L301.517,1073.943z"/>
		</g>
		<path fill="#F37A50" d="M329.4,801.831c0,0-103.008,45.707-160.567,165.356c33.615,47.321,69.881,19.177,69.881,19.177
			l95.955-74.952c0,0,24.403-44.175,21.258-67.464C351.254,809.34,329.4,801.831,329.4,801.831z"/>
		<path fill="#F37A50" d="M301.517,1073.943l-62.499-91.532c0,0-14.763-35.11-70.185-15.224
			c-2.683,29.799,18.894,72.233,117.746,137.619C292.963,1088.121,301.517,1073.943,301.517,1073.943z"/>
	</g>
</g>
</svg>
