<?xml version="1.0" encoding="utf-8"?>
<!-- Generator: Adobe Illustrator 16.0.0, SVG Export Plug-In . SVG Version: 6.00 Build 0)  -->
<!DOCTYPE svg PUBLIC "-//W3C//DTD SVG 1.1//EN" "http://www.w3.org/Graphics/SVG/1.1/DTD/svg11.dtd">
<svg version="1.1" id="Layer_1" xmlns="http://www.w3.org/2000/svg" xmlns:xlink="http://www.w3.org/1999/xlink" x="0px" y="0px"
	 width="750px" height="500px" viewBox="0 0 750 500" enable-background="new 0 0 750 500" xml:space="preserve">
<g>
	<defs>
		<rect id="SVGID_1_" width="750" height="500"/>
	</defs>
	<clipPath id="SVGID_2_">
		<use xlink:href="#SVGID_1_"  overflow="visible"/>
	</clipPath>
	<rect clip-path="url(#SVGID_2_)" fill="#D6ECE1" width="750" height="500"/>
	<rect x="44.492" y="55.493" clip-path="url(#SVGID_2_)" fill="#FFFFFF" width="661.017" height="389.014"/>
	<g clip-path="url(#SVGID_2_)">
		<defs>
			<rect id="SVGID_3_" width="750" height="500"/>
		</defs>
		<clipPath id="SVGID_4_">
			<use xlink:href="#SVGID_3_"  overflow="visible"/>
		</clipPath>
		<g opacity="0.3" clip-path="url(#SVGID_4_)">
			<g>
				<defs>
					<rect id="SVGID_5_" x="178.48" y="154.484" width="161.336" height="161.336"/>
				</defs>
				<clipPath id="SVGID_6_">
					<use xlink:href="#SVGID_5_"  overflow="visible"/>
				</clipPath>
				<path clip-path="url(#SVGID_6_)" fill="#FFCC0F" d="M339.816,235.152c0,44.552-36.116,80.668-80.668,80.668
					c-44.552,0-80.668-36.116-80.668-80.668c0-44.552,36.116-80.668,80.668-80.668C303.7,154.484,339.816,190.6,339.816,235.152"/>
			</g>
		</g>
		<path clip-path="url(#SVGID_4_)" fill="#D4EBDE" d="M593.365,276.049c-14.714-25.789-46.248-3.248-46.104-31.299
			c0.147-28.803-34.234-40.522-60.286-26.431c-31.416,16.992-15.573-18.979-42.506-42.774
			c-56.524-49.939-113.643-15.824-137.511,13.242c-40.008,48.719-15.984,119.398-85.419,103.346
			c-90.961-21.027-109.441,108.473-109.441,108.473l525.803,0.924C637.901,401.529,627.342,310.741,593.365,276.049
			 M475.896,278.222h38.203C498.308,285.449,484.991,290.101,475.896,278.222"/>
		<path clip-path="url(#SVGID_4_)" fill="#EE3A4C" d="M165.396,388.887c0,0,3.977-11.943-0.453-24.659
			c-4.429-12.716-17.809-9.01-14.973-20.839c2.836-11.83,0.467-19.797-8.257-24.332c-8.193-4.26-11.404-1.42-13.195-9.095
			s-2.686-12.117-8.943-13.526c-7.913-1.78-11.598,9.837-9.191,19.713c2.183,8.955,10.861,12.137,9.883,19.177
			c-0.979,7.04-2.61,10.497,4.363,21.584s16.653,12.083,14.753,19.133C135.275,391.281,155.772,411.216,165.396,388.887"/>
		<path clip-path="url(#SVGID_4_)" fill="#FFF9F0" d="M156.868,390.267c-0.014,0-0.028-0.001-0.043-0.002
			c-0.206-0.023-0.353-0.21-0.33-0.415c0.017-0.152,1.638-15.301-5.563-25.645c-2.425-3.482-5.05-5.432-7.366-7.151
			c-4.688-3.479-8.391-6.229-6.984-18.984c1.095-9.928-3.839-13.435-9.064-17.146c-4.486-3.188-9.126-6.486-9.884-14.032
			c-0.021-0.206,0.13-0.39,0.336-0.41c0.206-0.018,0.389,0.13,0.41,0.336c0.724,7.206,5.223,10.403,9.573,13.495
			c5.171,3.675,10.518,7.475,9.374,17.84c-1.359,12.328,2.015,14.833,6.686,18.301c2.362,1.754,5.039,3.741,7.534,7.325
			c7.365,10.578,5.711,26.002,5.693,26.156C157.219,390.125,157.056,390.267,156.868,390.267"/>
		<path clip-path="url(#SVGID_4_)" fill="#423A64" d="M557.225,374.353c0,0-5.751-11.198-3.313-24.439
			c2.44-13.242,16.229-11.619,11.622-22.879c-4.605-11.259-3.479-19.493,4.451-25.307c7.448-5.458,11.054-3.141,11.654-10.999
			c0.6-7.857,0.807-12.385,6.776-14.73c7.549-2.969,12.962,7.952,12.088,18.08c-0.792,9.184-8.884,13.649-6.843,20.458
			c2.04,6.81,4.179,9.978-1.022,21.997c-5.201,12.021-14.616,14.48-11.663,21.158C587.357,372.128,570.14,394.953,557.225,374.353"
			/>
		<path clip-path="url(#SVGID_4_)" fill="#FFF9F0" d="M565.807,374.42c-0.165,0-0.316-0.109-0.361-0.276
			c-0.041-0.15-4.029-15.141,1.637-26.719c1.92-3.922,4.263-6.295,6.33-8.388c4.087-4.139,7.04-7.129,3.818-19.105
			c-2.71-10.07,1.995-14.642,6.546-19.062c3.828-3.718,7.786-7.563,7.403-14.796c-0.013-0.206,0.147-0.384,0.354-0.394
			c0.239-0.025,0.383,0.148,0.393,0.354c0.401,7.572-3.681,11.538-7.629,15.373c-4.596,4.466-8.938,8.684-6.344,18.328
			c3.335,12.393,0.094,15.674-4.007,19.827c-2.028,2.053-4.326,4.379-6.191,8.191c-5.541,11.32-1.629,26.044-1.589,26.191
			c0.056,0.2-0.062,0.406-0.262,0.46C565.871,374.416,565.838,374.42,565.807,374.42"/>
		<path clip-path="url(#SVGID_4_)" fill="#423A64" d="M169.254,394.61c0,0-10.088-7.531-13.716-20.498
			c-3.628-12.968,9.471-17.569,0.386-25.658c-9.086-8.089-11.693-15.981-7.123-24.688c4.291-8.177,8.548-7.68,5.634-15.002
			c-2.914-7.321-4.717-11.479-0.386-16.21c5.477-5.982,15.138,1.448,18.804,10.93c3.324,8.597-1.981,16.165,2.844,21.384
			c4.825,5.22,8.138,7.125,8.748,20.209c0.611,13.083-6.766,19.43-1.179,24.131C195.344,379.369,189.908,407.44,169.254,394.61"/>
		<path clip-path="url(#SVGID_4_)" fill="#FFF9F0" d="M176.882,390.934c-0.122,0.018-0.249-0.025-0.336-0.124
			c-0.103-0.116-10.272-11.83-10.27-24.72c0.001-4.367,1.063-7.528,1.999-10.317c1.853-5.514,3.192-9.498-4.967-18.839
			c-6.86-7.854-4.642-14.028-2.497-19.997c1.805-5.023,3.67-10.216,0.148-16.545c-0.101-0.182-0.036-0.41,0.145-0.51
			c0.18-0.102,0.409-0.037,0.51,0.146c3.689,6.625,1.764,11.982-0.097,17.162c-2.167,6.032-4.214,11.729,2.356,19.251
			c8.442,9.665,6.973,14.036,5.113,19.571c-0.918,2.733-1.96,5.834-1.96,10.077c-0.002,12.604,9.982,24.111,10.083,24.227
			c0.137,0.155,0.121,0.392-0.034,0.529C177.018,390.894,176.951,390.924,176.882,390.934"/>
		<path clip-path="url(#SVGID_4_)" fill="#FFCC05" d="M336.803,379.18c0,0,0.295-12.585-7.672-23.439
			c-7.968-10.854-19.67-3.384-20.432-15.525c-0.762-12.14-5.365-19.061-15.037-20.835c-9.082-1.667-11.318,1.99-15.283-4.82
			s-6.124-10.795-12.52-10.304c-8.088,0.62-8.199,12.808-2.998,21.542c4.715,7.919,13.945,8.412,15.076,15.43
			c1.132,7.018,0.588,10.801,10.509,19.352c9.92,8.552,19.466,6.661,19.719,13.959C308.712,390.312,334.159,403.351,336.803,379.18"
			/>
		<path clip-path="url(#SVGID_4_)" fill="#FFF9F0" d="M329.203,382.916c0.089-0.085,0.134-0.213,0.11-0.342
			c-0.028-0.152-2.974-15.382-13.121-23.332c-3.437-2.693-6.58-3.808-9.353-4.791c-5.483-1.942-9.444-3.347-11.763-15.53
			c-1.95-10.244-8.177-12.308-14.199-14.303c-5.066-1.678-10.304-3.412-13.113-10.09c-0.08-0.19-0.3-0.279-0.49-0.2
			c-0.191,0.079-0.282,0.3-0.201,0.491c2.94,6.991,8.343,8.78,13.568,10.512c6.084,2.016,11.831,3.919,13.698,13.729
			c2.4,12.607,6.746,14.147,12.249,16.097c2.719,0.966,5.801,2.058,9.141,4.675c9.921,7.773,12.819,22.73,12.847,22.881
			c0.038,0.204,0.234,0.338,0.438,0.3C329.088,382.999,329.152,382.964,329.203,382.916"/>
		<path clip-path="url(#SVGID_4_)" fill="#423A64" d="M386.868,251.686c0,0-5.751-11.198-3.312-24.44
			c2.439-13.242,16.228-11.619,11.622-22.878c-4.606-11.259-3.48-19.494,4.451-25.307c7.447-5.458,11.054-3.141,11.653-10.999
			c0.601-7.858,0.808-12.385,6.777-14.731c7.549-2.968,12.962,7.953,12.088,18.081c-0.792,9.183-8.884,13.65-6.843,20.458
			c2.04,6.809,4.179,9.977-1.023,21.997c-5.2,12.021-14.615,14.48-11.663,21.158C417.002,249.46,399.783,272.286,386.868,251.686"/>
		<path clip-path="url(#SVGID_4_)" fill="#FFF9F0" d="M395.451,251.753c-0.165,0-0.316-0.109-0.361-0.276
			c-0.041-0.15-4.029-15.141,1.637-26.719c1.92-3.922,4.263-6.295,6.33-8.388c4.087-4.138,7.04-7.129,3.818-19.105
			c-2.71-10.071,1.995-14.641,6.546-19.061c3.827-3.719,7.786-7.564,7.402-14.797c-0.012-0.207,0.148-0.383,0.355-0.394
			c0.211-0.015,0.383,0.148,0.393,0.354c0.401,7.574-3.681,11.539-7.629,15.375c-4.597,4.465-8.938,8.683-6.344,18.327
			c3.335,12.393,0.094,15.674-4.007,19.828c-2.028,2.052-4.326,4.378-6.191,8.191c-5.541,11.32-1.629,26.044-1.589,26.191
			c0.056,0.2-0.062,0.406-0.262,0.46C395.516,251.749,395.482,251.753,395.451,251.753"/>
		<path clip-path="url(#SVGID_4_)" fill="#FFCC05" d="M415.151,276.404c0,0-2.426-12.354,3.586-24.402
			c6.011-12.048,18.811-6.67,17.502-18.765c-1.308-12.094,2.056-19.695,11.285-23.084c8.669-3.183,11.492,0.042,14.244-7.342
			c2.753-7.385,4.206-11.677,10.592-12.278c8.075-0.761,10.252,11.232,6.608,20.721c-3.305,8.605-12.316,10.656-12.241,17.764
			c0.075,7.107,1.253,10.743-7.074,20.853c-8.327,10.11-18.054,9.866-17.065,17.101C444.723,282.61,421.856,299.776,415.151,276.404
			"/>
		<path clip-path="url(#SVGID_4_)" fill="#FFF9F0" d="M423.379,278.846c-0.159-0.046-0.273-0.193-0.271-0.366
			c0.003-0.155,0.322-15.664,8.973-25.22c2.931-3.237,5.839-4.868,8.405-6.307c5.073-2.845,8.739-4.9,8.959-17.301
			c0.185-10.427,5.971-13.516,11.568-16.503c4.706-2.513,9.575-5.111,11.211-12.168c0.046-0.202,0.248-0.327,0.449-0.28
			c0.208,0.044,0.328,0.248,0.28,0.449c-1.711,7.388-6.731,10.069-11.588,12.661c-5.654,3.017-10.994,5.868-11.171,15.854
			c-0.228,12.831-4.25,15.087-9.341,17.942c-2.518,1.411-5.369,3.01-8.218,6.157c-8.459,9.343-8.776,24.574-8.779,24.727
			c-0.003,0.207-0.172,0.373-0.379,0.369C423.443,278.859,423.41,278.854,423.379,278.846"/>
		<path clip-path="url(#SVGID_4_)" fill="#F58622" d="M569.088,380.736c0,0-0.324-12.585,7.619-23.457
			c7.944-10.872,19.662-3.428,20.396-15.57s5.322-19.073,14.99-20.869c9.079-1.688,11.322,1.965,15.272-4.855
			c3.95-6.819,6.101-10.808,12.497-10.332c8.089,0.603,8.228,12.79,3.047,21.536c-4.698,7.93-13.926,8.443-15.042,15.463
			c-1.115,7.021-0.563,10.802-10.465,19.375c-9.901,8.574-19.451,6.705-19.688,14.003
			C597.203,391.805,571.786,404.901,569.088,380.736"/>
		<path clip-path="url(#SVGID_4_)" fill="#FFF9F0" d="M576.953,384.558c-0.021,0-0.045-0.002-0.067-0.006
			c-0.203-0.038-0.338-0.233-0.301-0.438c0.027-0.152,2.939-15.39,13.067-23.362c3.433-2.7,6.572-3.821,9.344-4.811
			c5.479-1.956,9.437-3.368,11.729-15.558c1.926-10.249,8.149-12.325,14.166-14.334c5.062-1.689,10.297-3.437,13.09-10.12
			c0.079-0.191,0.303-0.283,0.491-0.201c0.19,0.079,0.281,0.299,0.201,0.49c-2.924,6.998-8.323,8.8-13.544,10.543
			c-6.08,2.028-11.822,3.945-13.668,13.761c-2.371,12.612-6.715,14.162-12.213,16.125c-2.718,0.97-5.797,2.069-9.131,4.694
			c-9.903,7.795-12.768,22.759-12.795,22.909C577.289,384.432,577.132,384.558,576.953,384.558"/>
		<path clip-path="url(#SVGID_4_)" fill="#F58622" d="M379.741,256.148c0,0-9.816-7.882-12.984-20.969
			c-3.169-13.087,10.084-17.224,1.289-25.628c-8.794-8.404-11.121-16.384-6.248-24.924c4.577-8.02,8.814-7.374,6.16-14.794
			s-4.31-11.639,0.185-16.214c5.685-5.786,15.078,1.981,18.408,11.586c3.02,8.708-2.551,16.085,2.088,21.471
			c4.639,5.386,7.883,7.407,8.03,20.504c0.149,13.097-7.446,19.18-2.029,24.074C406.352,241.837,399.93,269.699,379.741,256.148"/>
		<path clip-path="url(#SVGID_4_)" fill="#FFF9F0" d="M387.452,252.745c-0.107,0-0.216-0.047-0.29-0.138
			c-0.099-0.12-9.849-12.184-9.393-25.067c0.156-4.363,1.329-7.485,2.363-10.239c2.046-5.445,3.523-9.379-4.3-19.003
			c-6.579-8.091-4.146-14.182-1.792-20.073c1.98-4.956,4.028-10.08,0.73-16.529c-0.093-0.185-0.021-0.411,0.163-0.505
			c0.183-0.094,0.41-0.022,0.505,0.163c3.453,6.753,1.341,12.038-0.701,17.15c-2.378,5.951-4.625,11.572,1.676,19.322
			c8.096,9.957,6.474,14.274,4.42,19.739c-1.016,2.7-2.164,5.76-2.315,10.002c-0.447,12.595,9.126,24.448,9.223,24.566
			c0.132,0.159,0.107,0.396-0.053,0.526C387.621,252.719,387.536,252.745,387.452,252.745"/>
		<path clip-path="url(#SVGID_4_)" fill="#60BEC8" d="M182.979,401.528h348.25c0,0-23.831-188.598-123.783-175.005
			c-106.06,14.422-81.375,131.161-141.304,132.846C206.214,361.055,182.979,401.528,182.979,401.528"/>
		<path clip-path="url(#SVGID_4_)" fill="#FFF6EF" d="M235.385,400.14c-0.396,0-0.799-0.059-1.197-0.181
			c-2.158-0.66-3.372-2.945-2.711-5.103l31.203-101.931c0.66-2.158,2.945-3.374,5.102-2.71c2.158,0.66,3.372,2.945,2.712,5.102
			l-31.203,101.932C238.752,399.008,237.134,400.14,235.385,400.14"/>
		<path clip-path="url(#SVGID_4_)" fill="#FFF6EF" d="M211.186,400.14c-0.396,0-0.799-0.059-1.197-0.181
			c-2.158-0.66-3.372-2.945-2.711-5.103l31.203-101.931c0.66-2.158,2.947-3.374,5.102-2.71c2.158,0.66,3.372,2.945,2.712,5.102
			l-31.203,101.932C214.553,399.008,212.935,400.14,211.186,400.14"/>
		<path clip-path="url(#SVGID_4_)" fill="#FFF6EF" d="M514.616,400.14c-1.749,0-3.368-1.132-3.905-2.891l-31.202-101.932
			c-0.661-2.156,0.553-4.441,2.71-5.102c2.152-0.665,4.442,0.552,5.103,2.71l31.203,101.931c0.661,2.157-0.553,4.442-2.711,5.103
			C515.415,400.081,515.012,400.14,514.616,400.14"/>
		<path clip-path="url(#SVGID_4_)" fill="#FFF6EF" d="M538.814,400.14c-1.749,0-3.368-1.132-3.904-2.891l-31.202-101.932
			c-0.661-2.156,0.552-4.441,2.71-5.102c2.15-0.665,4.441,0.552,5.102,2.71l31.203,101.931c0.661,2.157-0.552,4.442-2.711,5.103
			C539.613,400.081,539.211,400.14,538.814,400.14"/>
		<rect x="223.039" y="282.96" clip-path="url(#SVGID_4_)" fill="#FFFAEF" width="303.923" height="17.819"/>
		<g opacity="0.5" clip-path="url(#SVGID_4_)">
			<g>
				<defs>
					<rect id="SVGID_7_" x="352.735" y="105.326" width="71.821" height="15.066"/>
				</defs>
				<clipPath id="SVGID_8_">
					<use xlink:href="#SVGID_7_"  overflow="visible"/>
				</clipPath>
				<path clip-path="url(#SVGID_8_)" fill="#D5ECE0" d="M400.653,120.352h-47.755c0,0-1.343-1.522,3.663-2.576
					c5.006-1.054,7.02,3.057,11.651-6.942c1.998-4.315,6.863-6.191,11.318-5.285c4.457,0.906,6.474,9.036,9.551,7.88
					c3.076-1.156,1.38-7.391,8.332-7.894c6.952-0.503,5.916,7.294,8.256,9.519c2.341,2.224,3.175-3.06,5.678-1.947
					c2.503,1.112,1.86,4.35,4.267,4.35c2.407,0,7.249,0.906,8.867,2.059C426.1,120.669,400.653,120.352,400.653,120.352"/>
			</g>
		</g>
		<g opacity="0.5" clip-path="url(#SVGID_4_)">
			<g>
				<defs>
					<rect id="SVGID_9_" x="133.783" y="223.794" width="71.822" height="15.066"/>
				</defs>
				<clipPath id="SVGID_10_">
					<use xlink:href="#SVGID_9_"  overflow="visible"/>
				</clipPath>
				<path clip-path="url(#SVGID_10_)" fill="#D5ECE0" d="M181.702,238.82h-47.755c0,0-1.343-1.522,3.663-2.576
					c5.006-1.054,7.02,3.057,11.651-6.942c1.998-4.315,6.863-6.191,11.319-5.285c4.457,0.906,6.473,9.036,9.55,7.88
					c3.077-1.156,1.38-7.391,8.332-7.894c6.953-0.503,5.916,7.294,8.256,9.519c2.341,2.224,3.175-3.06,5.678-1.947
					c2.503,1.112,1.86,4.35,4.267,4.35c2.407,0,7.249,0.906,8.867,2.059C207.148,239.137,181.702,238.82,181.702,238.82"/>
			</g>
		</g>
		<g opacity="0.5" clip-path="url(#SVGID_4_)">
			<g>
				<defs>
					<rect id="SVGID_11_" x="556.044" y="212.473" width="71.821" height="15.066"/>
				</defs>
				<clipPath id="SVGID_12_">
					<use xlink:href="#SVGID_11_"  overflow="visible"/>
				</clipPath>
				<path clip-path="url(#SVGID_12_)" fill="#D5ECE0" d="M603.963,227.5h-47.755c0,0-1.343-1.522,3.663-2.576
					c5.006-1.054,7.02,3.057,11.65-6.942c1.998-4.315,6.863-6.191,11.319-5.285c4.457,0.906,6.474,9.036,9.55,7.88
					c3.077-1.156,1.381-7.391,8.332-7.894c6.953-0.503,5.916,7.294,8.256,9.519c2.342,2.224,3.176-3.06,5.679-1.947
					c2.503,1.112,1.859,4.35,4.267,4.35s7.249,0.906,8.867,2.059C629.409,227.816,603.963,227.5,603.963,227.5"/>
			</g>
		</g>
		<path clip-path="url(#SVGID_4_)" fill="#FFCC05" d="M515.11,401.528h122.526c0,0-11.916-20.59-39.453-11.53
			c-18.302,6.02-11.189-40.69-57.444-33.047C513.331,361.479,515.11,401.528,515.11,401.528"/>
		<path clip-path="url(#SVGID_4_)" fill="#F58622" d="M237.843,401.528H107.255c0,0,11.916-20.59,39.453-11.53
			c18.302,6.02,11.191-40.69,57.445-33.047C231.562,361.479,237.843,401.528,237.843,401.528"/>
		<path clip-path="url(#SVGID_4_)" fill="#FFCC05" d="M545.042,150.072c-2.711-11.664,4.547-23.317,16.211-26.028
			c11.664-2.71,23.317,4.548,26.028,16.212c2.711,11.664-4.547,23.317-16.211,26.027c-3.029,0.704-6.057,0.731-8.928,0.187
			c-2.237,2.279-7.061,7.123-7.202,6.709c-0.113-0.332,1.228-4.844,2.276-8.268C551.288,162.221,546.63,156.904,545.042,150.072"/>
		<path clip-path="url(#SVGID_4_)" fill="#423A64" d="M576.084,139.966h-19.845c-1.256,0-2.284-1.028-2.284-2.284
			s1.028-2.284,2.284-2.284h19.845c1.256,0,2.283,1.028,2.283,2.284S577.34,139.966,576.084,139.966"/>
		<path clip-path="url(#SVGID_4_)" fill="#423A64" d="M576.084,148.31h-19.845c-1.256,0-2.284-1.028-2.284-2.284
			c0-1.256,1.028-2.284,2.284-2.284h19.845c1.256,0,2.283,1.028,2.283,2.284C578.367,147.282,577.34,148.31,576.084,148.31"/>
		<path clip-path="url(#SVGID_4_)" fill="#423A64" d="M568.351,156.416h-12.111c-1.256,0-2.284-1.028-2.284-2.284
			s1.028-2.284,2.284-2.284h12.111c1.256,0,2.284,1.028,2.284,2.284S569.606,156.416,568.351,156.416"/>
		<path clip-path="url(#SVGID_4_)" fill="#60BEC8" d="M313.913,131.844c-0.456-13.403-11.692-23.899-25.095-23.443
			s-23.899,11.692-23.443,25.095c0.456,13.403,11.692,23.899,25.095,23.443c3.481-0.118,6.762-0.969,9.71-2.391
			c3.083,1.815,9.706,5.653,9.739,5.164c0.026-0.391-2.735-4.883-4.864-8.281C310.686,146.798,314.179,139.695,313.913,131.844"/>
		<path clip-path="url(#SVGID_4_)" fill="#423A64" d="M281.375,132.114c0,2.183-1.769,3.952-3.952,3.952s-3.952-1.769-3.952-3.952
			c0-2.183,1.769-3.952,3.952-3.952S281.375,129.931,281.375,132.114"/>
		<path clip-path="url(#SVGID_4_)" fill="#423A64" d="M293.43,132.114c0,2.183-1.769,3.952-3.952,3.952
			c-2.183,0-3.952-1.769-3.952-3.952c0-2.183,1.769-3.952,3.952-3.952C291.661,128.162,293.43,129.931,293.43,132.114"/>
		<path clip-path="url(#SVGID_4_)" fill="#423A64" d="M305.96,132.114c0,2.183-1.769,3.952-3.952,3.952s-3.952-1.769-3.952-3.952
			c0-2.183,1.769-3.952,3.952-3.952S305.96,129.931,305.96,132.114"/>
		<path clip-path="url(#SVGID_4_)" fill="#EFA584" d="M253.91,267.212c0,0-58.544-3.865-65.374,12.023
			c-6.829,15.891,10.115,66.704,7.541,70.79c-2.574,4.085-11.473,7.738-8.749,8.192c2.724,0.454,13.38-5.24,15.271-6.603
			c1.891-1.361,1.22-60.122,3.339-59.098c2.12,1.025,47.972-4.877,47.972-4.877S257.769,266.795,253.91,267.212"/>
		<path clip-path="url(#SVGID_4_)" fill="#E56E52" d="M213.083,267.928c0,0-1.593,20.263-4.865,24.489c0,0,9.626-2.356,15.606-3.622
			C223.823,288.795,215.972,269.571,213.083,267.928"/>
		<path clip-path="url(#SVGID_4_)" fill="#EFA584" d="M239.591,215.224c0,0-13.237,30.219-24.813,29.378
			c-11.577-0.841-16.837-28.667-26.824-29.378c-4.667-0.332,0,3.263,3.064,6.584c3.065,3.32,8.717,35.189,22.064,37.641
			s32.343-14.736,35.954-24.528C252.646,225.128,239.591,215.224,239.591,215.224"/>
		<path clip-path="url(#SVGID_4_)" fill="#F58925" d="M243.674,169.271c0,0,12.881-8.33,23.907,0.272
			c10.074,7.858,8.444,31.685-9.52,33.582c-15.721,1.661-18.031-3.188-24.971-0.198c-6.94,2.99-9.036,6.837-19.816,3.555
			c-7.149-2.176-9.665-7.705-16.527-6c-6.861,1.705-25.333,1.935-31.069-9.907c-2.444-5.046-0.207-10.021,6.386-7.743
			c10.754,3.716,11.408-6.992,21.071-6.164s8.579,4.75,14.569,3.487c5.989-1.263,8.778-9.556,17.651-9.625
			C234.228,170.462,235.11,174.742,243.674,169.271"/>
		<path clip-path="url(#SVGID_4_)" fill="#EFA584" d="M254.036,213.038l11.034,0.499c0,0-1.1-12.381,0.378-18.89
			c1.028-4.525-11.964-11.629-11.964-11.629L254.036,213.038z"/>
		<path clip-path="url(#SVGID_4_)" fill="#E56E52" d="M264.824,198.277c0,0-6.547,2.788-10.6-3.403
			c-0.915-1.398-0.035,5.755,3.352,9.185c3.562,3.608,7.052,5.115,7.052,5.115S264.541,200.866,264.824,198.277"/>
		<path clip-path="url(#SVGID_4_)" fill="#EFA584" d="M268.56,186.932c0,0,1.74-5.32,3.605-3.134
			c1.865,2.187-0.756,7.832-2.623,7.077C267.674,190.121,268.56,186.932,268.56,186.932"/>
		<path clip-path="url(#SVGID_4_)" fill="#423F63" d="M269.764,189.6c-0.071,0-0.137-0.045-0.161-0.115
			c-0.54-1.584-0.541-2.776-0.003-3.542c0.549-0.781,1.447-0.807,1.485-0.807h0.004c0.092,0,0.168,0.074,0.17,0.167
			s-0.073,0.171-0.167,0.173c-0.007,0-0.769,0.026-1.216,0.667c-0.462,0.663-0.445,1.781,0.049,3.232
			c0.031,0.089-0.017,0.186-0.106,0.216C269.801,189.597,269.782,189.6,269.764,189.6"/>
		<path clip-path="url(#SVGID_4_)" fill="#423F63" d="M270.078,188.551c-0.004,0-0.008,0-0.012-0.001
			c-0.094-0.006-0.164-0.087-0.158-0.181c0.134-1.88-0.24-2.207-0.244-2.211c-0.081-0.046-0.104-0.146-0.058-0.228
			c0.047-0.082,0.159-0.104,0.238-0.06c0.094,0.053,0.553,0.425,0.404,2.523C270.242,188.483,270.166,188.551,270.078,188.551"/>
		<path clip-path="url(#SVGID_4_)" fill="#EFA584" d="M254.689,275.515c0,0-36.146-5.968-44.858,18.016
			c-8.712,23.984,20.757,70.07,18.941,71.886c-1.816,1.816-7.408,6.147-4.791,6.602c2.617,0.454,7.093-2.666,10.725-4.028
			c3.632-1.362-10.434-60.912-8.164-64.093c2.27-3.18,33.595-5.761,41.766-9.691C276.48,290.275,254.689,275.515,254.689,275.515"/>
		<path clip-path="url(#SVGID_4_)" fill="#E05626" d="M204.921,178.731c-1.871,0-4.229-0.484-7.319-1.678
			c-0.088-0.034-0.132-0.133-0.098-0.221c0.033-0.089,0.132-0.134,0.22-0.097c9.273,3.581,11.669,0.777,14.445-2.472
			c0.911-1.066,1.853-2.167,3.084-3.068c4.704-3.442,10.968-2.323,18.895-0.907l1.203,0.214c4.452,0.788,6.363-0.697,8.579-2.421
			c2.006-1.56,4.28-3.328,8.847-3.848c9.606-1.091,15.477,5.633,15.535,5.701c0.061,0.071,0.053,0.179-0.019,0.24
			c-0.071,0.063-0.178,0.053-0.24-0.019c-0.056-0.065-5.813-6.644-15.238-5.584c-4.472,0.51-6.705,2.247-8.676,3.779
			c-2.278,1.773-4.241,3.303-8.847,2.487l-1.204-0.214c-7.848-1.402-14.046-2.508-18.634,0.847
			c-1.199,0.877-2.128,1.964-3.026,3.014C210.579,176.648,208.798,178.731,204.921,178.731"/>
		<path clip-path="url(#SVGID_4_)" fill="#E05626" d="M212.182,188.085c-4.183,0-7.484-1.357-13.938-4.45
			c-6.124-2.934-8.871-0.756-11.53,1.35c-1.464,1.16-2.978,2.359-5.008,2.629c-5.621,0.75-9.072-2.571-9.106-2.605
			c-0.067-0.066-0.068-0.173-0.003-0.24c0.067-0.068,0.175-0.069,0.241-0.003c0.033,0.033,3.388,3.233,8.823,2.51
			c1.938-0.257,3.348-1.375,4.842-2.558c2.74-2.172,5.573-4.416,11.888-1.39c9.753,4.676,12.24,5.348,21.629,3.355
			c4.459-0.947,7.74-3.463,10.634-5.682c3.272-2.507,6.097-4.674,9.431-3.394c6.225,2.389,10.344-0.891,13.978-3.784
			c4.178-3.327,7.784-6.201,13.309-0.239c0.064,0.069,0.06,0.177-0.009,0.24c-0.068,0.064-0.176,0.06-0.241-0.009
			c-5.309-5.73-8.803-2.947-12.847,0.274c-3.705,2.951-7.902,6.294-14.312,3.836c-3.157-1.214-5.78,0.8-9.101,3.346
			c-2.923,2.241-6.237,4.782-10.772,5.745C216.821,187.71,214.379,188.085,212.182,188.085"/>
		<path clip-path="url(#SVGID_4_)" fill="#E05626" d="M217.945,200.805c-3.749,0-7.034-1.847-9.974-3.502
			c-3.511-1.976-6.547-3.68-9.635-2.176c-6.229,3.035-13.819,1.93-13.896,1.919c-0.093-0.014-0.157-0.101-0.143-0.194
			c0.013-0.093,0.092-0.158,0.193-0.143c0.075,0.013,7.565,1.101,13.697-1.888c3.252-1.581,6.507,0.246,9.951,2.185
			c3.295,1.853,7.026,3.957,11.321,3.353c3.865-0.54,6.479-2.762,8.785-4.724c2.992-2.546,5.576-4.739,9.887-2.782
			c7.326,3.333,9.527,0.675,9.549,0.647c0.058-0.074,0.164-0.086,0.239-0.029c0.074,0.057,0.088,0.164,0.031,0.238
			c-0.093,0.12-2.355,2.91-9.959-0.545c-4.118-1.877-6.624,0.261-9.526,2.731c-2.342,1.991-4.996,4.248-8.96,4.802
			C218.976,200.77,218.456,200.805,217.945,200.805"/>
		<path clip-path="url(#SVGID_4_)" fill="#423A64" d="M236.555,363.945l-12.149,6.313l-0.44-1.2c0,0-4.658,3.865-4.781,5.134
			c-0.122,1.267,18.349-7.678,18.349-7.678L236.555,363.945z"/>
		<path clip-path="url(#SVGID_4_)" fill="#423A64" d="M203.057,350.56l-12.471,5.648l-0.376-1.221c0,0-4.859,3.608-5.05,4.867
			c-0.191,1.259,18.736-6.676,18.736-6.676L203.057,350.56z"/>
		<path clip-path="url(#SVGID_4_)" fill="#EFA584" d="M267.418,174.796c0,0,6.123,23.685-5.543,25.488
			c-9.039,1.396-14.009-12.991-12.489-22.307C250.254,172.662,266.865,169.634,267.418,174.796"/>
		<path clip-path="url(#SVGID_4_)" fill="#423A64" d="M256.059,186.321c0.074,0.457-0.236,0.887-0.693,0.961
			s-0.887-0.237-0.961-0.693c-0.074-0.457,0.237-0.887,0.693-0.961C255.555,185.554,255.985,185.864,256.059,186.321"/>
		<path clip-path="url(#SVGID_4_)" fill="#423A64" d="M265.149,186.135c0.074,0.457-0.236,0.887-0.693,0.961
			c-0.457,0.074-0.887-0.237-0.961-0.693c-0.074-0.457,0.237-0.887,0.693-0.961C264.646,185.368,265.075,185.678,265.149,186.135"/>
		<path clip-path="url(#SVGID_4_)" fill="#E56E52" d="M255.874,190.263c0.137,0.846-0.438,1.642-1.283,1.779
			c-0.846,0.136-1.642-0.438-1.779-1.284c-0.137-0.845,0.438-1.641,1.283-1.778C254.941,188.843,255.737,189.417,255.874,190.263"/>
		<path clip-path="url(#SVGID_4_)" fill="#F58622" d="M257.005,182.486c0.154,0.761-0.806,0.163-1.801,0.364
			c-0.994,0.201-1.647,1.124-1.8,0.364c-0.154-0.761,0.528-1.541,1.522-1.742C255.921,181.272,256.852,181.726,257.005,182.486"/>
		<path clip-path="url(#SVGID_4_)" fill="#F58622" d="M266.51,182.857c-0.105,0.769-0.815-0.111-1.82-0.249
			c-1.005-0.137-1.925,0.521-1.82-0.248s1.005-1.281,2.01-1.144S266.615,182.088,266.51,182.857"/>
		<path clip-path="url(#SVGID_4_)" fill="#E56E52" d="M267.906,189.321c0.137,0.846-0.438,1.642-1.283,1.779
			c-0.846,0.136-1.642-0.438-1.779-1.284c-0.137-0.845,0.438-1.641,1.283-1.778C266.973,187.901,267.769,188.477,267.906,189.321"/>
		<path clip-path="url(#SVGID_4_)" fill="#423F63" d="M261.108,190.915c-0.12,0-0.403-0.062-1.48-2.524
			c-0.038-0.087,0.002-0.187,0.087-0.225c0.088-0.035,0.187,0.001,0.225,0.088c0.37,0.847,0.837,1.795,1.09,2.172
			c0.031-0.593-0.086-2.214-0.245-3.692c-0.009-0.093,0.058-0.177,0.152-0.187c0.093-0.009,0.178,0.057,0.188,0.151
			c0.187,1.754,0.363,3.898,0.141,4.147C261.232,190.881,261.161,190.912,261.108,190.915"/>
		<path clip-path="url(#SVGID_4_)" fill="#423F63" d="M261.051,194.81c-1.301,0-2.664-2.486-2.821-2.782
			c-0.044-0.083-0.013-0.186,0.071-0.23c0.081-0.042,0.185-0.014,0.23,0.071c0.414,0.778,1.694,2.752,2.634,2.591
			c0.415-0.074,0.972-0.632,1.273-2.862c0.013-0.093,0.097-0.16,0.191-0.146c0.093,0.012,0.159,0.098,0.146,0.191
			c-0.267,1.982-0.774,3.013-1.55,3.152C261.167,194.805,261.109,194.81,261.051,194.81"/>
		<path clip-path="url(#SVGID_4_)" fill="#F58622" d="M268.423,178.541c0,0-1.692-6.867-4.864-2.971
			c-3.078,3.781-5.761,0.178-9.783,0.23c-4.021,0.051-3.472,11.656-3.34,11.977c0.132,0.321-5.28-6.347-4.654-10.642
			c0.627-4.295,4.486-5.682,10.211-7.141C261.718,168.535,269.79,171.379,268.423,178.541"/>
		<path clip-path="url(#SVGID_4_)" fill="#DD5926" d="M243.238,176.266c-0.023,0-0.047-0.005-0.069-0.015
			c-0.086-0.038-0.125-0.139-0.087-0.224c0.03-0.068,3.069-6.753,9.352-5.589c3.266,0.606,4.955,2.068,5.799,3.188
			c0.921,1.223,1.058,2.294,1.063,2.339c0.011,0.094-0.055,0.178-0.148,0.189c-0.104,0.004-0.178-0.055-0.19-0.148
			c-0.001-0.011-0.137-1.04-1.01-2.192c-0.807-1.065-2.431-2.457-5.577-3.04c-6.016-1.12-8.949,5.326-8.977,5.391
			C243.366,176.228,243.303,176.266,243.238,176.266"/>
		<path clip-path="url(#SVGID_4_)" fill="#DD5926" d="M261.875,176.47h-0.003c-0.093-0.001-0.169-0.078-0.167-0.173
			c0.001-0.073,0.036-7.34-5.679-8.485c-0.093-0.018-0.153-0.108-0.134-0.2c0.017-0.092,0.104-0.151,0.2-0.134
			c5.995,1.201,5.955,8.748,5.953,8.824C262.044,176.396,261.968,176.47,261.875,176.47"/>
		<path clip-path="url(#SVGID_4_)" fill="#DD5926" d="M263.559,175.74c-0.089,0-0.164-0.069-0.17-0.159
			c-0.237-3.542,1.525-5.268,1.6-5.339c0.07-0.063,0.176-0.062,0.241,0.005c0.065,0.068,0.063,0.176-0.005,0.241
			c-0.017,0.016-1.723,1.696-1.496,5.07c0.006,0.094-0.065,0.175-0.159,0.181C263.566,175.74,263.562,175.74,263.559,175.74"/>
		<path clip-path="url(#SVGID_4_)" fill="#EFA584" d="M250.039,187.015c0,0-3.207-4.588-4.359-1.954
			c-1.151,2.633,2.994,7.276,4.563,6.012C251.812,189.81,250.039,187.015,250.039,187.015"/>
		<path clip-path="url(#SVGID_4_)" fill="#423F63" d="M249.61,189.926h-0.006c-0.094-0.003-0.168-0.082-0.164-0.176
			c0.053-1.533-0.255-2.608-0.889-3.108c-0.614-0.483-1.349-0.286-1.358-0.286c-0.092,0.026-0.184-0.028-0.209-0.118
			c-0.025-0.09,0.026-0.184,0.117-0.209c0.036-0.011,0.902-0.247,1.656,0.342c0.737,0.577,1.081,1.718,1.023,3.391
			C249.777,189.854,249.701,189.926,249.61,189.926"/>
		<path clip-path="url(#SVGID_4_)" fill="#423F63" d="M249.007,189.013c-0.068,0-0.133-0.042-0.159-0.11
			c-0.752-1.965-0.419-2.453-0.344-2.531c0.065-0.067,0.172-0.071,0.24-0.006c0.065,0.062,0.07,0.163,0.014,0.231
			c-0.016,0.027-0.247,0.473,0.408,2.185c0.034,0.088-0.01,0.186-0.098,0.22C249.047,189.01,249.026,189.013,249.007,189.013"/>
		<path clip-path="url(#SVGID_4_)" fill="#EFA584" d="M243.238,212.913c0,0,24.22-4.809,33.242,0.623
			c5.948,3.581-2.638,68.975-2.638,68.975s-21.028-9.368-26.198-11.07C242.476,269.738,243.238,212.913,243.238,212.913"/>
		<path clip-path="url(#SVGID_4_)" fill="#EE3A4C" d="M213.083,267.928c0,0,16.921,34.431,20.185,35.652
			c3.263,1.222,29.018-5.193,35.042-9.375c13.165-9.141,1.141-21.778-14.399-26.994
			C241.898,263.181,213.083,267.928,213.083,267.928"/>
		<path clip-path="url(#SVGID_4_)" fill="#EFA584" d="M279.034,213.537c0,0,5.824,5.824,6.822,11.132
			c5.243,27.882,5.037,64.349,10.612,67.201c5.576,2.853,11.814,4.367,9.998,5.787c-1.815,1.42-9.998,0.227-15.148-3.87
			C285.85,289.438,276.396,224.871,279.034,213.537"/>
		<path clip-path="url(#SVGID_4_)" fill="#FFF9EF" d="M275.684,228.789c0,0-2.228-5.139-30.458-2.31
			c-10.419,1.044-0.106,40.842-0.106,40.842l25.077,9.317C270.197,276.638,281.112,230.875,275.684,228.789"/>
		<path clip-path="url(#SVGID_4_)" fill="#423A64" d="M297.012,288.913c0,0-5.18,6.604-6.81,5.675
			c-4.767-2.718-11.904-49.744-12.117-54.63c-0.214-4.886-3.384-28.135-3.384-28.135s10.115,2.074,11.155,7.27
			C286.897,224.289,295.151,285.681,297.012,288.913"/>
		<path clip-path="url(#SVGID_4_)" fill="#EFA584" d="M196.746,222.929c0,0-5.554-10.007-6.49-11.308
			c-0.892-1.24,0.441,3.668,1.217,4.201c0.775,0.534-4.881-3.972-9.058-3.301c-3.721,0.598,6.616,6.368,9.094,10.026
			C194.032,226.269,197.144,226.833,196.746,222.929"/>
		<path clip-path="url(#SVGID_4_)" fill="#423A64" d="M191.7,227.329c0,0,3.483-2.888,6.679-1.693
			c3.195,1.194,7.086,20.048,16.4,17.115c9.313-2.933,21.591-27.927,27.316-29.215l2.275,27.211c0,0-14.004,21.017-29.591,18.702
			C199.19,257.135,191.7,227.329,191.7,227.329"/>
		<path clip-path="url(#SVGID_4_)" fill="#D6ECE1" d="M249.059,242.081c0,0,17.195,2.203,24.394-0.669l-0.482,5.139
			c0,0-19.662,2.495-25.437,2.976C247.534,249.527,248.997,243.705,249.059,242.081"/>
		<path clip-path="url(#SVGID_4_)" fill="#423A64" d="M270.143,211.128c0,0,6.111,50.546,0.054,65.509
			c-3.847,9.506,1.44,20.018,3.745,20.206c12.712,1.041,12.083-1.532,10.935-4.973c-4.403-13.189-5.997-75.323-6.298-77.747
			C278.279,211.699,270.143,211.128,270.143,211.128"/>
		<path clip-path="url(#SVGID_4_)" fill="#423A64" d="M249.529,212.035c0,0-0.254,52.931-4.409,55.597
			c-4.155,2.665-14.41-0.029-16.372-1.554c-1.961-1.525,13.973-0.713,14.01-2.749c0.036-2.035-5.224-31.45-3.166-48.105
			C239.896,212.759,249.529,212.035,249.529,212.035"/>
		<path clip-path="url(#SVGID_4_)" fill="#423F63" d="M189.694,218.686c-0.046,0-0.092-0.019-0.126-0.056
			c-3.107-3.394-7.831-4.916-7.878-4.93c-0.09-0.028-0.14-0.124-0.111-0.214c0.027-0.09,0.122-0.141,0.213-0.111
			c0.049,0.015,4.86,1.564,8.028,5.026c0.063,0.07,0.058,0.177-0.011,0.24C189.776,218.67,189.735,218.686,189.694,218.686"/>
		<path clip-path="url(#SVGID_4_)" fill="#423F63" d="M190.51,217.655c-0.039,0-0.078-0.013-0.111-0.041
			c-0.053-0.047-5.398-4.607-8.097-4.607c-0.093,0-0.17-0.076-0.17-0.171c0-0.094,0.077-0.17,0.17-0.17
			c2.825,0,8.096,4.498,8.319,4.69c0.071,0.061,0.079,0.169,0.018,0.239C190.606,217.635,190.558,217.655,190.51,217.655"/>
		<path clip-path="url(#SVGID_4_)" fill="#423F63" d="M188.992,219.509c-0.042,0-0.084-0.015-0.116-0.047
			c-0.069-0.063-0.072-0.171-0.008-0.24c0.625-0.667,2.071-2.575,2.085-2.594c0.057-0.074,0.164-0.092,0.238-0.033
			c0.075,0.057,0.09,0.164,0.033,0.238c-0.059,0.08-1.47,1.943-2.108,2.623C189.082,219.49,189.037,219.509,188.992,219.509"/>
		<path clip-path="url(#SVGID_4_)" fill="#423F63" d="M295.344,294.292c-0.051,0-0.101-0.022-0.134-0.064
			c-0.058-0.075-0.045-0.183,0.03-0.24c0,0,1.067-0.83,2.238-1.706c0.076-0.057,0.182-0.04,0.238,0.033
			c0.057,0.076,0.041,0.182-0.034,0.237c-1.168,0.878-2.233,1.704-2.234,1.704C295.417,294.28,295.381,294.292,295.344,294.292"/>
		<path clip-path="url(#SVGID_4_)" fill="#423F63" d="M306.318,296.61c-0.017,0-0.033-0.003-0.05-0.008
			c-0.315-0.096-7.733-2.371-9.36-3.623c-0.074-0.057-0.088-0.164-0.031-0.238c0.057-0.076,0.165-0.089,0.239-0.031
			c1.578,1.214,9.175,3.545,9.252,3.567c0.09,0.027,0.14,0.123,0.113,0.212C306.458,296.563,306.391,296.61,306.318,296.61"/>
		<path clip-path="url(#SVGID_4_)" fill="#423F63" d="M305.376,297.381c-0.006,0-0.013,0-0.019-0.001
			c-3.388-0.391-9.154-3.514-9.398-3.646c-0.083-0.044-0.113-0.147-0.068-0.229c0.046-0.084,0.152-0.114,0.231-0.068
			c0.059,0.032,5.952,3.223,9.273,3.605c0.094,0.011,0.161,0.095,0.15,0.189C305.536,297.316,305.462,297.381,305.376,297.381"/>
		<path clip-path="url(#SVGID_4_)" fill="#EFA584" d="M542.092,272.928c0,0,24.79,18.248,30.887,55.287
			c2.314,14.064-34.756,61.357-35.651,64.629c-1.041,3.803,4.003,2.726,3.948,4.268c-0.151,4.21-9.573-3.244-9.157-5.948
			s19.653-62.738,19.653-62.738l-33.427-45.448L542.092,272.928z"/>
		<path clip-path="url(#SVGID_4_)" fill="#E56E52" d="M560.452,357.524c0,0-5.057-43.015-7.706-33.434
			c-8.92,32.264-18.853,60.251-18.853,60.251l7.129,4.39C541.022,388.731,552.611,371.574,560.452,357.524"/>
		<path clip-path="url(#SVGID_4_)" fill="#EFA584" d="M524.623,280.476c0,0,24.09,23.289,31.396,42.224
			c7.306,18.935-3.854,71.934-1.418,72.159c2.436,0.228,9.367-3.712,8.044-1.034c-1.322,2.678-7.609,8.293-11.739,6.913
			s-9.25-61.394-11.298-65.087c-2.049-3.693-36.94-37.248-38.14-43.568C500.268,285.762,524.623,280.476,524.623,280.476"/>
		<path clip-path="url(#SVGID_4_)" fill="#F58622" d="M499.551,287.674c0,0-3.017,9.212,24.84,31.592l26.383-8.751l-11.165-15.724
			l11.165,15.724l17.463-5.128c0,0-8.067-14.095-14.596-19.862C553.641,285.524,509.101,269.377,499.551,287.674"/>
		<path clip-path="url(#SVGID_4_)" fill="#EFA584" d="M538.932,210.825c0,0,13.495,33.072,22.28,33.096
			c8.784,0.025,3.997-46.531,9.401-57.041c3.633-7.063,4.994-3.077,2.469,9.029c-2.541,12.182,14.453,49.049-5.652,60.814
			c-20.104,11.766-29.606-18.526-29.606-18.526S530.802,214.105,538.932,210.825"/>
		<path clip-path="url(#SVGID_4_)" fill="#EE3A4C" d="M566.177,207.513c0,0,7.902-0.61,9.782,1.286
			c1.88,1.895,9.403,48.481-12.161,52.049c-16.025,2.651-25.542-16.362-25.542-16.362s0.165-35.544,1.879-32.283
			c4.489,8.544,12.819,27.986,20.317,24.951C567.951,234.119,563.524,207.788,566.177,207.513"/>
		<path clip-path="url(#SVGID_4_)" fill="#423A64" d="M554.69,389.329c0,0-7.239,2.824-7.035,3.388
			c1.206,3.335,1.538,9.798,2.672,10.054c1.128,0.254,14.536-8.086,17.218-10.688c2.681-2.602-11.296,3.755-12.233,1.003
			C555.012,392.202,554.69,389.329,554.69,389.329"/>
		<path clip-path="url(#SVGID_4_)" fill="#423A64" d="M541.022,388.73c0,0-6.558-5.71-7.13-4.389
			c-1.774,4.102-4.239,7.977-3.952,9.103c0.286,1.12,12.2,7.85,15.735,9.057c3.536,1.206-8.476-8.358-6.449-10.443
			C539.875,391.39,541.022,388.73,541.022,388.73"/>
		<path clip-path="url(#SVGID_4_)" fill="#F58622" d="M502.16,172.955c0.084-0.012,0.147-0.084,0.147-0.17
			c-0.001-0.067,0.013-6.733,3.87-10.367c1.838-1.732,4.265-2.511,7.215-2.327c0.101,0.012,0.176-0.065,0.182-0.159
			c0.006-0.093-0.065-0.175-0.158-0.18c-3.051-0.198-5.563,0.618-7.474,2.419c-3.965,3.737-3.976,10.548-3.976,10.616
			c0,0.094,0.077,0.169,0.171,0.17C502.146,172.957,502.153,172.956,502.16,172.955"/>
		<path clip-path="url(#SVGID_4_)" fill="#F58622" d="M514.923,159.743c0,0,7.587-1.025,11.923,3.382
			c4.335,4.407,3.668,10.418,6.158,11.445c2.49,1.028,5.13-0.348,5.249,3.361s-2.887,1.844-2.818,4.46
			c0.069,2.616,1.86,3.41-0.351,4.699c-2.21,1.288-4.633,0.324-4.867,1.848s0.958,3.282-2.308,5.19
			c-3.266,1.908-4.526-1.464-5.704,0.509c-1.178,1.974-3.331,2.436-5.232,2.611c-1.901,0.174-2.675-1.668-5.008-1.38
			c-2.335,0.288-5.645-1.531-5.788-4.405c-0.179-3.607,1.95-3.696,0.679-6.32s-7.685-10.107-3.189-17.779
			C507.597,160.654,513.158,159.844,514.923,159.743"/>
		<path clip-path="url(#SVGID_4_)" fill="#EFA584" d="M520.057,205.079l-11.018,0.792c0,0,0.771-12.405-0.881-18.873
			c-1.147-4.496,11.65-11.943,11.65-11.943L520.057,205.079z"/>
		<path clip-path="url(#SVGID_4_)" fill="#EFA584" d="M505.604,167.482c0,0-7.05,20.93,3.63,25.585
			c6.772,2.953,17.946-12.757,14.381-22.29C521.729,165.733,506.188,162.323,505.604,167.482"/>
		<path clip-path="url(#SVGID_4_)" fill="#423A64" d="M513.924,179.37c-0.077,0.456,0.23,0.888,0.687,0.965
			c0.456,0.077,0.888-0.231,0.965-0.687s-0.23-0.888-0.687-0.965S514.001,178.914,513.924,179.37"/>
		<path clip-path="url(#SVGID_4_)" fill="#423A64" d="M505.877,178.481c-0.077,0.456,0.23,0.888,0.687,0.965
			s0.889-0.231,0.965-0.687c0.077-0.456-0.23-0.888-0.687-0.965C506.386,177.717,505.954,178.025,505.877,178.481"/>
		<path clip-path="url(#SVGID_4_)" fill="#E56E52" d="M508.87,192.195c0,0,6.473,0.31,10.358-5.987
			c0.878-1.422,1.478,6.907-2.256,11.039c-3.4,3.762-7.763,3.533-7.763,3.533S509.223,194.775,508.87,192.195"/>
		<path clip-path="url(#SVGID_4_)" fill="#E56E52" d="M514.121,182.9c-0.143,0.845,0.427,1.645,1.271,1.787s1.645-0.428,1.787-1.272
			c0.142-0.845-0.428-1.645-1.272-1.787S514.263,182.055,514.121,182.9"/>
		<path clip-path="url(#SVGID_4_)" fill="#F58622" d="M513.245,176.874c-0.129,0.765,0.811,0.137,1.812,0.305
			c1,0.168,1.682,1.07,1.812,0.305c0.129-0.766-0.578-1.522-1.578-1.691C514.289,175.625,513.374,176.109,513.245,176.874"/>
		<path clip-path="url(#SVGID_4_)" fill="#F58622" d="M504.851,176.042c-0.13,0.765,0.811,0.136,1.812,0.305
			c1,0.168,1.682,1.07,1.812,0.305c0.129-0.766-0.578-1.523-1.578-1.691C505.895,174.792,504.979,175.276,504.851,176.042"/>
		<path clip-path="url(#SVGID_4_)" fill="#E56E52" d="M503.493,181.994c-0.142,0.845,0.427,1.645,1.272,1.787
			c0.845,0.142,1.645-0.428,1.786-1.272c0.143-0.845-0.428-1.645-1.271-1.787C504.436,180.58,503.635,181.149,503.493,181.994"/>
		<path clip-path="url(#SVGID_4_)" fill="#423F63" d="M508.995,183.01c-0.012,0-0.021-0.001-0.029-0.001
			c-0.048-0.005-0.113-0.044-0.143-0.083c-0.198-0.268,0.163-2.389,0.502-4.12c0.017-0.091,0.096-0.153,0.2-0.134
			c0.092,0.018,0.151,0.107,0.135,0.2c-0.286,1.457-0.544,3.062-0.564,3.657c0.285-0.355,0.831-1.259,1.274-2.07
			c0.044-0.082,0.15-0.112,0.229-0.068c0.083,0.045,0.113,0.148,0.068,0.232C509.444,182.866,509.125,183.01,508.995,183.01"/>
		<path clip-path="url(#SVGID_4_)" fill="#F58622" d="M504.575,171.221c0,0,1.735-6.856,4.883-2.94
			c3.054,3.8,5.759,0.214,9.781,0.291c4.021,0.077,3.397,11.678,3.264,11.999c-0.134,0.32,5.32-6.314,4.722-10.613
			c-0.6-4.299-4.449-5.71-10.165-7.206C511.344,161.257,503.253,164.05,504.575,171.221"/>
		<path clip-path="url(#SVGID_4_)" fill="#DD5926" d="M529.775,169.104c-0.065,0-0.128-0.038-0.156-0.102
			c-0.028-0.065-2.936-6.526-8.944-5.448c-6.032,1.078-6.614,5.149-6.62,5.19c-0.012,0.093-0.102,0.156-0.189,0.148
			c-0.093-0.012-0.159-0.097-0.147-0.19c0.005-0.046,0.15-1.116,1.078-2.333c0.851-1.115,2.549-2.566,5.818-3.15
			c6.288-1.13,9.287,5.578,9.316,5.647c0.038,0.086-0.002,0.186-0.088,0.224C529.822,169.1,529.798,169.104,529.775,169.104"/>
		<path clip-path="url(#SVGID_4_)" fill="#DD5926" d="M511.136,169.191c-0.093,0-0.169-0.075-0.17-0.169
			c0-0.076,0.006-7.624,6.011-8.786c0.088-0.021,0.181,0.042,0.199,0.134c0.018,0.093-0.043,0.182-0.136,0.2
			c-5.727,1.11-5.734,8.376-5.734,8.449C511.309,169.113,511.232,169.19,511.136,169.191L511.136,169.191z"/>
		<path clip-path="url(#SVGID_4_)" fill="#DD5926" d="M509.458,168.451c-0.005,0-0.009,0-0.013-0.001
			c-0.094-0.006-0.165-0.088-0.158-0.182c0.247-3.373-1.445-5.063-1.463-5.08c-0.067-0.066-0.068-0.173-0.004-0.241
			c0.066-0.067,0.174-0.067,0.24-0.004c0.075,0.072,1.827,1.809,1.567,5.35C509.621,168.383,509.547,168.451,509.458,168.451"/>
		<path clip-path="url(#SVGID_4_)" fill="#DD5926" d="M533.144,179.039c-0.336,0-0.649-0.057-0.941-0.17
			c-1.434-0.554-2.258-2.359-3.125-5.094c-0.339-1.068-0.956-1.822-1.836-2.241c-1.974-0.941-4.645,0.089-4.671,0.1
			c-0.09,0.033-0.187-0.008-0.221-0.096c-0.035-0.088,0.009-0.186,0.096-0.22c0.115-0.044,2.836-1.094,4.94-0.092
			c0.97,0.461,1.647,1.284,2.016,2.447c0.813,2.564,1.622,4.376,2.924,4.879c0.876,0.338,1.997,0.094,3.435-0.743
			c0.08-0.048,0.185-0.02,0.233,0.062c0.047,0.081,0.019,0.185-0.063,0.232C534.855,178.728,533.934,179.039,533.144,179.039"/>
		<path clip-path="url(#SVGID_4_)" fill="#DD5926" d="M531.073,187.049c-0.081,0-0.162-0.005-0.243-0.016
			c-0.66-0.087-1.191-0.531-1.574-1.319c-0.497-1.023-0.742-2.251-0.979-3.439c-0.315-1.58-0.613-3.073-1.464-3.517
			c-0.44-0.23-1.021-0.18-1.771,0.149c-0.083,0.038-0.185-0.001-0.224-0.087c-0.038-0.086,0.001-0.187,0.088-0.224
			c0.851-0.375,1.524-0.42,2.063-0.14c0.996,0.519,1.31,2.09,1.641,3.752c0.232,1.167,0.474,2.373,0.951,3.357
			c0.331,0.679,0.772,1.06,1.313,1.131c1.452,0.181,3.223-1.822,3.24-1.842c0.063-0.071,0.171-0.078,0.24-0.017
			c0.07,0.061,0.079,0.169,0.018,0.24C534.3,185.163,532.643,187.049,531.073,187.049"/>
		<path clip-path="url(#SVGID_4_)" fill="#EFA584" d="M522.904,179.811c0,0,3.236-4.567,4.371-1.927
			c1.135,2.641-3.04,7.257-4.6,5.984C521.115,182.595,522.904,179.811,522.904,179.811"/>
		<path clip-path="url(#SVGID_4_)" fill="#423F63" d="M523.316,182.724c-0.092,0-0.168-0.073-0.17-0.166
			c-0.047-1.673,0.304-2.811,1.045-3.383c0.754-0.585,1.619-0.343,1.657-0.332c0.09,0.027,0.141,0.12,0.116,0.211
			c-0.025,0.091-0.128,0.143-0.21,0.116c-0.01-0.002-0.744-0.201-1.359,0.277c-0.637,0.496-0.951,1.569-0.909,3.102
			c0.003,0.094-0.072,0.172-0.165,0.175H523.316z"/>
		<path clip-path="url(#SVGID_4_)" fill="#423F63" d="M523.926,181.814c-0.021,0-0.041-0.004-0.062-0.011
			c-0.088-0.035-0.132-0.133-0.097-0.221c0.684-1.756,0.424-2.179,0.421-2.183c-0.064-0.069-0.057-0.171,0.013-0.236
			c0.067-0.064,0.18-0.057,0.244,0.014c0.074,0.078,0.402,0.569-0.361,2.529C524.059,181.773,523.994,181.814,523.926,181.814"/>
		<path clip-path="url(#SVGID_4_)" fill="#DD5926" d="M525.962,192.769c-0.096,0-0.194-0.012-0.291-0.037
			c-0.579-0.148-1.011-0.736-1.285-1.749c-0.27-1-0.354-1.92-0.431-2.732c-0.153-1.625-0.253-2.699-1.632-3.103
			c-0.091-0.027-0.143-0.121-0.116-0.212c0.027-0.09,0.125-0.14,0.212-0.115c1.601,0.469,1.721,1.762,1.874,3.399
			c0.076,0.798,0.159,1.703,0.423,2.674c0.238,0.885,0.588,1.392,1.037,1.508c0.651,0.169,1.344-0.538,1.352-0.545
			c0.066-0.067,0.173-0.07,0.24-0.004c0.068,0.065,0.069,0.173,0.004,0.24C527.32,192.124,526.69,192.769,525.962,192.769"/>
		<path clip-path="url(#SVGID_4_)" fill="#F58622" d="M535.208,174.695c0.943-0.131,1.642-0.7,1.679-0.729
			c0.071-0.06,0.082-0.168,0.022-0.24c-0.059-0.072-0.167-0.084-0.24-0.023c-0.01,0.008-1.001,0.814-2.139,0.658
			c-0.674-0.089-1.272-0.495-1.781-1.206c-0.395-0.555-0.786-1.733-1.238-3.097c-1.109-3.339-2.626-7.912-5.946-9.322
			c-1.65-0.702-3.592-0.527-5.771,0.514c-0.084,0.04-0.12,0.141-0.079,0.227c0.041,0.084,0.145,0.117,0.228,0.08
			c2.084-0.998,3.932-1.169,5.489-0.509c3.178,1.351,4.668,5.84,5.756,9.117c0.479,1.447,0.859,2.591,1.285,3.187
			c0.564,0.793,1.244,1.246,2.017,1.348C534.739,174.732,534.98,174.727,535.208,174.695"/>
		<path clip-path="url(#SVGID_4_)" fill="#F58622" d="M504.555,186.019c0,0,1.993-3.431,4.883-2.816
			c2.89,0.614,3.392,3.638,9.091,2.914c3.173-0.403,4.429-7.314,4.007-10.466c0,0,0.605,0.108,1.037,0.702
			c0.431,0.594-1.08,18.56-11.608,19.515c-9.003,0.816-9.604-10.684-8.402-11.385C504.765,183.781,503.749,185.789,504.555,186.019"
			/>
		<path clip-path="url(#SVGID_4_)" fill="#423F63" d="M508.907,187.933c-0.023,0-0.044-0.001-0.066-0.004
			c-0.644-0.07-1.069-1.091-1.343-3.21c-0.011-0.094,0.055-0.179,0.148-0.191c0.092-0.01,0.178,0.055,0.189,0.147
			c0.33,2.564,0.838,2.894,1.042,2.916c0.533,0.059,1.307-1.406,1.69-2.466c0.03-0.088,0.124-0.135,0.218-0.103
			c0.088,0.032,0.133,0.13,0.101,0.218C510.722,185.698,509.865,187.933,508.907,187.933"/>
		<path clip-path="url(#SVGID_4_)" fill="#423A64" d="M553.684,285.658c0,0-15.521,3.2-60.365,0.785c0,0-5.748-75.29,1.685-78.93
			c11.001-5.389,34.884-3.48,40.283,0.923C540.684,212.838,553.684,285.658,553.684,285.658"/>
		<path clip-path="url(#SVGID_4_)" fill="#EE3A4C" d="M505.865,204.507c0,0,7.367,74.309,8.021,83.422
			c0.655,9.113-20.241,13.123-20.241,13.123s-0.046-9.695-1.342-24.728s-1.766-61.971-1.512-65.864
			C491.045,206.568,505.865,204.507,505.865,204.507"/>
		<path clip-path="url(#SVGID_4_)" fill="#EFA584" d="M507.541,204.355c0,0,6.48,10.927,12.036,9.057
			c5.556-1.87,4.723-8.458,4.723-8.458S517.908,203.221,507.541,204.355"/>
		<path clip-path="url(#SVGID_4_)" fill="#413A64" d="M491.361,266.244c0,0,4.484,3.871,9.281,4.612s11.695,0,11.695,0l0.449,4.752
			c0,0-13.459,2.837-20.484,0.716C492.303,276.324,491.04,268.248,491.361,266.244"/>
		<path clip-path="url(#SVGID_4_)" fill="#FFF7EF" d="M532.118,295.019c-0.085,0-0.159-0.064-0.169-0.15
			c-0.011-0.095,0.057-0.179,0.149-0.188l12.646-1.454c0.089-0.022,0.179,0.056,0.189,0.148c0.011,0.096-0.056,0.179-0.149,0.189
			l-12.646,1.454C532.132,295.019,532.126,295.019,532.118,295.019"/>
		<path clip-path="url(#SVGID_4_)" fill="#FFF7EF" d="M550.773,310.685c-0.053,0-0.104-0.024-0.138-0.071L539.47,294.89
			c-0.054-0.078-0.037-0.183,0.04-0.237c0.073-0.056,0.181-0.038,0.236,0.04l11.165,15.724c0.056,0.077,0.038,0.183-0.04,0.236
			C550.843,310.674,550.809,310.685,550.773,310.685"/>
		<path clip-path="url(#SVGID_4_)" fill="#EFA584" d="M567.92,202.842c0,0,0.197-9.098-1.335-12.379
			c-1.532-3.282,1.532-1.672,2.26,2.939C569.332,196.492,570.617,201.989,567.92,202.842"/>
		<path clip-path="url(#SVGID_4_)" fill="#423F63" d="M571.188,193.458c-0.081,0-0.152-0.057-0.168-0.14
			c-0.683-3.659,1.882-9.677,1.99-9.931c0.038-0.086,0.138-0.124,0.226-0.089c0.087,0.037,0.127,0.137,0.089,0.223
			c-0.026,0.062-2.633,6.177-1.969,9.736c0.017,0.092-0.044,0.181-0.138,0.198C571.209,193.457,571.199,193.458,571.188,193.458"/>
		<path clip-path="url(#SVGID_4_)" fill="#423F63" d="M572.223,193.772h-0.011c-0.094-0.007-0.165-0.088-0.159-0.181
			c0.004-0.062,0.417-6.212,1.906-9.575c0.037-0.086,0.135-0.125,0.224-0.087c0.086,0.038,0.125,0.138,0.087,0.225
			c-1.464,3.306-1.873,9.397-1.877,9.458C572.387,193.704,572.313,193.772,572.223,193.772"/>
		<path clip-path="url(#SVGID_4_)" fill="#423F63" d="M573.476,194.089c-0.022,0-0.047-0.004-0.068-0.015
			c-0.804-0.355-3.563-0.615-3.592-0.618c-0.093-0.008-0.163-0.091-0.152-0.185c0.009-0.093,0.086-0.172,0.185-0.153
			c0.115,0.011,2.842,0.267,3.697,0.645c0.085,0.039,0.125,0.138,0.087,0.225C573.604,194.052,573.541,194.089,573.476,194.089"/>
		<path clip-path="url(#SVGID_4_)" fill="#FFF7EF" d="M538.441,294.292c-0.055,0-0.108-0.026-0.142-0.076l-4.597-6.908
			c-0.051-0.079-0.029-0.185,0.049-0.237c0.078-0.052,0.184-0.031,0.236,0.048l4.596,6.909c0.052,0.079,0.03,0.184-0.049,0.237
			C538.507,294.283,538.474,294.292,538.441,294.292"/>
		<path clip-path="url(#SVGID_4_)" fill="#FFF7EF" d="M537.634,292.04c-0.048,0-0.096-0.02-0.129-0.06
			c-0.061-0.07-0.053-0.178,0.018-0.239c1.039-0.894,1.571-1.809,1.583-2.72c0.015-1.116-0.771-1.841-0.778-1.848
			c-0.069-0.063-0.075-0.172-0.012-0.24c0.063-0.069,0.17-0.073,0.241-0.012c0.036,0.032,0.906,0.836,0.89,2.104
			c-0.012,1.013-0.586,2.013-1.7,2.974C537.712,292.027,537.674,292.04,537.634,292.04"/>
		<path clip-path="url(#SVGID_4_)" fill="#FFF7EF" d="M515.591,289.636c-0.562,0-1.123-0.003-1.69-0.007
			c-0.095-0.001-0.171-0.077-0.169-0.171c0.001-0.094,0.077-0.169,0.17-0.169h0.001c23.724,0.173,40.642-3.394,40.809-3.43
			c0.091-0.019,0.184,0.039,0.203,0.13c0.021,0.093-0.039,0.184-0.131,0.203C554.618,286.228,538.445,289.636,515.591,289.636"/>
		<path clip-path="url(#SVGID_4_)" fill="#FFF7EF" d="M507.6,303.75c-0.07,0-0.136-0.044-0.161-0.113
			c-0.031-0.089,0.016-0.186,0.104-0.218c0.096-0.033,9.5-3.513,8.204-16.128c-0.011-0.093,0.059-0.177,0.151-0.186
			c0.093-0.022,0.179,0.058,0.188,0.15c1.323,12.891-8.332,16.45-8.43,16.485C507.639,303.747,507.618,303.75,507.6,303.75"/>
		<path clip-path="url(#SVGID_4_)" fill="#FFF7EF" d="M558.361,293.727c-5.964,0-9.097-7.555-9.132-7.637
			c-0.035-0.086,0.007-0.186,0.094-0.222c0.088-0.035,0.186,0.007,0.224,0.094c0.03,0.08,3.08,7.423,8.819,7.423
			c0.474,0,0.965-0.049,1.474-0.157c0.091-0.021,0.182,0.039,0.201,0.132c0.021,0.093-0.039,0.183-0.131,0.201
			C559.374,293.674,558.858,293.727,558.361,293.727"/>
		<path clip-path="url(#SVGID_4_)" fill="#EE3A4C" d="M529.075,205.871c0,0,11.005,67.608,15.428,74.605
			c7.204,11.395,15.949,6.869,15.949,6.869s-7.061-12.214-9.121-17.323c-2.061-5.107-7.281-56.413-13.075-60.833
			C534.644,206.432,529.075,205.871,529.075,205.871"/>
		<path clip-path="url(#SVGID_4_)" fill="#EFA584" d="M484.803,230.033c0,0-2.325,36.323,18.09,39.664
			c20.416,3.341,37.192-23.049,50.791-20.395c10.457,2.042,1.45-6.737-10.537-3.048c-11.986,3.69-35.141,15.559-40.308,6.18
			s-7.836-44.921-7.836-44.921S483.38,211.399,484.803,230.033"/>
		<path clip-path="url(#SVGID_4_)" fill="#EE3A4C" d="M533.193,248.49c0,0,7.775,6.1,7.09,8.792
			c-0.685,2.689-26.541,19.472-43.62,12.74c-17.079-6.729-13.164-47.27-12.106-52.739c1.62-8.38,12.628-10.907,12.628-10.907
			s1.448,49.172,10.9,49.249C517.537,255.701,531.196,247.895,533.193,248.49"/>
		<path clip-path="url(#SVGID_4_)" fill="#423F63" d="M556.714,247.619c-0.039,0-0.078-0.013-0.11-0.04
			c-3.568-3.014-10.385-0.711-10.453-0.688c-0.091,0.031-0.186-0.015-0.217-0.105c-0.03-0.089,0.016-0.186,0.104-0.216
			c0.287-0.099,7.062-2.39,10.785,0.748c0.072,0.062,0.08,0.169,0.021,0.241C556.81,247.599,556.762,247.619,556.714,247.619"/>
		<path clip-path="url(#SVGID_4_)" fill="#423F63" d="M557.725,248.551c-0.028,0-0.057-0.007-0.081-0.02
			c-4.203-2.282-10.03-1.008-10.087-0.995c-0.091,0.023-0.182-0.037-0.204-0.129c-0.02-0.092,0.038-0.182,0.129-0.203
			c0.06-0.014,6.007-1.313,10.324,1.026c0.083,0.046,0.112,0.149,0.068,0.232C557.842,248.519,557.784,248.551,557.725,248.551"/>
		<path clip-path="url(#SVGID_4_)" fill="#423F63" d="M549.043,248.66c-0.04,0-0.081-0.015-0.113-0.043
			c-0.032-0.029-3.39-2.975-5.729-2.201c-0.09,0.028-0.185-0.02-0.215-0.109s0.02-0.185,0.108-0.215
			c2.524-0.825,5.918,2.142,6.063,2.27c0.071,0.063,0.077,0.17,0.015,0.241C549.136,248.64,549.09,248.66,549.043,248.66"/>
		<path clip-path="url(#SVGID_4_)" fill="#1F6B7D" d="M342.213,401.528h141.229c0,0-18.875-49.729-59.189-54.844
			C354.814,337.875,342.213,401.528,342.213,401.528"/>
		<path clip-path="url(#SVGID_4_)" fill="#423F63" d="M429.662,259.249c-0.314,0-0.528-0.06-0.548-0.064
			c-0.09-0.025-0.142-0.12-0.117-0.21c0.027-0.09,0.122-0.138,0.21-0.117c0.039,0.011,0.942,0.251,1.764-0.401
			c0.976-0.771,1.438-2.501,1.341-5.007c-0.004-0.094,0.069-0.173,0.164-0.177c0.093,0.004,0.173,0.069,0.177,0.164
			c0.104,2.66-0.393,4.439-1.476,5.291C430.636,259.152,430.066,259.249,429.662,259.249"/>
		<path clip-path="url(#SVGID_4_)" fill="#423F63" d="M417.271,256.923c-0.018,0-0.033-0.004-0.051-0.009
			c-2.541-0.787-4.056-1.849-4.496-3.151c-0.395-1.161,0.228-2.061,0.256-2.099c0.052-0.074,0.156-0.097,0.237-0.04
			c0.075,0.055,0.095,0.16,0.041,0.237c-0.022,0.032-0.551,0.802-0.211,1.797c0.402,1.176,1.88,2.189,4.274,2.932
			c0.089,0.027,0.139,0.123,0.111,0.213C417.41,256.875,417.344,256.923,417.271,256.923"/>
		<path clip-path="url(#SVGID_4_)" fill="#423F63" d="M418.896,261.47c-0.024,0-0.052-0.005-0.076-0.017
			c-2.383-1.184-3.709-2.471-3.938-3.828c-0.204-1.209,0.553-1.998,0.587-2.031c0.064-0.065,0.171-0.068,0.239-0.001
			c0.067,0.064,0.068,0.173,0.004,0.239c-0.028,0.028-0.672,0.706-0.494,1.741c0.211,1.225,1.509,2.461,3.754,3.573
			c0.084,0.042,0.118,0.146,0.077,0.229C419.018,261.435,418.958,261.47,418.896,261.47"/>
		<path clip-path="url(#SVGID_4_)" fill="#EFA584" d="M439.844,273.354c0,0,18.825,11.92,26.316,7.131
			c11.947-7.639-10.075-37.441-11.443-40.343c-3.196-6.775-0.845-9.368,4.382-2.2c5.226,7.168,32.022,41.778,15.002,52.719
			c-17.02,10.941-38.679-2.658-38.679-2.658S434.398,274.021,439.844,273.354"/>
		<path clip-path="url(#SVGID_4_)" fill="#FFCC05" d="M402.379,334.313c0,0-4.021-56.978,5.646-59.254
			c9.667-2.277,29.097-4.783,31.818-1.706s7.828,55.172,7.828,55.172S406.456,343.847,402.379,334.313"/>
		<path clip-path="url(#SVGID_4_)" fill="#F58A28" d="M401.55,304.083c0,0,5.831,8.834,12.106,10.808
			c6.277,1.972,12.299-1.34,12.299-1.34l0.948,13.84c0,0-20.908,8.303-24.25,10.454C402.653,337.845,400.474,307.669,401.55,304.083
			"/>
		<path clip-path="url(#SVGID_4_)" fill="#EFA584" d="M444.629,328.971c0,0,30.708-5.439,41.83,9.087
			c11.122,14.528,20.437,58.628,24.068,58.669c3.632,0.04,11.415-4.203,10.215-2.748c-3.742,4.538-7.343,9.184-12.791,9.685
			c-5.446,0.501-27.691-44.909-37.83-50.471c-10.138-5.56-58.669-9.556-58.669-9.556S425.561,326.595,444.629,328.971"/>
		<path clip-path="url(#SVGID_4_)" fill="#EFA584" d="M429.401,275.604l-11.512,0.586c0,0,1.525-12.335,0.271-18.891
			c-0.872-4.559,11.377-10.695,11.377-10.695L429.401,275.604z"/>
		<path clip-path="url(#SVGID_4_)" fill="#423A64" d="M437.082,333.015c0,0,25.88-11.754,43.03,0
			c18.593,12.742,26.226,52.783,26.226,52.783l-10.821,4.006c0,0-19.654-32.913-25.395-36.61c-5.742-3.698-14.56,0-14.56,0
			L437.082,333.015z"/>
		<path clip-path="url(#SVGID_4_)" fill="#423A64" d="M506.897,403.771l11.005-8.144l-0.885-0.924c0,0,5.518-2.487,6.71-2.042
			s-14.95,13.116-14.95,13.116L506.897,403.771z"/>
		<path clip-path="url(#SVGID_4_)" fill="#EFA584" d="M429.868,271.929c0,0-8.877-0.188-14.759,1.433c0,0,1.337,7.46,8.623,8.822
			C431.02,283.546,430.706,274.32,429.868,271.929"/>
		<path clip-path="url(#SVGID_4_)" fill="#EFA584" d="M406,276.542c0,0-40.171,31.383-24.947,51.249
			c10.335,13.485,35.16-4.646,40.836-4.315c5.066,0.295,5.771,7.125,9.173,5.633s0.144-10.105-9.173-11.24
			c-3.691-0.45-24.885,8.265-30.324,2.951c-5.439-5.314,16.461-24.211,16.461-24.211S413.15,276.065,406,276.542"/>
		<path clip-path="url(#SVGID_4_)" fill="#FFCC05" d="M384.981,294.918c0,0,9.652,14.247,12.599,14.251
			c2.945,0.005,11.926-8.637,13.872-13.927c1.947-5.291,0.052-20.961-1.688-20.573C408.024,275.059,396.119,277.536,384.981,294.918
			"/>
		<path clip-path="url(#SVGID_4_)" fill="#FFCC05" d="M457.643,279.649c0,0,0,9.744-2.004,16.632c0,0-13.725-2.001-18.546-5.621
			v-18.423C437.093,272.237,443.413,272.131,457.643,279.649"/>
		<path clip-path="url(#SVGID_4_)" fill="#E56E52" d="M418.655,264.574c0,0,5.632,4.42,10.785,4.074v-10.149l-10.785,3.326V264.574z
			"/>
		<path clip-path="url(#SVGID_4_)" fill="#423A64" d="M416.265,257.947c0,0-7.896-8.873-6.519-16.911
			c1.386-8.082,6.723-10.755,13.659-10.755c6.257,0,15.761,3.964,11.853,19.246C433.982,254.514,417.933,263.271,416.265,257.947"/>
		<path clip-path="url(#SVGID_4_)" fill="#EFA584" d="M433.541,249.567c0,0,3.362-4.475,4.423-1.804
			c1.06,2.672-3.242,7.17-4.767,5.854C431.674,252.299,433.541,249.567,433.541,249.567"/>
		<path clip-path="url(#SVGID_4_)" fill="#423F63" d="M433.874,252.49c-0.094,0-0.17-0.075-0.17-0.17
			c0-1.675,0.383-2.803,1.141-3.354c0.771-0.562,1.63-0.296,1.666-0.284c0.089,0.029,0.138,0.123,0.11,0.214
			c-0.029,0.089-0.124,0.14-0.215,0.11c-0.005-0.002-0.736-0.223-1.366,0.238c-0.65,0.479-0.996,1.543-0.996,3.077
			C434.044,252.415,433.969,252.49,433.874,252.49"/>
		<path clip-path="url(#SVGID_4_)" fill="#423F63" d="M434.51,251.599c-0.022,0-0.045-0.004-0.065-0.014
			c-0.087-0.038-0.127-0.137-0.091-0.224c0.732-1.735,0.485-2.165,0.482-2.169c-0.063-0.071-0.052-0.173,0.019-0.235
			c0.069-0.064,0.18-0.052,0.245,0.02c0.07,0.081,0.386,0.579-0.433,2.517C434.64,251.56,434.576,251.599,434.51,251.599"/>
		<path clip-path="url(#SVGID_4_)" fill="#EFA584" d="M413.887,249.567c0,0-3.362-4.475-4.423-1.804
			c-1.06,2.672,3.242,7.17,4.767,5.854C415.754,252.299,413.887,249.567,413.887,249.567"/>
		<path clip-path="url(#SVGID_4_)" fill="#423F63" d="M413.553,252.49c-0.094,0-0.17-0.075-0.17-0.17c0-1.537-0.346-2.602-1-3.079
			c-0.634-0.463-1.355-0.238-1.362-0.236c-0.088,0.03-0.184-0.021-0.215-0.11c-0.026-0.089,0.022-0.185,0.111-0.214
			c0.036-0.012,0.895-0.278,1.666,0.284c0.757,0.552,1.14,1.68,1.14,3.354C413.723,252.415,413.646,252.49,413.553,252.49"/>
		<path clip-path="url(#SVGID_4_)" fill="#423F63" d="M412.919,251.599c-0.066,0-0.13-0.039-0.157-0.104
			c-0.819-1.938-0.503-2.438-0.433-2.517c0.063-0.074,0.171-0.076,0.241-0.015c0.067,0.06,0.075,0.161,0.022,0.231
			c-0.015,0.027-0.231,0.479,0.482,2.168c0.036,0.087-0.004,0.186-0.091,0.224C412.964,251.595,412.941,251.599,412.919,251.599"/>
		<path clip-path="url(#SVGID_4_)" fill="#423A64" d="M429.161,224.837c0,3.843-3.116,6.959-6.959,6.959
			c-3.844,0-6.96-3.116-6.96-6.959c0-3.843,3.116-6.959,6.96-6.959C426.045,217.878,429.161,220.995,429.161,224.837"/>
		<path clip-path="url(#SVGID_4_)" fill="#EFA584" d="M412.859,239.766c0,0-1.336,22.895,10.286,23.706
			c8.498,0.594,13.919-17.059,7.954-25.306C427.943,233.803,412.056,234.637,412.859,239.766"/>
		<path clip-path="url(#SVGID_4_)" fill="#423A64" d="M426.28,249.478c-0.09,0.454,0.206,0.894,0.66,0.984
			c0.454,0.089,0.895-0.206,0.984-0.661c0.089-0.454-0.206-0.894-0.66-0.984C426.811,248.729,426.371,249.023,426.28,249.478"/>
		<path clip-path="url(#SVGID_4_)" fill="#423A64" d="M417.742,249.478c-0.09,0.454,0.206,0.894,0.66,0.984
			c0.453,0.089,0.894-0.206,0.983-0.661c0.089-0.454-0.206-0.894-0.66-0.984C418.271,248.729,417.832,249.023,417.742,249.478"/>
		<path clip-path="url(#SVGID_4_)" fill="#E56E52" d="M427.553,252.99c-0.166,0.84,0.381,1.656,1.221,1.822
			c0.841,0.165,1.656-0.382,1.822-1.222s-0.381-1.656-1.222-1.821C428.533,251.604,427.719,252.15,427.553,252.99"/>
		<path clip-path="url(#SVGID_4_)" fill="#423A64" d="M426.124,246.306c-0.096,0.77,0.815,0.101,1.822,0.225
			c1.008,0.124,1.729,0.995,1.823,0.225c0.096-0.77-0.644-1.495-1.65-1.62C427.111,245.012,426.219,245.536,426.124,246.306"/>
		<path clip-path="url(#SVGID_4_)" fill="#423A64" d="M416.504,246.271c0.037,0.775,0.822-0.039,1.835-0.088
			c1.014-0.049,1.872,0.687,1.835-0.088c-0.036-0.776-0.889-1.364-1.902-1.316C417.258,244.828,416.467,245.496,416.504,246.271"/>
		<path clip-path="url(#SVGID_4_)" fill="#E56E52" d="M416.817,252.99c-0.166,0.84,0.381,1.656,1.222,1.822
			c0.841,0.165,1.655-0.382,1.821-1.222s-0.381-1.656-1.221-1.821C417.799,251.604,416.983,252.15,416.817,252.99"/>
		<path clip-path="url(#SVGID_4_)" fill="#423F63" d="M423.496,253.613c-0.022,0-0.044-0.003-0.061-0.007
			c-0.531-0.106-0.984-1.938-1.155-2.72c-0.021-0.092,0.039-0.183,0.131-0.202c0.094-0.021,0.182,0.039,0.202,0.131
			c0.269,1.229,0.677,2.364,0.882,2.455c0.001-0.004,0.012-0.016,0.024-0.033c0.078-0.217,0.053-2.432,0.006-3.929
			c-0.002-0.095,0.07-0.173,0.165-0.176c0.104,0.001,0.173,0.072,0.176,0.165c0.054,1.765,0.088,3.916-0.068,4.136
			C423.694,253.58,423.58,253.613,423.496,253.613"/>
		<path clip-path="url(#SVGID_4_)" fill="#423F63" d="M423.552,257.74c-0.793,0-1.691-1.004-2.739-3.06
			c-0.042-0.084-0.01-0.188,0.074-0.229c0.078-0.045,0.186-0.011,0.229,0.074c1.285,2.521,2.098,2.962,2.546,2.865
			c0.871-0.163,1.276-2.329,1.358-3.149c0.008-0.088,0.082-0.153,0.169-0.153c0.005,0,0.011,0,0.017,0.001
			c0.093,0.01,0.161,0.093,0.152,0.187c-0.032,0.327-0.357,3.21-1.634,3.449C423.668,257.735,423.611,257.74,423.552,257.74"/>
		<path clip-path="url(#SVGID_4_)" fill="#423A64" d="M422.879,235.165c0,0,4.669-0.48,6.612,3.597
			c1.944,4.077,1.147,19.232,4.384,21.536c0,0-0.6-10.199-0.159-12.351C434.155,245.796,437.938,231.42,422.879,235.165"/>
		<path clip-path="url(#SVGID_4_)" fill="#423A64" d="M422.698,235.178c0,0-4.84,0.07-6.37,4.348
			c-1.528,4.279,1.009,19.242-2.048,21.91c0,0-0.543-10.203-1.237-12.289C412.348,247.061,406.839,233.221,422.698,235.178"/>
		<path clip-path="url(#SVGID_4_)" fill="#52507A" d="M424.23,229.208c-0.033,0-0.066-0.009-0.096-0.029
			c-0.078-0.055-0.099-0.16-0.044-0.237c1.922-2.798,0.938-7.646-0.724-8.874c-0.919-0.676-1.741-0.028-2.271,0.641
			c-1.227,1.546-1.397,3.39-0.509,5.484c0.672,1.581,1.728,2.717,1.737,2.728c0.066,0.069,0.063,0.177-0.006,0.24
			c-0.071,0.063-0.178,0.059-0.241-0.006c-0.044-0.048-4.365-4.728-1.248-8.659c1.186-1.496,2.224-1.082,2.739-0.702
			c1.934,1.43,2.688,6.594,0.801,9.34C424.338,229.182,424.285,229.208,424.23,229.208"/>
		<path clip-path="url(#SVGID_4_)" fill="#52507A" d="M419.608,229.178c-0.047,0-0.093-0.019-0.126-0.056
			c-2.029-2.249-2.853-4.275-2.452-6.022c0.498-2.16,2.677-3.065,2.771-3.102c0.089-0.036,0.184,0.008,0.222,0.095
			c0.034,0.086-0.007,0.186-0.095,0.222c-0.021,0.008-2.111,0.877-2.565,2.865c-0.374,1.632,0.424,3.553,2.372,5.713
			c0.063,0.071,0.059,0.179-0.012,0.241C419.689,229.163,419.649,229.178,419.608,229.178"/>
		<path clip-path="url(#SVGID_4_)" fill="#52507A" d="M425.301,229.304c-0.04,0-0.081-0.015-0.112-0.043
			c-0.071-0.062-0.077-0.17-0.016-0.24c2.793-3.142,1.57-6.85,1.559-6.887c-0.031-0.088,0.017-0.185,0.105-0.216
			c0.083-0.03,0.186,0.016,0.216,0.105c0.014,0.04,1.304,3.931-1.624,7.224C425.395,229.284,425.348,229.304,425.301,229.304"/>
		<path clip-path="url(#SVGID_4_)" fill="#52507A" d="M432.834,256.085c-0.068,0-0.133-0.041-0.159-0.109
			c-0.746-1.961-0.234-4.259,0.358-6.92c0.627-2.809,1.337-5.993,0.673-9.466c-1.238-6.5-8.25-6.562-8.402-6.562h-0.001h-0.001
			c-0.094,0-0.169-0.076-0.171-0.169c-0.002-0.095,0.074-0.17,0.169-0.172h0.003c0.17,0,7.447,0.065,8.739,6.839
			c0.676,3.542-0.043,6.762-0.676,9.603c-0.581,2.608-1.084,4.861-0.372,6.725c0.033,0.087-0.011,0.186-0.099,0.22
			C432.875,256.08,432.854,256.085,432.834,256.085"/>
		<path clip-path="url(#SVGID_4_)" fill="#52507A" d="M414.54,256.973c-0.013,0-0.024-0.001-0.037-0.004
			c-0.092-0.02-0.149-0.112-0.129-0.203c0.165-0.744-0.048-2.159-0.317-3.951c-0.413-2.757-0.979-6.533-0.674-10.823
			c0.515-7.193,7.48-8.475,7.552-8.487c0.102-0.014,0.179,0.045,0.197,0.138c0.016,0.093-0.047,0.181-0.139,0.197
			c-0.068,0.012-6.775,1.254-7.271,8.176c-0.304,4.253,0.26,8.007,0.671,10.749c0.284,1.898,0.49,3.27,0.313,4.075
			C414.688,256.918,414.618,256.973,414.54,256.973"/>
		<path clip-path="url(#SVGID_4_)" fill="#52507A" d="M411.336,244.556c-0.073,0-0.142-0.048-0.164-0.122
			c-0.01-0.038-1.088-3.783,0.89-7.394c1.461-2.667,4.174-4.587,8.067-5.707c0.081-0.023,0.185,0.025,0.21,0.117
			c0.027,0.09-0.027,0.183-0.117,0.21c-3.801,1.095-6.447,2.959-7.862,5.544c-1.907,3.487-0.871,7.097-0.859,7.134
			c0.025,0.089-0.026,0.185-0.116,0.211C411.368,244.553,411.352,244.556,411.336,244.556"/>
		<path clip-path="url(#SVGID_4_)" fill="#52507A" d="M433.619,235.518c-0.067,0-0.13-0.04-0.157-0.105
			c-2.458-5.968-9.307-4.387-9.375-4.372c-0.088,0.028-0.183-0.033-0.205-0.125c-0.022-0.092,0.033-0.183,0.125-0.205
			c0.073-0.02,7.205-1.661,9.77,4.572c0.036,0.087-0.005,0.186-0.093,0.222C433.663,235.514,433.64,235.518,433.619,235.518"/>
		<path clip-path="url(#SVGID_4_)" fill="#423F63" d="M415.789,245.289h-0.01c-0.095-0.005-0.167-0.086-0.16-0.18
			c0.506-8.742,7.161-10.098,7.228-10.112c0.09-0.014,0.181,0.044,0.2,0.136c0.017,0.093-0.044,0.182-0.136,0.199
			c-0.065,0.012-6.463,1.329-6.952,9.796C415.954,245.219,415.878,245.289,415.789,245.289"/>
		<path clip-path="url(#SVGID_4_)" fill="#423F63" d="M417.891,230.465c-0.028,0-0.057-0.007-0.082-0.021
			c-2.058-1.143-3.189-2.509-3.364-4.058c-0.273-2.408,1.854-4.352,1.944-4.433c0.069-0.063,0.177-0.059,0.24,0.012
			c0.063,0.07,0.058,0.178-0.012,0.241c-0.021,0.018-2.088,1.911-1.834,4.144c0.162,1.432,1.236,2.71,3.189,3.796
			c0.082,0.045,0.111,0.149,0.066,0.231C418.007,230.434,417.95,230.465,417.891,230.465"/>
		<path clip-path="url(#SVGID_4_)" fill="#423F63" d="M425.301,230.465c-0.076,0-0.146-0.052-0.165-0.129
			c-0.022-0.09,0.032-0.184,0.124-0.206c1.887-0.475,3.112-1.336,3.644-2.556c0.847-1.95-0.374-4.199-0.387-4.222
			c-0.045-0.082-0.016-0.186,0.067-0.231c0.083-0.046,0.187-0.016,0.231,0.066c0.054,0.097,1.313,2.415,0.399,4.521
			c-0.574,1.323-1.876,2.25-3.873,2.752C425.329,230.464,425.314,230.465,425.301,230.465"/>
		<path clip-path="url(#SVGID_4_)" fill="#423F63" d="M426.635,323.646c-0.051,0-0.102-0.022-0.136-0.065
			c-1.479-1.944-3.809-2.444-3.833-2.449c-0.092-0.019-0.151-0.109-0.131-0.201c0.018-0.09,0.094-0.16,0.2-0.132
			c0.1,0.021,2.476,0.527,4.036,2.574c0.057,0.076,0.042,0.182-0.032,0.239C426.707,323.634,426.671,323.646,426.635,323.646"/>
		<path clip-path="url(#SVGID_4_)" fill="#423F63" d="M420.964,322.391c-0.067,0-0.13-0.04-0.157-0.105
			c-0.036-0.087,0.005-0.186,0.092-0.222c0.118-0.049,2.879-1.229,2.152-4.091c-0.022-0.092,0.032-0.185,0.123-0.207
			c0.09-0.026,0.183,0.031,0.207,0.124c0.799,3.15-2.321,4.476-2.352,4.487C421.008,322.387,420.985,322.391,420.964,322.391"/>
		<path clip-path="url(#SVGID_4_)" fill="#423F63" d="M428.338,323.032c-0.049,0-0.098-0.021-0.131-0.061
			c-0.023-0.028-2.38-2.8-4.9-3.348c-0.092-0.021-0.151-0.11-0.131-0.202c0.02-0.092,0.112-0.148,0.202-0.13
			c2.636,0.571,4.991,3.343,5.09,3.462c0.06,0.072,0.051,0.178-0.021,0.239C428.414,323.02,428.377,323.032,428.338,323.032"/>
		<path clip-path="url(#SVGID_4_)" fill="#EFA584" d="M408.024,347.138c0,0,20.848-29.105,43.919-16.646
			c23.073,12.459,22.651,69.219,29.006,70.06c6.356,0.841,8.141-3.262,8.351-1.358c0.209,1.904-9.749,12.037-11.861,9.047
			c-4.323-6.117-31.391-57.236-37.701-57.296C433.428,350.886,415.828,353.465,408.024,347.138"/>
		<path clip-path="url(#SVGID_4_)" fill="#423A64" d="M402.379,334.313c0,0,36.372-17.354,53.243-4.989
			c16.87,12.366,22.485,64.783,22.485,64.783l-9.593,5.087c0,0-21.844-44.94-28.907-46.456c-7.065-1.514-28.154,0.854-35.584-5.266
			C398.908,343.259,402.379,334.313,402.379,334.313"/>
		<rect x="425.956" y="296.608" clip-path="url(#SVGID_4_)" fill="#FFFAF0" width="45.416" height="33.883"/>
		<polygon clip-path="url(#SVGID_4_)" fill="#D4EBDE" points="425.956,296.608 471.372,330.491 425.956,330.491 		"/>
		<path clip-path="url(#SVGID_4_)" fill="#423A64" d="M453.624,313.55c0,2.419-1.961,4.38-4.38,4.38c-2.42,0-4.381-1.961-4.381-4.38
			s1.961-4.38,4.381-4.38C451.663,309.17,453.624,311.131,453.624,313.55"/>
		<path clip-path="url(#SVGID_4_)" fill="#423A64" d="M477.438,408.241l11.005-8.145l-0.884-0.923c0,0,5.517-2.488,6.71-2.042
			c1.191,0.445-14.951,13.116-14.951,13.116L477.438,408.241z"/>
		<path clip-path="url(#SVGID_4_)" fill="#EFA584" d="M454.717,240.142c0,0-3.485-5.942-5.474-7.137
			c-1.987-1.195,3.725-0.368,4.249,2.16c0.525,2.529-2.989-8.963-1.722-10.841c1.269-1.878,4.299,8.182,7.328,13.617
			C462.129,243.376,455.843,243.241,454.717,240.142"/>
		<path clip-path="url(#SVGID_4_)" fill="#423F63" d="M455.862,235.159c-0.059,0-0.116-0.031-0.147-0.085
			c-2.103-3.619-3.307-10.652-3.318-10.723c-0.016-0.092,0.047-0.179,0.14-0.195c0.089-0.014,0.181,0.045,0.195,0.139
			c0.012,0.069,1.206,7.041,3.279,10.609c0.046,0.081,0.018,0.185-0.063,0.232C455.922,235.151,455.892,235.159,455.862,235.159"/>
		<path clip-path="url(#SVGID_4_)" fill="#423F63" d="M457.013,235.159c-0.066,0-0.13-0.04-0.157-0.105
			c-0.109-0.267-2.687-6.568-2.965-8.846c-0.012-0.093,0.056-0.178,0.149-0.189c0.093-0.02,0.177,0.055,0.188,0.149
			c0.273,2.232,2.914,8.692,2.941,8.756c0.036,0.087-0.005,0.187-0.092,0.222C457.057,235.155,457.034,235.159,457.013,235.159"/>
		<path clip-path="url(#SVGID_4_)" fill="#423F63" d="M457.709,235.334c-0.024,0-0.049-0.005-0.07-0.015
			c-0.991-0.452-2.696,0.004-2.712,0.01c-0.099,0.024-0.186-0.03-0.209-0.12c-0.026-0.092,0.027-0.185,0.118-0.21
			c0.074-0.02,1.846-0.487,2.942,0.009c0.086,0.04,0.124,0.141,0.086,0.226C457.834,235.298,457.773,235.334,457.709,235.334"/>
		<path clip-path="url(#SVGID_4_)" fill="#423A64" d="M336.816,157.822c0,0-1.315-5.325-9.962-1.262
			c-6.198,2.911-8.594,12.215-7.015,16.612c1.578,4.396,2.15,1.15,2.766,4.161C323.222,180.344,328.73,159.235,336.816,157.822"/>
		<path clip-path="url(#SVGID_4_)" fill="#423A64" d="M339.178,391.898c0,0,1.362,9.124,0.454,9.776
			c-0.908,0.651-20.962,0.888-19.373,0.043c1.589-0.847,11.447-4.227,11.901-4.638c0.454-0.41-0.246-5.182-0.246-5.182H339.178z"/>
		<path clip-path="url(#SVGID_4_)" fill="#423A64" d="M340.71,391.898c0,0-1.362,9.124-0.454,9.776
			c0.908,0.651,24.366,0.888,22.777,0.043c-1.589-0.847-14.139-4.638-14.378-7.236c-0.055-0.595-0.681-2.583-0.681-2.583H340.71z"/>
		<path clip-path="url(#SVGID_4_)" fill="#008EA7" d="M314.016,278.059c0,0-6.687,46.148-4.178,60.646
			c3.318,19.178,20.092,57.566,20.218,58.103c0.258,1.096,11.099,0,11.099,0s-9.4-55.235-8.52-63.673
			c0.88-8.438,9.421-43.567,9.421-43.567L314.016,278.059z"/>
		<path clip-path="url(#SVGID_4_)" fill="#008EA7" d="M364.101,280.173c0,0,7.244,37.193,5.262,58.426
			c-2.155,23.084-19.373,58.209-15.929,58.209l-14.224-0.469c0,0,9.367-52.999,8.487-61.437
			c-0.88-8.437-13.173-44.133-13.173-44.133L364.101,280.173z"/>
		<path clip-path="url(#SVGID_4_)" fill="#423F63" d="M359.406,248.144c-0.078,0-0.148-0.053-0.166-0.132
			c-0.766-3.341-6.311-8.491-6.367-8.542c-0.069-0.064-0.073-0.172-0.009-0.241c0.063-0.068,0.171-0.073,0.24-0.009
			c0.232,0.214,5.678,5.273,6.468,8.715c0.021,0.092-0.036,0.184-0.128,0.205C359.431,248.143,359.419,248.144,359.406,248.144"/>
		<path clip-path="url(#SVGID_4_)" fill="#423A64" d="M336.519,191.763c0,0-8.323,3.25-8.323-2.017c0-3.312-4.308-1.221-4.56-4.633
			c-0.253-3.412,1.426-3.071-0.557-6.815c-5.965-11.258,4.008-21.411,12.366-21.912c8.358-0.502,12.311,1.423,16.081,10.484
			c4.014,9.646-4.197,12.493-2.87,18.742c0.746,3.512-1.437,7.398-6.919,6.101C336.529,190.48,336.519,191.763,336.519,191.763"/>
		<polygon clip-path="url(#SVGID_4_)" fill="#F2A887" points="342.436,186.226 342.436,202.835 332.746,202.835 332.746,184.381 		
			"/>
		<path clip-path="url(#SVGID_4_)" fill="#E66E52" d="M332.745,193.608c0,0,4.937,4.614,9.69,3.691v-11.073h-9.69V193.608z"/>
		<path clip-path="url(#SVGID_4_)" fill="#F2A887" d="M327.061,168.925c0,0-2.44,22.328,9.458,22.837
			c12.137,0.519,11.764-21.914,10.15-25.836C345.054,162.005,326.58,157.291,327.061,168.925"/>
		<path clip-path="url(#SVGID_4_)" fill="#423F63" d="M336.914,182.322c-0.031,0-0.057-0.005-0.078-0.011
			c-0.51-0.135-0.772-1.906-0.861-2.66c-0.011-0.093,0.056-0.179,0.149-0.189c0.092-0.01,0.178,0.056,0.189,0.149
			c0.138,1.167,0.418,2.261,0.604,2.369c0.002-0.006,0.019-0.02,0.042-0.052c0.397-0.532,0.407-4.179,0.317-6.499
			c-0.003-0.094,0.07-0.173,0.164-0.177h0.007c0.091,0,0.166,0.072,0.17,0.164c0.023,0.603,0.21,5.916-0.385,6.716
			C337.117,182.285,337,182.322,336.914,182.322"/>
		<path clip-path="url(#SVGID_4_)" fill="#423F63" d="M336.71,185.781h-0.01c-1.449-0.014-2.435-3.064-2.476-3.194
			c-0.029-0.09,0.021-0.186,0.11-0.214c0.092-0.027,0.185,0.022,0.214,0.11c0.261,0.82,1.156,2.948,2.155,2.958h0.006
			c0.484,0,1.232-0.517,2.061-2.96c0.029-0.089,0.127-0.137,0.215-0.107c0.089,0.03,0.137,0.126,0.106,0.216
			C338.364,184.737,337.584,185.781,336.71,185.781"/>
		<path clip-path="url(#SVGID_4_)" fill="#423A64" d="M339.718,173.008c-0.027,0.788,0.835,0.029,1.866,0.065
			c1.03,0.036,1.838,0.853,1.866,0.065c0.027-0.788-0.786-1.456-1.816-1.492C340.604,171.61,339.745,172.22,339.718,173.008"/>
		<path clip-path="url(#SVGID_4_)" fill="#423A64" d="M330.879,172.7c-0.028,0.788,0.835,0.029,1.866,0.065
			c1.03,0.036,1.838,0.853,1.866,0.065c0.027-0.788-0.786-1.456-1.816-1.492C331.764,171.302,330.906,171.912,330.879,172.7"/>
		<path clip-path="url(#SVGID_4_)" fill="#E66E52" d="M341.646,180.858c-0.116,0.863,0.488,1.656,1.351,1.773
			c0.863,0.116,1.656-0.489,1.773-1.351c0.116-0.863-0.489-1.657-1.351-1.773C342.556,179.391,341.762,179.995,341.646,180.858"/>
		<path clip-path="url(#SVGID_4_)" fill="#E66E52" d="M329.317,180.858c-0.116,0.863,0.488,1.656,1.351,1.773
			c0.863,0.116,1.656-0.489,1.773-1.351c0.116-0.863-0.489-1.657-1.351-1.773C330.227,179.391,329.433,179.995,329.317,180.858"/>
		<path clip-path="url(#SVGID_4_)" fill="#423A64" d="M340.74,176.606c-0.063,0.466,0.264,0.895,0.73,0.958
			c0.466,0.062,0.894-0.264,0.957-0.73c0.063-0.466-0.264-0.895-0.73-0.958C341.232,175.813,340.803,176.14,340.74,176.606"/>
		<path clip-path="url(#SVGID_4_)" fill="#423A64" d="M331.611,176.606c-0.063,0.466,0.264,0.895,0.73,0.958
			c0.466,0.062,0.894-0.264,0.957-0.73c0.063-0.466-0.264-0.895-0.73-0.958C332.103,175.813,331.674,176.14,331.611,176.606"/>
		<path clip-path="url(#SVGID_4_)" fill="#423A64" d="M336.518,161.575c0,0,8.266,1.702,7.348,6.772
			c-1.333,7.358,3.234,8.567,6.023,7.521c0,0,0.415-7.004-1.672-11.508C346.129,159.857,336.518,161.575,336.518,161.575"/>
		<path clip-path="url(#SVGID_4_)" fill="#423A64" d="M336.144,161.596c0,0-7.948,0.538-6.832,6.909
			c1.216,6.943-1.13,9.261-3.41,8.215c0,0-0.51-7.856,1.196-12.359C328.805,159.857,336.144,161.596,336.144,161.596"/>
		<path clip-path="url(#SVGID_4_)" fill="#423F63" d="M347.395,175.604c-3.197,0-3.423-2.705-3.643-5.325
			c-0.108-1.289-0.219-2.621-0.696-3.58c-2.36-4.741-8.637-5.938-8.701-5.949c-0.092-0.018-0.153-0.106-0.137-0.199
			c0.017-0.092,0.098-0.159,0.199-0.137c0.064,0.012,6.509,1.241,8.944,6.134c0.506,1.016,0.62,2.382,0.731,3.703
			c0.215,2.575,0.419,5.013,3.315,5.013c0.114,0,0.231-0.004,0.353-0.012c0.091-0.023,0.175,0.065,0.18,0.159
			c0.006,0.094-0.065,0.175-0.159,0.181C347.647,175.601,347.519,175.604,347.395,175.604"/>
		<path clip-path="url(#SVGID_4_)" fill="#F2A887" d="M346.528,178.028c0,0,2.289-3.464,3.193-1.534
			c0.905,1.93-2.078,5.453-3.265,4.547C345.268,180.135,346.528,178.028,346.528,178.028"/>
		<path clip-path="url(#SVGID_4_)" fill="#423F63" d="M346.898,180.221c-0.09,0-0.164-0.07-0.17-0.16
			c-0.076-1.254,0.163-2.118,0.709-2.57c0.564-0.466,1.233-0.302,1.26-0.294c0.091,0.023,0.146,0.115,0.123,0.206
			c-0.023,0.09-0.116,0.145-0.206,0.123c-0.022-0.004-0.535-0.125-0.963,0.23c-0.449,0.375-0.651,1.164-0.583,2.285
			c0.006,0.094-0.066,0.174-0.16,0.18H346.898z"/>
		<path clip-path="url(#SVGID_4_)" fill="#423F63" d="M347.329,179.533c-0.019,0-0.038-0.003-0.057-0.01
			c-0.088-0.031-0.134-0.128-0.103-0.217c0.449-1.275,0.266-1.586,0.264-1.589c-0.067-0.067-0.061-0.167,0.005-0.234
			c0.068-0.067,0.182-0.059,0.247,0.007c0.084,0.084,0.319,0.47-0.196,1.929C347.465,179.489,347.399,179.533,347.329,179.533"/>
		<path clip-path="url(#SVGID_4_)" fill="#52507A" d="M350.168,175.743c-0.432,0-0.821-0.096-1.172-0.289
			c-1.65-0.905-2.057-3.838-2.449-6.676c-0.345-2.493-0.702-5.073-1.879-6.166c-3.088-2.869-7.416-1.873-7.458-1.864
			c-0.09,0.026-0.184-0.034-0.206-0.125c-0.022-0.092,0.035-0.184,0.126-0.206c0.046-0.01,4.55-1.045,7.77,1.945
			c1.266,1.176,1.631,3.817,1.984,6.37c0.381,2.754,0.776,5.601,2.276,6.424c0.711,0.389,1.632,0.315,2.816-0.227
			c0.085-0.041,0.186-0.002,0.226,0.084s0.002,0.187-0.084,0.226C351.387,175.575,350.739,175.743,350.168,175.743"/>
		<path clip-path="url(#SVGID_4_)" fill="#52507A" d="M325.83,174.9c-0.069,0-0.134-0.043-0.16-0.111
			c-0.032-0.088,0.013-0.186,0.101-0.219c1.302-0.48,0.998-2.086,0.614-4.12c-0.336-1.777-0.717-3.792-0.133-5.625
			c0.651-2.042,1.781-3.465,3.355-4.233c2.74-1.335,5.824-0.217,5.953-0.169c0.089,0.032,0.133,0.13,0.101,0.218
			c-0.033,0.088-0.134,0.131-0.219,0.101c-0.03-0.011-3.08-1.113-5.688,0.157c-1.487,0.725-2.556,2.081-3.177,4.03
			c-0.558,1.751-0.186,3.721,0.142,5.458c0.398,2.105,0.742,3.923-0.83,4.502C325.869,174.897,325.849,174.9,325.83,174.9"/>
		<path clip-path="url(#SVGID_4_)" fill="#F2A887" d="M327.522,177.534c0,0-2.647-4.005-3.693-1.774
			c-1.046,2.232,2.403,6.306,3.776,5.258C328.979,179.97,327.522,177.534,327.522,177.534"/>
		<path clip-path="url(#SVGID_4_)" fill="#423F63" d="M327.093,180.043h-0.011c-0.093-0.006-0.165-0.086-0.159-0.181
			c0.08-1.304-0.157-2.225-0.683-2.663c-0.505-0.42-1.13-0.272-1.137-0.272c-0.093,0.02-0.185-0.033-0.207-0.123
			c-0.022-0.091,0.032-0.183,0.123-0.206c0.032-0.008,0.794-0.194,1.434,0.335c0.625,0.516,0.897,1.509,0.81,2.95
			C327.257,179.974,327.183,180.043,327.093,180.043"/>
		<path clip-path="url(#SVGID_4_)" fill="#423F63" d="M326.596,179.248c-0.07,0-0.136-0.044-0.16-0.114
			c-0.591-1.672-0.329-2.109-0.234-2.203c0.067-0.067,0.174-0.066,0.24,0c0.067,0.067,0.067,0.175,0,0.241
			c0.004,0-0.209,0.367,0.314,1.849c0.032,0.089-0.014,0.186-0.103,0.217C326.634,179.245,326.615,179.248,326.596,179.248"/>
		<path clip-path="url(#SVGID_4_)" fill="#52507A" d="M351.83,171.791c-0.094,0-0.187-0.013-0.279-0.039
			c-1.012-0.29-1.707-2.076-2.669-4.55c-0.809-2.082-1.727-4.443-3.079-6.527c-0.966-1.489-2.163-2.368-3.558-2.612
			c-2.461-0.433-4.718,1.262-4.74,1.28c-0.075,0.057-0.182,0.042-0.239-0.033c-0.056-0.075-0.042-0.182,0.033-0.239
			c0.097-0.074,2.399-1.797,5.005-1.344c1.491,0.261,2.765,1.191,3.785,2.763c1.371,2.112,2.335,4.594,3.11,6.589
			c0.857,2.202,1.596,4.103,2.445,4.345c0.249,0.072,0.515-0.001,0.809-0.224c0.075-0.053,0.183-0.041,0.239,0.034
			c0.056,0.076,0.041,0.183-0.034,0.239C352.375,171.685,352.099,171.791,351.83,171.791"/>
		<path clip-path="url(#SVGID_4_)" fill="#423A64" d="M369.225,288.191c0,0-2.018-78.829-8.303-84.892
			c-6.286-6.062-38.204,0.04-38.204,0.04c-8.736,1.513-11.996,84.852-11.996,84.852S336.344,291.295,369.225,288.191"/>
		<path clip-path="url(#SVGID_4_)" fill="#F2A887" d="M371.606,248.381c0,0,3.075,9.978-14.247,9.623
			c-17.601-0.36-20.117-15.7-29.637-13.76s-23.268-2.777-7.9-5.779C329.391,236.595,356.151,231.119,371.606,248.381"/>
		<path clip-path="url(#SVGID_4_)" fill="#F2A887" d="M310.72,240.801c0,0-4.57,16.839,1.611,19.728
			c15.95,7.45,28.051-18.495,52.936-8.247c4.102,1.689,8.982,1.605-4.132-6.95C345.528,235.149,316.359,238.436,310.72,240.801"/>
		<path clip-path="url(#SVGID_4_)" fill="#F2A887" d="M360.581,206.061c0,0,8.249,2.618,10.896,11.254
			c2.646,8.636,2.383,31.066,0.916,32.506c-2.465,2.417-17.201-2.514-17.201-2.514S359.13,216.411,360.581,206.061"/>
		<path clip-path="url(#SVGID_4_)" fill="#F2A887" d="M320.741,247.974c0,0-3.309-34.57-3.912-38.678
			c-0.604-4.108-9.525,6.435-12.258,20.403c-2.733,13.968,6.686,29.75,6.686,29.75S319.583,258.307,320.741,247.974"/>
		<path clip-path="url(#SVGID_4_)" fill="#F2A887" d="M328.617,202.357c0,0,5.58-2.295,18.781-1.535c0,0-3.459,9.125-8.635,11.001
			C333.585,213.699,328.617,202.357,328.617,202.357"/>
		<path clip-path="url(#SVGID_4_)" fill="#423A64" d="M320.741,231.119c0,0-15.065,5.875-16.61,5.807
			c-1.545-0.069-2.841-17.735,4.683-25.91c7.3-7.93,16.273-7.93,16.273-7.93L320.741,231.119z"/>
		<path clip-path="url(#SVGID_4_)" fill="#423A64" d="M356.151,231.119c0,0,17.088,3.09,18.633,3.021
			c1.544-0.069-1.51-20.512-5.551-26.3c-4.866-6.972-15.734-6.831-15.734-6.831L356.151,231.119z"/>
		<path clip-path="url(#SVGID_4_)" fill="#423F63" d="M363.851,240.741c-0.244,0-0.397-0.043-0.416-0.048
			c-0.089-0.026-0.141-0.122-0.114-0.211c0.027-0.091,0.123-0.136,0.211-0.116c0.05,0.015,1.186,0.316,2.361-1.129
			c0.06-0.073,0.167-0.085,0.24-0.024c0.073,0.058,0.084,0.166,0.025,0.239C365.261,240.555,364.359,240.741,363.851,240.741"/>
		<path clip-path="url(#SVGID_4_)" fill="#423F63" d="M371.606,248.551c-0.063,0-0.124-0.036-0.154-0.097
			c-0.027-0.056-2.783-5.719-6.763-7.39c-0.087-0.036-0.128-0.135-0.092-0.223c0.036-0.087,0.136-0.129,0.223-0.091
			c4.101,1.721,6.825,7.32,6.94,7.558c0.04,0.083,0.004,0.186-0.08,0.226C371.656,248.546,371.631,248.551,371.606,248.551"/>
		<path clip-path="url(#SVGID_4_)" fill="#423F63" d="M372.444,248.144c-0.09,0-0.166-0.07-0.17-0.162
			c-0.159-3.17-1.306-5.606-3.409-7.241c-4.78-3.712-12.989-2.101-13.072-2.087c-0.094,0.02-0.182-0.04-0.201-0.133
			c-0.019-0.092,0.041-0.181,0.133-0.199c0.084-0.019,8.445-1.657,13.349,2.15c2.185,1.699,3.377,4.219,3.54,7.494
			c0.005,0.093-0.068,0.173-0.161,0.178H372.444z"/>
		<path clip-path="url(#SVGID_4_)" fill="#423F63" d="M371.808,250.17c-0.062,0-0.121-0.033-0.152-0.093
			c-0.043-0.084-4.442-8.423-15.94-11.424c-0.09-0.024-0.145-0.117-0.122-0.207c0.024-0.092,0.113-0.149,0.208-0.123
			c11.652,3.041,16.114,11.514,16.158,11.6c0.042,0.082,0.01,0.186-0.074,0.228C371.86,250.163,371.834,250.17,371.808,250.17"/>
		<path clip-path="url(#SVGID_4_)" fill="#423F63" d="M343.084,253.531c-0.038,0-0.076-0.013-0.107-0.039
			c-0.096-0.077-9.783-7.896-23.233-14.876c-0.083-0.044-0.116-0.146-0.072-0.23c0.043-0.082,0.146-0.11,0.229-0.073
			c13.482,7,23.194,14.837,23.29,14.916c0.073,0.06,0.085,0.166,0.025,0.239C343.182,253.51,343.133,253.531,343.084,253.531"/>
		<path clip-path="url(#SVGID_4_)" fill="#FFF6EF" d="M345.42,304.254h-14.3c-0.094,0-0.171-0.076-0.171-0.17
			c0-0.095,0.077-0.17,0.171-0.17h14.3c0.094,0,0.17,0.075,0.17,0.17C345.59,304.178,345.514,304.254,345.42,304.254"/>
		<path clip-path="url(#SVGID_4_)" fill="#FFF6EF" d="M342.396,291.373c-15.666,0-29.708-1.608-29.919-1.633
			c-0.093-0.012-0.16-0.097-0.149-0.189c0.011-0.093,0.094-0.172,0.189-0.149c0.315,0.036,31.888,3.652,53.194-0.001
			c0.095-0.011,0.181,0.047,0.197,0.139c0.016,0.093-0.046,0.181-0.139,0.196C358.611,290.963,350.295,291.373,342.396,291.373"/>
		<path clip-path="url(#SVGID_4_)" fill="#FFF6EF" d="M310.723,305.774c-0.073,0-0.14-0.048-0.163-0.121
			c-0.027-0.089,0.023-0.185,0.114-0.212c0.09-0.027,9.092-2.904,12.08-15.909c0.023-0.091,0.117-0.146,0.205-0.128
			c0.091,0.021,0.149,0.113,0.127,0.205c-1.584,6.895-4.842,10.918-7.295,13.079c-2.665,2.348-4.924,3.05-5.019,3.079
			C310.755,305.771,310.738,305.774,310.723,305.774"/>
		<path clip-path="url(#SVGID_4_)" fill="#FFF6EF" d="M368.18,303.903c-0.005,0-0.01,0-0.015-0.001
			c-3.977-0.355-7.337-4.227-9.456-7.41c-2.282-3.432-3.655-6.824-3.669-6.858c-0.035-0.087,0.007-0.186,0.095-0.222
			c0.083-0.034,0.185,0.006,0.222,0.095c0.053,0.134,5.461,13.395,12.838,14.058c0.094,0.008,0.163,0.09,0.155,0.183
			C368.342,303.836,368.268,303.903,368.18,303.903"/>
		<path clip-path="url(#SVGID_4_)" fill="#FFF6EF" d="M338.976,304.254c-0.072,0-0.138-0.045-0.162-0.117
			c-0.628-1.931-1.215-14.044-1.24-14.559c-0.004-0.093,0.069-0.172,0.162-0.178c0.102,0,0.174,0.067,0.179,0.163
			c0.006,0.125,0.609,12.58,1.223,14.468c0.029,0.09-0.02,0.186-0.109,0.215C339.011,304.251,338.993,304.254,338.976,304.254"/>
		<path clip-path="url(#SVGID_4_)" fill="#FFF6EF" d="M338.27,302.1c-0.065,0-0.127-0.037-0.155-0.101
			c-0.039-0.086-0.001-0.187,0.085-0.226c4.605-2.079,3.696-12.088,3.686-12.19c-0.008-0.093,0.06-0.176,0.153-0.184
			c0.098-0.023,0.177,0.059,0.187,0.153c0.04,0.421,0.939,10.354-3.886,12.531C338.317,302.095,338.293,302.1,338.27,302.1"/>
		<path clip-path="url(#SVGID_4_)" fill="#FFF9EF" d="M337.595,212.032c0,0-1.174-6.781-4.684-8.946
			c-3.392-2.093-6.2-0.729-6.2-0.729S330.764,211.395,337.595,212.032"/>
		<path clip-path="url(#SVGID_4_)" fill="#FFF9EF" d="M347.917,200.668c0,0-2.247-0.788-4.03,0.154
			c-1.783,0.943-5.126,11.001-5.126,11.001S347.397,209.824,347.917,200.668"/>
		<path clip-path="url(#SVGID_4_)" fill="#52507A" d="M321.837,173.651c-0.08,0-0.152-0.057-0.167-0.138
			c-0.078-0.403-1.851-9.921,2.924-13.072c5.011-3.306,8.306-3.754,11.017-1.495c0.072,0.06,0.082,0.167,0.022,0.24
			c-0.061,0.073-0.167,0.082-0.24,0.022c-2.574-2.145-5.748-1.692-10.612,1.517c-4.585,3.026-2.796,12.627-2.777,12.724
			c0.018,0.092-0.043,0.181-0.135,0.199C321.858,173.65,321.848,173.651,321.837,173.651"/>
		<path clip-path="url(#SVGID_4_)" fill="#423F63" d="M352.276,169.282c-0.085,0-0.158-0.063-0.169-0.149
			c-0.201-1.601-1.491-9.734-7.207-12.67c-5.324-2.735-7.914,1.405-7.939,1.447c-0.048,0.081-0.153,0.107-0.234,0.057
			c-0.08-0.048-0.105-0.153-0.057-0.234c0.027-0.044,2.786-4.449,8.386-1.573c5.868,3.014,7.185,11.3,7.389,12.93
			c0.012,0.094-0.055,0.179-0.148,0.191C352.291,169.281,352.284,169.282,352.276,169.282"/>
	</g>
	<g clip-path="url(#SVGID_2_)">
		<defs>
			<rect id="SVGID_13_" width="750" height="500"/>
		</defs>
		<clipPath id="SVGID_14_">
			<use xlink:href="#SVGID_13_"  overflow="visible"/>
		</clipPath>
	</g>
</g>
</svg>
