<?xml version="1.0" encoding="utf-8"?>
<!-- Generator: Adobe Illustrator 16.0.0, SVG Export Plug-In . SVG Version: 6.00 Build 0)  -->
<!DOCTYPE svg PUBLIC "-//W3C//DTD SVG 1.1//EN" "http://www.w3.org/Graphics/SVG/1.1/DTD/svg11.dtd">
<svg version="1.1" xmlns="http://www.w3.org/2000/svg" xmlns:xlink="http://www.w3.org/1999/xlink" x="0px" y="0px" width="500px"
	 height="500px" viewBox="0 0 500 500" enable-background="new 0 0 500 500" xml:space="preserve">
<g id="BACKGROUND">
</g>
<g id="OBJECTS">
	<g>
		<path id="XMLID_3367_" fill="#366ED8" d="M111.11,365.504l328.815,41.787v-16.447C435.392,386.276,111.11,365.504,111.11,365.504z
			"/>
		<path id="XMLID_3423_" fill="#F2F3F3" d="M125.242,368.687H423.94v-97.26c0,0-12.563-145.949-153.941-145.949
			c-138.187,0-145.472,136.913-145.472,136.913L125.242,368.687z"/>
		<path id="XMLID_3436_" fill="#366ED8" d="M439.925,390.844v-23.025c-0.393,0-0.873,0.002-1.726,0.002l-328.326-8.041
			c-1.929,0-2.114,4.659-0.201,4.911L439.925,390.844z"/>
		<g id="XMLID_3375_">
			<polygon id="XMLID_3401_" fill="#545152" points="230.463,207.837 227.343,207.837 225.807,201.261 228.927,201.261 			"/>
			<path id="XMLID_2483_" fill="#272525" d="M215.63,265.09l-6.528-45.572c0,0-0.68-6.981,6.528-9.985
				c6.145-2.56,35.811-6.016,43.524-4.864c7.36,1.1,11.265,3.072,11.137,7.553c-0.117,4.126,3.2,46.98,3.2,46.98L215.63,265.09z"/>
			<path id="XMLID_3358_" fill="#272525" d="M217.07,189.404l2.304,11.809c0,0,0.288,2.112,3.648,1.824
				c3.36-0.288,23.714-1.344,24.002-1.824c0.288-0.48-0.576-15.649-0.576-15.649l-26.69,0.768
				C219.758,186.332,216.782,186.715,217.07,189.404z"/>
			<path id="XMLID_3372_" fill="#F3A953" d="M256.113,206.925c0,0-0.158-0.21-0.579-0.973c-0.366-0.664-1.269-0.764-2.156-0.868
				c-3.312-0.388-7.766-0.142-8.04-0.096c-0.144,0.024-3.681,0.953-7.453,0.912c-2.42-0.026-2.812,2.059-2.867,2.078
				c-6.155,2.157-13.318,5.076-13.318,5.076s-3.016,0-3.717,2.525c-0.363,1.305-0.982,3.086-0.982,3.086l-5.962,26.794
				c0,0,10.249,2.38,18.361,0.812c0.702,0.491-0.195,15.812-0.195,15.812l44.526-3.521l-0.688-19.714c0,0,11.643-4.682,11.713-5.664
				s-9.329-20.06-9.399-20.341c-0.069-0.28-1.402-2.034-2.524-2.385C271.709,210.108,256.113,206.925,256.113,206.925z"/>
			<path id="XMLID_3477_" fill="#B67F3E" d="M284.269,233.184c0.07-0.982-9.329-20.06-9.399-20.341
				c-0.069-0.28-1.402-2.034-2.524-2.385c-0.694-0.217-6.932-1.518-11.586-2.479c-0.528,0.144-1.033,0.345-1.485,0.658
				c-3.155,2.186-3.355,6.875-3.376,10.312c-0.034,6.047,0.432,12.163-0.839,18.129c-1.256,5.898-4.617,10.661-9.438,14.221
				c-3.97,2.932-7.412,6.206-9.991,10.236l37.614-2.974l-0.688-19.714C272.556,238.848,284.199,234.166,284.269,233.184z"/>
			<path id="XMLID_3363_" fill="#3A3326" d="M257.423,173.671c0,0,2.598,2.176,2.667,2.708c0.07,0.532-2.62,2.146-2.72,6.788
				c-0.018,0.839-2.463,3.782-3.405-0.288c-0.942-4.069-2.248-5.052-1.94-7.298c0.307-2.247,0.548-3.496,1.454-3.647
				S257.423,173.671,257.423,173.671z"/>
			<path id="XMLID_2482_" fill="#BB8574" d="M256.446,177.351l0.925,5.815l-0.712,3.045l0.769,2.818
				c0.089,0.333,0.009,1.159-0.037,1.431l-1.987,11.282c0,0-0.81,3.057-5.038,2.829c-3.265-0.176-7.925-2.69-9.464-4.734
				s-3.855-7.736-3.855-7.736l1.513-16.226c0,0,6.932-2.417,12.804-2.027C257.235,174.238,256.446,177.351,256.446,177.351z"/>
			<path id="XMLID_2512_" fill="#BB8574" d="M237.622,192.643c1.263,5.734,0.912,12.625-0.28,14.94c0,0,4.378,6.997,12.485,4.98
				c3.525-0.877,4.629-4.068,4.138-5.751c-0.491-1.684-2.735-6.313-2.735-6.313L237.622,192.643z"/>
			<path id="XMLID_2521_" fill="#BB8574" d="M237.573,186.799c0,0-1.103-2.445-2.748-2.291c-1.645,0.155-2.526,2.311-2.361,3.797
				c0.165,1.487,1.817,3.6,2.402,4.325c0.584,0.724,1.169,1.448,2.579,0.856C238.855,192.895,237.573,186.799,237.573,186.799z"/>
			<path id="XMLID_3360_" fill="#3A3326" d="M236.774,185.587c0.058,0.055,0.104,0.117,0.147,0.184
				c0.261,0.405,1.238,1.926,1.458,2.374c0.255,0.518,0.587,0.118,0.6-0.303c0.039-1.322-0.238-4.764,1.583-5.75
				c0.281-0.152,0.502-0.393,0.583-0.702c0.311-1.192,0.354-3.84,0.279-3.97c-0.079-0.138-1.841-1.897-2.646-2.415
				c-0.157-0.101-0.287-2.448-0.373-2.614c-0.35-0.674-1.505-0.291-3.535,0.31c-1.28,0.379-1.964,1.196-2.387,1.858
				c-0.122,0.19-0.057,0.503,0.3,0.991c0.562,0.769,1.203,1.732,1.389,2.904c0.155,0.975,0.41,4.087,0.575,5.427
				c0.046,0.374,0.282,0.697,0.626,0.851C235.81,184.929,236.408,185.235,236.774,185.587z"/>
			<path id="XMLID_2505_" fill="#3A3326" d="M236.264,172.355c0,0,2.079-5.907,9.83-6.711c7.75-0.804,11.181,1.532,13.421,5.108
				s-1.592,2.531-4.996,3.781c-1.686,0.619-0.485,0.97-5.234,1.814c-4.793,0.853-7.86,1.13-7.86,1.13
				S236.167,174.616,236.264,172.355z"/>
			<circle id="XMLID_3412_" fill="#3A3326" cx="245.207" cy="185.785" r="1.147"/>
			<path id="XMLID_3432_" fill="#3A3326" d="M252.958,196.802c-1.039,0.173-2.041,0.315-3.099,0.259
				c-0.925-0.049-1.618-0.347-2.458-0.672c-0.164-0.063-0.358,0.132-0.295,0.295c0.785,2.046,4.636,1.507,6.023,0.525
				C253.34,197.061,253.209,196.76,252.958,196.802L252.958,196.802z"/>
			<path id="XMLID_3433_" fill="#3A3326" d="M234.655,187.481c0.193-1.047,1.307-1.63,2.26-1.147c0.45,0.228,0.76,0.606,0.881,1.092
				c0.176,0.704-0.149,1.012-0.55,1.533c-0.446,0.58-0.73,1.452,0.084,1.872c0.433,0.223,0.807-0.405,0.383-0.656
				c-0.494-0.292,0.546-1.252,0.698-1.524c0.212-0.38,0.302-0.782,0.228-1.214c-0.13-0.748-0.673-1.415-1.337-1.766
				c-1.359-0.718-3.041,0.181-2.979,1.767C234.332,187.617,234.619,187.677,234.655,187.481L234.655,187.481z"/>
			<path id="XMLID_3405_" fill="#996559" d="M242.299,201.875c-0.077-0.217,0.209-0.376,0.353-0.197
				c0.658,0.819,1.653,1.896,2.581,2.255c1.568,0.608,5.184,0.864,6.721,0.512c0,0-0.416,1.472-2.369,1.984
				c-1.895,0.497-4.288,0.608-5.729-1.248C243.253,204.403,242.668,202.927,242.299,201.875z"/>
			<path id="XMLID_3455_" fill="#B67F3E" d="M228.654,262.214l33.047-2.663c-0.576-0.15-0.944-0.23-0.944-0.23
				s-12.549,0.122-13.889-6.944c-1.34-7.066-10.234-6.822-11.817-9.015c-1.584-2.193-2.193-7.066-2.071-8.163
				c0.122-1.096-1.462-2.68-1.584-0.365c-0.122,2.314-1.667,11.452-1.667,11.452C230.429,246.776,228.654,262.214,228.654,262.214z"
				/>
			<path id="XMLID_2481_" fill="#996559" d="M241.918,182.645c0,0,3.488,0.959,4.751,1.797c1.264,0.838,2.62-0.624,2.62-0.624
				s-2.067-1.424-2.147-1.462C246.061,181.838,241.918,182.645,241.918,182.645z"/>
			<path id="XMLID_3382_" fill="#3A3326" d="M241.666,182.681c2.753-0.278,4.933-0.463,6.821,1.15
				c0.749,0.64,1.598-0.841,1.356-1.068c-1.009-0.945-2.92-1.419-4.153-1.505c-1.208-0.085-2.882,0.266-4.104,1.016
				C241.452,182.357,241.47,182.636,241.666,182.681L241.666,182.681z"/>
			<path id="XMLID_3350_" fill="#996559" d="M253.172,184.534c0,0,0.548-0.412,0.578-0.609c0.031-0.198,2.406-0.944,2.803-0.731
				c0.396,0.213,0.259,0.822,0.061,1.005c-0.198,0.183-1.203,0.898-1.264,1.584c-0.062,0.685-2.574,0.67-2.498,0.32
				C252.928,185.751,253.172,184.534,253.172,184.534z"/>
			<path id="XMLID_3378_" fill="#3A3326" d="M257.385,183.176c-0.097-0.621-0.879-0.885-1.439-0.965
				c-1.022-0.146-1.992,0.213-2.813,0.771c-0.116,0.08,0.259,1.422,0.996,1.076c0.574-0.27,1.725-1.23,2.981-0.602
				C257.341,183.571,257.421,183.407,257.385,183.176L257.385,183.176z"/>
			<path id="XMLID_3434_" fill="#3A3326" d="M252.865,184.51c-0.689,1.124-0.58,2.363-0.06,3.544
				c0.282,0.638,0.686,1.208,0.979,1.838c0.362,0.783,0.688,1.703-0.188,2.264c-0.579,0.372-1.302,0.371-1.963,0.407
				c-0.317,0.018-0.424,0.512-0.079,0.583c1.331,0.274,3.334-0.329,3.383-1.966c0.026-0.855-0.475-1.769-0.861-2.511
				c-0.739-1.417-1.014-2.465-0.864-4.066C253.229,184.411,252.955,184.363,252.865,184.51L252.865,184.51z"/>
			<circle id="XMLID_3413_" fill="#3A3326" cx="254.264" cy="186.105" r="1.147"/>
		</g>
		<g id="XMLID_2475_">
			<path id="XMLID_2461_" fill="#4E352D" d="M383.072,175.412c0.64-3.335-1.606-6.918-2.483-9.872
				c-0.813-2.74-0.166-5.815-1.515-8.363c-0.307-0.58-1.303-0.614-1.388,0.161c-0.169,1.548-0.318,3.104-0.495,4.655
				c-0.035-0.312-0.082-0.622-0.159-0.932c-0.104-0.422-0.763-0.375-0.693,0.081c0.454,2.966-1.29,6.046-1.733,8.973
				c-0.059,0.392-0.103,0.789-0.14,1.188c-0.547,1.218-0.979,2.474-1.036,3.834c-0.127,3.04,1.096,7.285,4.345,8.277
				c0.08,0.024,0.106-0.091,0.034-0.122c-3.506-1.471-4.552-6.78-3.566-10.069c0.044-0.146,0.095-0.291,0.146-0.436
				c-0.01,1.458,0.176,2.918,0.65,4.293c0.757,2.194,2.495,4.778,4.23,6.304c1.006,0.885,2.232,0.933,3.415,0.334
				C386.379,181.848,382.43,178.757,383.072,175.412z"/>
			<path id="XMLID_2519_" fill="#4E352D" d="M392.908,173.218c0.196-2.027,0.467-4.059,1.056-6.008
				c0.627-2.071,1.606-4.025,2.18-6.111c0.785-2.855,0.808-5.941,2.096-8.609c0.267-0.552,0.646-1.127,1.242-1.271
				c0.375-0.09,0.768,0.01,1.134,0.13c0.96,0.315,0.854,0.266,1.679,0.849c0,0,3.679,7.928,3.434,14.922
				c-0.072,2.064-0.34,4.004-0.258,6.067c0.381,9.663,10.306,11.761,11.998,14.727c1.641,2.876,1.113,5.137-1.456,6.819
				c-0.733,0.48-1.776-0.427-1.129-1.158c1.469-1.654,0.691-3.857-0.965-5.046c-0.047-0.034-0.097-0.054-0.146-0.084
				c-2.687,0.986-6.406,1.441-9.033,1.083c-4.278-0.585-8.658-2.625-10.675-6.443C392.495,180.112,392.584,176.563,392.908,173.218z
				"/>
			<g id="XMLID_2514_">
				<path fill="#DC8A7A" d="M390.068,167.395c1.286,0.299,2.572,0.599,3.857,0.898c0.319,0.074,0.67,0.169,0.852,0.442
					c0.107,0.162,0.137,0.363,0.157,0.557c0.243,2.299-0.397,4.589-0.609,6.891c-0.211,2.302,0.127,4.885,1.862,6.411
					c1.856,1.632,4.725,1.558,6.719,3.02c2.103,1.542,2.727,4.383,2.956,6.981c0.136,1.541,0.187,3.105-0.113,4.623
					c-0.761,3.844-1.83,13.481-5.332,15.239s-9.399-4.193-13.313-3.979c-5.245,0.288-10.541,0.007-15.667-1.142
					c-1.048-0.235-2.162-0.552-2.838-1.387c-0.886-1.096-0.714-2.672-0.54-4.07c0.626-5.046,0.67-10.165,0.131-15.221
					c-0.106-0.998-0.165-2.18,0.614-2.812c0.361-0.292,0.835-0.398,1.29-0.495c2.224-0.472,4.447-0.943,6.67-1.416
					c1.898-0.403,2.578-0.664,4.065-1.91c1.493-1.25,1.984-2.495,2.193-4.432c0.208-1.937,0.084-5.506-0.365-7.401L390.068,167.395z
					"/>
			</g>
			<path id="XMLID_2474_" fill="#BA6355" d="M384.259,173.813c0.229,0.183,9.503,0,9.503,0s-1.188,4.888-4.843,4.888
				C384.214,178.701,384.259,173.813,384.259,173.813z"/>
			<g id="XMLID_2515_">
				<path fill="#DC8A7A" d="M379.86,161.734c0.258-1.906-0.254-4.884-0.01-6.792c1.004-7.861,8.804-7.571,12.267-7.294
					c0.815,0.065,1.81,0.271,2.073,1.103l0.115-0.252c2.943,4.822,5.09,10.521,4.305,16.187c-0.874,6.306-3.091,9.294-6.556,11.738
					c-1.055,0.743-1.955,0.656-3.594,0.515c-1.446-0.124-3.505-0.24-6.774-6.509C380.253,167.681,379.694,162.968,379.86,161.734z"
					/>
			</g>
			<path id="XMLID_2509_" fill="#4E352D" d="M375.183,166.288c1.139-2.568-0.553-5.996-0.51-7.724
				c0.047-1.891,0.363-3.808,1.175-5.53c1.297-2.75,1.779-5.582,6.988-5.131c0.919,0.08,0.195,0.027,0.271,0.078
				c0.096-0.172,0.182-0.353,0.248-0.554c0.095-0.286,0.603-0.219,0.6,0.09c-0.014,1.622,2.853,1.855,1.477,2.495
				c-3.621,1.686-3.205,5.6-4.828,9.881c-1.274,3.364-1.912,6.317-5.522,7.677C374.127,167.929,374.757,167.246,375.183,166.288z"/>
			<path id="XMLID_2492_" fill="#4E352D" d="M411.279,190.172c-1.817-2.061-3.128-4.507-3.637-7.221
				c-0.549-2.924,0.032-5.923,0.104-8.866c0.06-2.463-0.156-4.89-0.742-7.285c-0.332-1.363-0.748-2.78-1.376-4.073
				c-0.09-0.858-0.22-1.707-0.382-2.533c-0.003-0.019,0.003-0.034-0.002-0.053c-0.015-0.066-0.034-0.13-0.05-0.195v0v0
				c-0.003-0.013-0.007-0.026-0.01-0.039c-0.066-0.318-0.129-0.637-0.203-0.947c-1.211-5.063-3.959-10.42-8.392-13.259
				c-3.243-2.973-8.069-3.911-12.27-0.813c-2.215,1.634-3.362,3.984-1.407,5.496c0.041,0.089,0.102,0.177,0.204,0.254
				c1.454,1.098,3.065,0.986,4.73,1.567c1.399,0.488,2.59,1.517,3.753,2.398c1.738,1.317,3.524,2.714,5.737,2.641
				c1.081,2.126,1.029,4.783,1.522,7.067c0.568,2.634,1.846,4.869,1.358,7.524c-0.449,2.442-1.615,4.627-2.039,7.079
				c-0.065,0.378,0.454,0.608,0.687,0.3c2.166-2.881,5.063-5.029,6.166-8.597c0.603-1.948,0.796-4.064,0.717-6.171
				c0.394,1.076,0.684,2.193,0.924,3.289c0.601,2.745,0.641,5.513,0.484,8.309c-0.152,2.723-0.432,5.379,0.335,8.041
				c0.676,2.347,1.919,4.5,3.682,6.195C411.243,190.344,411.342,190.243,411.279,190.172z M391.112,152.71
				c-0.135-0.105-0.272-0.21-0.409-0.315c0.081,0.014,0.16,0.024,0.241,0.039c2.428,0.446,4.281,1.851,5.81,3.641
				c0.126,0.257,0.254,0.514,0.383,0.77C394.833,156.212,392.922,154.124,391.112,152.71z"/>
			<g id="XMLID_2439_">
				<path id="XMLID_2499_" fill="#4E352D" d="M385.748,161.217c0.006-0.019-0.354-0.177-1.044-0.265
					c-0.062-0.048-0.562-0.397-0.62-0.518c-0.083-0.167-0.175-0.132-0.166,0.051c0.008,0.156,0.06,0.304,0.144,0.434
					c-0.03,0.002-0.061,0.003-0.09,0.005c-0.08-0.018-0.676-0.064-0.939-0.465c-0.1-0.151-0.174-0.039-0.13,0.108
					c0.039,0.131,0.227,0.336,0.31,0.44c-0.191-0.019-0.553-0.073-0.754-0.128c-0.139-0.039-0.207,0.056-0.084,0.16
					c0.42,0.357,0.83,0.559,1.394,0.567c0.157,0.002,0.329-0.025,0.507-0.064c-0.075,0.12-0.129,0.256-0.149,0.406
					c-0.074,0.558,0.44,0.837,1.003,0.815c0.546-0.021,0.763-0.333,1.018-0.545C386.664,161.788,386.294,161.478,385.748,161.217z"
					/>
				<path id="XMLID_2464_" fill="#4E352D" d="M392.102,161.326c-0.005-0.019,0.354-0.177,1.045-0.265
					c0.062-0.048,0.561-0.397,0.62-0.518c0.082-0.167,0.174-0.132,0.165,0.051c-0.008,0.156-0.059,0.304-0.143,0.434
					c0.03,0.002,0.06,0.003,0.09,0.005c0.08-0.018,0.676-0.064,0.939-0.465c0.099-0.151,0.174-0.039,0.129,0.108
					c-0.039,0.131-0.226,0.335-0.31,0.44c0.191-0.019,0.554-0.073,0.754-0.128c0.139-0.039,0.207,0.056,0.085,0.16
					c-0.421,0.356-0.831,0.559-1.395,0.567c-0.156,0.002-0.328-0.025-0.507-0.065c0.076,0.12,0.13,0.257,0.149,0.407
					c0.075,0.558-0.439,0.837-1.002,0.815c-0.547-0.021-0.763-0.333-1.019-0.545C391.187,161.897,391.556,161.587,392.102,161.326z"
					/>
				<path id="XMLID_2497_" fill="#4E352D" d="M396.933,159.342c-1.636-0.428-3.359-0.111-4.909,0.593
					c-0.291,0.132-1.059-0.812-0.857-0.921c1.859-1.01,4.13-1.053,5.893,0.055C397.278,159.207,396.933,159.342,396.933,159.342z"/>
				<path id="XMLID_2495_" fill="#4E352D" d="M389.828,164.955c0.058,0.508,0.423,1.36,0.287,1.853
					c-0.234,0.852-1.423,0.605-2.113,0.533c-0.191-0.021-0.296,0.251-0.105,0.334c0.735,0.322,2.259,0.359,2.623-0.489
					C390.679,166.813,390.306,165.213,389.828,164.955z"/>
				<path id="XMLID_2484_" fill="#4E352D" d="M386.61,170.913c1.314,1.296,4.092,1.402,5.146-0.441
					c0.069-0.122-0.052-0.286-0.132-0.171c-0.571,0.823-1.797,0.993-2.556,1.011c-0.862,0.021-1.592-0.325-2.424-0.528
					C386.586,170.769,386.563,170.866,386.61,170.913L386.61,170.913z"/>
				<path id="XMLID_2466_" fill="#4E352D" d="M380.963,159.054c1.775-0.428,3.647-0.111,5.331,0.593
					c0.315,0.132,1.149-0.812,0.931-0.921c-2.02-1.01-4.484-1.053-6.398,0.055C380.588,158.918,380.963,159.054,380.963,159.054z"/>
			</g>
			<path id="XMLID_2494_" fill="#BA6355" d="M377.467,182.264c0.184,0.366,6.64,14.924,7.371,14.985
				c0.731,0.061,5.543-4.143,5.543-3.899s-2.254,9.807-3.533,9.868c-1.278,0.061,0.122,7.249-4.264-0.487
				c-4.386-7.736-5.117-11.33-5.117-11.574S377.467,182.264,377.467,182.264z"/>
			<path id="XMLID_3376_" fill="#366ED8" d="M366.919,245.143l-0.159,3.944c0,0-0.621,0.853-0.621,1.34s-2.486,20.102-2.486,20.102
				s13.178,20.833,30.21,16.325c17.031-4.508,14.918-4.66,14.918-4.66s-0.379-5.957,0.839-12.152
				c1.958-9.959,3.544-16.264-1.212-24.579C405.091,239.664,366.919,245.143,366.919,245.143z"/>
			<g id="XMLID_2432_">
				<path fill="#F3A953" d="M406.551,227.372c0.519,9.594,3.99,15.807,2.833,18.822c-0.879,2.29-39.107,3.076-43.127-1.127
					c-0.41-0.428,2.558-7.797,1.827-17.543c-0.043-0.575,0.518-0.854,0.996-1.177c0.289-0.195,0.659-0.213,1.008-0.224
					c3.121-0.099,6.246-0.197,9.364-0.025c3.577,0.197,7.089,1.525,10.665,1.302C390.562,227.372,406.551,227.372,406.551,227.372z"
					/>
			</g>
			<path id="XMLID_2486_" fill="#B67F3E" d="M369.092,231.331c0,0-0.365,3.381,5.573,2.559c5.939-0.822,11.787-2.65,15.442-1.096
				c3.654,1.553,6.396,3.015,9.959,2.467s6.396-4.934,6.396-4.934s-7.584-2.558-11.879-2.833
				C390.291,227.219,369.092,231.331,369.092,231.331z"/>
			<g id="XMLID_2516_">
				<path fill="#DC8A7A" d="M372.082,183.179c-2.556,0.264-5.111,0.528-7.667,0.792c-1.128,0.117-2.308,0.251-3.248,0.886
					c-1.177,0.794-1.748,2.211-2.174,3.566c-0.742,2.361-1.242,4.797-1.491,7.259c-0.257,2.544-0.246,5.117-0.671,7.638
					c-0.349,2.066-0.542,5.254-0.947,7.31c-1.039,5.257-0.99,9.511-0.215,14.813c0.146,1,0.328,2.058,0.993,2.819
					c0.688,0.787,1.755,1.104,2.766,1.367c11.979,3.121,19.659,1.638,31.925-0.034c1.115-0.152,1.291-2.658-0.551-3.349
					c-8.059-3.021-13.093-3.612-20.26-8.377c-0.472-0.314-0.948-0.643-1.288-1.097c-0.394-0.525-0.572-1.177-0.721-1.816
					c-2.298-9.951,1.25-20.254,1.349-30.466"/>
			</g>
			<g id="XMLID_2513_">
				<path fill="#F3A953" d="M368.771,196.447c0.103-0.303,0.219-0.617,0.456-0.831c0.545-0.492,1.424-0.226,2.025,0.194
					c0.854,0.597,1.504,1.434,2.246,2.166c1.813,1.788,4.184,2.936,6.644,3.591s5.021,0.841,7.565,0.904
					c5.369,0.134,11.007-0.342,15.545-3.216l-0.077,0.074c0.835,0.583,1.27,1.611,1.369,2.625c0.1,1.013,0.13,2.167-0.063,3.167
					c-0.732,3.82-1.688,7.503-2.421,11.324c-0.108,0.566-0.229,1.159-0.593,1.606c-0.366,0.448-0.925,0.687-1.471,0.875
					c-2.121,0.733-4.378,0.967-6.616,1.118c-6.433,0.433-12.959,0.208-19.213-1.358c-1.999-0.501-4.108-1.239-5.293-2.926
					c-0.664-0.948-0.963-2.1-1.186-3.236C366.644,207.192,367.021,201.59,368.771,196.447z"/>
			</g>
			<path id="XMLID_2503_" fill="#353A42" d="M383.02,142.879c0.099-0.121,0.197-0.241,0.295-0.363
				c0.008-0.01-0.007-0.024-0.015-0.014c-0.096,0.124-0.191,0.248-0.287,0.372C383.01,142.877,383.017,142.883,383.02,142.879
				L383.02,142.879z"/>
			<path id="XMLID_3369_" fill="#353A42" d="M378.492,177.606c-0.024,0.03-0.048,0.06-0.071,0.09
				c-0.016,0.02,0.013,0.048,0.028,0.028c0.023-0.03,0.047-0.06,0.071-0.09C378.536,177.614,378.507,177.586,378.492,177.606
				L378.492,177.606z"/>
			<g id="XMLID_3532_">
				<path fill="#BA6355" d="M390.558,226.246c-8.059-3.021-13.093-3.612-20.261-8.377c-0.472-0.314-0.948-0.643-1.287-1.097
					c-0.394-0.525-0.573-1.177-0.721-1.816c-0.548-2.373-0.761-4.767-0.771-7.174c-0.18,0.081-0.285,0.128-0.285,0.128
					c0,0.114-0.473,1.006-1.07,2.345c0.218,1.962-0.136,4.099-0.855,5.833c-0.63,1.516-1.237,2.883-0.852,4.559
					c0.473,2.051,2.14,2.801,4.043,3.137c3.087,0.546,6.567,0.899,9.455,2.203c1.481,0.668,7.63,1.554,12.518,3.696
					c0.212-0.029,0.422-0.058,0.637-0.087C392.224,229.442,392.399,226.936,390.558,226.246z"/>
			</g>
			<g id="XMLID_2511_">
				<path fill="#DC8A7A" d="M403.208,186.536c2.223,0.514,4.444,1.027,6.666,1.541c2.23,0.515,4.604,1.112,6.146,2.805
					c2.224,2.442,1.917,6.189,1.474,9.462c-0.589,4.346-1.178,8.692-1.767,13.038c-0.262,1.938-0.528,3.892-1.192,5.731
					c-0.575,1.596-1.438,3.07-2.294,4.534c-0.997,1.703-1.994,3.405-2.991,5.108c-0.454,0.775-0.933,1.578-1.678,2.079
					c-0.658,0.442-1.432,0.91-2.216,1.029c-5.469,0.827-11.226-0.458-16.107-3.06c-1.328-0.708-2.593-1.53-3.907-2.264
					c-1.552-0.866-3.17-1.606-4.785-2.346c-3.333-1.524-5.665-3.733-8.997-5.258c-0.846-0.387-1.827-1.077-2.376-1.827
					c-0.548-0.751-1.703-2.346-0.975-2.924c2.803-0.975,8.163-0.061,9.625,1.583c0.089,0.101,5.271,0.616,7.583,0.748
					c4.888,0.279,9.792,0.558,14.676,0.21c0.37-0.026,0.765-0.065,1.057-0.294c0.283-0.222,0.416-0.58,0.534-0.92
					c2.723-7.891,3.923-16.305,3.513-24.643"/>
			</g>
			<path id="XMLID_2449_" fill="#F3A953" d="M377.234,181.686c0,0,6.396,18.457,7.31,18.274s13.432-16.264,13.432-16.264
				l11.97,3.655c0,0,6.487,0.914,7.584,5.574c0.609,2.59,1.266,12.152,1.905,14.619c0.64,2.467-16.799,5.666-16.799,5.666
				l-28.051-2.193l-7.401-1.096c0,0-12.609-3.837-12.244-4.934s3.29-18.548,5.3-20.01s12.518-2.284,12.518-2.284l4.295-2.285
				L377.234,181.686z"/>
			<path id="XMLID_2469_" fill="#4E352D" d="M401.345,188.159c0.759,1.499,1.256,4.249,0.457,5.81
				c-0.146,0.284,0.281,0.526,0.469,0.283c1.417-1.845,1.118-5.272-0.016-7.223c-0.305-0.525-0.697-0.932-1.126-1.299
				c0.815,0.64,1.567,1.354,2.106,2.301c0.632,1.107,0.981,2.376,1.09,3.691c-0.01,0.538-0.001,1.073,0.013,1.605
				c-0.21,3.28-1.828,6.576-4.43,8.234c-0.396,0.252,0.054,0.865,0.44,0.587c1.288-0.924,2.366-2.02,3.221-3.244
				c-0.395,1.146-0.902,2.253-1.532,3.293c-0.066,0.111-0.055,0.228-0.001,0.314c0.012,0.149,0.104,0.289,0.271,0.295
				c5.154,0.199,7.351-5.249,7.541-9.74c0.243-5.722-2.416-10.448-7.041-13.823c-0.551-0.402-1.333,0.295-0.876,0.854
				c1.082,1.324,2.205,2.457,3.216,3.602c-0.359,0.086-0.668,0.407-0.619,0.78c-0.019-0.018-0.041-0.032-0.06-0.05
				c-0.12-0.191-0.238-0.383-0.358-0.572c-0.186-0.293-0.456-0.356-0.7-0.282c-1.046-0.74-2.218-1.284-3.5-1.546
				c-0.405-0.083-0.752,0.243-0.826,0.612c-0.292-0.225-0.567-0.469-0.827-0.73c-0.031-0.123-0.064-0.245-0.084-0.374
				c-0.083-0.388-0.389-0.575-0.703-0.606c-0.105-0.162-0.223-0.312-0.313-0.491c-0.246-0.48-0.946-0.203-0.779,0.315
				c0.029,0.092,0.068,0.173,0.102,0.261c-0.335-0.719-0.583-1.5-0.736-2.358c-0.164-0.918-1.574-0.77-1.45,0.168
				c0.318,2.406,1.438,4.572,3.34,6.105C398.933,185.981,400.542,186.572,401.345,188.159z"/>
			<path id="XMLID_2488_" fill="#BA6355" d="M402.635,213.209c0,0,8.396,0.061,10.224,1.218c0,0,0.914,0.609,1.584-1.218
				c0.67-1.828,0.913-2.985,0.913-2.985L402.635,213.209z"/>
			<path id="XMLID_2490_" fill="#BA6355" d="M366.077,212.965c0,0,0.061-2.437-2.924-2.924s-4.873-1.097-4.873-1.097l0.243-1.949
				l8.468,2.985C366.991,209.98,367.478,213.635,366.077,212.965z"/>
		</g>
		<rect id="XMLID_3416_" x="414.708" y="298.214" fill="#B7B7B7" width="9.868" height="70.953"/>
		<rect id="XMLID_3424_" x="414.708" y="298.214" fill="#F2F3F3" width="9.868" height="24.797"/>
		<rect id="XMLID_3431_" x="194.138" y="298.214" fill="#B7B7B7" width="9.868" height="70.953"/>
		<rect id="XMLID_3430_" x="193.955" y="298.214" fill="#F2F3F3" width="9.868" height="24.797"/>
		<rect id="XMLID_3414_" x="203.787" y="301.832" fill="#999999" width="211.214" height="67.377"/>
		<g id="XMLID_2457_">
			<path id="XMLID_3400_" fill="#D8D8D8" d="M439.317,280.692c-0.435-12.809-57.682-23.168-128.247-23.168
				s-127.813,10.359-128.248,23.168l-0.002,3.694c0.337,12.823,57.624,23.201,128.25,23.201s127.912-10.378,128.25-23.201h0.006
				L439.317,280.692z"/>
			<path id="XMLID_3377_" fill="#B7B7B7" d="M311.071,303.461c-69.958,0-126.821-10.179-128.242-22.831
				c-0.012,0.106-0.036,11.324-0.036,11.324c0,12.671,57.637,24.298,128.277,24.298c70.642,0,128.284-12.51,128.284-23.202
				c0-0.005-0.03-12.313-0.042-12.42C437.893,293.283,381.03,303.461,311.071,303.461z"/>
			<path id="XMLID_3388_" fill="#F2F3F3" d="M430.043,280.186c0,9.957-51.954,18.185-118.982,18.185s-119.335-7.861-119.335-18.185
				c0-10.875,52.307-18.185,119.335-18.185S430.043,269.128,430.043,280.186z"/>
		</g>
		<polygon id="XMLID_2446_" fill="#BB8574" points="270.547,237.568 280.532,234.496 282.452,258.049 272.611,258.642 		"/>
		<g id="XMLID_2450_">
			<g>
				<path fill="#DEAC91" d="M299.375,267.352c0.458,0,0.458-0.711,0-0.711C298.918,266.641,298.917,267.352,299.375,267.352
					L299.375,267.352z"/>
			</g>
		</g>
		<path id="XMLID_3380_" fill="#B89787" d="M328.746,182.654"/>
		<path id="XMLID_3328_" fill="#DEAC91" d="M311.589,247.778c0,0,1.522-0.731,2.314,1.096c0.792,1.828-0.062,6.426-2.833,7.858
			S311.589,247.778,311.589,247.778z"/>
		<g id="XMLID_3399_">
			<path id="XMLID_3408_" fill="#BD8C98" d="M225,268.519l30.152,3.351c0,0,2.559,0.608,4.995,0.487
				c2.437-0.122,7.568-1.082,7.568-1.082s6.563-2.086,2.178-3.304c-4.386-1.219-22.051-4.873-22.051-4.873L225,268.519z"/>
			<g id="XMLID_3362_">
				<path id="XMLID_2424_" fill="#BB8574" d="M216.526,246.336c0,0,5.123,0.367,6.833,0.336c1.545-0.028,6.384-0.432,6.384-0.432
					s0.672,5.28-0.25,8.673c-0.154,0.563,4.848,1.296,10.801,3.264c4.994,1.651,18.914,5.665,18.914,5.665s0.575,5.376-2.497,5.952
					s-23.618-0.96-28.706-0.96s-9.025-2.64-9.985-4.176s0.033-1.924-0.096-3.409C217.731,259.042,216.526,246.336,216.526,246.336z"
					/>
				<path id="XMLID_2520_" fill="#BB8574" d="M250.877,269.871c0,0,2.415,0.167,2.737,0.492c0.321,0.325,2.943,1.777,5.7,1.128
					s3.514-1.658,5.168-1.333c1.653,0.324,3.524,1.569,3.524,1.569s1.021,0.229,1.77-0.559c0.563-0.593,2.109-1.829,2.97-2.743
					c1.323-1.407,0.129-2.237,0.129-2.237s-2.938-3.501-3.307-3.988c-0.367-0.487-1.378-1.407-2.067-1.354
					c-0.688,0.054-2.526,0.975-3.078,0.975c-0.551,0-5.704,1.413-7.289,0.47c-1.045-0.624-1.935,0.229-2.624,0.176
					C253.821,262.412,250.877,269.871,250.877,269.871z"/>
				<path id="XMLID_3462_" fill="#996559" d="M270.55,268.364c-0.502-0.07-1.084,0.089-1.599,0.058
					c-1.057-0.065-2.068-0.371-3.055-0.735c-1.046-0.387-2.112-0.929-3.236-1.034c-1.421-0.133-2.671,0.532-3.981,0.953
					c-2.291,0.736-4.974,0.572-7.276-0.063c-2.724-0.751-5.173-1.39-8.038-1.424c-2.672-0.031-5.341,0.175-8.01,0.275
					c-2.518,0.095-5.328,0.437-7.779-0.315c-2.052-0.63-3.47-2.185-5.252-3.28c-1.078-0.662-2.3-1.148-3.584-1.112
					c-0.292,0.008-0.561,0.052-0.818,0.111c-0.103,1.063-0.732,1.533,0.099,2.862c0.96,1.536,4.896,4.176,9.985,4.176
					c3.686,0,15.484,0.807,22.875,1.031c0,0.001-0.002,0.005-0.002,0.005s2.415,0.167,2.737,0.492
					c0.321,0.325,2.943,1.777,5.7,1.128s3.514-1.658,5.168-1.333c1.653,0.324,3.524,1.569,3.524,1.569s1.021,0.229,1.77-0.559
					c0.406-0.428,1.324-1.19,2.128-1.926C271.73,268.791,271.299,268.469,270.55,268.364z"/>
				<path id="XMLID_3407_" fill="#996559" d="M229.743,246.241c-0.032,0.256-0.18,4.236-5.249,4.224
					c-5.768-0.014-6.645-4.044-6.645-4.044s2.883,0.231,6.577,0.156C226.081,246.543,228.099,246.385,229.743,246.241z"/>
			</g>
		</g>
		<path id="XMLID_3404_" fill="#3A3326" d="M280.621,221.475c0.147-0.369,0.183-0.772,0.379-1.125
			c0.215-0.388,0.537-0.751,0.822-1.087c0.438-0.515,0.938-0.98,1.338-1.524c0.205-0.279-0.184-0.598-0.449-0.449
			c-1.327,0.742-2.844,2.575-2.508,4.186C280.25,221.706,280.549,221.654,280.621,221.475L280.621,221.475z"/>
		<g id="XMLID_2502_">
			<g id="XMLID_2473_">
				<path id="XMLID_3406_" fill="#BD8C98" d="M364.34,263.189c-1.735,0.183-19.919,1.827-22.021,2.01
					c-2.102,0.184-10.416,1.279-12.7,1.462c-2.284,0.184-5.848,0.092-7.31-0.73s-4.935,0.457-6.305,0.183
					c-1.371-0.274-5.208-2.649-4.66-4.294c0.548-1.646,4.203-4.021,4.935-4.021c0.73,0,14.07,1.279,14.07,1.279L364.34,263.189z"/>
				<path id="XMLID_3409_" fill="#545152" d="M321.19,201.676h-0.131c-0.62,0-1.127-0.507-1.127-1.127v-5.717
					c0-0.62,0.507-1.127,1.127-1.127h0.131c0.62,0,1.127,0.507,1.127,1.127v5.717C322.317,201.169,321.81,201.676,321.19,201.676z"
					/>
				<path id="XMLID_3411_" fill="#545152" d="M343.534,201.676h-0.131c-0.62,0-1.127-0.507-1.127-1.127v-5.717
					c0-0.62,0.507-1.127,1.127-1.127h0.131c0.62,0,1.127,0.507,1.127,1.127v5.717C344.661,201.169,344.154,201.676,343.534,201.676z
					"/>
				<path id="XMLID_3402_" fill="#272525" d="M346.385,195.463c0,0-8.628,1.004-14.842,1.004c-6.778,0-14.309-1.004-14.309-1.004
					c-1.9-0.33-2.089-1.813-2.324-3.013c0,0-0.518-2.401-0.518-4.095c0-1.342,0.252-3.104,0.518-4.048
					c0.424-1.506,0.659-2.918,2.324-3.332c0,0,6.902-1.266,14.56-1.329c5.899-0.049,14.591,1.329,14.591,1.329
					c1.461,0.288,1.782,1.284,2.324,3.237c0,0,0.635,2.189,0.635,4.284c0,2.565-0.635,4.189-0.635,4.189
					C348.239,194.098,347.862,195.133,346.385,195.463z"/>
				<path id="XMLID_3403_" fill="#272525" d="M305.402,230.391c0.191-1.694-0.939-22.03-0.939-22.03s0.191-3.672,5.522-6.057
					c6.056-2.709,36.394-3.609,46.099,1.161c0,0,3.543,2.072,3.734,4.613c0.095,1.252-1.053,22.344-1.053,22.344L305.402,230.391z"
					/>
				<path id="XMLID_2507_" fill="#DCBFB0" d="M312.839,257.913c0,0,1.946-18.704,1.444-18.515
					c-0.503,0.188-10.733-0.125-10.733-0.125l-2.385,17.637L312.839,257.913z"/>
				<path id="XMLID_3395_" fill="#DCBFB0" d="M325.061,197.628c0,0,0.914,6.529-1.171,9.146c0,0,2.264,6.626,8.579,6.626
					c6.732,0,8.698-6.793,8.698-6.793s-1.198-5.265-1.198-8.885C339.969,197.722,324.971,197.711,325.061,197.628z"/>
				<g id="XMLID_3394_">
					<path fill="#366ED8" d="M358.918,259.291c-1.086-7.242-1.007-13.939-1.035-15.26c-0.008-0.375,5.034-1.75,11.993-3.142
						c0.313-0.063,0.854-0.108,0.769-0.644c-1.694-10.701-8.385-24.817-8.456-26.232c-0.147-2.946-2.503-2.818-3.058-2.747
						c-0.082,0.01-0.164,0.007-0.245-0.011c0,0-11.437-3.085-16.046-4.997c-0.201-0.084-0.407-1.664-2.039-1.569
						c0,0-1.193,6.527-8.285,6.527c-7.626,0-7.673-6.527-7.673-6.527c-2.071-0.282-1.177,1.365-4.378,2.354
						c-2.035,0.628-12.412,4.347-13.557,4.284c-1.741-0.097-3.39,2.92-3.364,3.377c0.003,0.058-0.001,0.87-0.012,0.926
						l-7.284,23.076c-0.096,0.481,0.336,0.675,0.805,0.821c2.418,0.75,12.509,3.032,14.557,2.822
						c0.369-0.038,0.703,0.221,0.759,0.588c0.177,1.175-0.777,7.279-0.308,14.289C312.275,260.423,359.16,260.894,358.918,259.291z"
						/>
				</g>
				<g id="XMLID_3484_">
					<path fill="#2953A2" d="M335.047,245.543c-0.648-6.198-2.914-12.023-6.461-17.132c-3.433-4.943-8.067-8.736-8.977-15.017
						c-0.287-1.984-0.212-3.953,0.036-5.921c-3.466,1.169-11.266,3.908-12.25,3.853c-1.741-0.097-3.39,2.92-3.364,3.377
						c0.003,0.058-0.001,0.869-0.012,0.926l-7.284,23.076c-0.096,0.481,0.336,0.675,0.805,0.821
						c2.418,0.75,12.509,3.032,14.557,2.822c0.369-0.038,0.703,0.221,0.759,0.588c0.177,1.175-0.777,7.279-0.308,14.289
						c0.11,1.661,12.813,2.586,24.963,2.867C335.315,255.467,335.578,250.61,335.047,245.543z"/>
				</g>
				<path id="XMLID_3381_" fill="#B89787" d="M326.773,199.825c0,0,4.337,5.057,11.423,0.41c0,0-1.088,5.05-5.452,5.05
					S326.773,199.825,326.773,199.825z"/>
				<path id="XMLID_3392_" fill="#DCBFB0" d="M345.493,181.745h-2.106c0.473-3.593,0.992-7.527,0.992-7.527
					s-2.916-4.417-11.431-4.417c-8.516,0-11.698,3.601-11.698,3.601l0.839,8.343h-2.238c0,0-1.594,0.606-1.594,2.979
					c0,2.347,1.799,6.073,4.502,4.594l0.59,6.003c0,0,3.037,7.485,7.496,7.485c0.744,0,1.971,0.031,2.842,0.031
					c4.066,0,7.888-6.931,7.888-7.233c0-0.13,0.203-1.583,0.833-6.393c0.028,0.019,0.055,0.04,0.085,0.058
					c2.755,1.616,4.595-2.172,4.595-4.545S345.493,181.745,345.493,181.745z"/>
				<path id="XMLID_3391_" fill="#B89787" d="M320.077,183.195c-0.212,0.707,0.189,3.182,2.197,1.969c0,0,1.212-1.111,0.555-2.197
					C322.172,181.882,320.417,182.059,320.077,183.195z"/>
				<path id="XMLID_3390_" fill="#B89787" d="M345.447,183.195c0.212,0.707-0.189,3.182-2.196,1.969c0,0-1.213-1.111-0.556-2.197
					C343.351,181.882,345.106,182.059,345.447,183.195z"/>
				<circle id="XMLID_3386_" fill="#3A3326" cx="337.007" cy="183.41" r="1.125"/>
				<circle id="XMLID_3385_" fill="#3A3326" cx="328.474" cy="183.41" r="1.125"/>
				<path id="XMLID_3384_" fill="#B89787" d="M332.036,185.051c-0.275,1.099-0.639,2.181-0.993,3.257
					c-0.197,0.599-0.888,1.746-0.474,2.374c0.651,0.992,3.237,0.844,3.656-0.275c0.139-0.372-0.312-0.593-0.602-0.462
					c-0.596,0.268-1.074,0.464-1.755,0.338c-0.711-0.132-0.527-0.422-0.397-1.074c0.272-1.361,0.65-2.702,0.88-4.071
					C332.385,184.935,332.088,184.843,332.036,185.051L332.036,185.051z"/>
				<path id="XMLID_3366_" fill="#B89787" d="M324.378,180.807c0,0,3.03,0,4.518,1.491c0.481,0.482,2.715,0.198,2.504-1.647
					c-0.038-0.33-2.542-0.492-2.693-0.568s-2.393,0.025-2.393,0.025L324.378,180.807z"/>
				<path id="XMLID_3355_" fill="#3A3326" d="M331.378,180.571c-0.98-0.719-2.469-1.198-3.786-1.238
					c-1.416-0.044-2.376,0.442-3.446,1.134c-0.237,0.153,0.064,0.433,0.306,0.331c1.853-0.78,3.979-0.392,5.662,0.587
					C330.373,181.535,331.568,180.71,331.378,180.571z"/>
				<g id="XMLID_3469_">
					<path id="XMLID_3364_" fill="#FFFFFF" d="M329.446,187.555h-3.431c-0.938,0-1.705-0.768-1.705-1.706v-0.198
						c0-0.938,0.768-1.706,1.705-1.706h3.43c0.938,0,1.706,0.768,1.706,1.706v0.198
						C331.151,186.787,330.383,187.555,329.446,187.555z"/>
					<path id="XMLID_3428_" fill="#3A3326" d="M329.4,187.92h-3.339c-1.167,0-2.117-0.95-2.117-2.117v-0.106
						c0-1.167,0.95-2.117,2.117-2.117h3.339c1.167,0,2.116,0.95,2.116,2.117v0.106C331.516,186.97,330.567,187.92,329.4,187.92z
						 M326.061,184.311c-0.764,0-1.386,0.622-1.386,1.386v0.106c0,0.764,0.622,1.386,1.386,1.386h3.339
						c0.764,0,1.386-0.622,1.386-1.386v-0.106c0-0.764-0.622-1.386-1.386-1.386H326.061z"/>
				</g>
				<g id="XMLID_3427_">
					<path id="XMLID_3351_" fill="#FFFFFF" d="M338.593,187.555h-3.43c-0.938,0-1.706-0.768-1.706-1.706v-0.198
						c0-0.938,0.768-1.706,1.706-1.706h3.43c0.938,0,1.705,0.768,1.705,1.706v0.198
						C340.298,186.787,339.532,187.555,338.593,187.555z"/>
					<path id="XMLID_3365_" fill="#3A3326" d="M338.547,187.92h-3.339c-1.167,0-2.116-0.95-2.116-2.117v-0.106
						c0-1.167,0.949-2.117,2.116-2.117h3.339c1.167,0,2.117,0.95,2.117,2.117v0.106C340.665,186.97,339.714,187.92,338.547,187.92z
						 M335.208,184.311c-0.764,0-1.386,0.622-1.386,1.386v0.106c0,0.764,0.622,1.386,1.386,1.386h3.339
						c0.765,0,1.386-0.622,1.386-1.386v-0.106c0-0.764-0.621-1.386-1.386-1.386H335.208z"/>
				</g>
				<path id="XMLID_3415_" fill="#3A3326" d="M331.407,186.012l-0.511-0.523c0.027-0.026,0.684-0.647,1.53-0.633
					c0.499,0.008,0.956,0.224,1.357,0.642l-0.527,0.507c-0.265-0.276-0.54-0.413-0.843-0.418c-0.005,0-0.011,0-0.017,0
					C331.859,185.585,331.411,186.007,331.407,186.012z"/>
				<path id="XMLID_3536_" fill="#B89787" d="M330.017,195.485c2.377,0.688,5.948,1.059,7.651-1.2
					c0.286-0.379-0.255-0.823-0.617-0.617c-0.973,0.551-1.804,1.085-2.924,1.289c-1.355,0.246-2.707,0.162-4.069,0.226
					C329.887,195.19,329.846,195.435,330.017,195.485L330.017,195.485z"/>
				<path id="XMLID_2504_" fill="#3A3326" d="M323.321,175.88c0.126-0.251,0.157-3.625,0.157-3.625s-0.529-1.805-1.099-2.212
					c-1.883-1.35-4.519,0.878-4.738,1.883c-0.293,1.339,1.412,3.703,1.852,4.331c0.439,0.627,1.357,5.476,1.357,5.476
					s0.429,0.003,0.925,0.305c-0.683-0.079-1.311,0.227-1.622,0.892c-0.109,0.231-0.09,0.735,0.007,0.529
					c0.353-0.753,1.197-1.032,1.927-0.679c0.528,0.255,0.466,1.558,0.15,1.221c-0.151-0.163-0.489-0.32-0.71-0.222
					c-0.057,0.025-0.067,0.094-0.06,0.147c0.026,0.177,0.266,0.296,0.386,0.417c0.143,0.143,0.217,0.299,0.244,0.498
					c0.004,0.022,0.01,0.042,0.019,0.062c-0.21,0.279-0.41,0.565-0.486,0.885c-0.147,0.614,0.14,0.952,0.707,1.247
					c0.351,0.182,0.326,0.098,0.106-0.169c-0.863-1.047,0.194-1.766,0.423-2.479c0.268-0.832,0.126-1.255-0.031-2.134
					c-0.011-0.06-0.021-0.104-0.032-0.134l-0.485-4.228C322.317,177.889,323.196,176.131,323.321,175.88z"/>
				<path id="XMLID_2487_" fill="#3A3326" d="M342.101,175.88c-0.126-0.251-0.171-3.154-0.171-3.154s-3.562-1.961-3.859-2.307
					c-0.428-0.495,1.74-1.03,2.009-1.255c3.25-2.73,6.459,1.25,7.186,1.977c0.063,0.063-0.896,4.488-1.336,5.116
					c-0.438,0.627-1.356,5.476-1.356,5.476s-0.43,0.003-0.926,0.305c0.683-0.079,1.311,0.227,1.623,0.892
					c0.108,0.231,0.089,0.735-0.007,0.529c-0.354-0.753-1.198-1.032-1.928-0.679c-0.528,0.255-0.466,1.558-0.15,1.221
					c0.152-0.163,0.489-0.32,0.71-0.222c0.057,0.025,0.068,0.094,0.06,0.147c-0.026,0.177-0.266,0.296-0.386,0.417
					c-0.143,0.143-0.216,0.299-0.244,0.498c-0.003,0.022-0.01,0.042-0.019,0.062c0.21,0.279,0.41,0.565,0.486,0.885
					c0.147,0.614-0.139,0.952-0.707,1.247c-0.351,0.182-0.325,0.098-0.105-0.169c0.862-1.047-0.195-1.766-0.424-2.479
					c-0.267-0.832-0.126-1.255,0.031-2.134c0.011-0.06,0.021-0.104,0.032-0.134l0.485-4.228
					C343.105,177.889,342.227,176.131,342.101,175.88z"/>
				<path id="XMLID_2462_" fill="#3A3326" d="M339.796,171.393c-0.188-0.063-2.385,2.73-7.877,2.73
					c-5.273,0-8.755-2.385-8.755-2.385l-1.597-3.696l-1.385-3.459c0,0,6.139-3.473,12.851-1.601
					c8.552,2.385,8.803,7.249,8.803,7.249L339.796,171.393z"/>
				<path id="XMLID_2478_" fill="#DCBFB0" d="M367.356,241.382l-12.668,2.539c0,0,0.397,8.084,0.298,8.723
					c-0.1,0.638-5.016-0.267-11.173,1.914c-5.165,1.829-19.564,4.148-19.564,4.148s-0.596,5.957,2.582,6.595
					c3.179,0.639,24.431,0.213,29.694,0.213s8.541,0.054,9.534-1.648s0.76-2.557,0.894-4.202
					C367.151,257.216,367.356,241.382,367.356,241.382z"/>
				<path id="XMLID_3359_" fill="#DCBFB0" d="M330.942,265.598c0,0-2.659-0.232-3.059,0.068s-3.479,1.442-6.389,0.256
					c-2.908-1.187-2.737-2.414-4.59-2.343c-1.854,0.071-4.081,1.114-4.081,1.114s-1.149,0.073-1.847-0.918
					c-0.524-0.746-2.025-2.367-2.826-3.518c-1.231-1.771,0.197-2.475,0.197-2.475s3.733-3.332,4.208-3.803
					c0.474-0.471,1.699-1.188,2.459-1.127c2.164,0.173,8.491,5.269,10.261,4.297c1.525-0.837,3.249,0.848,4.709,0.524
					C330.725,257.511,330.942,265.598,330.942,265.598z"/>
			</g>
			<path id="XMLID_2500_" fill="#B89787" d="M335.586,181.186c0,0,2.835,0.195,3.414,0.713c0.578,0.518,2.376,0.03,2.284-0.64
				s-2.924-1.584-3.076-1.553C338.056,179.736,335.586,181.186,335.586,181.186z"/>
			<path id="XMLID_3370_" fill="#3A3326" d="M334.545,180.216c1.013-0.584,2.457-0.864,3.678-0.732
				c1.312,0.142,2.123,0.749,3.004,1.573c0.195,0.183-0.125,0.42-0.332,0.288c-1.589-1.015-3.608-0.908-5.309-0.159
				C335.325,181.301,334.349,180.329,334.545,180.216z"/>
		</g>
		<g id="XMLID_2471_">
			<g id="XMLID_2460_">
				<g id="XMLID_3373_">
					<polygon id="XMLID_3354_" fill="#F2F3F3" points="381.297,359.191 388.79,369.151 367.591,369.151 					"/>
					<path id="XMLID_3353_" fill="#272525" d="M256.484,369.243c0-11.147,3.557-13.771,3.308-16.229
						c-1.799-17.792-9.886-89.031-9.886-89.031s-1.005-9.137,7.036-11.878c4.673-1.593,18.914-4.987,31.462-5.482
						c18.519-0.731,30.579,3.29,30.579,3.29s6.396,1.188,6.122,7.766c-0.129,3.099,0.775,35.653,1.563,62.59
						c0.575,19.683,15.067,48.701,15.067,48.701S256.484,369.333,256.484,369.243z"/>
					<path id="XMLID_3352_" fill="#152A51" d="M304.911,360.562c0,0,5.482,8.406,14.803,8.406c9.319,0,16.721-8.863,16.721-8.863
						l3.289,8.954h26.59c0,0-11.939-35.878-17.97-38.254c-6.031-2.376-27.99,11.909-32.528,18.762
						C312.227,354.985,304.911,360.562,304.911,360.562z"/>
					<path id="XMLID_3356_" fill="#0B1529" d="M332.749,344.084c2.193-4.386-2.192-3.411-2.192-3.411s-16.386,20.254-28.995,21.32
						c0,0-3.186,4.139,0.853,4.021c4.142-0.122,9.503,3.411,17.3,2.954c9.304-0.545,16.721-8.863,16.721-8.863
						S330.556,348.47,332.749,344.084z"/>
					<path id="XMLID_3429_" fill="#152A51" d="M387.572,350.176c-0.975-1.219-7.919-4.63-11.33-8.771
						c-3.411-4.143-19.614-25.463-19.614-25.463s-9.868-5.848-14.376-4.386s-23.025,8.894-23.025,8.894l-53.879,17.909
						c2.467,3.198-3.411,19.949,11.787,27.594c12.801,6.439,22.103,1.307,25.279,0.183c7.919-2.802,13.767-15.594,13.767-15.594
						s24.122-18.396,28.995-18.274c2.438,0.062,4.751,0.609,7.675,5.117c2.534,3.906,11.107,26.022,13.349,31.851h2.479
						c4.679-3.437,16.345-12.256,18.284-16.135C386.962,353.1,388.546,351.394,387.572,350.176z"/>
					<path id="XMLID_3349_" fill="#F3A953" d="M318.617,257.952c0,0,6.03,3.746,8.132,7.036c1.038,1.624,2.559,11.238,2.376,18.73
						c-0.084,3.44,0.548,12.062,1.188,12.335c0.64,0.274,1.827-0.183,2.559,1.463c0.731,1.645,0.092,3.015,0.274,3.38
						c0.183,0.366,1.188,2.102,1.188,2.65c0,0.548-0.365,0.913-0.365,0.913s-10.508,13.432-12.335,6.854
						c-1.828-6.579-2.468-2.65-5.117-18.64C313.866,276.683,318.617,257.952,318.617,257.952z"/>
					<path id="XMLID_3348_" fill="#DEAC91" d="M325.469,308.845c0,0,1.163-5.736,6.214-5.938c2.284-0.092,2.158,2.313,4.659,3.563
						c1.828,0.913,3.107-0.274,4.752-0.822c1.645-0.549,2.708-0.842,3.929-0.731c1.508,0.138,2.102,0.549,3.106,0.457
						c1.006-0.091,1.371-0.365,2.376,0.365c1.005,0.731,1.919,1.279,3.106,1.371c1.188,0.091,1.279,0,2.193,1.096
						c0.913,1.097,0.913,0.64,1.827,1.188c0.914,0.548,1.15,0.636,0.822,4.203c-0.365,3.975-2.559,7.218-2.559,7.218
						s-0.274,2.741-1.645,3.152l-1.554,0.32c0,0-1.188,0.822-2.284,0.365c-1.096-0.457-1.005-0.457-2.284-0.457
						s-2.375,0.549-2.924,0c-0.548-0.548-1.645-0.913-2.192-1.096c-0.549-0.184-1.462-1.279-1.371-2.011
						c0.092-0.73-0.183-7.035-0.183-7.035s-2.192-0.914-3.655-0.274c-1.462,0.64-12.426,5.391-12.426,5.391L325.469,308.845z"/>
					<path id="XMLID_3346_" fill="#272525" d="M255.936,331.415c0,0-4.021,7.492,5.848,8.041c9.868,0.548,26.498,0,26.498,0h13.645
						c0,0,2.071-0.122,2.071-1.828c0-1.705,0-8.527,0-8.527L255.936,331.415z"/>
					<path id="XMLID_3335_" fill="#3A3326" d="M272.414,217.901c0.943,5.36,1.005,11.604-1.006,14.894
						c-2.01,3.289-3.887,4.894-4.294,8.619c-0.396,3.625,4.929,3.298,4.051,5.695c-0.792,2.163-5.543,4.813-6.731,7.676
						c-1.261,3.038,0.884,6.03,3.381,5.481c0,0,8.498-4.324,11.376-7.157l3.548-2.04l2.193-17.178l-3.96-10.294
						C280.971,223.596,271.967,215.37,272.414,217.901z"/>
					<path id="XMLID_3336_" fill="#3A3326" d="M307.234,217.625c0,0,0.371,9.722,1.454,11.149c1.34,1.767,3.886,2.783,5.056,5.238
						c1.218,2.559,2.376,5.3,0,8.894c-2.21,3.344,1.645,3.594,1.645,3.594s3.594,0.914,3.716,3.594s-1.279,3.655-1.279,3.655
						l-11.878-0.305c0,0-7.676-3.411-7.858-3.655s-2.132-6.213-2.071-6.7c0.062-0.487,4.813-9.198,4.813-9.198
						S303.944,218.356,307.234,217.625z"/>
					<path id="XMLID_3342_" fill="#F3A953" d="M255.022,277.323c0,0-0.183-10.233,6.03-14.071
						c6.214-3.838,22.295-11.878,22.295-11.878s16.265-3.838,28.508,2.192c0,0,7.327,1.894,10.051,9.686
						c2.819,8.064,1.075,22.282,3.29,37.279c2.132,14.437,5.021,16.126,0.981,18.274c-6.586,3.503-58.059,16.081-58.059,16.081
						L255.022,277.323z"/>
					<path id="XMLID_3300_" fill="#366ED8" d="M279.19,253.109l-2.102,1.462c0,0,5.992,14.142,7.173,31.646
						c1.462,21.686,0.243,34.233,0.243,34.233s18.579,3.198,33.107-0.913c3.913-1.108-7.55-15.47-6.031-27.687
						c2.193-17.634,0.917-22.442-3.38-28.781c-3.655-5.392-3.198-12.153-7.858-12.427
						C293.411,250.234,279.19,253.109,279.19,253.109z"/>
					<path id="XMLID_3307_" fill="#366ED8" d="M279.936,246.987c-0.074,0.668-0.427,5.847-0.792,6.335
						c-0.365,0.487,1.896,6.439,13.949,4.324c10.417-1.827,8.224-4.934,8.224-4.934s-1.175-4.483-1.705-6.274
						c-0.487-1.645-1.889-1.583-9.868-1.279C281.763,245.464,280.058,245.891,279.936,246.987z"/>
					<path id="XMLID_3293_" fill="#DEAC91" d="M279.652,229.534c-0.002,1.169,2.843,9.717,1.868,17.818
						c-0.122,1.34,3.804,3.967,9.868,3.29c7.149-0.799,6.624-3.404,6.624-3.404s-0.319-2.079-0.046-5.094
						C298.241,239.129,279.652,229.534,279.652,229.534z"/>
					<path id="XMLID_3314_" fill="#DEAC91" d="M278.976,220.642c0,0-3.639-2.041-4.705,0.152c-0.785,1.616-0.76,5.641,1.032,7.614
						c1.77,1.95,4.572,3.274,6.015,0.183C282.157,226.793,278.976,220.642,278.976,220.642z"/>
					<path id="XMLID_3345_" fill="#BB8574" d="M296.825,245.068c-3.381,0.091-9.731-0.502-12.655-6.487c0,0-0.495,7.195,6.168,8.406
						C295.865,247.992,296.825,245.068,296.825,245.068z"/>
					<path id="XMLID_3286_" fill="#DEAC91" d="M278.239,220.27c-0.017,0.304,0.639,12.072,4.831,18.041
						c3.388,4.821,8.114,6.835,13.308,6.94c3.801,0.077,7.906-7.091,8.277-10.373c0.372-3.283,1.982-13.425,1.047-18.562
						c-1.091-5.994-6.912-11.837-15.367-10.851C281.879,206.453,278.625,213.271,278.239,220.27z"/>
					<path id="XMLID_3321_" fill="#3A3326" d="M285.845,205.931c0,0,16.53,8.557,20.2,14.344c0,0,0.358-1.795,1.181-1.248
						c0.071,0.048,0.563-2.235,0.67-3.228c0.365-3.411-1.523-16.828-11.803-18.244c-11.691-1.611-14.619,4.203-14.619,4.203
						L285.845,205.931z"/>
					<path id="XMLID_3329_" fill="#3A3326" d="M288.966,208.52c0,0-1.902,10.976-10.667,11.855c0,0-3.084-1.531-4.135,0.571
						c0,0-4.219-3.746-1.478-12.64c1.204-3.904,4.792-7.298,9.016-6.761C290.931,202.718,288.966,208.52,288.966,208.52z"/>
					<path id="XMLID_3422_" fill="#0B1529" d="M387.206,352.735c-3.654,4.142-9.746,5.238-12.913,5.36
						c-3.168,0.121-16.203-21.808-20.589-24.854s-7.554-0.975-7.554-0.975s0,0.018,0,0.048c2.136,0.196,4.241,1.089,6.822,5.069
						c2.535,3.907,11.109,26.028,13.349,31.851h2.479c4.679-3.437,16.345-12.256,18.284-16.135c0,0,0.275-0.299,0.525-0.733
						C387.49,352.446,387.356,352.565,387.206,352.735z"/>
					<path id="XMLID_3417_" fill="#BF9D69" d="M328.291,295.683c-1.051,0.277-2.122,0.664-3.12,1.183
						c-0.029-0.01-0.056-0.022-0.082-0.035c-0.062-0.036-0.117-0.075-0.172-0.115c-0.927-0.845-0.184-4.235-0.263-5.228
						c-0.079-0.984-0.433-1.797-0.901-2.648c-1.203-2.183-0.877-4.782-2.128-6.958c-0.246-0.429-0.69,0.025-0.495,0.513
						c1.434,3.584-0.647,7.478-0.017,11.207c0.129,0.768,0.474,1.448,0.634,2.202c0.188,0.879-0.137,1.423-0.296,2.253
						c-0.165,0.861,0.106,1.528,0.659,2.079c0.022,0.049,0.043,0.098,0.073,0.151c0.271,0.473,0.778,0.807,1.116,1.226
						c0.508,0.628,0.822,1.356,1.158,2.082c0.121,0.261,0.51,0.07,0.449-0.189c-0.31-1.331-0.917-2.47-1.52-3.655
						c1.1-1.539,3.562-2.688,5.191-3.382C328.977,296.198,328.689,295.579,328.291,295.683z M323.613,297.484
						c-0.023-0.04-0.053-0.074-0.088-0.103c0.007-0.052,0.013-0.104,0.019-0.154c0.048,0.067,0.102,0.132,0.159,0.191
						C323.672,297.439,323.642,297.461,323.613,297.484z"/>
					<g id="XMLID_3389_">
						<path id="XMLID_3393_" fill="#2953A2" d="M298.741,253.833c-1.23,0.757-2.42,1.468-3.662,2.046
							c-0.075-0.465-0.194-0.929-0.283-1.375c-0.177-0.891-0.36-1.779-0.541-2.669c-0.072-0.354-0.681-0.28-0.64,0.087
							c0.1,0.9,0.197,1.801,0.301,2.701c0.063,0.544,0.088,1.122,0.195,1.671c-1.058,0.417-2.167,0.727-3.383,0.872
							c-0.144,0.017-0.288,0.023-0.432,0.036c0.111-1.533-0.298-3.254-0.558-4.718c-0.058-0.321-0.594-0.25-0.572,0.077
							c0.098,1.508-0.05,3.191,0.202,4.702c-2.47,0.087-4.946-0.375-7.25-1.271c-0.3-0.116-0.474,0.349-0.214,0.507
							c5.063,3.065,13.244,2.649,17.345-2.008C299.551,254.15,299.167,253.572,298.741,253.833z"/>
						<path id="XMLID_3451_" fill="#2953A2" d="M283.032,254.064c0.343-0.653,0.172-1.595,0.077-2.295
							c-0.036-0.266-0.448-0.189-0.454,0.062c-0.009,0.378-0.037,0.757-0.069,1.134c-0.029,0.347-0.106,0.694-0.028,1.037
							C282.605,254.216,282.929,254.259,283.032,254.064z"/>
						<path id="XMLID_3452_" fill="#2953A2" d="M285.555,255.214c0.104,0.303,0.624,0.375,0.688,0
							c0.09-0.516-0.035-1.055-0.093-1.573c-0.051-0.455-0.039-0.976-0.296-1.368c-0.074-0.112-0.28-0.146-0.346,0
							c-0.193,0.434-0.116,0.903-0.095,1.368C285.438,254.154,285.388,254.727,285.555,255.214z"/>
						<path id="XMLID_3453_" fill="#2953A2" d="M297.241,252.933c0.15,0.372,0.686,0.332,0.713-0.097
							c0.022-0.369-0.11-0.746-0.189-1.105c-0.085-0.389-0.163-0.778-0.244-1.167c-0.066-0.322-0.623-0.256-0.583,0.079
							c0.047,0.394,0.096,0.787,0.138,1.181C297.114,252.19,297.103,252.591,297.241,252.933z"/>
					</g>
					<path id="XMLID_3495_" fill="#2953A2" d="M312.691,274.805c-0.63-4.589-2.394-9.673-5.345-13.3
						c-0.77-1.701-1.628-3.771-2.313-5.518c-0.094-0.24,0.041,0.521,0.084,0.776c0.546,3.279,1.47,5.99,2.765,9.03
						c0.915,2.15,1.593,4.354,1.964,6.655c0.895,5.545,1.658,11.039,1.218,16.69c-0.106,1.919,0.394,3.859,0.485,3.264
						c0.196-1.276,0.332-2.556,0.419-3.835C312.55,283.992,313.323,279.41,312.691,274.805z"/>
					<path id="XMLID_3488_" fill="#2953A2" d="M311.855,298.582c-0.061,0.427-1.035,9.381,0.062,12.122
						c1.096,2.741,1.949,5.36,1.462,6.213c-0.487,0.854-1.158,3.168-2.681,3.473c0.244-0.122,6.466,0.239,7.432-0.914
						c0.944-1.127,1.299-1.985,0.305-3.654C314.688,309.531,311.855,298.582,311.855,298.582z"/>
					<path id="XMLID_3344_" fill="#DEAC91" d="M265.743,333.546c0,0,2.849,2.75,8.285,2.619c10.111-0.243,19.949-3.807,26.223-5.025
						c0,0,0.914,1.157,4.752,0s3.289-0.944,4.599-0.608c2.391,0.611,3.838,5.208,3.838,5.208s0.853,1.462,1.889,1.645
						c1.035,0.183,1.462-0.914,1.462-0.914s1.218,1.645,2.68,0.792s0.975-2.741,0.975-2.741s1.157,1.523,2.254,0.427
						s0.609-3.106,0.609-3.106s0.427,1.035,1.949-0.062s-0.305-6.944-0.305-6.944l-3.776-4.324c0,0-2.285-1.185-3.351-1.219
						c-1.889-0.061-6.152,0.746-8.711,1.249c-1.972,0.387-4.934,0.457-5.97,0.457c-1.035,0-1.522,0.67-3.289,0.487
						c-1.767-0.184-16.264-2.376-16.264-2.376s-13.036-6.64-17.482,2.192C261.662,330.135,265.743,333.546,265.743,333.546z"/>
					<path id="XMLID_3343_" fill="#F3A953" d="M283.896,319.125c0,0-0.244-5.682-1.463-5.935c-1.218-0.253-3.289-0.253-3.411-0.759
						c-0.121-0.506-1.096-12.019-1.34-15.561c-0.243-3.542-2.202-27.21-13.889-27.832c-9.502-0.506-9.624,15.055-9.624,15.055
						s-0.853,21.38-1.462,22.771s-1.706,6.009-0.884,7.433c0.822,1.423,2.346,2.814,1.98,3.258
						c-0.366,0.442-2.132,4.048-1.949,5.439s0.453,3.496,0.243,4.491c-0.365,1.735,0.853,2.741,2.193,2.741
						c1.34,0,1.331,2.227,2.192,2.832c3.381,2.376,5.747,1.475,7.249,1.765c2.619,0.506,2.193-2.151,2.193-2.151
						s-1.911-10.146,6.396-13.685C278.901,316.186,283.896,319.125,283.896,319.125z"/>
					<path id="XMLID_2454_" fill="#BF9D69" d="M284.596,319.247c0,0-0.632-0.051-1.157-0.243c-0.457-0.168,0.251-4.013-1.896-6.617
						c-1.015-1.231-3.312-2.262-4.226-3.267s-1.279-1.919-1.919-1.919s-3.198-0.822-2.284-2.832
						c0.914-2.011,1.322-4.971,1.005-6.214c-0.258-1.01,0.452-1.998,0.594-3.106c0.16-1.246-0.229-2.559-0.229-2.559
						s1.279,0.184,1.279,3.655c0,3.473-0.64,6.122,1.462,7.127s7.687,3.748,7.736,4.751
						C285.083,310.459,284.596,319.247,284.596,319.247z"/>
					<g id="XMLID_2517_">
						<path id="XMLID_3371_" fill="#BF9D69" d="M279.943,308.449c-1.113-1.604-3.115-1.888-5.043-1.756
							c0.218-0.353,0.335-0.699,0.379-1.137c0.019-0.177-0.052-0.309-0.162-0.394c0.23-0.348-0.043-0.855-0.474-0.862
							c-0.869-0.013-1.887-0.172-2.089,0.954c-0.122,0.684,0.223,1.032-0.38,1.574c-0.168,0.152-0.366,0.283-0.577,0.396
							c-2.936,0.69-5.704,1.992-7.967,4.005c-0.252,0.225,0.07,0.615,0.353,0.457c1.759-0.982,3.571-1.872,5.479-2.509
							c0.452-0.105,0.906-0.2,1.363-0.284c1.073-0.196,2.72-0.701,3.813-0.438c0.641,0.153,1.145,0.773,1.765,1.006
							c0.843,0.316,1.744,0.249,2.623,0.155c0.176-0.019,0.334-0.114,0.45-0.245C279.903,309.307,280.262,308.909,279.943,308.449z"
							/>
						<path id="XMLID_3419_" fill="#BF9D69" d="M267.622,304.814c0.551,0.093,1.11,0.074,1.668,0.09
							c0.545,0.015,1.122,0.157,1.606-0.133c0.331-0.198,0.31-0.655,0-0.857c-0.474-0.31-1.068-0.169-1.606-0.112
							c-0.561,0.059-1.145,0.124-1.668,0.341C267.346,304.255,267.24,304.75,267.622,304.814z"/>
						<path id="XMLID_3447_" fill="#BF9D69" d="M272.208,315.107c-6,0.691-10.72,6.765-10.006,12.745
							c0.071,0.596,0.931,0.63,0.954,0c0.23-6.104,3.385-10.33,9.1-12.397C272.429,315.392,272.421,315.083,272.208,315.107z"/>
					</g>
				</g>
				<g id="XMLID_3396_">
					<path id="XMLID_3449_" fill="#BB8574" d="M330.297,312.394c-3.188,0.228-3.822-5.291-3.892-6.013
						c-0.716,1.292-0.951,2.449-0.951,2.449l-0.092,10.325c0,0,10.965-4.752,12.427-5.392s3.655,0.274,3.655,0.274
						s-0.062-1.522-0.792-2.497C339.921,310.567,333.708,312.15,330.297,312.394z"/>
					<path id="XMLID_3450_" fill="#BB8574" d="M267.768,322.627c-3.684,6.243-1.857,11.087-1.857,11.087s2.665,2.567,8.102,2.437
						c10.111-0.244,19.949-3.808,26.224-5.025c0,0,0.914,1.157,4.751,0c3.838-1.158,3.29-0.944,4.6-0.609
						c1.513,0.387,2.647,2.37,3.276,3.774c0.047-0.095,0.073-0.15,0.073-0.15s-1.278-6.67-3.654-6.67s-3.563,0.274-6.762-0.274
						c-3.198-0.548-4.66,0.64-8.497,1.279c-3.838,0.64-17.174,3.219-20.833,0.549c-3.381-2.468-1.858-8.315,2.071-10.995
						C275.349,317.968,269.961,318.912,267.768,322.627z"/>
				</g>
			</g>
			<path id="XMLID_3472_" fill="#3A3326" d="M280.946,220.665c2.024,0.136,3.789-1.555,4.868-3.098
				c1.671-2.389,2.361-5.527,3.006-8.317c0.104-0.45-0.525-0.611-0.684-0.188c-0.876,2.339-1.204,4.847-2.332,7.101
				c-1.139,2.275-2.73,3.288-4.884,4.408C280.872,220.594,280.899,220.662,280.946,220.665L280.946,220.665z"/>
			<path id="XMLID_3490_" fill="#3A3326" d="M278.17,218.55c-0.38,0.687-0.253,1.227,0.173,1.883
				c0.838,1.29,1.809,2.177,1.937,3.836c0.177,2.286-0.837,4.007,1.323,5.689c0.178,0.139,0.434-0.103,0.254-0.254
				c-2.092-1.764-0.55-3.859-0.839-6.074c-0.097-0.743-0.349-1.461-0.729-2.107c-0.55-0.93-1.9-1.712-1.853-2.901
				C278.442,218.48,278.238,218.428,278.17,218.55L278.17,218.55z"/>
			<path id="XMLID_3539_" fill="#3A3326" d="M281.556,226.39c0.474-1.228,0.935-2.279,0.299-3.54
				c-0.414-0.82-1.124-1.368-1.173-2.373c-0.043-0.877,0.49-1.674,0.52-2.564c0.015-0.458-0.661-0.799-0.973-0.403
				c-0.689,0.878-1.062,1.748-1.078,2.872c-0.009,0.558,0.892,0.709,0.998,0.135c0.108-0.589,0.104-0.683-0.176-1.215
				c-0.211-0.401-0.785-0.267-0.913,0.119c-0.197,0.595-0.192,0.626-0.27,1.247c0.318-0.043,0.638-0.086,0.956-0.129
				c-0.025-0.079-0.051-0.158-0.076-0.237c-0.123-0.383-0.676-0.398-0.793,0c-0.023,0.079-0.047,0.158-0.069,0.237
				c-0.182,0.616,0.849,0.865,0.938,0.259c0.021-0.388,0.113-0.759,0.276-1.111c-0.304,0.04-0.608,0.079-0.912,0.119
				c0.02,0.147,0.039,0.294,0.058,0.441c0.333,0.045,0.666,0.09,0.998,0.135c0.029-0.846,0.265-1.465,0.868-2.066
				c-0.324-0.134-0.648-0.269-0.973-0.403c-0.08,1.339-0.843,2.281-0.324,3.645c0.16,0.423,0.436,0.718,0.671,1.092
				c0.885,1.412,1.324,2.061,0.91,3.674C281.279,226.481,281.5,226.535,281.556,226.39L281.556,226.39z"/>
		</g>
		<path id="XMLID_2477_" fill="#B89787" d="M354.686,243.91c0,0,3.35,2.985,6.944,2.375c3.594-0.609,4.994-4.812,4.812-4.751
			C366.259,241.595,354.686,243.91,354.686,243.91z"/>
		<path id="XMLID_3514_" fill="#3A3326" d="M288.908,222.923c0.008-0.025-0.479-0.239-1.41-0.358
			c-0.083-0.065-0.758-0.536-0.838-0.699c-0.11-0.226-0.235-0.178-0.223,0.069c0.011,0.211,0.079,0.41,0.193,0.585
			c-0.041,0.003-0.081,0.005-0.122,0.007c-0.108-0.024-0.912-0.087-1.269-0.628c-0.134-0.204-0.234-0.052-0.175,0.146
			c0.054,0.177,0.306,0.453,0.418,0.594c-0.258-0.025-0.746-0.098-1.018-0.173c-0.188-0.052-0.28,0.076-0.114,0.216
			c0.567,0.481,1.121,0.754,1.883,0.766c0.211,0.003,0.443-0.034,0.685-0.087c-0.103,0.163-0.175,0.347-0.202,0.549
			c-0.101,0.753,0.594,1.13,1.354,1.101c0.737-0.029,1.029-0.449,1.374-0.736C290.144,223.695,289.645,223.275,288.908,222.923z"/>
		<path id="XMLID_3513_" fill="#3A3326" d="M298.478,222.995c-0.008-0.025,0.479-0.24,1.409-0.358
			c0.084-0.065,0.758-0.536,0.838-0.699c0.111-0.226,0.235-0.178,0.224,0.068c-0.011,0.211-0.08,0.41-0.193,0.586
			c0.041,0.002,0.081,0.004,0.122,0.007c0.107-0.024,0.912-0.087,1.268-0.628c0.135-0.204,0.234-0.052,0.175,0.146
			c-0.053,0.177-0.305,0.453-0.418,0.594c0.259-0.025,0.747-0.098,1.018-0.173c0.188-0.052,0.28,0.076,0.114,0.216
			c-0.567,0.482-1.121,0.754-1.882,0.767c-0.212,0.003-0.444-0.035-0.685-0.087c0.103,0.162,0.175,0.346,0.202,0.549
			c0.101,0.753-0.595,1.13-1.354,1.101c-0.737-0.029-1.03-0.449-1.375-0.736C297.242,223.766,297.74,223.347,298.478,222.995z"/>
		<path id="XMLID_3512_" fill="#3A3326" d="M305.228,220.255c-2.208-0.578-4.535-0.149-6.628,0.801
			c-0.393,0.178-1.43-1.096-1.158-1.244c2.512-1.363,5.576-1.421,7.956,0.074C305.695,220.073,305.228,220.255,305.228,220.255z"/>
		<path id="XMLID_3511_" fill="#4E352D" d="M296.168,228.244c0.078,0.687,0.57,1.837,0.388,2.502
			c-0.317,1.15-1.922,0.817-2.854,0.719c-0.26-0.027-0.399,0.34-0.143,0.453c0.992,0.435,3.049,0.484,3.541-0.661
			C297.317,230.754,296.813,228.594,296.168,228.244z"/>
		<path id="XMLID_3510_" fill="#4E352D" d="M291.108,236.701c1.774,1.75,5.524,1.893,6.947-0.596
			c0.095-0.165-0.068-0.386-0.177-0.231c-0.771,1.111-2.426,1.34-3.451,1.365c-1.165,0.028-2.148-0.439-3.272-0.713
			C291.076,236.506,291.044,236.638,291.108,236.701L291.108,236.701z"/>
		<path id="XMLID_3509_" fill="#3A3326" d="M284.078,220.231c2.397-0.578,4.924-0.149,7.197,0.801
			c0.427,0.178,1.553-1.096,1.257-1.244c-2.727-1.363-6.055-1.421-8.639,0.074C283.571,220.048,284.078,220.231,284.078,220.231z"/>
		<g id="XMLID_3470_">
			<path id="XMLID_3468_" fill="#8F8B88" d="M334.639,275.19c0.355-0.08,34.569,0,34.569,0s0,6.297-0.222,6.297
				c-0.223,0-20.185-1.054-20.795-1.054C347.583,280.433,334.639,275.19,334.639,275.19z"/>
			<path id="XMLID_3465_" fill="#ABA7A5" d="M334.639,278.454l18.037,4.99c0.686,0,1.247-0.562,1.247-1.248v-0.768
				c0-0.686-0.562-1.247-1.247-1.247l-18.037-4.991c-0.686,0-1.247,0.562-1.247,1.248v0.768
				C333.392,277.892,333.954,278.454,334.639,278.454z"/>
			<path id="XMLID_3456_" fill="#CCC9C8" d="M352.773,283.465h45.097c0.761,0,1.384-0.662,1.384-1.472l3.393-34.259
				c0-0.81-0.623-1.472-1.385-1.472h-45.097c-0.761,0-1.384,0.662-1.384,1.472l-3.392,34.259
				C351.389,282.803,352.012,283.465,352.773,283.465z"/>
			<path id="XMLID_3445_" fill="#FFFFFF" d="M378.823,263.701l-2.061-3.026c0.53-0.351,1.166-0.555,1.849-0.555
				c1.856,0,3.361,1.505,3.361,3.361s-1.505,3.361-3.361,3.361c-1.692,0-3.093-1.251-3.326-2.879L378.823,263.701z"/>
		</g>
		<path id="XMLID_3439_" fill="#F3A953" d="M269.93,407.487c0.026-0.671,0.044-1.345,0.044-2.023
			c0-27.451-22.254-49.706-49.706-49.706c-27.452,0-49.706,22.255-49.706,49.706c0,0.679,0.018,1.353,0.044,2.023H269.93z"/>
		<g id="XMLID_3361_">
			<path id="XMLID_3457_" fill="#152A51" d="M107.972,369.249c-0.294,3.818,0,6.461-0.147,7.049
				c-0.147,0.587-0.734,1.909-1.468,3.965c-0.734,2.056,0.146,1.908,0.146,3.817s-0.293,1.175-0.44,4.259
				c-0.038,0.809-1.264,16.051-1.434,18.953h39.168c0.358-0.619,1.809-14.036,2.206-14.989c0.734-1.762-0.734-2.496-1.028-4.258
				c-0.293-1.763,0.587-0.881,1.322-1.909c0.734-1.027,1.945-3.689,4.735-11.472s4.185-12.279,4.185-12.279s0.404-1.799,1.652,0.33
				c0.789,1.347,5.433,19.604,6.167,21.659s-0.013,6.498-0.393,8.42c-0.49,2.476,2.315,4.995,3.821,14.863h37.417
				c-0.755-7.188-1.499-28.434-1.86-35.251c-1.208-22.756-6.241-46.298-6.241-46.914c0-1.028-1.615-3.378-1.615-3.378l0.147-4.111
				l-82.082-0.146c0,0-2.203,4.258-2.35,5.727s-0.587,1.175-3.23,9.397s0.881,16.005,1.028,20.851
				C107.825,358.676,108.266,365.431,107.972,369.249z"/>
			<path id="XMLID_2476_" fill="#0B1529" d="M117.076,322.114c1.174,0,69.307-2.496,73.272-2.496c3.964,0-5.032,8.546-17.915,12.921
				c-15.564,5.286-42.216,6.609-51.43,1.616C111.79,329.162,117.076,322.114,117.076,322.114z"/>
			<path id="XMLID_2437_" fill="#EBC0AE" d="M131.22,148.782c0,0,2.361,22.489-0.168,26.031c-1.704,2.386,7.927,22.602,24.288,21.59
				c0,0,8.771-0.506,9.277-8.096c0.301-4.51-4.161-12.313-2.586-23.557c1.574-11.245-14.618-9.67-14.618-9.67L131.22,148.782z"/>
			<path id="XMLID_2059_" fill="#C48C7D" d="M159.689,169.784c0,0-8.492,1.473-12.787,0.102c-7.63-2.435-10.462-5.347-10.462-5.347
				s2.892,5.245,8.109,8.109C149.766,175.512,155.495,176.331,159.689,169.784z"/>
			<path id="XMLID_3418_" fill="#C48C7D" d="M162.045,176.047c0,0-1.101,9.912-11.123,10.242
				c-8.302,0.274-10.792-4.075-10.792-4.075s7.159,9.471,12.555,9.471C158.081,191.686,164.908,182.655,162.045,176.047z"/>
			<path id="XMLID_2065_" fill="#EBC0AE" d="M170.104,130.075c-1.073-0.76-2.335-0.664-3.212,0.101
				c-3.785,1.311-3.147,11.114-2.103,13.62c0.761,1.827,2.175,3.216,4.097,1.725c0.713-0.553,1.092-1.464,1.294-2.321
				c0.463-1.956,0.153-3.836,0.818-5.799C171.764,135.142,172.469,131.751,170.104,130.075z"/>
			<path id="XMLID_1489_" fill="#EBC0AE" d="M209.217,246.125c0,0,2.276,5.14,2.423,9.03c0,0,3.817,0.661,5.653,1.615
				C219.128,257.726,235.5,256,235.5,256s-0.424,3.468,3.854,5.286c4.405,1.872,3.249,3.744,3.249,3.744s-22.073,12.08-25,13.216
				c-3.689,1.432-7.874,1.651-10.003,1.725c-2.129,0.074-2.35,0.734-3.598,0.074c-1.248-0.661-1.762-1.542-2.276-2.57
				c-0.514-1.027-3.157-3.23-4.846-7.562c-0.9-2.308-6.681-16.299-6.681-16.299L209.217,246.125z"/>
			<path id="XMLID_2431_" fill="#366ED8" d="M213.922,244.093l-11.414-44.082c0,0-1.156-4.606-2.07-5.988s-4.146-2.073-4.146-2.073
				l-33.001-15.68c0,0,0.489,7.83-3.278,12.729l-0.638-1.214c0,0-2.648,2.648-2.764,2.073s-1.267-0.46-1.267-0.46
				c-2.073,0.46-6.621,0.173-6.621,0.173l-3.575,1.493c-8.713-4.625-14.809-16.636-14.809-16.636s-36.358,15.304-37.43,15.812
				c-0.879,0.417-1.827-0.019-4.568,0.902c-2.74,0.921-3.28,5.857-3.28,5.857l-21.513,49.349c0,0-0.25,3.827,5.215,6.678
				c5.066,2.644,17.485,9.912,24.889,9.912c0,0,7.999-14.097,8.149-14.097c0,0,5.514,21.924,5.947,46.033
				c0.354,19.733-3.275,21.461-2.643,22.025c12.857,11.504,53.28,6.764,61.219,5.463c21.073-3.455,27.418-1.418,28.421-3.158
				c7.669-13.309-3.3-33.581,1.766-67.28C196.574,251.533,213.922,244.093,213.922,244.093z"/>
			<path id="XMLID_2425_" fill="#2953A2" d="M156.773,190.246c0,0-0.506,4.301,0.253,5.145c0.759,0.843,6.578,6.747,7.843,6.747
				s0.422-8.349,0.422-8.349l-4.723-5.229L156.773,190.246z"/>
			<path id="XMLID_2070_" fill="#F3A953" d="M156.942,189.909c0,0,6.859-5.679,5.06-14.337l-0.394-4.921l1.546,0.507
				c0,0,1.237,0.45,1.462,1.687c0.225,1.237,4.048,13.156,4.048,13.156s-0.34,15.664-3.121,16.22
				C163.014,202.727,156.942,189.909,156.942,189.909z"/>
			<path id="XMLID_2053_" fill="#2953A2" d="M148.931,189.655c0,0-0.337,3.458,0.337,3.879c0.675,0.422,3.289,0.844,4.47,0.422
				c0,0,0.506,2.193-1.518,2.446c-2.024,0.253-4.216-0.337-5.229,0.59c-1.012,0.928-7.168,6.072-7.168,6.072s1.35-8.602,2.108-9.276
				C142.69,193.113,148.931,189.655,148.931,189.655z"/>
			<path id="XMLID_2052_" fill="#F3A953" d="M132.094,169.935l-4.129,0.661c0,0-2.368,0.385-3.029,2.863
				c-0.307,1.152-1.727,4.727-1.727,4.727l13.578,24.963c0,0,2.193,1.518,4.048-1.35c1.855-2.867,8.096-12.144,8.096-12.144
				S134.287,179.549,132.094,169.935z"/>
			<path id="XMLID_2025_" fill="#C48C7D" d="M166.252,132.446c0,0-0.079,2.097-0.079,2.813c0,0.716-0.472,1.074-0.708,1.688
				s0.236,3.261,0.236,3.261s2.667,0.312,3.061-1.274c0.393-1.585,1.085-3.013,0.792-4.442
				C169.241,132.958,168.454,131.679,166.252,132.446z"/>
			<path id="XMLID_1488_" fill="#C48C7D" d="M98.354,343.846c0,0,1.982,9.691,2.056,9.911c0.074,0.221,8.223,7.122,8.223,7.122
				s0.147-4.186-0.734-5.8c-0.881-1.615-3.744-7.269-4.185-7.709S98.354,343.846,98.354,343.846z"/>
			<path id="XMLID_1491_" fill="#EBC0AE" d="M273.165,226.303c-0.624,0.734-3.671,3.157-3.671,3.157l-10.995,10.558
				c-0.046-0.045-0.092-0.09-0.138-0.135c1.596-1.838,6.784-9.884,7.089-10.008c0.34-0.137,1.426-2.339,0.407-3.371
				s-2.784,1.101-3.056,1.238s-3.734,4.472-4.277,4.884c-0.446,0.339-3.451,3.873-4.515,5.13c-0.806,0.707-1.843,1.825-2.21,2.349
				c-0.514,0.734-2.643,2.276-2.643,2.276c0.22-2.423-2.056-4.258-2.937-4.479s-2.937,0.955-1.982,1.762
				c0.955,0.808,0,2.863-0.367,4.112c-0.367,1.248-3.304,3.451-4.405,4.479c-1.102,1.028-1.223,3.294-1.982,5.066
				c-1.102,2.569-3.028,2.734-3.028,2.734s0.679,4.167,1.266,5.929c0.587,1.763,3.671,4.552,6.883,3.047
				c3.212-1.505,4.316-1.631,9.122-2.643c1.665-0.351,8.111-5.229,11.123-8.024c0.087-0.057,0.174-0.114,0.266-0.181
				c3.167-2.258,3.992-3.524,4.021-3.992c0.027-0.468-0.275-1.404-1.129-1.873c-0.854-0.468-1.239,0.248-1.542,0.166
				c-0.245-0.067-0.059-0.33,0.021-0.429c0.801-0.661,1.794-1.607,2.099-1.912c0.468-0.468,0.303-1.9-0.496-2.836
				c-0.798-0.936-1.816-0.248-1.816-0.248s-1.212,0.826-1.928,0.908c-0.512,0.059-0.446-0.247-0.368-0.426
				c1.615-1.694,6.27-7.585,6.27-7.585s5.213-6.057,6.13-7.819C275.293,226.376,273.789,225.568,273.165,226.303z"/>
			<g id="XMLID_350_">
				<path id="XMLID_2064_" fill="#3A3326" d="M167.192,110.164c-0.334-0.161-0.744,0.138-0.74,0.446c-0.002,0-0.003,0-0.005,0
					c-2.925-0.013-3.084,2.819-2.9,5.043c0.369,4.472,1.347,8.855,2.583,13.159c0.211,0.737,1.365,0.987,1.735,0.227
					c1.009-2.074,1.957-4.169,2.813-6.311c0.704-1.764,1.819-3.807,1.887-5.721C172.672,113.927,169.708,111.369,167.192,110.164z"
					/>
				<g id="XMLID_2063_">
					<path fill="#EBC0AE" d="M128.7,134.442c0.045-0.936-1.203-1.954-2.24-2.3c-1.541-0.515-3.317-0.564-4.588,0.448
						c-1.11,0.885-2.465,8.243,0.054,11.6c3.648,4.864,7.843,5.273,9.173,3.534"/>
				</g>
				<g id="XMLID_2062_">
					<path fill="#EBC0AE" d="M166.619,117.54c1.521,3.333,0.99,7.195,1.484,10.793c0.194,1.41,0.371,2.921-0.315,4.188
						c-0.336,0.62-0.871,1.16-1.024,1.84c-0.16,0.711,0.127,1.435,0.362,2.127c1.799,5.312,0.648,11.071-0.662,16.508
						c-0.945,3.921-1.965,7.826-3.061,11.712c-0.481,1.707-1.05,3.52-2.486,4.655c-1.301,1.027-3.082,1.307-4.776,1.413
						c-4.584,0.287-9.235-0.418-13.492-2.045c-1.597-0.611-3.166-1.367-4.397-2.502c-1.205-1.111-2.029-2.53-2.774-3.955
						c-3.196-6.111-7.33-25.931-8.114-32.704v-10.844c0,0,9.209-7.689,23.232-8.083C164.619,110.249,165.897,115.958,166.619,117.54
						z"/>
				</g>
				<path id="XMLID_2058_" fill="#C48C7D" d="M127.466,134.374c0,0-2.532-0.307-3.222,0.844s-0.767,4.296,0.767,5.294
					c1.535,0.997,2.941,2.66,3.325,2.046s0.781-3.571,0.454-4.804C128.464,136.521,127.466,134.374,127.466,134.374z"/>
				<path id="XMLID_1875_" fill="#3A3326" d="M129.183,141.609c0.2-0.52,0.354-1.087,0.479-1.636
					c0.187-0.823,0.305-1.666,0.215-2.51c-0.135-1.276-0.629-2.182-1.69-2.867c-1.443-0.933-2.945-0.881-4.246,0.062
					c-0.595,0.431-0.47,0.745,0,0.532c1.571-0.711,3.716,0.065,4.344,1.808c0.226,0.625,0.214,1.314,0.095,2.003
					c-0.643-0.808-2.03-1.014-2.9-0.495c-0.253,0.15-0.129,0.313,0.155,0.276c0.729-0.096,1.065-0.028,1.528,0.22
					c0.459,0.247,1.032,1.065,1.06,1.087c-0.151,0.519-0.239,0.706-0.261,1.184c-0.041,0.868,0.138,1.666,1.005,2.505
					C129.634,144.427,128.549,143.258,129.183,141.609z"/>
				<path id="XMLID_2049_" fill="#3A3326" d="M155.798,142.093c0.563,2.771,2.019,7.305-3.102,5.876
					c-0.948-0.265-0.933,0.371-0.101,0.889c2.219,1.38,5.914,0.307,5.692-3.095c-0.279-4.306-2.446-4.408-2.646-14.152
					c-0.008-0.376-0.502-1.152-0.476-0.776C155.166,130.835,154.415,135.293,155.798,142.093z"/>
				<path id="XMLID_2048_" fill="#3A3326" d="M150.695,146.915c-0.419-0.987-2.242-1.114-2.868-0.246
					c-0.363,0.504-0.428,1.202,0.325,1.611c0.739,0.401,1.643-0.981,2.229-0.751C150.958,147.754,150.695,146.915,150.695,146.915z"
					/>
				<path id="XMLID_2047_" fill="#FFFFFF" d="M158.851,154.515c-2.829,0.926-8.188,2.02-13.996-0.223
					c-1.035-0.399-1.965,0.755-1.374,1.694c1.335,2.122,4.069,4.593,9.524,4.378c4.381-0.172,6.353-2.415,7.235-4.255
					C160.68,155.193,159.816,154.199,158.851,154.515z"/>
				<circle id="XMLID_2032_" fill="#3A3326" cx="160.36" cy="133.303" r="2.279"/>
				<path id="XMLID_1486_" fill="#3A3326" d="M171.965,97.472c-7.473,2.847-7.672,0.511-12.378-2.609
					c-4.293-2.847-14.782-4.552-23.821,2.052c-2.873,2.099-4.125,3.671-4.49,7.232c-2.077-0.304-4.647,0.425-5.703,2.327
					c-3.16-0.548-5.831,0.767-7.058,4.399c-0.179,0.527,0.097,1.221,0.409,0.716c0.908-1.47,2.549-2.625,4.105-2.732
					c-2.997,1.683-4.532,5.916-2.304,9.059c0.685,0.966,1.73,1.47,2.5,2.331c1.594,1.783,1.133,4.111,1.095,6.301
					c-0.058,3.344,0.474,3.91,2.869,5.401c0.479,1.563,1.025,3.076,1.651,4.504c0.249,0.567,0.955,0.706,0.878,0.195
					c-0.153-1.013-0.251-2.615-0.391-3.636c0.192-2.128,0.133-4.717,1.618-6.148c0.929-0.895,2.043-1.221,2.821-2.401
					c1.578-2.394,1.341-5.072,0.794-7.689c1.763,1.653,3.995,2.846,6.224,2.909c0.132,0.004,0.176-0.18,0.066-0.245
					c-1.612-0.956-3.255-1.707-4.689-2.946c-0.154-0.133-0.3-0.27-0.444-0.408c7.747,3.016,16.477,4.837,24.524,2.118
					c1.429-0.483,3.013-1.053,4.125-2.108c1.653-1.567,2.631-3.935,3.98-5.746c2.347-3.151,5.655-6.453,5.766-10.369
					C174.215,96.346,173.039,97.063,171.965,97.472z"/>
				<path id="XMLID_1976_" fill="#C48C7D" d="M146.719,127.535c-3.011-0.399-5.924-0.961-8.738,0.458
					c-0.546,0.275-0.583,0.857-0.335,1.293c-0.611,0.088-1.196,0.194-1.724,0.293c-0.464,0.087-0.193,0.573,0.23,0.603
					c1.977,0.135,4.703-0.3,6.701,0.23c1.253,0.333,2.941,1.33,3.708,2.634c0.602,1.022,2.324-1.083,3.028-2.643
					C150.695,127.948,148.708,127.799,146.719,127.535z"/>
				<path id="XMLID_2453_" fill="#3A3326" d="M135.947,129.983c2.212-0.942,4.416-1.853,6.853-2.059
					c2.211-0.187,4.34,0.612,6.422,1.291c0.766,0.25,1.386-1.837,1.152-1.971c-4.057-2.318-11.809-2.069-14.861,2.171
					c-0.197,0.274,0.364,0.739,0.642,0.62L135.947,129.983z"/>
				<circle id="XMLID_1833_" fill="#3A3326" cx="142.042" cy="133.493" r="2.279"/>
				<path id="XMLID_1819_" fill="#C48C7D" d="M156.995,128.981c0.025-0.077,0.751,1.328,2.336,0.791s4.603,0.205,5.345,1.176
					s2.531-1.761,2.479-2.017c-0.051-0.255-2.019-1.845-2.428-1.973s-2.608-0.435-2.608-0.435l-2.762,0.895L156.995,128.981z"/>
				<path id="XMLID_1487_" fill="#3A3326" d="M167.159,128.752c-1.223-4.054-7.57-3.692-9.864-1.398
					c-0.25,0.25-0.396,1.766-0.375,1.753c2.079-1.277,8.202-2.704,9.769-0.15C166.88,129.27,167.271,129.121,167.159,128.752z"/>
			</g>
			<path id="XMLID_3448_" fill="#C48C7D" d="M208.629,246.364c-0.11,0.551,0.716,3.469-1.156,4.901
				c-1.873,1.432-7.216,5.157-8.095,9.085c-0.936,4.186-4.515,5.722-4.075,1.763c0.496-4.46,1.102-10.353,1.102-10.353
				L208.629,246.364z"/>
			<path id="XMLID_347_" fill="#EBC0AE" d="M67.471,252.273l-5.019,12.229c0,0-3.744,5.973-1.835,8.472
				c1.909,2.498,3.451,3.084,4.332,5.426c0.881,2.343,33.479,41.676,34.066,43.862c0,0,3.817-0.313,6.167-3.748
				s3.083-6.402,3.083-6.402s-11.798-14.421-14.831-25.825c-1.982-7.456-5.91-16.674-7.819-18.392l3.513-5.601l-11.056-4.751
				L67.471,252.273z"/>
			<path id="XMLID_1484_" fill="#EBC0AE" d="M97.987,320.646c1.909,5.139-0.917,15.418-0.917,15.418s-0.533,3.473-0.11,4.846
				c0.587,1.908,4.919,9.911,4.919,9.911s7.261,10.974,7.525,11.344c0.551,0.771,1.688-0.771,1.358-2.754
				c-0.331-1.982-5.066-19.456-5.066-19.456s1.762-4.185,3.524-6.607c1.762-2.423,3.524-1.321,3.524-1.321s4.365,3.062,8.296,2.129
				c4.332-1.027,3.341-3.268,3.341-3.268s-2.313-1.432-2.753-1.541c-0.44-0.11-3.561-2.863-3.891-3.854s-1.918-7.067-2.203-7.269
				c-1.762-1.248-7.269-6.112-7.269-6.112l-5.47,1.597C102.796,313.708,97.252,318.667,97.987,320.646z"/>
			<path id="XMLID_3460_" fill="#C48C7D" d="M114.286,328.795c-1.835-3.047-6.938,0.33-8.113-3.084
				c-1.028-2.569-2.283-7.555-3.854-8.369c-1.781-0.923-4.593,1.683-4.451,3.171c0.024,0.034,0.052,0.072,0.076,0.105
				c0.003,0.009,0.004,0.019,0.007,0.027c1.909,5.139-0.917,15.418-0.917,15.418s-0.533,3.473-0.11,4.846
				c0.587,1.908,4.919,9.911,4.919,9.911s7.262,10.974,7.526,11.344c0.55,0.771,1.688-0.771,1.358-2.754
				c-0.33-1.982-5.066-19.456-5.066-19.456s1.762-4.185,3.524-6.607c1.762-2.423,3.524-1.321,3.524-1.321s4.365,3.062,8.296,2.129
				c2.308-0.548,3.104-1.439,3.345-2.152C122.876,331.438,118.122,335.163,114.286,328.795z"/>
			<path id="XMLID_3446_" fill="#C48C7D" d="M70.051,253.505c0,0,2.718,11.248,8.544,11.729c2.671,0.22,4.323,0.964,4.323,0.964
				s2.01,0.165,3.249-1.79c1.325-2.091,1.845-2.643,1.707-2.698C81.245,259.058,70.051,253.505,70.051,253.505z"/>
		</g>
	</g>
</g>
<g id="DESIGNED_BY_FREEPIK">
</g>
</svg>
