<?xml version="1.0" encoding="utf-8"?>
<!-- Generator: Adobe Illustrator 16.0.0, SVG Export Plug-In . SVG Version: 6.00 Build 0)  -->
<!DOCTYPE svg PUBLIC "-//W3C//DTD SVG 1.1//EN" "http://www.w3.org/Graphics/SVG/1.1/DTD/svg11.dtd">
<svg version="1.1" xmlns="http://www.w3.org/2000/svg" xmlns:xlink="http://www.w3.org/1999/xlink" x="0px" y="0px" width="750px"
	 height="500px" viewBox="0 0 750 500" enable-background="new 0 0 750 500" xml:space="preserve">
<g id="BACKGROUND">
</g>
<g id="OBJECTS">
	<g>
		<rect x="62.556" y="110.775" fill="#FFE97D" width="569.778" height="346.667"/>
		<polygon fill="#FFF0A8" points="62.556,110.775 62.556,457.442 409.223,457.442 		"/>
		<rect x="443.014" y="110.775" fill="#E5BB65" width="189.32" height="206.436"/>
		<polygon fill="#E5BB65" points="395.402,110.775 395.402,134.938 492.201,134.938 510.279,134.938 510.279,110.775 		"/>
		<polygon fill="#E5BB65" points="457.903,369.331 439.825,369.331 415.444,369.331 439.825,393.712 439.825,438.584 
			604.195,438.584 604.195,369.331 		"/>
		<g>
			<rect x="428.791" y="42.558" fill="#78D6AA" width="258.653" height="258.653"/>
			<g>
				<g>
					<path fill="#FFFFFF" d="M597.406,228.035l7.585-25.514c3.453-11.615-3.267-23.809-14.931-27.093l-28.892-8.133v-0.076
						l-0.157,0.038l-0.157-0.038v0.076l-29.977,8.231c-11.737,3.223-18.534,15.463-15.065,27.13l7.544,25.378l-8.822,56.873h91.695
						L597.406,228.035z"/>
				</g>
				<path fill="#8C9AFF" d="M546.5,284.908c0.025-10.469,0.118-29.733,0.446-34.493c0.396-5.754-5.582-62.518-7.16-77.334
					l-8.908,2.446c-11.737,3.223-18.534,15.463-15.065,27.13l7.544,25.378l-8.822,56.873H546.5z"/>
				<path fill="#8C9AFF" d="M606.229,284.908l-8.823-56.873l7.585-25.514c3.453-11.615-3.267-23.809-14.932-27.093l-7.685-2.163
					c3.015,18.49-7.402,89.732-10.746,111.643H606.229z"/>
				<g>
					<g>
						<path fill="#EDB29A" d="M563.429,189.593h-5.532c-7.152,0-12.95-5.798-12.95-12.95v-28.88h31.432v28.88
							C576.378,183.795,570.581,189.593,563.429,189.593z"/>
					</g>
					<path fill="#D88D87" d="M544.946,167.626c10.609,8.945,20.589,13.109,28.876,14.827c1.611-2.467,2.556-5.41,2.556-8.576
						v-26.114h-31.432V167.626z"/>
					<g>
						<path fill="#EDB29A" d="M601.059,111.256c0,27.643-16.066,50.052-39.024,50.052c-22.957,0-39.023-22.409-39.023-50.052
							s16.066-39.872,39.023-39.872C584.992,71.384,601.059,83.613,601.059,111.256z"/>
						<path fill="#D88D87" d="M562.034,71.384c-15.872,0-28.445,5.85-34.698,18.593c5.618,1.228,9.812,1.257,9.812,1.257
							l-5.063,2.785c0,0,29.239,8.86,54.935-3.418c0,0,4.48-0.825,10.676,1.527C591.839,77.894,578.772,71.384,562.034,71.384z"/>
						<path fill="#34344F" d="M587.774,106.255c0,0-1.681-5.489-3.925-6.059c0.646,0.16-8.133,3.525-15.019,1.419l-0.634,5.754
							c2.322,0.488,5.335,0.893,8.846,0.789C581.499,108.025,585.172,107.119,587.774,106.255z"/>
						<path fill="#34344F" d="M554.142,93.824c0,0,1.182,4.831-0.614,6.292c0,0-9.247,0.537-14.22,5.037l-2.998-4.952
							c0,0,6.684-7.617,15.776-5.349L554.142,93.824z"/>
						<path fill="#3E3D5E" d="M597.651,102.626c0,0-2.194,27.593-6.582,33.163c0,0-3.376,4.219-9.282,4.05
							c0,0-0.844-9.773-20.21-9.788v0c-0.008,0-0.015,0-0.021,0c-0.008,0-0.014,0-0.021,0v0c-19.366,0.015-20.21,9.788-20.21,9.788
							c-5.906,0.169-9.282-4.05-9.282-4.05c-4.388-5.569-6.582-33.163-6.582-33.163l-4.726,3.882c0,0,4.389,42.361,8.607,51.98
							c4.15,9.462,31.304,11.575,32.192,11.642v0.003c0,0,0.018-0.001,0.021-0.001c0.004,0,0.021,0.001,0.021,0.001v-0.003
							c0.889-0.067,28.042-2.18,32.192-11.642c4.219-9.62,8.606-51.98,8.606-51.98L597.651,102.626z"/>
						<path fill="#3E3D5E" d="M526.642,108.027c0,0,1.688-18.902,11.813-24.472l-14.514-8.101c0,0-10.801,13.164-4.726,32.572
							H526.642z"/>
						<path fill="#4C4C72" d="M595.837,110.559c0,0,2.7-23.796-9.114-25.315c0,0-26.327,11.139-47.086,2.025l4.557-1.688
							c0,0-23.459,2.363-30.041-11.814c0,0,31.729-16.202,60.251-8.607c28.521,7.594,30.209,24.64,27.171,44.048L595.837,110.559z"
							/>
						<circle fill="none" stroke="#6558F8" stroke-width="1.5" stroke-miterlimit="10" cx="547.526" cy="115.031" r="10.506"/>
						
							<line fill="none" stroke="#6558F8" stroke-width="2" stroke-linecap="round" stroke-linejoin="round" stroke-miterlimit="10" x1="537.527" y1="110.854" x2="523.414" y2="107.626"/>
						<circle fill="none" stroke="#6558F8" stroke-width="1.5" stroke-miterlimit="10" cx="576.64" cy="115.031" r="10.506"/>
						
							<line fill="none" stroke="#6558F8" stroke-width="2" stroke-linecap="round" stroke-linejoin="round" stroke-miterlimit="10" x1="586.639" y1="110.854" x2="600.752" y2="107.626"/>
						<g>
							<g>
								<path fill="#EDB29A" d="M592.451,117.799c-1.237,7.6,1.877,14.545,6.955,15.512c5.079,0.967,10.199-4.411,11.436-12.011
									c1.237-7.6-1.877-14.545-6.955-15.512C598.808,104.822,593.688,110.199,592.451,117.799z"/>
								<path fill="#D88D87" d="M597.821,118.567c-0.775-0.147-1.552-0.062-2.298,0.205c0.017-0.126,0.027-0.251,0.048-0.378
									c0.817-5.021,4.2-8.573,7.555-7.935c3.355,0.639,5.413,5.227,4.596,10.248c-0.629,3.86-2.774,6.844-5.257,7.731
									C603.121,123.566,601.092,119.189,597.821,118.567z"/>
							</g>
							<g>
								<path fill="#EDB29A" d="M530.49,117.799c1.237,7.6-1.876,14.545-6.955,15.512S513.337,128.9,512.1,121.3
									s1.877-14.545,6.956-15.512C524.134,104.822,529.254,110.199,530.49,117.799z"/>
								<path fill="#D88D87" d="M525.12,118.567c0.776-0.147,1.552-0.062,2.299,0.205c-0.018-0.126-0.028-0.251-0.049-0.378
									c-0.817-5.021-4.199-8.573-7.555-7.935c-3.355,0.639-5.412,5.227-4.595,10.248c0.628,3.86,2.773,6.844,5.256,7.731
									C519.82,123.566,521.851,119.189,525.12,118.567z"/>
							</g>
						</g>
						<g>
							<g>
								<circle fill="#34344F" cx="547.345" cy="114.931" r="4.929"/>
								<circle fill="#34344F" cx="576.849" cy="114.931" r="4.929"/>
							</g>
							<path fill="#D88D87" d="M565.011,108.994l-3.809,12.546l-7.729-0.56c0,0,0,7.505,6.721,9.073l-3.36-6.217l6.833,1.064
								L565.011,108.994z"/>
						</g>
						<path fill="#FFFFFF" d="M550.057,137.681l23.124-1.411c0,0-2.9,8.623-12.071,8.623S550.057,137.681,550.057,137.681z"/>
						
							<path fill="none" stroke="#6558F8" stroke-width="2" stroke-linecap="round" stroke-linejoin="round" stroke-miterlimit="10" d="
							M558.412,114.187c0,0,3.502-2.278,7.215,0"/>
						<path fill="#60608C" d="M595.608,76.507c-1.964-2.148-4.413-4.119-7.441-5.881c-16.146,5.091-40.678,9.792-47.231-5.724
							c-3.485,0.687-6.769,1.517-9.764,2.395C537.019,80.766,570.778,84.927,595.608,76.507z"/>
					</g>
				</g>
				<g>
					<polygon fill="#F66C90" points="560.662,275.015 570.321,265.832 563.791,189.205 560.659,189.592 557.526,189.205 
						550.996,265.832 560.655,275.015 560.655,275.023 560.659,275.019 560.662,275.023 					"/>
					<path fill="#C6587A" d="M560.311,188.825l-9.666,5.822l4.833,4.833c2.67,2.669,6.997,2.669,9.667,0l4.833-4.833
						L560.311,188.825z"/>
					<g>
						<path fill="#FFFFFF" d="M545.307,169.079c0,0-1.847,6.456,15.054,14.683l0.426,5.569l-17.609,12.025
							c0,0-7.953-14.81-8.096-22.151C534.939,171.864,545.307,169.079,545.307,169.079z"/>
						<g>
							<path fill="#9795C9" d="M560.858,183.724l0.426,5.569l0.022,0.289l-0.239,0.163l-17.489,12.2l-0.646,0.451l-0.384-0.703v0
								c-1.108-2.227-2.13-4.467-3.1-6.742c-0.965-2.273-1.866-4.576-2.648-6.922c-0.771-2.346-1.463-4.737-1.76-7.206
								c-0.144-1.225-0.166-2.511,0.209-3.707c0.35-1.198,1.021-2.273,1.844-3.184c-0.778,0.949-1.389,2.046-1.672,3.23
								c-0.308,1.182-0.226,2.412-0.028,3.611c0.408,2.404,1.204,4.731,2.078,7.012c1.784,4.553,3.973,8.965,6.334,13.23v0
								l-1.03-0.251l17.729-11.849l0,0l-0.217,0.451l-0.426-5.569L560.858,183.724z"/>
						</g>
					</g>
					<g>
						<path fill="#FFFFFF" d="M576.075,169.079c0,0,1.846,6.456-15.054,14.683l-0.426,5.569l17.609,12.025
							c0,0,7.953-14.81,8.095-22.151C586.441,171.864,576.075,169.079,576.075,169.079z"/>
						<g>
							<path fill="#9795C9" d="M561.52,183.8l-0.426,5.569l-0.217-0.451l0,0l17.73,11.849l-1.03,0.251v0
								c2.361-4.265,4.55-8.677,6.333-13.23c0.875-2.281,1.67-4.608,2.078-7.012c0.197-1.199,0.28-2.429-0.028-3.611
								c-0.283-1.184-0.893-2.281-1.671-3.23c0.822,0.91,1.494,1.985,1.844,3.184c0.374,1.196,0.352,2.481,0.209,3.707
								c-0.298,2.469-0.989,4.859-1.761,7.206c-0.782,2.346-1.684,4.648-2.648,6.922c-0.97,2.275-1.991,4.515-3.099,6.742l-0.001,0
								l-0.384,0.703l-0.646-0.451l-17.489-12.2l0,0l-0.239-0.163l0.022-0.289l0.426-5.569L561.52,183.8z"/>
						</g>
					</g>
				</g>
				<g>
					<path fill="#8C9AFF" d="M526.616,176.631l-1.676,58.175h-18.274C506.666,234.806,508.036,182.57,526.616,176.631z"/>
					<path fill="#EDB29A" d="M498.442,203.434c-9.442-9.138-6.092-15.534,9.138-8.224c0,0,7.843-3.198,11.041,0.152
						c3.197,3.35,1.142,7.157,1.142,7.157L498.442,203.434z"/>
					<path fill="#3E3D5E" d="M511.082,174.347l-7.233,26.194c0,0,0.305,3.198,1.066,3.579c0.761,0.381,2.513-2.284,2.741-2.817
						c0.229-0.533,7.386-26.118,7.386-26.118S513.367,173.281,511.082,174.347z"/>
					<g>
						<path fill="#EDB29A" d="M499.356,193.573c0,0,6.891,2.513,7.614,4.797c0.724,2.285-2.665,4.835-8.338,2.437L499.356,193.573z"
							/>
						<path fill="#D88D87" d="M499.356,193.573c0,0,6.891,2.513,7.614,4.797c0.724,2.285-2.665,4.835-8.338,2.437
							c0,0,5.597,1.028,6.548-1.219C506.133,197.342,499.356,193.573,499.356,193.573z"/>
					</g>
					<g>
						<path fill="#EDB29A" d="M516.529,200.08c0,0-6.795,2.762-8.864,1.554c-2.069-1.208-1.27-5.373,4.546-7.402L516.529,200.08z"/>
						<path fill="#D88D87" d="M516.529,200.08c0,0-6.795,2.762-8.864,1.554c-2.069-1.208-1.27-5.373,4.546-7.402
							c0,0-4.839,2.994-4.037,5.298C508.976,201.834,516.529,200.08,516.529,200.08z"/>
					</g>
					<g>
						<polygon fill="#754E32" points="580.146,272.573 523.494,272.573 466.31,197.647 522.961,197.647 						"/>
						<polygon fill="#754E32" points="466.31,197.647 464.444,199.513 578.279,274.438 580.146,272.573 						"/>
						<polygon fill="#935C32" points="578.279,274.438 521.628,274.438 464.444,199.513 521.096,199.513 						"/>
					</g>
					<path fill="#EDB29A" d="M528.482,226.213c-2.547-0.309-4.213,2.591-2.66,4.634c4.028,5.301,10.052,12.659,12.92,13.333
						c4.527,1.065,19.975,2.93,22.371,2.664c2.396-0.267,5.859-18.643,5.859-18.643l-8.655-1.731l-5.622-4.267l-10.837,0.051
						l4.231,5.947L528.482,226.213z"/>
					<g>
						<path fill="#D88D87" d="M528.463,234.235c7.259,0.619,17.977,0.325,17.977,0.325s-11.414-0.618-19.25-1.938
							C527.604,233.153,528.028,233.691,528.463,234.235z"/>
						<path fill="#D88D87" d="M534.927,241.513c0.297,0.283,0.586,0.547,0.869,0.794c6.012-0.731,10.496-1.599,10.496-1.599
							C542.536,241.334,538.27,241.502,534.927,241.513z"/>
						<path fill="#D88D87" d="M530.96,237.258c0.371,0.434,0.741,0.855,1.11,1.27c7.982,0.387,13.925-1.302,13.925-1.302
							C538.226,238.253,533.373,237.732,530.96,237.258z"/>
					</g>
					<path fill="#8C9AFF" d="M564.079,225.668l36.244,8.681l-0.608-5.635l-1.828-49.342c0,0,9.366,6.625,11.422,11.422
						c2.056,4.797,17.818,67.388,15.305,70.357c-2.513,2.97-4.34,4.568-4.34,4.568l-61.448-16.218L564.079,225.668z"/>
					<g>
						<polygon fill="#6776C1" points="558.337,249.394 563.591,225.561 563.696,225.08 564.195,225.182 600.736,232.626 
							598.563,234.539 598.227,228.875 598.219,228.769 598.569,197.808 601.21,228.658 601.202,228.553 602.084,234.158 
							602.497,236.784 599.911,236.07 563.963,226.154 564.567,225.776 559.313,249.609 						"/>
					</g>
				</g>
			</g>
			<g>
				<rect x="428.791" y="257.824" fill="#3E3D5E" width="258.653" height="43.387"/>
				<g>
					<circle fill="#F66C90" cx="558.122" cy="279.518" r="14.924"/>
					<path fill="#FFFFFF" d="M568.569,280.06c-0.556-1.241-2.662-4.119-10.227-4.229v-0.005c-0.075,0-0.146,0.002-0.221,0.003
						c-0.074-0.001-0.146-0.003-0.222-0.003v0.005c-7.563,0.109-9.671,2.987-10.227,4.229c-0.136,0.302-0.175,0.638-0.114,0.964
						l0.161,0.881c0.118,0.644,0.68,1.111,1.335,1.111h2.026c1.359,0,2.435-1.153,2.337-2.51l-0.064-0.914
						c0,0,1.592-1.583,4.768-1.655c3.175,0.072,4.768,1.655,4.768,1.655l-0.065,0.914c-0.097,1.356,0.978,2.51,2.338,2.51h2.025
						c0.655,0,1.217-0.468,1.335-1.111l0.162-0.881C568.744,280.697,568.705,280.361,568.569,280.06z"/>
				</g>
				<g>
					<g>
						<circle fill="#FFFFFF" cx="624.142" cy="279.518" r="14.924"/>
						<g>
							<path fill="#3E3D5E" d="M629.314,273.384v5.129l3.482-3.482v8.879l-3.482-3.482v5.129h-12.172v-12.172H629.314
								 M634.297,271.408l-2.561,2.562l-0.922,0.921v-1.507v-1.5h-1.5h-12.172h-1.5v1.5v12.172v1.5h1.5h12.172h1.5v-1.5v-1.508
								l0.922,0.922l2.561,2.561v-3.621v-8.879V271.408L634.297,271.408z"/>
						</g>
					</g>
					<g>
						<circle fill="#FFFFFF" cx="492.202" cy="279.518" r="14.925"/>
						<polygon fill="none" stroke="#3E3D5E" stroke-width="1.5" stroke-miterlimit="10" points="485.235,272.424 485.235,285.063 
							495.964,285.063 498.343,287.03 498.343,285.063 498.343,282.42 498.343,272.424 						"/>
						<g>
							<line fill="none" stroke="#3E3D5E" stroke-miterlimit="10" x1="487.992" y1="277.115" x2="495.586" y2="277.115"/>
							<line fill="none" stroke="#3E3D5E" stroke-miterlimit="10" x1="487.992" y1="280.791" x2="495.586" y2="280.791"/>
						</g>
					</g>
				</g>
			</g>
			<g>
				<polygon fill="#5DA891" points="428.791,135.172 482.414,135.172 500.492,153.25 500.492,135.172 500.492,65.92 428.791,65.92 
									"/>
				<polygon fill="#FFFFFF" points="384.736,55.908 384.736,125.16 478.868,125.16 496.946,143.238 496.946,125.16 496.946,55.908 
									"/>
				<g>
					<path fill="#6558F8" d="M429.484,74.253c0.708-0.594,1.48-1.149,2.313-1.667c0.834-0.517,1.73-0.972,2.688-1.366
						c0.958-0.392,1.988-0.699,3.09-0.92c1.102-0.22,2.295-0.331,3.58-0.331c1.801,0,3.426,0.24,4.872,0.719
						c1.447,0.479,2.678,1.164,3.694,2.055c1.015,0.891,1.796,1.964,2.343,3.22c0.546,1.255,0.819,2.649,0.819,4.183
						c0,1.457-0.201,2.716-0.604,3.78c-0.403,1.063-0.911,1.988-1.524,2.774c-0.613,0.786-1.289,1.466-2.026,2.041
						c-0.738,0.575-1.437,1.106-2.098,1.596c-0.661,0.488-1.237,0.973-1.726,1.452c-0.489,0.479-0.801,1.016-0.935,1.61
						l-0.805,4.025h-6.094l-0.633-4.629c-0.153-0.938-0.058-1.758,0.287-2.458c0.346-0.7,0.819-1.332,1.423-1.897
						c0.604-0.565,1.279-1.102,2.027-1.609c0.747-0.508,1.446-1.054,2.099-1.639c0.65-0.584,1.202-1.236,1.652-1.955
						s0.676-1.576,0.676-2.573c0-1.15-0.379-2.064-1.136-2.745c-0.757-0.68-1.797-1.02-3.119-1.02c-1.016,0-1.864,0.105-2.544,0.315
						c-0.681,0.211-1.265,0.446-1.754,0.705c-0.488,0.259-0.914,0.494-1.278,0.705c-0.364,0.211-0.729,0.316-1.093,0.316
						c-0.825,0-1.438-0.354-1.84-1.063L429.484,74.253z M434.774,107.802c0-0.69,0.129-1.332,0.388-1.926
						c0.258-0.594,0.613-1.112,1.063-1.553c0.45-0.44,0.981-0.791,1.595-1.049c0.613-0.258,1.285-0.388,2.014-0.388
						c0.708,0,1.369,0.13,1.983,0.388c0.613,0.259,1.149,0.609,1.609,1.049c0.46,0.441,0.819,0.959,1.078,1.553
						s0.389,1.236,0.389,1.926c0,0.689-0.13,1.336-0.389,1.94c-0.259,0.604-0.618,1.126-1.078,1.567
						c-0.46,0.44-0.996,0.786-1.609,1.034c-0.614,0.249-1.275,0.374-1.983,0.374c-0.729,0-1.4-0.125-2.014-0.374
						c-0.613-0.248-1.145-0.594-1.595-1.034c-0.45-0.441-0.806-0.963-1.063-1.567C434.903,109.138,434.774,108.491,434.774,107.802z
						"/>
				</g>
			</g>
		</g>
		<g>
			<g>
				<g>
					<polygon fill="#3E3D5E" points="300.376,379.132 318.81,317.128 252.197,298.376 252.197,298.276 251.988,298.326 
						251.778,298.276 251.778,298.376 183.49,317.128 201.924,379.132 190.194,457.428 251.778,457.428 251.778,457.428 
						251.988,457.428 252.197,457.428 252.197,457.428 312.106,457.428 					"/>
					<ellipse fill="#EDB29A" cx="251.418" cy="320.536" rx="30.269" ry="17.403"/>
					<g>
						<path fill="#EDB29A" d="M257.64,335.61h-12.234c-8.162,0-14.778-6.616-14.778-14.777v-40.838h41.79v40.838
							C272.418,328.994,265.802,335.61,257.64,335.61z"/>
						<path fill="#D88D87" d="M230.628,297.761c6.722,3.987,14.377,6.215,22.719,6.215c6.868,0,13.27-1.51,19.07-4.268v-19.713
							h-41.79V297.761z"/>
					</g>
				</g>
				<g>
					<path fill="#EDB29A" d="M329.687,339.516l18.905,30.201l29.386-49.865l19.479,11.243c0,0-34.644,82.421-40.903,87.859
						c0,0-42.444-32.583-54.453-52.961C290.091,345.616,329.687,339.516,329.687,339.516z"/>
					<g>
						<path fill="#D88D87" d="M334.713,347.546l4.106,6.56l-16.783,35.141c-6.298-6.096-12.213-12.393-16.477-18.113
							L334.713,347.546z"/>
					</g>
					<polygon fill="#3E3D5E" points="318.854,317.128 345.283,355.226 312.882,385.325 281.195,354 302.096,326.345 					"/>
					<g>
						<path fill="#D88D87" d="M389.629,288.563c0,0,12.299,17.585,11.791,19.72c-0.509,2.135-4.574,15.653-4.574,15.653
							l-5.896-20.329L389.629,288.563z"/>
						<path fill="#3E3D5E" d="M384.746,332.678h-27.708c-3.268,0-5.917-2.649-5.917-5.917v-58.369c0-3.268,2.649-5.917,5.917-5.917
							h27.708c3.268,0,5.917,2.649,5.917,5.917v58.369C390.663,330.028,388.014,332.678,384.746,332.678z"/>
						<path fill="#4E4E72" d="M388.405,332.678h-27.708c-3.268,0-5.917-2.649-5.917-5.917v-58.369c0-3.268,2.649-5.917,5.917-5.917
							h27.708c3.268,0,5.917,2.649,5.917,5.917v58.369C394.322,330.028,391.673,332.678,388.405,332.678z"/>
						<path fill="#EDB29A" d="M373.196,334.847c0,0-2.439-9.623,1.626-15.857c0,0-13.722-6.234-13.044-10.3s15.45,3.558,15.45,3.558
							s-13.112-9.792-13.112-14.399c0-4.608,18.144,7.589,18.144,7.589s-14.019-13.29-11.639-15.992
							c3.507-3.98,17.89,12.74,17.89,12.74s-6.776-14.096-3.659-18.567c3.117-4.473,10.842,19.109,12.333,23.581
							c1.491,4.473,2.101,22.329,0.881,23.549s-8.843,11.893-12.502,12.299C381.903,343.452,373.196,334.847,373.196,334.847z"/>
					</g>
				</g>
				<path fill="#34344C" d="M244.063,457.428c-9.959-20.163-22.662-46.201-21.845-46.201c1.333,0,32.444,15.111,32.444,15.111
					l-54.937-54.603l2.199,7.396l-11.73,78.296H244.063z"/>
			</g>
			<g>
				<g>
					<path fill="#EDB29A" d="M291.112,240.429c-1.645,10.105,2.496,19.338,9.248,20.624c6.752,1.285,13.56-5.864,15.204-15.969
						c1.645-10.105-2.496-19.338-9.248-20.624C299.564,223.175,292.757,230.325,291.112,240.429z"/>
					<path fill="#D88D87" d="M298.252,241.45c-1.032-0.196-2.063-0.083-3.056,0.272c0.022-0.168,0.037-0.334,0.064-0.502
						c1.087-6.676,5.584-11.399,10.044-10.55c4.461,0.849,7.196,6.949,6.109,13.625c-0.835,5.132-3.688,9.099-6.989,10.278
						C305.298,248.097,302.601,242.278,298.252,241.45z"/>
				</g>
				<g>
					<path fill="#EDB29A" d="M305.232,231.73c0,36.752-21.361,66.547-51.884,66.547s-51.884-29.795-51.884-66.547
						s21.36-53.012,51.884-53.012S305.232,194.978,305.232,231.73z"/>
					<path fill="#D88D87" d="M299.273,203.012c-8.382-16.648-24.999-24.294-45.925-24.294c-22.525,0-40.048,8.868-47.691,28.279
						C224.646,211.296,257.608,214.747,299.273,203.012z"/>
					<path fill="#513D36" d="M198.365,236.453L189.691,192c0,0,17.619-41.743,79.961-27.919l11.113-25.75
						c0,0,25.75,14.366,14.637,36.863l24.395-15.721c0,0,13.553,24.395-7.318,41.201l18.161-4.608c0,0-2.168,18.974-24.395,26.834
						l-1.355,13.553c0,0,2.981-21.143-8.945-35.508c0,0-39.845,11.926-82.943,0.542c0,0-1.404,29.075-2.488,29.888
						c-1.084,0.813-8.296,21.037-8.296,21.037L198.365,236.453z"/>
					<g>
						<g>
							<circle fill="#34344F" cx="279.271" cy="238.999" r="6.553"/>
							<circle fill="#34344F" cx="240.044" cy="238.999" r="6.553"/>
						</g>
						<path fill="#D88D87" d="M258.905,231.105l5.064,16.68l10.276-0.745c0,0,0,9.979-8.936,12.063l4.468-8.266l-9.085,1.415
							L258.905,231.105z"/>
					</g>
					<g>
						<g>
							<path fill="#EDB29A" d="M207.572,242.225c2.611,9.898-0.62,19.488-7.216,21.419c-6.597,1.931-14.062-4.529-16.673-14.429
								s0.62-19.489,7.216-21.419C197.496,225.865,204.96,232.325,207.572,242.225z"/>
							<path fill="#D88D87" d="M200.563,243.929c1.008-0.295,2.045-0.282,3.067-0.024c-0.039-0.165-0.069-0.329-0.112-0.494
								c-1.726-6.54-6.657-10.808-11.015-9.532c-4.358,1.275-6.492,7.61-4.767,14.15c1.326,5.028,4.548,8.701,7.947,9.556
								C194.191,251.224,196.315,245.172,200.563,243.929z"/>
						</g>
					</g>
					<path fill="#513D36" d="M290.27,230.376l-15.392-5.516C274.878,224.86,287.334,216.853,290.27,230.376z"/>
					<path fill="#513D36" d="M227.37,230.376l15.392-5.516C242.761,224.86,230.306,216.853,227.37,230.376z"/>
					<path fill="#664B42" d="M266.86,163.494c-8.093-1.615-15.399-2.271-21.996-2.208c-1.801,13.772-10.973,31.051-48.126,20.211
						c-4.326,4.941-6.418,9.135-6.923,10.225C233.397,202.413,264.36,187.753,266.86,163.494z"/>
					<path fill="#34344F" d="M243.847,273.152l17.521,5.705c4.218,1.373,8.235-2.74,6.649-6.884
						c-0.916-2.391-2.428-4.708-4.911-6.229C255.847,261.301,245.033,266.782,243.847,273.152z"/>
					<path fill="#F66C90" d="M248.412,266.935c-2.386,1.653-4.128,3.874-4.564,6.218l17.521,5.705
						c0.511,0.166,1.02,0.249,1.515,0.264C261.213,274.756,257.304,269.72,248.412,266.935z"/>
				</g>
			</g>
			<g>
				<path fill="#EDB29A" d="M181.066,307.376l-36.91-7.487l45.395-53.995l-17.246-13.313c0,0-72.26,71.813-74.957,79.654
					c0,0,46.114,27.141,69.507,30.64C190.248,346.373,181.066,307.376,181.066,307.376z"/>
				<g>
					<path fill="#D88D87" d="M171.738,305.725l-7.62-1.349l-26.292,28.729c8.011,3.555,16.066,6.679,22.968,8.489L171.738,305.725z"
						/>
				</g>
				<polygon fill="#3E3D5E" points="208.963,311.507 160.657,298.804 144.892,340.122 203.329,373.449 201.329,326.338 				"/>
			</g>
			<path fill="#D88D87" d="M195.996,231.227c7.778-4.444,16.889-17.777,12-21.333c-4.889-3.556-14.889,9.778-14.889,9.778
				L195.996,231.227z"/>
			<path fill="#EDB29A" d="M183.773,205.338l27.333-20.037c0,0,2.074,4.148-0.444,6.371S183.773,205.338,183.773,205.338z"/>
			<path fill="#D88D87" d="M183.773,205.338l27.333-20.037c0,0,2.074,4.148-0.444,6.371S183.773,205.338,183.773,205.338z"/>
			<path fill="#EDB29A" d="M172.305,232.581l9.246-26.021l38.889-21.333c0,0,3.556,9.333-8,18
				c-11.556,8.667-11.556,8.667-11.556,8.667s4.444,18.667-11.333,34L172.305,232.581z"/>
			<g>
				<polygon fill="#FFFFFF" points="212.292,140.116 218.514,172.708 231.255,143.375 				"/>
				<polygon fill="#FFFFFF" points="245.181,150.782 225.329,176.56 254.958,165.597 				"/>
				<polygon fill="#FFFFFF" points="228.884,184.856 256.144,194.338 256.144,178.634 				"/>
			</g>
		</g>
		<g>
			<g>
				<polygon fill="#FFFFFF" points="593.529,428.806 593.529,359.554 447.236,359.554 429.159,359.554 429.159,428.806 				"/>
				<g>
					
						<line fill="none" stroke="#6558F8" stroke-width="3" stroke-miterlimit="10" x1="577.398" y1="407.008" x2="445.012" y2="407.008"/>
					
						<line fill="none" stroke="#6558F8" stroke-width="3" stroke-miterlimit="10" x1="577.398" y1="393.658" x2="445.012" y2="393.658"/>
					
						<line fill="none" stroke="#6558F8" stroke-width="3" stroke-miterlimit="10" x1="577.398" y1="380.309" x2="445.012" y2="380.309"/>
				</g>
			</g>
			<polygon fill="#FFFFFF" points="429.159,359.554 404.778,359.554 431.056,385.831 			"/>
		</g>
	</g>
</g>
</svg>
