<?xml version="1.0" encoding="utf-8"?>
<!-- Generator: Adobe Illustrator 16.0.0, SVG Export Plug-In . SVG Version: 6.00 Build 0)  -->
<!DOCTYPE svg PUBLIC "-//W3C//DTD SVG 1.1//EN" "http://www.w3.org/Graphics/SVG/1.1/DTD/svg11.dtd">
<svg version="1.1" id="Layer_1" xmlns="http://www.w3.org/2000/svg" xmlns:xlink="http://www.w3.org/1999/xlink" x="0px" y="0px"
	 width="1280px" height="800px" viewBox="0 0 1280 800" enable-background="new 0 0 1280 800" xml:space="preserve">
<g>
	<g>
		<path fill-rule="evenodd" clip-rule="evenodd" fill="#E3032E" d="M673.04,384.48c0,10.64,0,21.28,0,31.92
			c-0.419,0.331-0.916,0.234-1.388,0.234c-20.632,0.005-41.264,0.006-61.896,0c-0.432,0-0.885,0.091-1.283-0.181
			c-0.176-0.296-0.107-0.624-0.107-0.938c-0.003-10.073-0.003-20.147-0.001-30.221c0-0.277-0.041-0.561,0.083-0.827
			c0.42-0.196,0.867-0.099,1.3-0.099c20.666-0.005,41.331-0.006,61.996,0C672.176,384.369,672.624,384.26,673.04,384.48z"/>
		<path fill-rule="evenodd" clip-rule="evenodd" fill="#FEFEFE" d="M673.04,416.64c0.037,0.473-0.328,0.229-0.479,0.229
			c-21.281,0.013-42.562,0.013-63.843,0c-0.15,0-0.516,0.244-0.479-0.229c0.138-0.089,0.289-0.127,0.452-0.115
			c21.058-0.002,42.115-0.001,63.173,0.004C672.257,416.528,672.665,416.428,673.04,416.64z"/>
		<path fill-rule="evenodd" clip-rule="evenodd" fill="#E30630" d="M673.04,384.48c-21.519,0-43.037,0-64.555,0
			c-0.072-0.052-0.096-0.105-0.074-0.159c0.022-0.055,0.045-0.082,0.069-0.082c21.16,0,42.32-0.002,63.48,0.015
			C672.312,384.255,672.773,383.978,673.04,384.48z"/>
		<path fill-rule="evenodd" clip-rule="evenodd" fill="#E40C35" d="M673.04,416.64c-21.041,0-42.082,0.001-63.123-0.002
			c-0.478,0-0.956-0.026-1.434-0.041c-0.073-0.045-0.096-0.09-0.072-0.134c0.025-0.044,0.049-0.065,0.074-0.065
			c21.518,0.001,43.036,0.002,64.555,0.003C673.04,416.479,673.04,416.56,673.04,416.64z"/>
		<path fill-rule="evenodd" clip-rule="evenodd" fill="#E61C42" d="M608.485,416.397c-0.002,0.066-0.003,0.133-0.002,0.199
			c-0.081,0.015-0.162,0.029-0.243,0.043c0-10.481-0.003-20.963,0.014-31.444c0-0.31-0.269-0.741,0.226-0.955
			c0.001,0.08,0.003,0.16,0.005,0.24C608.485,395.12,608.485,405.758,608.485,416.397z"/>
		<path fill-rule="evenodd" clip-rule="evenodd" fill="#FDF0F3" d="M654.309,401.262c-0.459,0.397-0.962,0.596-1.494,0.174
			c-0.502-0.396-0.488-0.977-0.377-1.53c0.398-1.992,1.594-3.391,3.327-4.375c0.177,0.04,0.285,0.146,0.319,0.327
			c-0.013,0.234-0.134,0.418-0.277,0.591c-0.791,0.979-1.755,1.845-2.017,3.16c-0.262,0.634-0.079,1.091,0.549,1.372
			C654.408,401.083,654.394,401.176,654.309,401.262z"/>
		<path fill-rule="evenodd" clip-rule="evenodd" fill="#FDF5F7" d="M645.15,401.51c-0.961,0.223-1.573,0.145-1.983-0.545
			c-0.952-1.602,1.028-5.194,2.985-5.369c-0.066,0.583-0.605,0.808-0.895,1.208c-0.493,0.683-0.988,1.354-1.258,2.166
			C643.554,400.314,643.699,400.711,645.15,401.51z"/>
		<path fill-rule="evenodd" clip-rule="evenodd" fill="#FBEAEE" d="M616.35,399.132c0.545,0.648,0.512,1.597,0.419,2.191
			c-0.148,0.956-1.285,0.585-2.035,0.625c-0.721,0.038-0.529-0.543-0.536-0.934c-0.012-0.631,0.026-1.263,0.044-1.894
			C614.946,398.944,615.648,398.926,616.35,399.132z"/>
		<path fill-rule="evenodd" clip-rule="evenodd" fill="#D3B53D" d="M664.608,410.479c-0.852-1.021-0.625-2.173,0.586-2.978
			c0.555-0.16,1.11-0.141,1.666-0.006c0.425,0.366,0.893,0.691,1.152,1.215c-0.021,0.044-0.042,0.088-0.063,0.132
			c-0.194,0.209-0.351,0.487-0.714,0.391c-0.077-0.063-0.146-0.136-0.211-0.211c-0.177-0.184-0.327-0.121-0.465,0.053
			c-0.056,0.089-0.119,0.168-0.188,0.245c-0.164,0.146-0.342,0.248-0.572,0.179c-0.211-0.004-0.304-0.633-0.609-0.11
			c-0.039,0.208-0.058,0.417-0.123,0.618C664.981,410.229,664.845,410.403,664.608,410.479z"/>
		<path fill-rule="evenodd" clip-rule="evenodd" fill="#FBE2E7" d="M660.336,398.373c0.078,0.046,0.156,0.093,0.235,0.14
			c0.177,0.115,0.317,0.255,0.328,0.484c-0.047,0.206-0.143,0.388-0.263,0.559c-0.055,0.141-0.17,0.253-0.191,0.409
			c0.043-0.063,0.082-0.128,0.117-0.202c0.164-0.32,0.39-0.602,0.496-0.946c0.09-0.208,0.263-0.322,0.459-0.409
			c0.209,0.081,0.999-0.487,0.469,0.422c-0.146,0.252-0.271,0.516-0.407,0.775c0.085,0.441-0.207,0.794-0.28,1.199
			c-0.591,1.183-1.572,0.591-2.436,0.537c-0.094-0.132-0.272-0.194-0.306-0.375c0.312-0.885,0.956-1.584,1.352-2.424
			C660.02,398.407,660.143,398.298,660.336,398.373z"/>
		<path fill-rule="evenodd" clip-rule="evenodd" fill="#FAE1E6" d="M630.302,401.809c-0.597-0.38-0.897-0.899-0.591-1.586
			c0.288-0.646,0.854-0.724,1.493-0.598c0.256,0.05,0.528,0.022,0.793,0.03c0.214,0.814,0.146,1.632,0.036,2.451
			c-1.02,0.968-1.514,0.975-2.137,0.032C630.42,402.086,630.42,402.086,630.302,401.809z"/>
		<path fill-rule="evenodd" clip-rule="evenodd" fill="#FBECEF" d="M636.494,408.685c-0.126-0.049-0.204-0.109-0.265-0.097
			c-0.642,0.132-1.194,0.082-1.381-0.683c-0.154-0.632,0.204-0.985,0.75-1.112c0.679-0.158,1.278,0.007,1.589,0.718
			c0.507,1.158-0.348,2.429-1.547,2.298c-0.23-0.024-0.559-0.031-0.584-0.305c-0.029-0.313,0.264-0.324,0.52-0.307
			C635.944,409.224,636.295,409.19,636.494,408.685z"/>
		<path fill-rule="evenodd" clip-rule="evenodd" fill="#D4A846" d="M664.608,410.479c0.09-0.185,0.181-0.369,0.271-0.554
			c0.159-0.183,0.362-0.215,0.587-0.178c0.373,0.101,0.744,0.03,1.114-0.01c0.236-0.059,0.47-0.138,0.716-0.156
			c0.488-0.069,0.343-0.646,0.671-0.844l0.045-0.027c0.28,1.146-0.069,2.022-1.061,2.451
			C666.012,411.567,665.153,411.517,664.608,410.479z"/>
		<path fill-rule="evenodd" clip-rule="evenodd" fill="#FBECEF" d="M619.636,397.048c0.306-0.674,0.542-1.176,0.763-1.686
			c0.108-0.248,0.268-0.421,0.543-0.338c0.401,0.12,0.14,0.378,0.066,0.562c-0.253,0.629-0.502,1.262-0.803,1.868
			c-0.363,0.731-0.808,0.737-1.18,0.01c-0.308-0.603-0.552-1.238-0.812-1.864c-0.082-0.196-0.299-0.455,0.07-0.578
			c0.249-0.083,0.458,0.028,0.572,0.292C619.077,395.825,619.312,396.33,619.636,397.048z"/>
		<path fill-rule="evenodd" clip-rule="evenodd" fill="#FCE8EC" d="M652.563,396.967c-0.217,0.314-0.434,0.627-0.649,0.941
			c-0.14,0.484-0.301,0.962-0.422,1.452c-0.484,1.173-1.546,0.121-2.217,0.576c-0.012-0.155-0.024-0.31-0.037-0.465
			c-0.115-0.154-0.172-0.327-0.166-0.52c0.174-0.785,0.618-1.314,1.423-1.502c0.071-0.034,0.14-0.028,0.205,0.016
			c0.208,0.099,0.404,0.203,0.229,0.483c-0.17,0.167-0.34,0.333-0.458,0.542c0.147-0.183,0.29-0.372,0.457-0.539
			c0.238-0.298,0.383-0.668,0.697-0.908C651.929,396.902,652.228,396.708,652.563,396.967z"/>
		<path fill-rule="evenodd" clip-rule="evenodd" fill="#FAE2E6" d="M634.848,404.057c0.047-0.241,0.203-0.369,0.436-0.416
			c0.382-0.235,0.918,0.171,1.245-0.298c-0.03-0.368-0.137-0.805,0.508-0.564c0.189,0.994,0.194,1.988-0.001,2.981
			c-0.747,0.021-1.573,0.517-2.167-0.364C634.691,404.951,634.738,404.505,634.848,404.057z"/>
		<path fill-rule="evenodd" clip-rule="evenodd" fill="#FBE9ED" d="M629.148,392.713c-0.49,0.7-0.964,1.674-1.481,0.05
			c-0.313,0.106-0.212,0.288-0.246,0.417c-0.078,0.306,0.192,0.862-0.356,0.835c-0.506-0.024-0.246-0.564-0.309-0.88
			c-0.023-0.115-0.023-0.242,0-0.356c0.11-0.558-0.345-1.417,0.265-1.622c0.667-0.225,0.625,0.743,0.95,1.145
			c0.801,0.988,0.724-0.376,1.138-0.41c0.155,0.128,0.205,0.298,0.195,0.491C629.279,392.506,629.227,392.616,629.148,392.713z"/>
		<path fill-rule="evenodd" clip-rule="evenodd" fill="#FBE6EA" d="M630.542,407.48c0.316-0.952,1.046-0.856,1.708-0.56
			c0.616,0.277,0.748,1.899,0.216,2.438c-0.653,0.66-1.339,0.768-1.914-0.14C630.346,408.641,630.206,408.062,630.542,407.48z"/>
		<path fill-rule="evenodd" clip-rule="evenodd" fill="#FCF3F5" d="M624.32,402.958c0.588-0.041,1.208-0.334,1.722,0.215
			c-0.219,0.298-0.608,0.26-0.875,0.448c0.375,0.347,0.463-0.073,0.646-0.23c0.069-0.078,0.142-0.155,0.217-0.229
			c1.075,0.429,0.255,1.432,0.592,2.139c0.177,0.371-0.694,0.579-1.233,0.545c-0.278-0.018-0.557-0.031-0.836-0.048
			C623.89,404.899,624.236,403.918,624.32,402.958z"/>
		<path fill-rule="evenodd" clip-rule="evenodd" fill="#F9D7DD" d="M628.161,396.236c0.214-0.903,0.924-0.628,1.417-0.481
			c0.853,0.254,0.664,1.061,0.661,1.71c-0.003,0.745-0.602,0.432-0.973,0.484c-0.467,0.065-0.999,0.166-1.285-0.333
			c-0.242-0.421,0.008-0.744,0.404-0.952C628.762,396.286,628.182,396.408,628.161,396.236z"/>
		<path fill-rule="evenodd" clip-rule="evenodd" fill="#FADFE4" d="M632.956,393.598c-0.624,0.572-1.296,0.757-1.962,0.115
			c-0.445-0.429-0.526-0.997-0.106-1.485c0.64-0.745,1.364-0.623,2.076-0.069C633.315,392.64,633.38,393.12,632.956,393.598z"/>
		<path fill-rule="evenodd" clip-rule="evenodd" fill="#FCEBEF" d="M658.584,401.005c0.094,0.112,0.187,0.225,0.279,0.336
			c-0.818,0.4-1.398,0.438-1.164-0.765c0.205-0.253,0.012-0.52,0.026-0.78c0.012-0.112,0.039-0.22,0.077-0.326
			c0.503-0.809,0.698-1.82,1.569-2.387c0.255-0.048,0.461,0.01,0.576,0.265c0.088,0.492-0.216,0.869-0.378,1.288
			c-0.114,0.248-0.198,0.509-0.31,0.759C659.02,399.925,658.638,400.396,658.584,401.005z"/>
		<path fill-rule="evenodd" clip-rule="evenodd" fill="#FBECEF" d="M627.438,400.309c-0.299-0.107-0.393-0.266-0.079-0.459
			c0.601-0.37,1.264-0.281,1.618,0.235c0.345,0.503,0.268,1.196,0.021,1.804c-0.578-0.249-1.222,0.399-1.777-0.124
			c-0.538-0.509-0.265-0.865,0.235-1.171C627.458,400.498,627.791,400.38,627.438,400.309z"/>
		<path fill-rule="evenodd" clip-rule="evenodd" fill="#FADFE4" d="M621.067,400.861c0.519-0.32,0.346-1.438,0.98-1.164
			c0.536,0.232-0.218,0.909-0.309,1.412c-0.067,0.371-0.146,0.839-0.682,0.841c-0.47,0.002-0.56-0.414-0.646-0.745
			c-0.137-0.528-0.851-1.296-0.368-1.507C620.787,399.372,620.594,400.544,621.067,400.861z"/>
		<path fill-rule="evenodd" clip-rule="evenodd" fill="#FBE4E9" d="M631.769,397.875c-0.674,0.187-1.08,0.07-0.982-0.769
			c0.055-0.471-0.021-0.957,0.021-1.43c0.027-0.304-0.232-0.806,0.339-0.848c0.511-0.038,0.294,0.448,0.4,0.705
			c0.041,0.098,0.145,0.169,0.219,0.253c0.175,0.16,0.603,0.043,0.526,0.479c-0.533,0.517-0.167,0.854,0.24,1.182
			C632.511,398.007,631.989,397.672,631.769,397.875z"/>
		<path fill-rule="evenodd" clip-rule="evenodd" fill="#E9395B" d="M650.495,397.449c-0.563,0.339-0.889,0.882-1.22,1.419
			c-0.184,0.332-0.494,0.573-0.655,0.92c-0.094,0.02-0.187,0.041-0.28,0.061c-0.653-0.378-0.638-0.967-0.384-1.532
			c0.294-0.652,0.701-1.246,1.58-1.116C649.855,397.284,650.175,397.367,650.495,397.449z"/>
		<path fill-rule="evenodd" clip-rule="evenodd" fill="#F9DAE0" d="M621.372,396.929c0.014-0.071,0.038-0.139,0.072-0.202
			c0.293-0.3,0.605-0.259,0.889-0.114c-0.196-0.325-1.202,0.076-0.905-0.856c1.501-0.191,1.841,0.031,1.925,1.167
			c0.077,1.032-0.284,1.317-1.206,0.8c-0.075-0.058-0.107-0.134-0.103-0.226c-0.009-0.28-0.26-0.146-0.389-0.223
			C621.511,397.2,621.423,397.079,621.372,396.929z"/>
		<path fill-rule="evenodd" clip-rule="evenodd" fill="#FBEAEE" d="M636.919,394.085c-0.39-0.004-0.656-0.097-0.791-0.369
			c-0.255-0.516,0.006-1.18-0.463-1.667c-0.037-0.038,0.332-0.649,0.605-0.758c0.403-0.161,0.448,0.433,0.767,0.606
			c0.447,0.242,0.008,0.346-0.169,0.527c-0.361,0.369-0.321,0.782,0.112,1.084c0.168,0.118,0.382,0.188,0.253,0.42
			C637.177,394.032,636.978,394.058,636.919,394.085z"/>
		<path fill-rule="evenodd" clip-rule="evenodd" fill="#FAD5DC" d="M656.504,401.314c-1.052,0.843-1.146,0.054-1.244-0.729
			c-0.11-0.521,0.405-0.755,0.533-1.168c0.365-0.437,0.63-1.041,1.381-0.844c0.216,0.276,0.079,0.549-0.007,0.822
			c-0.303,0.498-0.728,0.952-0.576,1.613C656.592,401.119,656.563,401.221,656.504,401.314z"/>
		<path fill-rule="evenodd" clip-rule="evenodd" fill="#FCE7EB" d="M646.406,399.348c-0.189,0.508-0.596,0.792-1.066,0.564
			c-0.484-0.235-0.305-0.765-0.146-1.155c0.292-0.716,0.634-1.416,1.45-1.695c0.081,0.076,0.134,0.168,0.161,0.276
			c0.021,0.167-0.005,0.328-0.065,0.484C646.604,398.326,646.066,398.74,646.406,399.348z"/>
		<path fill-rule="evenodd" clip-rule="evenodd" fill="#FBE4E8" d="M632.912,406.956c1.048-0.367,1.656-0.268,1.463,0.873
			c-0.107,0.634,0.473,1.718-0.409,1.796c-0.606,0.055-0.283-1.063-0.281-1.636C633.686,407.458,633.224,407.334,632.912,406.956z"
			/>
		<path fill-rule="evenodd" clip-rule="evenodd" fill="#FADDE3" d="M630.746,403.693c0.094,0.094,0.188,0.187,0.281,0.28
			c0.206,0.609,0.199,1.22,0.004,1.829c-0.238,0-0.476,0-0.714-0.001c-0.297-0.297-0.616-0.58-0.624-1.048
			c0.05-0.415-0.443-0.355-0.554-0.63c-0.017-0.186-0.088-0.392,0.179-0.468C629.797,403.527,630.275,403.475,630.746,403.693z"/>
		<path fill-rule="evenodd" clip-rule="evenodd" fill="#F6B5C2" d="M625.709,399.536c0.543,0.141,0.889-0.13,1.008,0.275
			c0.084,0.286-0.149,0.399-0.365,0.517c-0.44,0.243-0.302,0.683-0.327,1.061c-0.019,0.288-0.035,0.594-0.418,0.575
			c-0.391-0.02-0.353-0.355-0.36-0.624c-0.01-0.354,0.014-0.711-0.006-1.065C625.207,399.697,625.434,399.456,625.709,399.536z"/>
		<path fill-rule="evenodd" clip-rule="evenodd" fill="#FBE4E9" d="M635.544,401.782c0.015-0.688,0.8-0.029,0.929-0.549
			c-0.086-0.295-0.386-0.174-0.58-0.256c-0.422-0.179-0.725-0.464-0.479-0.902c0.244-0.436,0.712-0.622,1.219-0.457
			c0.199,0.065,0.305,0.375,0.063,0.435c-1.393,0.339,0.12,0.476,0.04,0.712c0.784,0.224,0.724,0.587,0.17,1.031
			C636.451,401.902,635.997,401.94,635.544,401.782z"/>
		<path fill-rule="evenodd" clip-rule="evenodd" fill="#FDFDFD" d="M624.66,396.333c-0.257,0.562,0.245,1.504-0.353,1.503
			c-0.803,0-0.359-0.939-0.372-1.438c-0.013-0.514-0.364-1.505,0.32-1.49C625.015,394.927,624.273,395.922,624.66,396.333z"/>
		<path fill-rule="evenodd" clip-rule="evenodd" fill="#F9D5DC" d="M627.273,404.55c0.169-0.332-0.403-1.316,0.799-0.957
			c0.205,0.062,0.482-0.251,0.641,0.05c0.199,0.376-0.151,0.439-0.383,0.584c-0.356,0.222-0.308,0.607-0.335,0.963
			c-0.019,0.253,0.1,0.636-0.326,0.638c-0.489,0.003-0.366-0.418-0.393-0.712C627.262,404.957,627.273,404.797,627.273,404.55z"/>
		<path fill-rule="evenodd" clip-rule="evenodd" fill="#FBECEF" d="M634.654,401.48c-0.471,0.797-1.084,0.601-1.673,0.196
			c-0.46-0.316-0.742-0.804-0.4-1.325c0.446-0.681,1.057-1.084,1.893-0.54c-0.084,0.202-0.267,0.297-0.436,0.405
			c-0.19,0.126-0.383,0.251-0.431,0.5c-0.024,0.133-0.012,0.257,0.074,0.369C633.983,401.277,634.378,401.233,634.654,401.48z"/>
		<path fill-rule="evenodd" clip-rule="evenodd" fill="#FCEFF1" d="M647.375,401.042c1.281-0.768,2.504-0.731,3.519,0.089
			c-1.192,0.935-2.336-0.22-3.522-0.104L647.375,401.042z"/>
		<path fill-rule="evenodd" clip-rule="evenodd" fill="#FBE7EB" d="M622.698,401.511c-0.574-0.776-0.394-1.5,0.428-1.813
			c0.878-0.335,1.422,0.258,1.671,1.1c-0.306,0.157-0.615,0.228-0.935,0.044c-0.139-0.115-0.269-0.463-0.432-0.013
			c-0.019,0.102-0.043,0.198-0.069,0.297c-0.026,0.105-0.067,0.202-0.119,0.296C623.084,401.595,622.918,401.722,622.698,401.511z"
			/>
		<path fill-rule="evenodd" clip-rule="evenodd" fill="#FCF2F4" d="M632.529,403.637c0.464,0.101,1.003-0.121,1.385,0.325
			c0.207,0.551,0.168,1.093-0.021,1.769c-0.52-0.425-0.192-0.965-0.42-1.327c-0.596-0.427-0.921-0.343-0.989,0.455
			c-0.029,0.343,0.324,0.951-0.466,0.943c-0.282-0.567-0.1-1.17-0.122-1.756C631.88,403.619,632.14,403.498,632.529,403.637z"/>
		<path fill-rule="evenodd" clip-rule="evenodd" fill="#FDFDFD" d="M635.838,397.909c-1.135-0.415-1.284-0.972-0.515-1.927
			c0.208-0.118,0.402-0.131,0.565,0.075c0.175,0.627,0.361,0.119,0.542,0c0.131-0.098,0.264-0.189,0.436-0.096
			c0.139,0.169,0.278,0.339,0.417,0.509c0.27,0.434-0.061,0.544-0.36,0.682c-0.278,0.128-0.655,0.047-0.83,0.392
			C636.034,397.682,635.952,397.807,635.838,397.909z"/>
		<path fill-rule="evenodd" clip-rule="evenodd" fill="#FBECEF" d="M619.27,401.521c-0.51,0.784-1.137,0.559-1.684,0.111
			c-0.402-0.329-0.641-0.797-0.268-1.35c0.468-0.695,1.028-0.961,1.797-0.472c-0.089,0.209-0.28,0.305-0.458,0.414
			c-0.226,0.124-0.387,0.303-0.467,0.552c-0.078,0.157-0.29,0.287-0.097,0.498l-0.009-0.007
			C618.429,401.588,618.919,401.23,619.27,401.521z"/>
		<path fill-rule="evenodd" clip-rule="evenodd" fill="#FCEAEE" d="M649.536,397.202c-1.368,0.719-1.664,1.374-1.196,2.647
			c-1.182-0.041-1.282-0.239-0.735-1.45c0.139-0.144,0.034-0.356,0.144-0.508c0.081-0.112,0.231-0.142,0.308-0.26
			C648.801,396.801,648.801,396.801,649.536,397.202z"/>
		<path fill-rule="evenodd" clip-rule="evenodd" fill="#FCF7F8" d="M629.121,392.394c-0.004-0.167-0.007-0.334-0.011-0.501
			c0.193-0.327,0.282-0.892,0.755-0.773c0.506,0.126,0.225,0.679,0.255,1.04c0.042,0.512,0.037,1.034-0.005,1.546
			c-0.032,0.386-0.236,0.486-0.528,0.163C629.28,393.425,629.795,392.721,629.121,392.394z"/>
		<path fill-rule="evenodd" clip-rule="evenodd" fill="#FAD3DA" d="M658.16,395.062c1.082-0.287,1.676,0.836,2.634,0.909
			c0.105,0.159,0.057,0.307-0.029,0.454c-0.066,0.088-0.146,0.162-0.239,0.223c-0.248,0.13-0.502,0.232-0.788,0.123
			c-0.538-0.448-1.25-0.664-1.685-1.253C658.005,395.346,658.025,395.19,658.16,395.062z"/>
		<path fill-rule="evenodd" clip-rule="evenodd" fill="#FADEE3" d="M627.199,397.908c-1.824,0.112-2.198-0.203-1.993-1.665
			c0.033-0.236,0.009-0.515,0.341-0.519c0.315-0.003,0.345,0.25,0.378,0.5c0.063,0.468-0.22,1.102,0.565,1.244
			C626.735,397.602,627.239,397.315,627.199,397.908z"/>
		<path fill-rule="evenodd" clip-rule="evenodd" fill="#FBE8EC" d="M629.054,408.207c0.419-1.673-0.992-0.411-1.414-0.883
			c0.653-0.813,1.397-0.615,2.164-0.272c0.223,0.39,0.299,0.779-0.001,1.169c-0.144,0.094-0.288,0.187-0.432,0.28
			C629.206,408.467,629.101,408.368,629.054,408.207z"/>
		<path fill-rule="evenodd" clip-rule="evenodd" fill="#FBE5E9" d="M632.241,396.207c-0.159-0.141-0.317-0.281-0.476-0.421
			c0.628-0.294,0.992,0.253,1.462,0.459c0.14,0.396,0.128,0.793,0.008,1.19c-0.398,0.45-0.852,0.714-1.467,0.44
			c0.161-0.261,0.598-0.123,0.694-0.479C632.245,397.026,632.282,396.609,632.241,396.207z"/>
		<path fill-rule="evenodd" clip-rule="evenodd" fill="#FBEDEF" d="M633.438,392.159c0.569-0.449,1.167-0.63,1.809-0.233
			c0.232,0.781-1.213,0.005-0.799,0.934c-0.064,0.206-0.199,0.338-0.409,0.393C633.346,393.158,633.087,392.826,633.438,392.159z"/>
		<path fill-rule="evenodd" clip-rule="evenodd" fill="#ED5C78" d="M659.296,398.631c0.187-0.388,0.373-0.776,0.56-1.164
			c0.047-0.472,0.314-0.778,0.729-0.975l-0.005,0.039c0.385-0.157,0.5,0.082,0.569,0.388c-0.062,0.549-0.593,0.774-0.831,1.202
			c0.006,0.083,0.013,0.167,0.019,0.251c-0.092,0.093-0.185,0.185-0.276,0.277c-0.088,0.078-0.189,0.13-0.302,0.163
			C659.575,398.826,659.415,398.781,659.296,398.631z"/>
		<path fill-rule="evenodd" clip-rule="evenodd" fill="#FDFDFD" d="M629.054,408.207c0.105,0.098,0.211,0.195,0.317,0.294
			c-0.008,0.066-0.015,0.134-0.021,0.2c-0.087,0.135-0.228,0.259-0.081,0.438c0.214,0.158,0.673,0.057,0.57,0.541
			c-0.115,0.02-0.232,0.068-0.344,0.056c-0.591-0.068-1.532,0.308-1.693-0.23C627.613,408.873,628.524,408.561,629.054,408.207z"/>
		<path fill-rule="evenodd" clip-rule="evenodd" fill="#FDFCFC" d="M633.944,394.843c0.701,0.721,0.692,2.604-0.014,3.06
			C633.731,396.882,633.712,395.862,633.944,394.843z"/>
		<path fill-rule="evenodd" clip-rule="evenodd" fill="#FAE3E8" d="M634.159,393.09c0.096-0.077,0.192-0.154,0.289-0.23
			c0.38,0.064,0.965-0.207,1.012,0.453c0.044,0.629-0.562,0.644-0.975,0.765c-0.25,0.074-0.541,0.009-0.813,0.006
			c-0.249-0.195-0.421-0.396-0.044-0.636c0.172-0.091,0.379-0.049,0.544-0.141C634.182,393.235,634.181,393.162,634.159,393.09z"/>
		<path fill-rule="evenodd" clip-rule="evenodd" fill="#F9D3DB" d="M661.06,396.937c-0.16-0.135-0.32-0.271-0.48-0.406
			c0.071-0.187,0.144-0.374,0.215-0.561c0.078-0.086,0.155-0.172,0.233-0.259c0.24-0.021,0.479-0.038,0.72-0.006
			c0.306,0.131,0.786,0.027,0.784,0.576c-0.318,0.419-0.905,0.33-1.266,0.668C661.188,397.072,661.12,397.068,661.06,396.937z"/>
		<path fill-rule="evenodd" clip-rule="evenodd" fill="#E5143C" d="M634.159,393.09c0.069,0.03,0.14,0.055,0.212,0.073
			c0.034,0.6-0.543,0.134-0.699,0.401c-0.35,0.172-0.058,0.347-0.001,0.52c-0.375,0.039-0.463-0.344-0.715-0.486
			c0.002-0.48,0.005-0.959,0.008-1.439c0.158,0,0.316,0,0.475,0C633.419,392.67,633.415,393.169,634.159,393.09z"/>
		<path fill-rule="evenodd" clip-rule="evenodd" fill="#E61F45" d="M646.406,399.348c-1.074-0.684-0.033-1.085,0.213-1.593
			c0.402,0.072,0.697,0.218,0.49,0.711C646.875,398.76,646.641,399.054,646.406,399.348z"/>
		<path fill-rule="evenodd" clip-rule="evenodd" fill="#FCF6F7" d="M627.199,397.908c-0.236-0.146-0.473-0.292-0.709-0.439
			c0.516-0.305,0.396-0.818,0.423-1.285c0.011-0.195,0.007-0.422,0.281-0.424c0.091,0,0.269,0.121,0.263,0.169
			C627.378,396.59,627.838,397.324,627.199,397.908z"/>
		<path fill-rule="evenodd" clip-rule="evenodd" fill="#FCF1F3" d="M629.836,404.686c0.045,0.422,0.624,0.613,0.48,1.116
			c-0.9,0.171-1.475-0.002-1.168-1.105C629.373,404.433,629.603,404.444,629.836,404.686z"/>
		<path fill-rule="evenodd" clip-rule="evenodd" fill="#F8CED6" d="M622.698,401.511c0.203-0.013,0.372-0.08,0.454-0.285
			c0.396-0.119,0.79-0.141,1.18,0.021c0.322,0.224,0.323,0.465-0.034,0.614C623.699,402.112,623.132,402.077,622.698,401.511z"/>
		<path fill-rule="evenodd" clip-rule="evenodd" fill="#E5143B" d="M635.833,397.481c0.033-0.441,0.039-0.407,0.427-0.48
			c0.383-0.072,1.048,0.338,1.023-0.531c0.611,0.494-0.075,0.664-0.241,0.963C636.649,397.693,636.248,397.74,635.833,397.481z"/>
		<path fill-rule="evenodd" clip-rule="evenodd" fill="#FADDE3" d="M633.474,404.403c0.343,0.23,0.091,0.659,0.441,1.114
			c0-0.636,0-1.096,0-1.556c0.081,0.119,0.248,0.254,0.229,0.354c-0.095,0.51,0.401,1.419-0.344,1.443
			C633.136,405.781,633.565,404.886,633.474,404.403z"/>
		<path fill-rule="evenodd" clip-rule="evenodd" fill="#F8C2CC" d="M648.056,397.631c-0.07,0.106-0.141,0.212-0.212,0.319
			c-0.135,0.105-0.288,0.099-0.444,0.071c-0.251-0.149-0.252-0.512-0.538-0.632c-0.077-0.048-0.152-0.099-0.226-0.151
			c-0.018-0.06-0.015-0.119,0.009-0.176C647.653,395.915,647.64,397.308,648.056,397.631z"/>
		<path fill-rule="evenodd" clip-rule="evenodd" fill="#F4A7B5" d="M633.944,394.843c-0.005,1.02-0.009,2.04-0.014,3.06
			C633.519,396.881,633.494,395.861,633.944,394.843z"/>
		<path fill-rule="evenodd" clip-rule="evenodd" fill="#FBEDF0" d="M624.32,402.958c0.099,0.945-0.225,1.925,0.234,2.84
			c-0.153,0.017-0.393,0.044-0.396-0.122C624.138,404.768,623.843,403.837,624.32,402.958z"/>
		<path fill-rule="evenodd" clip-rule="evenodd" fill="#F9D8DF" d="M637.035,405.76c0-0.993,0.001-1.987,0.001-2.981
			C637.313,403.772,637.315,404.767,637.035,405.76z"/>
		<path fill-rule="evenodd" clip-rule="evenodd" fill="#FCF1F3" d="M618.562,400.031c0.185-0.073,0.369-0.146,0.553-0.22
			c0.407,0.222,0.667,0.509,0.445,1.008c-0.252,0.125-0.503,0.144-0.754,0.002C618.85,400.52,618.553,400.322,618.562,400.031z"/>
		<path fill-rule="evenodd" clip-rule="evenodd" fill="#F9CED7" d="M658.16,395.062c0.001,0.139,0.001,0.278,0.001,0.417
			c-0.128,0.223-0.341,0.236-0.563,0.228c-0.351-0.096-0.713-0.077-1.072-0.095c-0.158-0.061-0.259-0.171-0.296-0.337
			C656.823,394.75,657.526,395.215,658.16,395.062z"/>
		<path fill-rule="evenodd" clip-rule="evenodd" fill="#E51A41" d="M621.427,395.757c-0.179,1.024,0.894,0.103,1.027,0.78
			c-0.265,0.229-0.673,0.098-1.01,0.19C621.341,396.405,620.949,396.088,621.427,395.757z"/>
		<path fill-rule="evenodd" clip-rule="evenodd" fill="#F290A3" d="M647.371,401.027c-0.571,0.365-1.213,0.395-2.136,0.49
			c0.83-0.556,1.433-0.776,2.14-0.476L647.371,401.027z"/>
		<path fill-rule="evenodd" clip-rule="evenodd" fill="#F4AAB8" d="M632.529,403.637c-1.071,0.509-0.32,1.448-0.511,2.165
			c-0.523-0.642-0.267-1.389-0.204-2.073C631.85,403.33,632.248,403.391,632.529,403.637z"/>
		<path fill-rule="evenodd" clip-rule="evenodd" fill="#F4A0B0" d="M655.972,399.555c-0.044,0.476-0.461,0.697-0.712,1.03
			c-0.077,0.001-0.152-0.011-0.226-0.036c-0.036-0.04-0.073-0.08-0.11-0.121c-0.157-0.485,0.03-0.85,0.403-1.149
			c0.101-0.042,0.207-0.057,0.315-0.047C655.814,399.276,655.91,399.398,655.972,399.555z"/>
		<path fill-rule="evenodd" clip-rule="evenodd" fill="#F392A5" d="M661.528,395.954c-0.201-0.009-0.398-0.027-0.501-0.242
			c0.569-0.82,0.768-0.852,1.187-0.194C662.045,395.757,661.728,395.762,661.528,395.954z"/>
		<path fill-rule="evenodd" clip-rule="evenodd" fill="#E62046" d="M651.492,399.36c-0.427-0.648,0.184-0.997,0.422-1.452
			C652.075,398.479,652.131,399.021,651.492,399.36z"/>
		<path fill-rule="evenodd" clip-rule="evenodd" fill="#F399AA" d="M633.236,401.076c0.066-0.092,0.132-0.185,0.197-0.276
			c0.168-0.211,0.378-0.348,0.655-0.363c0.292,0.038,0.563-0.046,0.83-0.156c0.415,0.439,0.167,0.662-0.27,0.823
			C634.172,401.354,633.702,401.311,633.236,401.076z"/>
		<path fill-rule="evenodd" clip-rule="evenodd" fill="#E40E37" d="M661.299,400.804c-0.339-0.501,0.132-0.812,0.28-1.199
			C662.392,400.217,661.695,400.475,661.299,400.804z"/>
		<path fill-rule="evenodd" clip-rule="evenodd" fill="#FCF1F3" d="M634.918,400.28c-0.104,0.453-0.252,0.793-0.739,0.3
			c-0.082-0.186-0.277-0.316-0.257-0.549c0.184-0.073,0.368-0.146,0.552-0.22C634.727,399.869,634.845,400.053,634.918,400.28z"/>
		<path fill-rule="evenodd" clip-rule="evenodd" fill="#E5133B" d="M633.236,401.076c0.471,0.009,0.942,0.019,1.413,0.027
			c0.002,0.126,0.004,0.252,0.006,0.377C634.172,401.378,633.552,401.76,633.236,401.076z"/>
		<path fill-rule="evenodd" clip-rule="evenodd" fill="#FAE3E7" d="M621.372,396.929c0.121,0.114,0.241,0.229,0.361,0.344
			c0.161,0.043,0.387-0.035,0.424,0.232c-0.005,0.073-0.009,0.146-0.011,0.218c-0.269,0.183-0.546,0.344-0.817,0.018
			C621.102,397.467,621.072,397.185,621.372,396.929z"/>
		<path fill-rule="evenodd" clip-rule="evenodd" fill="#F9D9DF" d="M632.033,402.105c-0.012-0.816-0.024-1.634-0.036-2.451
			C632.396,400.466,632.291,401.285,632.033,402.105z"/>
		<path fill-rule="evenodd" clip-rule="evenodd" fill="#E7274B" d="M630.302,401.809c0.318-0.007,0.662-0.113,1.03,0.269
			c-0.552,0.253-0.999,0.093-1.436,0.062C630.031,402.028,630.167,401.919,630.302,401.809z"/>
		<path fill-rule="evenodd" clip-rule="evenodd" fill="#FBE4E9" d="M647.289,397.871c0.186,0.026,0.37,0.052,0.555,0.079
			c-0.012,0.187-0.055,0.356-0.239,0.45c-0.21-0.312-0.318,0.129-0.495,0.066c0.033-0.372-0.279-0.507-0.49-0.711
			c0.006-0.172,0.011-0.345,0.017-0.517c0.077-0.007,0.154-0.021,0.229-0.041C647.101,397.363,647.174,397.63,647.289,397.871z"/>
		<path fill-rule="evenodd" clip-rule="evenodd" fill="#F1889C" d="M661.528,395.954c0.026-0.464,0.367-0.432,0.686-0.436
			c-0.214,0.387,1.495-0.024,0.317,0.764C662.282,395.912,661.851,396.099,661.528,395.954z"/>
		<path fill-rule="evenodd" clip-rule="evenodd" fill="#FAD9DF" d="M652.563,396.967c-0.313-0.033-0.591,0.052-0.841,0.238
			c-0.229-0.032-0.489,0.303-0.692-0.056C651.443,396.266,652.012,396.688,652.563,396.967z"/>
		<path fill-rule="evenodd" clip-rule="evenodd" fill="#F9D5DC" d="M618.811,400.617c0.207,0.227,0.494,0.153,0.749,0.202
			c-0.374,0.524-1.128-0.18-1.467,0.456c-0.273-0.136-0.268-0.294-0.039-0.471C618.276,400.622,618.472,400.333,618.811,400.617z"/>
		<path fill-rule="evenodd" clip-rule="evenodd" fill="#E62348" d="M629.836,404.686c-0.229,0.003-0.459,0.007-0.688,0.011
			c-0.003-0.19-0.007-0.382-0.01-0.572c0.193,0.012,0.389,0.007,0.579,0.041c0.166,0.03,0.432-0.122,0.479,0.136
			C630.231,404.5,630.014,404.607,629.836,404.686z"/>
		<path fill-rule="evenodd" clip-rule="evenodd" fill="#FADFE4" d="M636.866,395.96c-0.111,0.109-0.222,0.219-0.333,0.329
			c-0.254,0.15-0.491,0.161-0.699-0.082c-0.171-0.075-0.341-0.15-0.512-0.226C635.832,395.56,636.346,395.517,636.866,395.96z"/>
		<path fill-rule="evenodd" clip-rule="evenodd" fill="#E5153D" d="M629.803,408.221c0.142-0.39,0.12-0.779,0.001-1.169
			c0.355,0.102,0.22,0.554,0.504,0.706c0.188,0.324,0.204,0.646-0.011,0.965C630.132,408.555,629.967,408.388,629.803,408.221z"/>
		<path fill-rule="evenodd" clip-rule="evenodd" fill="#FADFE4" d="M635.833,397.481c0.403-0.016,0.807-0.032,1.21-0.048
			c-0.227,0.6-0.675,0.642-1.205,0.476C635.836,397.766,635.835,397.624,635.833,397.481z"/>
		<path fill-rule="evenodd" clip-rule="evenodd" fill="#F7C2CC" d="M616.35,399.132c-0.702-0.004-1.405-0.008-2.107-0.012
			C614.947,398.669,615.649,398.719,616.35,399.132z"/>
		<path fill-rule="evenodd" clip-rule="evenodd" fill="#F9CDD5" d="M647.376,395.24c0.529,0.354,0.177,0.674-0.056,0.979
			c-0.05,0.065-0.242,0.11-0.298,0.069c-0.342-0.256,0.124-0.485,0.046-0.742C647.107,395.381,647.214,395.283,647.376,395.24z"/>
		<path fill-rule="evenodd" clip-rule="evenodd" fill="#E51941" d="M628.161,396.236c0.376,0.017,0.752,0.033,1.211,0.054
			c-0.251,0.522-0.657,0.345-0.987,0.375C628.311,396.522,628.236,396.379,628.161,396.236z"/>
		<path fill-rule="evenodd" clip-rule="evenodd" fill="#EE6C85" d="M651.03,397.149c0.229,0.044,0.488-0.293,0.692,0.056
			c-0.232,0.23-0.211,0.7-0.672,0.716l-0.098-0.03c-0.084-0.142-0.168-0.284-0.253-0.426
			C650.811,397.36,650.92,397.254,651.03,397.149z"/>
		<path fill-rule="evenodd" clip-rule="evenodd" fill="#F9CED6" d="M647.376,395.24c-0.103,0.102-0.205,0.204-0.308,0.306
			c-0.217-0.061-0.497,0.084-0.642-0.173c-0.032-0.056,0.051-0.252,0.116-0.273C646.835,395.008,647.158,394.851,647.376,395.24z"/>
		<path fill-rule="evenodd" clip-rule="evenodd" fill="#F49FB0" d="M656.504,401.314c-0.009-0.113-0.018-0.227-0.026-0.34
			c-0.028-0.521,0.322-0.764,0.714-0.977c0.112-0.011,0.211,0.019,0.295,0.096C657.256,400.579,657.016,401.056,656.504,401.314z"/>
		<path fill-rule="evenodd" clip-rule="evenodd" fill="#FADEE3" d="M629.121,392.394c0.219-0.059,0.48-0.177,0.491,0.208
			c0.011,0.421-0.015,0.844-0.024,1.266c-0.343-0.311,0.179-0.949-0.438-1.155C629.139,392.607,629.13,392.5,629.121,392.394z"/>
		<path fill-rule="evenodd" clip-rule="evenodd" fill="#FEFCFC" d="M661.518,398.408c-0.086,0.173-0.171,0.346-0.257,0.519
			c-0.142,0.074-0.28,0.1-0.412-0.021c-0.093-0.131-0.185-0.263-0.277-0.394C660.877,398.388,661.176,398.206,661.518,398.408z"/>
		<path fill-rule="evenodd" clip-rule="evenodd" fill="#F1889C" d="M623.185,401.079c-0.004-0.104-0.008-0.209-0.012-0.313
			c0.201-0.174,0.389-0.396,0.691-0.182c0.234,0.404,0.609,0.199,0.933,0.214c-0.029,0.279-0.262,0.253-0.448,0.297
			C623.959,401.198,623.571,401.242,623.185,401.079z"/>
		<path fill-rule="evenodd" clip-rule="evenodd" fill="#F08096" d="M661.06,396.937c0.067,0.021,0.136,0.025,0.206,0.013
			c-0.059,0.599-0.421,0.952-0.948,1.172C660.354,397.594,660.923,397.401,661.06,396.937z"/>
		<path fill-rule="evenodd" clip-rule="evenodd" fill="#E5153D" d="M628.88,409.201c-0.16-0.466,0.234-0.408,0.471-0.5
			c0.237,0.179,0.474,0.357,0.711,0.537C629.664,409.354,629.269,409.39,628.88,409.201z"/>
		<path fill-rule="evenodd" clip-rule="evenodd" fill="#F6B7C3" d="M631.03,405.803c-0.001-0.609-0.002-1.22-0.004-1.829
			C631.393,404.583,631.437,405.192,631.03,405.803z"/>
		<path fill-rule="evenodd" clip-rule="evenodd" fill="#E79D8F" d="M666.86,407.495c-0.556,0.002-1.111,0.004-1.666,0.006
			C665.748,407.108,666.304,407.138,666.86,407.495z"/>
		<path fill-rule="evenodd" clip-rule="evenodd" fill="#E72449" d="M627.438,400.309c0.323-0.355,0.593-0.265,0.913,0.19
			c-0.339,0.036-0.617,0.065-0.895,0.094C627.45,400.498,627.444,400.403,627.438,400.309z"/>
		<path fill-rule="evenodd" clip-rule="evenodd" fill="#F8D0D8" d="M630.297,408.723c0.003-0.321,0.007-0.643,0.011-0.965
			c0.078-0.092,0.156-0.185,0.234-0.277c0.003,0.579,0.006,1.159,0.009,1.739C630.466,409.054,630.381,408.889,630.297,408.723z"/>
		<path fill-rule="evenodd" clip-rule="evenodd" fill="#FADCE2" d="M648.62,399.789c-0.067-0.51,0.443-0.608,0.655-0.92
			c-0.013,0.201-0.024,0.401-0.037,0.602C648.962,399.439,648.795,399.621,648.62,399.789z"/>
		<path fill-rule="evenodd" clip-rule="evenodd" fill="#F6B7C3" d="M630.746,403.693c-0.476-0.013-0.952-0.025-1.428-0.037
			C629.801,403.392,630.281,403.252,630.746,403.693z"/>
		<path fill-rule="evenodd" clip-rule="evenodd" fill="#FDF8F9" d="M656.23,395.274c0.073,0.068,0.146,0.138,0.221,0.206
			c0.076,0.049,0.113,0.108,0.111,0.178c-0.002,0.075-0.014,0.113-0.033,0.113c-0.157,0.119-0.317,0.129-0.48,0.01
			c-0.095-0.083-0.189-0.167-0.284-0.25C655.92,395.446,656.074,395.36,656.23,395.274z"/>
		<path fill-rule="evenodd" clip-rule="evenodd" fill="#F8CFD7" d="M628.88,409.201c0.394,0.012,0.788,0.024,1.182,0.037
			c-0.021,0.173,0.084,0.411-0.222,0.441C629.641,409.276,629.089,409.582,628.88,409.201z"/>
		<path fill-rule="evenodd" clip-rule="evenodd" fill="#E9395A" d="M623.185,401.079c0.388,0.005,0.776,0.011,1.164,0.016
			c-0.009,0.051-0.015,0.101-0.017,0.152c-0.397,0.198-0.791,0.191-1.18-0.021C623.146,401.173,623.157,401.124,623.185,401.079z"/>
		<path fill-rule="evenodd" clip-rule="evenodd" fill="#EE6781" d="M657.486,400.094c-0.065,0.022-0.133,0.031-0.202,0.026
			c-0.223-0.2-0.051-0.299,0.103-0.403c0.193-0.046,0.364-0.013,0.503,0.139c0.07,0.275,0.033,0.522-0.19,0.72
			C657.629,400.415,657.558,400.254,657.486,400.094z"/>
		<path fill-rule="evenodd" clip-rule="evenodd" fill="#F9D5DC" d="M619.27,401.521c-0.4-0.059-0.868,0.195-1.186-0.253
			C618.432,401.576,618.967,401.004,619.27,401.521z"/>
		<path fill-rule="evenodd" clip-rule="evenodd" fill="#F9D9DF" d="M635.544,401.782c0.454,0.005,0.907,0.009,1.361,0.014
			C636.449,402.094,635.996,402.078,635.544,401.782z"/>
		<path fill-rule="evenodd" clip-rule="evenodd" fill="#FADFE4" d="M634.848,404.057c0.006,0.446,0.013,0.893,0.02,1.338
			C634.552,404.953,634.502,404.508,634.848,404.057z"/>
		<path fill-rule="evenodd" clip-rule="evenodd" fill="#F7C3CD" d="M636.528,403.343c-0.288,0.628-0.824,0.222-1.245,0.298
			C635.627,403.241,636.163,403.649,636.528,403.343z"/>
		<path fill-rule="evenodd" clip-rule="evenodd" fill="#E5143C" d="M633.236,397.435c-0.002-0.397-0.005-0.793-0.008-1.19
			C633.563,396.639,633.559,397.036,633.236,397.435z"/>
		<path fill-rule="evenodd" clip-rule="evenodd" fill="#F4A3B2" d="M654.309,401.262c0.004-0.084,0.007-0.167,0.011-0.251
			c0.023-0.509,0.24-0.7,0.729-0.442l-0.015-0.02C654.901,400.897,654.679,401.154,654.309,401.262z"/>
		<path fill-rule="evenodd" clip-rule="evenodd" fill="#E40832" d="M655.972,399.555c-0.086-0.067-0.172-0.135-0.258-0.202
			c-0.322-0.808-0.752-0.901-1.306-0.198c-0.143,0.181-0.281,0.369-0.49,0.485c-0.11,0.037-0.215,0.023-0.313-0.039
			c0.063-1.541,1.185-2.411,2.146-3.382c0.231,0.059,0.341,0.227,0.398,0.442c0.016,0.101,0.017,0.203,0.011,0.302
			c-0.004,0.328,0.129,0.384,0.385,0.186c0.343-0.335,0.489-0.747,0.495-1.218c0.046-0.225,0.155-0.406,0.357-0.524
			c0.255,0.023,0.509,0.047,0.764,0.071c0.611,0.36,1.34,0.558,1.719,1.24c0.109,0.432-0.368,0.275-0.483,0.482
			c-0.624,0.702-0.762,1.708-1.471,2.357c-0.26-0.202-0.165-0.56-0.353-0.791c-0.105-0.086-0.219-0.157-0.344-0.211
			C656.546,398.556,656.287,399.092,655.972,399.555z"/>
		<path fill-rule="evenodd" clip-rule="evenodd" fill="#E5163D" d="M653.605,399.601c0.065-0.004,0.131-0.006,0.196-0.005
			c0.634,0.219,0.643-0.416,0.916-0.681c0.196-0.19,0.36-0.485,0.668-0.348c0.372,0.166,0.281,0.495,0.15,0.795
			c-0.325,0.335-0.562,0.707-0.487,1.205c-0.34-0.012-0.601,0.106-0.729,0.442C653.216,401.013,653.103,400.789,653.605,399.601z"/>
		<path fill-rule="evenodd" clip-rule="evenodd" fill="#E3032E" d="M656.013,396.678c-0.088-0.153-0.175-0.306-0.262-0.458
			c0.1-0.146,0.198-0.292,0.298-0.438c0.141-0.055,0.281-0.11,0.422-0.165c0.098,0.088,0.154,0.197,0.172,0.327
			C656.576,396.312,656.578,396.739,656.013,396.678z"/>
		<path fill-rule="evenodd" clip-rule="evenodd" fill="#E93F60" d="M616.208,401.044c-0.157,0.415-0.489,0.386-0.793,0.396
			c-0.313,0.011-0.559-0.105-0.51-0.466c0.062-0.448,0.428-0.373,0.73-0.352C615.917,400.643,616.166,400.734,616.208,401.044z"/>
		<path fill-rule="evenodd" clip-rule="evenodd" fill="#E40E37" d="M616.025,399.804c-0.379,0.445-0.795,0.372-1.2,0.184
			c-0.063-0.029-0.087-0.359-0.024-0.406C615.263,399.242,615.645,399.433,616.025,399.804z"/>
		<path fill-rule="evenodd" clip-rule="evenodd" fill="#D2B338" d="M667.281,409.683c-0.151,0.27-0.414,0.228-0.658,0.234
			c-0.338-0.128-0.542-0.315-0.311-0.696c0.005-0.096,0.011-0.19,0.017-0.285c0.322-0.206,0.638-0.123,0.95,0.027
			c-0.001,0.079,0,0.158,0.001,0.237C667.428,409.36,667.428,409.521,667.281,409.683z"/>
		<path fill-rule="evenodd" clip-rule="evenodd" fill="#D8BE72" d="M664.886,409.195c-0.001-0.352,0.19-0.482,0.523-0.479
			c0.508,0.006,0.205,0.527,0.453,0.695c-0.071,0.096-0.164,0.16-0.278,0.193C665.236,409.664,665.043,409.462,664.886,409.195z"/>
		<path fill-rule="evenodd" clip-rule="evenodd" fill="#D4B43B" d="M667.281,409.683c-0.001-0.161-0.001-0.321-0.001-0.482
			c0.247-0.128,0.32-0.515,0.688-0.463c-0.068,0.306-0.146,0.608-0.203,0.916C667.64,410.336,667.439,409.64,667.281,409.683z"/>
		<path fill-rule="evenodd" clip-rule="evenodd" fill="#CEBD99" d="M665.589,409.438c0.091-0.009,0.183-0.018,0.273-0.026
			c0.15-0.064,0.3-0.128,0.45-0.192c0.103,0.232,0.206,0.465,0.31,0.697c-0.353,0.145-0.709,0.114-1.066,0.015
			C665.454,409.76,665.457,409.595,665.589,409.438z"/>
		<path fill-rule="evenodd" clip-rule="evenodd" fill="#CDC59B" d="M667.279,408.963c-0.324,0.257-0.634-0.002-0.95-0.027
			c0.02-0.265,0.138-0.424,0.425-0.439C667.092,408.479,667.254,408.64,667.279,408.963z"/>
		<path fill-rule="evenodd" clip-rule="evenodd" fill="#CFB355" d="M665.589,409.438c-0.011,0.165-0.021,0.329-0.033,0.493
			c-0.226-0.002-0.45-0.005-0.676-0.007c0.002-0.243,0.004-0.486,0.006-0.729C665.12,409.276,665.354,409.357,665.589,409.438z"/>
		<path fill-rule="evenodd" clip-rule="evenodd" fill="#E61E44" d="M659.823,398.638c0.078,0.01,0.157,0.015,0.236,0.012
			c-0.244,0.94-0.838,1.662-1.476,2.355c-0.337-0.713,0.092-1.184,0.523-1.654C659.293,399.06,659.529,398.82,659.823,398.638z"/>
		<path fill-rule="evenodd" clip-rule="evenodd" fill="#E7294E" d="M660.749,399.821c-0.172,0.369-0.278,0.792-0.819,1.032
			c-0.02-0.688,0.271-1.105,0.63-1.493C660.747,399.463,660.677,399.672,660.749,399.821z"/>
		<path fill-rule="evenodd" clip-rule="evenodd" fill="#E3032E" d="M660.749,399.821c-0.063-0.154-0.126-0.307-0.189-0.461
			c0.097-0.151,0.193-0.303,0.289-0.455c0.138,0.007,0.275,0.014,0.412,0.021C661.09,399.225,660.92,399.523,660.749,399.821z"/>
		<path fill-rule="evenodd" clip-rule="evenodd" fill="#E62348" d="M630.792,400.131c0.419,0.014,0.68,0.192,0.691,0.561
			c0.009,0.307-0.218,0.518-0.525,0.546c-0.374,0.035-0.615-0.166-0.632-0.546C630.311,400.358,630.561,400.221,630.792,400.131z"/>
		<path fill-rule="evenodd" clip-rule="evenodd" fill="#E7294D" d="M636.521,407.67c-0.108,0.384-0.317,0.528-0.625,0.491
			c-0.283-0.034-0.533-0.144-0.528-0.492c0.006-0.411,0.334-0.355,0.59-0.377C636.277,407.266,636.443,407.445,636.521,407.67z"/>
		<path fill-rule="evenodd" clip-rule="evenodd" fill="#E62046" d="M651.051,397.921c-0.137,0.537-0.339,1.029-1.127,1.471
			c0.31-0.735,0.205-1.391,1.029-1.501l0.037,0.053L651.051,397.921z"/>
		<path fill-rule="evenodd" clip-rule="evenodd" fill="#E7254A" d="M636.5,404.633c-0.133,0.326-0.208,0.672-0.671,0.688
			c-0.474,0.017-0.619-0.362-0.653-0.653c-0.042-0.365,0.336-0.463,0.653-0.502C636.186,404.121,636.433,404.25,636.5,404.633z"/>
		<path fill-rule="evenodd" clip-rule="evenodd" fill="#E61F45" d="M631.045,408.378c0.005-0.508-0.019-1.009,0.527-0.992
			c0.423,0.014,0.678,0.374,0.651,0.85c-0.026,0.457-0.065,0.932-0.67,0.935C630.911,409.174,631.172,408.599,631.045,408.378z"/>
		<path fill-rule="evenodd" clip-rule="evenodd" fill="#E7274C" d="M625.997,404.652c0.126,0.271,0.166,0.562-0.184,0.646
			c-0.368,0.089-0.8,0.16-1.118-0.074c-0.254-0.188-0.156-0.477,0.12-0.654C625.213,404.536,625.618,404.416,625.997,404.652z"/>
		<path fill-rule="evenodd" clip-rule="evenodd" fill="#E72B4F" d="M625.985,403.478c-0.067,0.815-0.687,0.687-1.146,0.567
			c-0.461-0.119-0.323-0.448-0.018-0.692C625.211,403.368,625.624,403.178,625.985,403.478z"/>
		<path fill-rule="evenodd" clip-rule="evenodd" fill="#FBEDF0" d="M625.985,403.478c-0.388-0.042-0.776-0.083-1.164-0.125
			c0.374-0.283,0.817-0.098,1.221-0.18l-0.011-0.011C626.016,403.267,626,403.372,625.985,403.478z"/>
		<path fill-rule="evenodd" clip-rule="evenodd" fill="#FBEDF0" d="M625.997,404.652c-0.394-0.027-0.788-0.055-1.182-0.082
			C625.228,404.325,625.628,404.258,625.997,404.652z"/>
		<path fill-rule="evenodd" clip-rule="evenodd" fill="#E72A4E" d="M628.983,397.029c0.201-0.012,0.381,0.049,0.404,0.216
			c0.035,0.266-0.252,0.235-0.4,0.322c-0.183,0.107-0.295,0.021-0.308-0.19C628.666,397.144,628.723,396.978,628.983,397.029z"/>
		<path fill-rule="evenodd" clip-rule="evenodd" fill="#E72449" d="M632.481,392.866c0.001,0.361-0.157,0.624-0.528,0.636
			c-0.361,0.011-0.579-0.237-0.6-0.584c-0.024-0.403,0.246-0.521,0.607-0.517C632.279,392.405,632.489,392.509,632.481,392.866z"/>
		<path fill-rule="evenodd" clip-rule="evenodd" fill="#F395A7" d="M657.711,398.422c0.658,0.268,0.112,0.763,0.215,1.136
			c-0.013,0.1-0.024,0.199-0.036,0.298c-0.178-0.003-0.354-0.006-0.531-0.009c-0.061-0.102-0.091-0.212-0.095-0.331
			C657.337,399.121,657.381,398.713,657.711,398.422z"/>
		<path fill-rule="evenodd" clip-rule="evenodd" fill="#FBE5EA" d="M659.396,397.201c0.004-0.318,0.358-0.285,0.483-0.482
			c0.234-0.076,0.47-0.151,0.704-0.226c-0.242,0.325-0.485,0.649-0.729,0.975C659.765,397.271,659.598,397.208,659.396,397.201z"/>
		<path fill-rule="evenodd" clip-rule="evenodd" fill="#EF728A" d="M659.823,398.638c-0.137,0.34-0.357,0.596-0.716,0.713
			c0.083-0.235-0.044-0.524,0.188-0.72C659.472,398.633,659.647,398.636,659.823,398.638z"/>
		<path fill-rule="evenodd" clip-rule="evenodd" fill="#E72D51" d="M628.39,401.164c-0.197,0.456-0.51,0.389-0.837,0.221
			c-0.044-0.023-0.083-0.169-0.059-0.192C627.773,400.917,628.07,400.961,628.39,401.164z"/>
		<path fill-rule="evenodd" clip-rule="evenodd" fill="#E5153D" d="M632.241,396.207c0.468,0.323,0.383,0.749,0.222,1.189
			c-0.397,0.089-0.804,0.125-0.918-0.381C631.424,396.48,631.74,396.245,632.241,396.207z"/>
		<path fill-rule="evenodd" clip-rule="evenodd" fill="#E7264A" d="M622.157,397.505c-0.141-0.077-0.283-0.155-0.424-0.232
			c0.257-0.156,0.557-0.459,0.791-0.076C622.669,397.437,622.305,397.422,622.157,397.505z"/>
		<path fill-rule="evenodd" clip-rule="evenodd" fill="#E72B4F" d="M657.389,399.591c-0.01,0.085-0.02,0.17-0.029,0.255
			c-0.036,0.058-0.079,0.112-0.104,0.173c-0.011,0.026,0.017,0.066,0.028,0.101c-0.269,0.284-0.538,0.569-0.807,0.854
			c-0.688-0.821,0.2-1.12,0.531-1.604C657.203,399.328,657.332,399.396,657.389,399.591z"/>
		<path fill-rule="evenodd" clip-rule="evenodd" fill="#E83255" d="M657.389,399.591c-0.127-0.074-0.253-0.147-0.38-0.22
			c-0.18-0.34,0.195-0.53,0.221-0.815c0.123-0.179,0.31-0.131,0.481-0.134C657.668,398.83,657.764,399.275,657.389,399.591z"/>
		<path fill-rule="evenodd" clip-rule="evenodd" fill="#E94060" d="M633.922,400.031c0.188,0.135,0.557,0.185,0.257,0.549
			c-0.249,0.073-0.498,0.146-0.746,0.22C633.243,400.319,633.447,400.089,633.922,400.031z"/>
		<path fill-rule="evenodd" clip-rule="evenodd" fill="#E83658" d="M623.864,400.584c-0.23,0.061-0.461,0.121-0.691,0.182
			c-0.095-0.426,0.074-0.688,0.509-0.665C623.979,400.116,624.227,400.264,623.864,400.584z"/>
		<path fill-rule="evenodd" clip-rule="evenodd" fill="#E50F38" d="M635.834,396.207c0.233,0.027,0.466,0.055,0.699,0.082
			c-0.059,0.682-0.592,0.396-0.861,0.323C635.458,396.553,635.75,396.343,635.834,396.207z"/>
		<path fill-rule="evenodd" clip-rule="evenodd" fill="#E94060" d="M618.811,400.617c-0.243,0.1-0.454,0.329-0.757,0.188
			c-0.146-0.465,0.021-0.725,0.508-0.773C618.758,400.178,619.146,400.244,618.811,400.617z"/>
		<path fill-rule="evenodd" clip-rule="evenodd" fill="#EB526F" d="M633.672,393.564c0.233-0.134,0.466-0.268,0.699-0.401
			c0.157-0.017,0.328-0.015,0.367,0.167c0.04,0.186-0.105,0.264-0.27,0.263C634.203,393.592,633.938,393.575,633.672,393.564z"/>
		<path fill-rule="evenodd" clip-rule="evenodd" fill="#E3032E" d="M647.289,397.871c-0.392-0.066-0.424-0.359-0.424-0.673
			C647.703,396.983,647.354,397.517,647.289,397.871z"/>
		<path fill-rule="evenodd" clip-rule="evenodd" fill="#F5A7B6" d="M656.505,395.959c-0.012-0.114-0.022-0.228-0.034-0.342
			c-0.049-0.039-0.056-0.084-0.02-0.136c0.313-0.064,0.604-0.387,0.946-0.073c-0.067,0.194-0.135,0.389-0.202,0.583
			C656.955,396.195,656.724,396.211,656.505,395.959z"/>
		<path fill-rule="evenodd" clip-rule="evenodd" fill="#F6B7C3" d="M655.536,399.363c-0.039-0.191-0.015-0.455-0.132-0.558
			c-0.199-0.175-0.349,0.066-0.45,0.216c-0.22,0.326-0.329,0.714-0.687,0.961c-0.68,0.47-0.314-0.257-0.466-0.386
			c0.187-0.286,0.339-0.602,0.566-0.85c0.288-0.314,0.654-0.63,1.112-0.424c0.466,0.209,0.275,0.657,0.233,1.031
			C655.654,399.351,655.596,399.354,655.536,399.363z"/>
		<path fill-rule="evenodd" clip-rule="evenodd" fill="#E5183F" d="M656.505,395.959c0.229,0.011,0.46,0.022,0.69,0.032
			c0.387,0.688-0.311,1.009-0.509,1.499c-0.426,0.107-0.704,0.009-0.694-0.495c0.007-0.105,0.014-0.211,0.02-0.317
			C656.177,396.438,656.341,396.199,656.505,395.959z"/>
		<path fill-rule="evenodd" clip-rule="evenodd" fill="#F4A1B1" d="M655.992,396.995c0.139,0.295,0.369,0.461,0.694,0.495
			c-0.234,0.266-0.542,0.342-0.801,0.121C655.67,397.427,655.638,397.146,655.992,396.995z"/>
	</g>
</g>
</svg>
