<?xml version="1.0" encoding="utf-8"?>
<!-- Generator: Adobe Illustrator 16.0.0, SVG Export Plug-In . SVG Version: 6.00 Build 0)  -->
<!DOCTYPE svg PUBLIC "-//W3C//DTD SVG 1.1//EN" "http://www.w3.org/Graphics/SVG/1.1/DTD/svg11.dtd">
<svg version="1.1" id="Layer_1" xmlns="http://www.w3.org/2000/svg" xmlns:xlink="http://www.w3.org/1999/xlink" x="0px" y="0px"
	 width="1280px" height="800px" viewBox="0 0 1280 800" enable-background="new 0 0 1280 800" xml:space="preserve">
<g>
	<g>
		<path fill-rule="evenodd" clip-rule="evenodd" fill="#302F51" d="M608.48,384.24c21.44,0,42.879,0,64.32,0
			c0.191,0.292,0.115,0.621,0.115,0.934c0.004,10.142,0.004,20.284,0.002,30.427c0,0.277,0.037,0.56-0.08,0.827
			c-0.384,0.311-0.842,0.207-1.271,0.207c-20.592,0.006-41.183,0.006-61.774,0.003c-1.426,0-1.43-0.009-1.431-1.355
			c-0.001-9.996-0.001-19.992,0.003-29.987C608.365,384.943,608.276,384.573,608.48,384.24z"/>
		<path fill-rule="evenodd" clip-rule="evenodd" fill="#3B3A5B" d="M608.48,384.24c0,10.194,0,20.388,0,30.582
			c0,1.574,0.004,1.578,1.593,1.578c20.908,0,41.816-0.002,62.723-0.002c0.082-0.159,0.163-0.158,0.243,0.002
			c0,0.079,0,0.159,0,0.239c-0.414,0.226-0.863,0.114-1.294,0.114c-20.737,0.007-41.475,0.007-62.212,0
			c-0.431,0-0.879,0.111-1.293-0.114c0-10.481-0.003-20.963,0.014-31.444C608.255,384.886,607.986,384.455,608.48,384.24z"/>
		<path fill-rule="evenodd" clip-rule="evenodd" fill="#FEFEFE" d="M608.24,416.64c21.6,0,43.199,0,64.8,0
			c0.037,0.473-0.328,0.229-0.479,0.229c-21.281,0.013-42.562,0.013-63.843,0C608.568,416.868,608.203,417.112,608.24,416.64z"/>
		<path fill-rule="evenodd" clip-rule="evenodd" fill="#383758" d="M673.04,416.4c-0.081-0.001-0.162-0.002-0.243-0.002
			c0.001-10.72,0.002-21.439,0.003-32.158c0.496,0.216,0.225,0.648,0.226,0.96C673.043,395.6,673.04,406,673.04,416.4z"/>
		<path fill-rule="evenodd" clip-rule="evenodd" fill="#F7F7F8" d="M629.089,398.411c-0.496-0.167-0.773,0.295-1.292,0.473
			c0.246-0.917-0.333-1.998,0.822-2.512c0.731-0.326,0.356,0.632,0.848,0.789c0.22-0.331,0.457-1.246,0.602-1.007
			c0.598,0.982,1.38-0.057,1.928,0.338c0.855,0.615,0.352,1.508,0.474,2.319c-1.478-0.77-1.478-0.77-1.645,0.77
			c-0.188,0.239-0.469,0.147-0.709,0.205c-0.21,0.01-0.413-0.007-0.563-0.184c0.008-0.138,0.017-0.276,0.025-0.414
			C629.214,399.055,629.23,398.683,629.089,398.411z"/>
		<path fill-rule="evenodd" clip-rule="evenodd" fill="#9493A5" d="M641.205,407.593c0-4.774,0-9.55,0-14.324
			c0.067,0,0.136,0,0.203-0.001c0,4.775,0,9.55,0,14.325C641.341,407.593,641.272,407.593,641.205,407.593z"/>
		<path fill-rule="evenodd" clip-rule="evenodd" fill="#CC5548" d="M629.553,399.601c0.179-0.077,0.358-0.153,0.538-0.23
			c0.405-0.16,0.521,0.608,0.971,0.302c0.838,0.172,1.657,0.396,2.374,0.891c0.019,0.443-0.217,0.383-0.491,0.249
			c-1.904-0.602-3.803-0.513-5.697,0.052c-0.262,0.052-0.339-0.071-0.293-0.31C627.716,399.953,628.666,399.861,629.553,399.601z"/>
		<path fill-rule="evenodd" clip-rule="evenodd" fill="#CAB150" d="M669.122,411.832c-0.679,0.925-1.504,1.16-2.144,0.509
			c-0.604-0.615-0.89-1.337,0.039-1.976c0.293,0.092,0.57,0.21,0.765,0.463c0.085,0.111,0.167,0.227,0.259,0.33
			c0.121,0.147,0.293,0.161,0.468,0.173c0.096,0.005,0.187,0.026,0.276,0.058C668.977,411.477,669.077,411.634,669.122,411.832z"/>
		<path fill-rule="evenodd" clip-rule="evenodd" fill="#E4E4E8" d="M638.013,403.638c0.207,0.137,0.617-0.096,0.653,0.334
			c0.017,0.202-0.177,0.25-0.333,0.235c-0.368-0.035-0.929,0.232-1.046-0.247c-0.146-0.597-0.27-1.329,0.072-1.853
			c0.245-0.376,0.849-0.175,1.303-0.097c0.033,0.494-0.319,0.402-0.562,0.456c-0.145,0.032-0.363,0.05-0.169,0.25
			c0.079,0.081,0.297,0.026,0.453,0.033c0.374,0.235,0.235,0.418-0.072,0.551C638.147,403.371,637.911,403.345,638.013,403.638z"/>
		<path fill-rule="evenodd" clip-rule="evenodd" fill="#E8E8EC" d="M631.74,403c0.06,0.612,0.164,1.23-0.774,1.251
			c-0.819,0.018-1.34-0.377-1.346-1.154c-0.004-0.669,0.337-1.229,1.192-1.115c0.231,0.03,0.468,0.026,0.702,0.038
			c0.131,0.534-0.406,0.501-0.615,0.729C631.15,402.945,631.569,402.576,631.74,403z"/>
		<path fill-rule="evenodd" clip-rule="evenodd" fill="#C7C6CF" d="M647.133,395.959c-0.515,0.012-0.516,0.379-0.524,0.749
			c-0.006,0.24-0.032,0.534-0.349,0.493c-0.295-0.039-0.243-0.35-0.279-0.579c-0.071-0.445,0.202-0.967-0.284-1.322
			c-0.063-0.049-0.086-0.1-0.07-0.155c0.016-0.056,0.033-0.084,0.052-0.084c0.66-0.506,0.908,0.047,1.207,0.469
			C647.015,395.646,647.232,395.711,647.133,395.959z"/>
		<path fill-rule="evenodd" clip-rule="evenodd" fill="#F3F2F4" d="M653.839,400.31c-0.862-0.658-0.23-1.485-0.261-2.293
			c0.232,0.71,1.18,0.365,1.386,1.049c-0.021,0.108-0.069,0.202-0.146,0.282c-0.343,0.116-0.409,0.453-0.569,0.716
			C654.132,400.177,653.965,400.208,653.839,400.31z"/>
		<path fill-rule="evenodd" clip-rule="evenodd" fill="#41405F" d="M631.74,403c-0.189,0.021-0.539,0.027-0.542,0.065
			c-0.03,0.33,0.101,0.762-0.384,0.808c-0.329,0.031-0.539-0.315-0.677-0.58c-0.224-0.431,0.193-0.608,0.429-0.846
			c0.355-0.226,0.926,0.127,1.158-0.431C632.146,402.338,631.868,402.67,631.74,403z"/>
		<path fill-rule="evenodd" clip-rule="evenodd" fill="#E1E1E6" d="M623.631,403.936c-1.144,0.514-1.306,0.46-1.27-0.733
			c0.013-0.412-0.646-0.996,0.046-1.214c0.552-0.174,1.292-0.247,1.688,0.483c-0.019,0.159-0.092,0.287-0.221,0.382
			c-0.14,0.102-0.327,0.104-0.46,0.213c-0.038,0.063-0.054,0.13-0.039,0.203c0.052,0.104,0.125,0.192,0.178,0.295
			C623.613,403.682,623.615,403.81,623.631,403.936z"/>
		<path fill-rule="evenodd" clip-rule="evenodd" fill="#EDEDEF" d="M628.88,402.014c0.69,0.594,0.198,1.328,0.347,2.276
			c-0.57-0.453-0.945-0.751-1.319-1.048c-0.743-0.013-0.083,0.715-0.469,0.891c-0.679-0.53-0.144-1.203-0.325-1.973
			c0.535,0.354,0.916,0.604,1.295,0.856C629.103,402.935,628.525,402.255,628.88,402.014z"/>
		<path fill-rule="evenodd" clip-rule="evenodd" fill="#EEEEF1" d="M652.386,396.515c-0.844-0.508-0.485,0.51-0.888,0.715
			c-0.462-0.644-0.239-1.343-0.197-1.986c0.022-0.33,0.374-0.249,0.521-0.045c0.229,0.316,0.393,0.68,0.584,1.024
			C652.484,396.325,652.481,396.423,652.386,396.515z"/>
		<path fill-rule="evenodd" clip-rule="evenodd" fill="#D1D1D8" d="M645.678,395.061c0.002,0.08,0.008,0.159,0.019,0.239
			l0.004-0.006c-0.444,0.097-0.668,0.328-0.634,0.826c0.024,0.341,0.12,0.714-0.11,1.039c-0.563,0.144-0.463-0.288-0.459-0.57
			c0.01-0.589,0.048-1.17-0.966-1.412C644.455,394.888,645.064,394.918,645.678,395.061z"/>
		<path fill-rule="evenodd" clip-rule="evenodd" fill="#FBFBFB" d="M636.618,401.993c-0.814,0.617-0.344,1.509-0.761,2.281
			c-0.661-0.637,0.179-1.872-1.307-2.06C635.378,401.852,635.913,401.984,636.618,401.993z"/>
		<path fill-rule="evenodd" clip-rule="evenodd" fill="#EEEEF0" d="M652.41,402.248c0.045-0.73,1.111-0.257,1.159-0.983
			c0.076,0.016,0.205,0.011,0.219,0.048c0.207,0.568,0.088,1.16,0.094,1.741c0.005,0.579-0.428,0.412-0.759,0.397
			c-0.09-0.065-0.155-0.151-0.196-0.256c0.023-0.365-0.179-0.602-0.453-0.797C652.452,402.348,652.432,402.298,652.41,402.248z"/>
		<path fill-rule="evenodd" clip-rule="evenodd" fill="#AFAFBC" d="M656.482,399.836c-0.163,0.158-0.326,0.315-0.49,0.473
			c-0.222-0.555-0.078-1.108-0.098-1.541c-0.15,0.402,0.139,0.999-0.117,1.521c-0.285-0.186-0.263-0.497-0.225-0.751
			c0.08-0.524-0.275-1.366,0.291-1.509c0.729-0.183,0.092,0.911,0.646,1.115C656.706,399.377,656.686,399.608,656.482,399.836z"/>
		<path fill-rule="evenodd" clip-rule="evenodd" fill="#DFDFE4" d="M648.687,406.882c-0.62-0.778-0.033-1.701-0.681-2.259
			c-0.063-0.054,0.201-0.184,0.354-0.192c0.257-0.013,0.482,0.056,0.484,0.363C648.846,405.425,648.971,406.072,648.687,406.882z"/>
		<path fill-rule="evenodd" clip-rule="evenodd" fill="#FCFCFC" d="M625.811,402.972c0.248,0.26,0.588,0.456,0.601,0.903
			c-0.563,0.247-1.295-0.572-1.859,0.611c-0.041-0.839,0.206-1.192,0.443-1.549C625.275,402.769,625.549,402.719,625.811,402.972z"
			/>
		<path fill-rule="evenodd" clip-rule="evenodd" fill="#E2E2E6" d="M646.777,403.53c-0.587-1.372-0.427-1.68,1.035-1.538
			C646.889,402.266,647.258,403.1,646.777,403.53z"/>
		<path fill-rule="evenodd" clip-rule="evenodd" fill="#DADAE0" d="M656.226,396.2c0.079-0.068,0.158-0.136,0.238-0.205
			c0.074-0.079,0.164-0.126,0.273-0.136c0.237,0.011,0.37,0.185,0.517,0.335c0.535,0.076,0.524,0.559,0.374,0.8
			c-0.329,0.526-0.897,0.225-1.376,0.201c-0.192-0.229,0.03-0.527-0.129-0.763C656.114,396.336,656.149,396.258,656.226,396.2z"/>
		<path fill-rule="evenodd" clip-rule="evenodd" fill="#E2E1E6" d="M650.95,400.315c-0.58-0.035-1.22,0.369-1.723-0.235
			c-0.079-0.162-0.075-0.325-0.003-0.489c0.287-0.152,0.403,0.063,0.533,0.249c0.612,0.287,0.671-0.115,0.693-0.559
			c0.017-0.313-0.053-0.687,0.468-0.62C651.354,399.205,651.475,399.754,650.95,400.315z"/>
		<path fill-rule="evenodd" clip-rule="evenodd" fill="#D2B53D" d="M667.53,411.146c-0.19-0.247-0.479-0.43-0.513-0.78
			c0.054-0.08,0.107-0.159,0.161-0.239c0.44-0.086,0.884-0.217,1.301,0.079c0.144,0.144,0.288,0.287,0.433,0.431
			c0.235,0.183,0.17,0.368,0.006,0.555C668.452,411.302,667.986,411.377,667.53,411.146z"/>
		<path fill-rule="evenodd" clip-rule="evenodd" fill="#CFCED6" d="M644.24,403.438c-0.473-0.632-0.391-1.436-0.084-1.953
			c0.273-0.459,1.043-0.311,1.585-0.001c-0.035,0.218-0.025,0.45-0.206,0.618c-0.201,0.183-0.472,0.205-0.707,0.306
			C644.502,402.678,644.632,403.209,644.24,403.438z"/>
		<path fill-rule="evenodd" clip-rule="evenodd" fill="#F3F3F5" d="M652.408,398.897c0.945,0.079,0.669,0.904,0.487,1.207
			c-0.251,0.42-0.848,0.451-1.282-0.001c-0.147-0.216-0.072-0.426,0.013-0.637C651.777,399.125,652.186,399.139,652.408,398.897z"/>
		<path fill-rule="evenodd" clip-rule="evenodd" fill="#E2E2E7" d="M657.878,395.724c0.166-0.278,0.35-0.575,0.73-0.403
			c0.38,0.172,0.298,0.475,0.168,0.802c-0.158,0.397-0.084,0.76,0.54,0.956c-1.414,0.49-0.968-0.748-1.382-1.1
			C657.769,395.926,657.749,395.841,657.878,395.724z"/>
		<path fill-rule="evenodd" clip-rule="evenodd" fill="#EEEEF1" d="M650.662,404.659c0.431,0.611,0.817,1.218-0.188,1.667
			l0.021,0.025c0.06-0.791-0.828-0.279-1.012-0.735c0.026-0.148,0.053-0.298,0.139-0.428c0.179-0.173,0.314-0.388,0.511-0.547
			C650.313,404.568,650.494,404.423,650.662,404.659z"/>
		<path fill-rule="evenodd" clip-rule="evenodd" fill="#F0EFF2" d="M645.006,405.859c-0.421,0.748,0.602,0.213,0.542,0.722
			c-0.533,0.218-1.248,0.421-1.621-0.044c-0.253-0.314,0.438-0.684,0.779-0.967C644.872,405.598,644.968,405.699,645.006,405.859z"
			/>
		<path fill-rule="evenodd" clip-rule="evenodd" fill="#ECECEF" d="M647.121,398.915c0.43-0.123,0.731,0.013,0.689,0.481
			c-0.029,0.329,0.352,0.936-0.45,0.897c-0.288-0.284-0.967-0.272-0.73-0.957c0.011-0.072,0.014-0.145,0.009-0.217
			C646.75,398.935,646.985,399.042,647.121,398.915z"/>
		<path fill-rule="evenodd" clip-rule="evenodd" fill="#F3F3F5" d="M649.04,403.428c-0.418,0.12-0.882,0.248-1.098-0.264
			c-0.352-0.835,0.799-0.384,0.835-0.916c0.122-0.096,0.235-0.087,0.34,0.028C649.15,402.664,649.255,403.057,649.04,403.428z"/>
		<path fill-rule="evenodd" clip-rule="evenodd" fill="#FAFAFB" d="M632.724,402.036c1.432-0.096,1.691,0.122,1.676,1.404
			c-0.304,0.154-0.514-0.06-0.747-0.188c-0.334-0.269-0.79-0.372-1.037-0.759C632.6,402.329,632.577,402.162,632.724,402.036z"/>
		<path fill-rule="evenodd" clip-rule="evenodd" fill="#F8F8F9" d="M651.445,403.451c-0.432-0.049-0.264-0.395-0.301-0.629
			s-0.053-0.49-0.335-0.536c-0.381-0.062-0.365,0.33-0.528,0.518c-0.279-0.272-0.249-0.556-0.027-0.845
			c0.399-0.125,0.804-0.324,1.166,0.081C651.641,402.507,651.877,402.973,651.445,403.451z"/>
		<path fill-rule="evenodd" clip-rule="evenodd" fill="#555470" d="M651.888,399.63c-0.092,0.157-0.183,0.315-0.274,0.472
			c-0.221,0.07-0.441,0.142-0.663,0.213c-0.011-0.551-0.021-1.103-0.031-1.654c0.163,0.069,0.327,0.138,0.49,0.207
			C651.74,399.015,651.733,399.374,651.888,399.63z"/>
		<path fill-rule="evenodd" clip-rule="evenodd" fill="#6C6B83" d="M649.762,396.24c0.235,0.85-0.438,0.829-0.936,0.976
			c-0.248-0.326-0.349-0.666-0.098-1.039C649.091,395.902,649.433,395.971,649.762,396.24z"/>
		<path fill-rule="evenodd" clip-rule="evenodd" fill="#F3F3F5" d="M644.24,403.438c0.185-0.517-0.38-1.172,0.299-1.596
			c0.102,0.232,0.342,0.351,0.467,0.564c0.079,0.307,0.344,0.438,0.577,0.601c0.104,0.121,0.171,0.252,0.091,0.414
			C645.197,403.542,644.72,403.554,644.24,403.438z"/>
		<path fill-rule="evenodd" clip-rule="evenodd" fill="#EAEAED" d="M632.724,402.036c0.007,0.171,0.015,0.341,0.022,0.511
			c0.394,0.317,0.562,0.708,0.393,1.208c-0.109,0.172-0.235,0.307-0.463,0.184C631.929,403.285,632.021,402.653,632.724,402.036z"/>
		<path fill-rule="evenodd" clip-rule="evenodd" fill="#D4D3DA" d="M645.674,403.422c-0.076-0.073-0.152-0.146-0.229-0.219
			c-0.186-0.244-0.649-0.281-0.549-0.738c0.123-0.218,0.36-0.244,0.559-0.335c0.175-0.068,0.325-0.033,0.448,0.109
			C646.009,402.668,646.558,403.184,645.674,403.422z"/>
		<path fill-rule="evenodd" clip-rule="evenodd" fill="#E8E8EC" d="M646.63,399.337c0.148,0.391,0.671,0.498,0.73,0.957
			c-0.409,0.095-0.891,0.287-1.158-0.15C645.981,399.782,646.281,399.501,646.63,399.337z"/>
		<path fill-rule="evenodd" clip-rule="evenodd" fill="#F0EFF2" d="M653.12,403.208c0.001,0.081,0.002,0.162,0.003,0.243
			c-0.319,0.259-0.627-0.024-0.941-0.02c-0.299-0.255-0.58-0.516-0.309-0.954c0.091-0.284,0.309-0.269,0.537-0.229l-0.023-0.021
			C652.663,402.53,653.044,402.755,653.12,403.208z"/>
		<path fill-rule="evenodd" clip-rule="evenodd" fill="#E9E9ED" d="M648.806,396.259c0.007,0.319,0.014,0.638,0.021,0.957
			c-0.999-0.321-0.926-0.835-0.263-1.456C649.006,395.75,648.939,395.988,648.806,396.259z"/>
		<path fill-rule="evenodd" clip-rule="evenodd" fill="#E3E3E7" d="M656.482,399.836c0.003-0.231,0.006-0.461,0.008-0.691
			c0.215-0.191,0.345-0.511,0.712-0.472c0.204,0.189,0.412,0.377,0.416,0.688c-0.01,0.311-0.186,0.512-0.44,0.659
			c-0.141,0.075-0.28,0.166-0.444,0.055C656.649,399.995,656.565,399.915,656.482,399.836z"/>
		<path fill-rule="evenodd" clip-rule="evenodd" fill="#FBFBFB" d="M623.631,403.936c-0.088-0.076-0.177-0.152-0.266-0.229
			c-0.05-0.39,0.054-0.708,0.42-0.904c0.103-0.11,0.206-0.221,0.309-0.331C624.605,403.171,624.305,403.612,623.631,403.936z"/>
		<path fill-rule="evenodd" clip-rule="evenodd" fill="#FAFAFB" d="M646.393,406.589c-0.816-0.645-0.736-1.311-0.049-1.992
			c0.19-0.103,0.306,0.003,0.407,0.146c0.05,0.547,0.047,1.09-0.118,1.623C646.575,406.464,646.494,406.537,646.393,406.589z"/>
		<path fill-rule="evenodd" clip-rule="evenodd" fill="#D5D5DB" d="M644.47,399.62c-0.051-0.058-0.14-0.112-0.146-0.174
			c-0.044-0.441-0.797-1.002-0.228-1.225c0.521-0.204,0.546,0.65,0.707,1.09C644.755,399.482,644.646,399.588,644.47,399.62z"/>
		<path fill-rule="evenodd" clip-rule="evenodd" fill="#ECECEE" d="M657.456,399.368c-0.225-0.181-0.253-0.434-0.254-0.696
			c0.565-0.122,0.96,0.014,1.007,0.671C657.978,399.952,657.722,399.798,657.456,399.368z"/>
		<path fill-rule="evenodd" clip-rule="evenodd" fill="#EFEFF1" d="M647.33,404.772c0.705,0.419,0.533,0.966,0.223,1.533
			c-0.304,0.061-0.433-0.138-0.543-0.365c-0.186-0.347-0.222-0.695-0.006-1.044C647.093,404.804,647.202,404.763,647.33,404.772z"/>
		<path fill-rule="evenodd" clip-rule="evenodd" fill="#FDFDFD" d="M650.254,401.959c0.01,0.282,0.019,0.563,0.027,0.845
			c0.058,0.225,0.158,0.525-0.109,0.606c-0.334,0.103-0.368-0.244-0.316-0.439C649.947,402.623,649.51,402.047,650.254,401.959z"/>
		<path fill-rule="evenodd" clip-rule="evenodd" fill="#DFDFE4" d="M625.811,402.972c-0.271-0.012-0.543-0.023-0.815-0.034
			c0.141-0.358,0.104-0.885,0.649-0.87C625.727,402.069,626.283,402.564,625.811,402.972z"/>
		<path fill-rule="evenodd" clip-rule="evenodd" fill="#F3F3F5" d="M648.806,396.259c-0.081-0.166-0.161-0.332-0.242-0.499
			c0.627-0.408,1.138-0.527,1.198,0.48C649.443,396.247,649.125,396.252,648.806,396.259z"/>
		<path fill-rule="evenodd" clip-rule="evenodd" fill="#D7D7DD" d="M654.8,397.198c-0.223,0.032-0.433,0.031-0.541-0.219
			c-0.574-0.432-0.585-0.841,0.047-1.227c0.053-0.021,0.106-0.034,0.163-0.036c0.174-0.077,0.313-0.019,0.437,0.109
			c0.172,0.301,0.146,0.634,0.153,0.962C655.025,396.958,654.919,397.082,654.8,397.198z"/>
		<path fill-rule="evenodd" clip-rule="evenodd" fill="#76768C" d="M657.456,399.368c0.253,0.063,0.517,0.439,0.753-0.024
			c0.177,0.277,0.026,0.521-0.081,0.768c-0.44,0.088-0.92,0.293-1.123-0.359C657.155,399.624,657.306,399.496,657.456,399.368z"/>
		<path fill-rule="evenodd" clip-rule="evenodd" fill="#E7E7EB" d="M644.47,399.62c0.111-0.103,0.223-0.206,0.334-0.309
			c0.118,0.074,0.237,0.147,0.355,0.221c0.179,0.023,0.202,0.177,0.259,0.304c0.037,0.345-0.12,0.563-0.464,0.507
			C644.578,400.282,644.521,399.937,644.47,399.62z"/>
		<path fill-rule="evenodd" clip-rule="evenodd" fill="#484765" d="M654.306,395.752c-0.201,0.402-0.169,0.813-0.047,1.227
			c-0.146,0.07-0.293,0.141-0.439,0.211c-0.273-0.717-0.527-1.433,0.011-2.146C653.988,395.28,654.147,395.517,654.306,395.752z"/>
		<path fill-rule="evenodd" clip-rule="evenodd" fill="#EFEFF1" d="M629.089,398.411c0.281,0.184,0.4,0.471,0.49,0.776
			c-0.331,0.057-0.659,0.262-1.011-0.001C628.515,398.782,629.088,398.78,629.089,398.411z"/>
		<path fill-rule="evenodd" clip-rule="evenodd" fill="#B3B3BF" d="M651.888,399.63c-0.576,0.007-0.396-0.459-0.479-0.762
			c0.34-0.226,0.665,0.048,0.999,0.029C652.428,399.278,652.038,399.37,651.888,399.63z"/>
		<path fill-rule="evenodd" clip-rule="evenodd" fill="#C7C6CF" d="M648.343,398.171c0.107-0.278,0.376-0.221,0.387-0.043
			c0.046,0.729,0.333,1.493-0.174,2.181C648.251,399.62,648.615,398.863,648.343,398.171z"/>
		<path fill-rule="evenodd" clip-rule="evenodd" fill="#DBDBE1" d="M653.83,395.044c-0.004,0.715-0.007,1.431-0.011,2.146
			c-0.199,0.02-0.439,0.114-0.44-0.237c0.227-0.36,0.031-0.697-0.059-1.04c0.006-0.314,0.092-0.603,0.277-0.858
			C653.675,395.052,653.752,395.048,653.83,395.044z"/>
		<path fill-rule="evenodd" clip-rule="evenodd" fill="#C7C6CF" d="M644.956,397.158c0.214-0.635-0.563-1.666,0.744-1.864
			C644.727,395.626,645.385,396.608,644.956,397.158z"/>
		<path fill-rule="evenodd" clip-rule="evenodd" fill="#F5F5F6" d="M647.133,395.959c-0.082-0.143-0.165-0.286-0.248-0.429
			c0.328-0.157,0.48,0.148,0.704,0.267c0.207,0.458,0.202,0.917,0.003,1.377C647.029,396.924,647.546,396.266,647.133,395.959z"/>
		<path fill-rule="evenodd" clip-rule="evenodd" fill="#E4E4E8" d="M647.317,405.768c0.079,0.18,0.157,0.358,0.235,0.538
			c-0.295,0.468-0.658,0.66-1.16,0.283c0.024-0.125,0.048-0.25,0.071-0.375C646.723,406.015,646.896,405.655,647.317,405.768z"/>
		<path fill-rule="evenodd" clip-rule="evenodd" fill="#F7F7F8" d="M645.006,405.859c-0.1-0.097-0.199-0.193-0.3-0.289
			c0.084-0.216,0.358-0.365,0.231-0.655c-0.076-0.216-0.01-0.308,0.222-0.257C645.651,405.128,645.574,405.525,645.006,405.859z"/>
		<path fill-rule="evenodd" clip-rule="evenodd" fill="#D0D0D7" d="M654.797,395.961c-0.109-0.082-0.219-0.163-0.328-0.245
			c0.449-0.345,0.884-0.472,1.272,0.086c0.045,0.236-0.103,0.339-0.287,0.416C655.183,396.266,654.947,396.223,654.797,395.961z"/>
		<path fill-rule="evenodd" clip-rule="evenodd" fill="#EFEEF2" d="M648.343,398.171c0.432,0.676,0.14,1.426,0.213,2.138
			C648.009,399.644,648.37,398.888,648.343,398.171z"/>
		<path fill-rule="evenodd" clip-rule="evenodd" fill="#ECECEF" d="M649.029,402.258c-0.084-0.003-0.168-0.007-0.252-0.01
			c-0.29-0.057-0.607,0.124-0.929-0.136c0.388-0.37,0.758-0.483,1.188-0.103c0.077,0.058,0.102,0.113,0.073,0.168
			C649.083,402.231,649.056,402.258,649.029,402.258z"/>
		<path fill-rule="evenodd" clip-rule="evenodd" fill="#DDDCE2" d="M655.469,396.017c0.091-0.071,0.182-0.143,0.272-0.215
			c0.161,0.132,0.323,0.265,0.484,0.397c0.005,0.086,0.009,0.173,0.014,0.259c-0.024,0.314-0.101,0.583-0.5,0.565
			c-0.177-0.059-0.319-0.159-0.406-0.329C655.242,396.442,655.302,396.219,655.469,396.017z"/>
		<path fill-rule="evenodd" clip-rule="evenodd" fill="#EBEBEE" d="M653.597,395.998c-0.006,0.334,0.048,0.681-0.218,0.956
			c-0.103-0.287,0.096-0.774-0.491-0.741l0.023,0.024c-0.113-0.291-0.033-0.523,0.214-0.705
			C653.389,395.58,653.458,395.824,653.597,395.998z"/>
		<path fill-rule="evenodd" clip-rule="evenodd" fill="#CFCFD7" d="M645.159,404.658c-0.074,0.086-0.147,0.172-0.222,0.257
			c-0.347,0-0.692,0-1.099,0C644.473,404.342,644.473,404.342,645.159,404.658z"/>
		<path fill-rule="evenodd" clip-rule="evenodd" fill="#F6F6F7" d="M654.807,399.118c0.058-0.002,0.109-0.02,0.157-0.053
			c0.435,0.35,0.438,0.393,0.09,1.022c-0.239,0.078-0.36-0.06-0.453-0.249C654.519,399.556,654.615,399.324,654.807,399.118z"/>
		<path fill-rule="evenodd" clip-rule="evenodd" fill="#DBDAE0" d="M633.95,402.953c0.15,0.162,0.3,0.325,0.45,0.487
			c-0.121,0.359-0.375,0.583-0.723,0.71c-0.189-0.12-0.381-0.238-0.369-0.506C633.371,403.274,633.58,403.038,633.95,402.953z"/>
		<path fill-rule="evenodd" clip-rule="evenodd" fill="#FCFCFC" d="M655.777,400.289c0-0.615,0-1.229,0-1.844
			c0.072,0,0.144,0,0.215,0c0,0.621,0,1.242,0,1.863l-0.111,0.034L655.777,400.289z"/>
		<path fill-rule="evenodd" clip-rule="evenodd" fill="#DDDDE2" d="M649.758,399.84c-0.152-0.08-0.306-0.16-0.459-0.239
			c-0.211-0.317-0.199-0.636-0.01-0.958C650.135,398.771,649.594,399.444,649.758,399.84z"/>
		<path fill-rule="evenodd" clip-rule="evenodd" fill="#E2E2E6" d="M655.498,396.711c0.084,0.073,0.168,0.146,0.252,0.219
			c0.146,0.104,0.136,0.188-0.031,0.253c-0.306,0.04-0.61,0.164-0.919,0.015c0.001-0.152,0.001-0.304,0.002-0.456
			C655.023,396.51,655.257,396.53,655.498,396.711z"/>
		<path fill-rule="evenodd" clip-rule="evenodd" fill="#9B4849" d="M626.954,400.555c0.098,0.103,0.195,0.206,0.293,0.309
			c-0.289,0.209-0.583,0.407-1.052,0.344C626.311,400.786,626.656,400.695,626.954,400.555z"/>
		<path fill-rule="evenodd" clip-rule="evenodd" fill="#BEBDC8" d="M650.475,406.326c-0.202,0.856-0.672,0.439-1.42,0.229
			c0.688-0.098,1.064-0.151,1.441-0.204C650.496,406.352,650.475,406.326,650.475,406.326z"/>
		<path fill-rule="evenodd" clip-rule="evenodd" fill="#F9F9F9" d="M649.762,405.354c-0.092,0.087-0.185,0.175-0.277,0.262
			c-0.372-0.341-0.368-0.664,0.049-0.965c0.223-0.093,0.316,0.045,0.391,0.22C649.952,405.06,649.892,405.219,649.762,405.354z"/>
		<path fill-rule="evenodd" clip-rule="evenodd" fill="#D5D4DB" d="M645.447,398.883c0.055-0.346,0.088-0.708,0.744-0.739
			c-0.294,0.345-0.108,0.767-0.496,1.001C645.539,399.127,645.514,398.985,645.447,398.883z"/>
		<path fill-rule="evenodd" clip-rule="evenodd" fill="#41405F" d="M638.013,403.638c-0.364-0.245-0.122-0.342,0.113-0.369
			c0.385-0.045,0.458-0.203,0.256-0.519C639.172,403.426,638.212,403.373,638.013,403.638z"/>
		<path fill-rule="evenodd" clip-rule="evenodd" fill="#373657" d="M655.719,397.183c0.01-0.084,0.021-0.169,0.031-0.253
			c0.163-0.157,0.326-0.314,0.489-0.471c1.043,0.227-0.317,0.497,0.013,0.736C656.074,397.191,655.896,397.188,655.719,397.183z"/>
		<path fill-rule="evenodd" clip-rule="evenodd" fill="#CDCCD4" d="M647.33,404.772c-0.07,0.036-0.14,0.071-0.21,0.107
			c-0.176,0.145-0.339,0.124-0.493-0.036c-0.094-0.083-0.188-0.165-0.283-0.247C646.737,404.294,647.089,404.224,647.33,404.772z"/>
		<path fill-rule="evenodd" clip-rule="evenodd" fill="#C1C1CB" d="M649.778,404.907c-0.082-0.085-0.164-0.171-0.245-0.256
			c0.38-0.433,0.756-0.383,1.129,0.008c-0.138,0.065-0.275,0.13-0.414,0.194C650.106,405.004,649.95,405.027,649.778,404.907z"/>
		<path fill-rule="evenodd" clip-rule="evenodd" fill="#D9D9DF" d="M645.903,402.239c-0.148,0-0.296,0-0.444,0
			c-0.059-0.032-0.084-0.071-0.077-0.118c0.008-0.05,0.02-0.075,0.036-0.075c0.107-0.187,0.216-0.374,0.323-0.562
			C646.133,401.664,646.082,401.938,645.903,402.239z"/>
		<path fill-rule="evenodd" clip-rule="evenodd" fill="#9494A5" d="M657.878,395.724c0.019,0.085,0.038,0.17,0.057,0.255
			c-0.221,0.089-0.513-0.042-0.681,0.215c-0.192-0.067-0.385-0.135-0.577-0.202c0.225-0.587,0.637-0.356,1.023-0.233
			C657.758,395.738,657.816,395.727,657.878,395.724z"/>
		<path fill-rule="evenodd" clip-rule="evenodd" fill="#D8D8DE" d="M654.78,399.807c0.091,0.094,0.183,0.188,0.273,0.281
			c-0.319,0.545-0.781,0.304-1.215,0.222c0.116-0.091,0.231-0.181,0.347-0.271C654.336,399.838,654.515,399.71,654.78,399.807z"/>
		<path fill-rule="evenodd" clip-rule="evenodd" fill="#E3E3E8" d="M657.7,395.759c-0.355,0.017-0.729-0.055-1.023,0.233
			c0,0-0.106-0.002-0.106-0.002l-0.106,0.004C656.604,395.359,656.88,395.306,657.7,395.759z"/>
		<path fill-rule="evenodd" clip-rule="evenodd" fill="#9E4949" d="M632.944,400.813c0.164-0.083,0.328-0.166,0.491-0.249
			c0.132,0.073,0.274,0.132,0.393,0.223c0.084,0.065,0.135,0.173,0.271,0.355C633.603,401.207,633.267,401.039,632.944,400.813z"/>
		<path fill-rule="evenodd" clip-rule="evenodd" fill="#DFDFE4" d="M657.005,399.752c0.281,0.409,0.755,0.221,1.123,0.359
			c-0.479,0.489-0.942,0.432-1.395-0.037C656.824,399.967,656.914,399.859,657.005,399.752z"/>
		<path fill-rule="evenodd" clip-rule="evenodd" fill="#CCB466" d="M668.755,411.104c0.053-0.156,0.105-0.313,0.158-0.469
			c0.536,0.316,0.331,0.764,0.209,1.196c-0.137-0.08-0.273-0.16-0.41-0.24C668.575,411.416,668.596,411.255,668.755,411.104z"/>
		<path fill-rule="evenodd" clip-rule="evenodd" fill="#474664" d="M649.289,398.643c0.003,0.319,0.007,0.638,0.01,0.958
			c-0.023,0.16-0.047,0.32-0.071,0.479C648.944,399.588,648.866,399.105,649.289,398.643z"/>
		<path fill-rule="evenodd" clip-rule="evenodd" fill="#E7E7EB" d="M627.439,404.133c0.158-0.296-0.375-0.956,0.469-0.891
			C627.383,403.345,627.929,404.012,627.439,404.133z"/>
		<path fill-rule="evenodd" clip-rule="evenodd" fill="#BCBBC6" d="M651.445,403.451c-0.009-0.47-0.018-0.94-0.025-1.411
			c0.102,0.146,0.204,0.291,0.306,0.437c0.094,0.326,0.204,0.653-0.034,0.968C651.609,403.446,651.527,403.449,651.445,403.451z"/>
		<path fill-rule="evenodd" clip-rule="evenodd" fill="#F6F6F7" d="M649.029,402.258c0.002-0.083,0.005-0.165,0.008-0.248
			c0.418,0.472,0.639,0.944,0.003,1.418C649.036,403.038,649.033,402.648,649.029,402.258z"/>
		<path fill-rule="evenodd" clip-rule="evenodd" fill="#ECECEF" d="M633.436,403.718c0.081,0.145,0.161,0.289,0.242,0.433
			c-0.374,0.115-0.729,0.149-1.002-0.212c0.098-0.096,0.196-0.192,0.293-0.288C633.145,403.536,633.301,403.557,633.436,403.718z"/>
		<path fill-rule="evenodd" clip-rule="evenodd" fill="#D88E86" d="M631.062,399.673c-0.454,0.318-0.706-0.012-0.971-0.302
			c0.388-0.432,0.492,0.132,0.734,0.209C630.904,399.611,630.983,399.642,631.062,399.673z"/>
		<path fill-rule="evenodd" clip-rule="evenodd" fill="#F3F3F5" d="M652.386,396.515c0.007-0.098,0.014-0.195,0.021-0.293
			c0.168,0.005,0.336,0.01,0.505,0.015c0,0-0.023-0.023-0.023-0.024c0.014,0.308,0.066,0.67-0.38,0.682
			C652.3,396.9,652.397,396.655,652.386,396.515z"/>
		<path fill-rule="evenodd" clip-rule="evenodd" fill="#F9F9F9" d="M645.447,398.883c0.083,0.087,0.165,0.174,0.248,0.262
			c0.034,0.281-0.143,0.478-0.277,0.691c-0.086-0.101-0.172-0.203-0.259-0.304C645.256,399.315,645.352,399.099,645.447,398.883z"/>
		<path fill-rule="evenodd" clip-rule="evenodd" fill="#DEDEE3" d="M631.724,402.017c-0.088,0.947-0.85,0.078-1.158,0.431
			c0.316-0.143,0.632-0.285,0.949-0.428C631.583,402.001,631.653,402,631.724,402.017z"/>
		<path fill-rule="evenodd" clip-rule="evenodd" fill="#E7E7EB" d="M628.88,402.014c-0.185,0.321,0.409,1.008-0.471,1.003
			C628.879,402.829,628.364,402.18,628.88,402.014z"/>
		<path fill-rule="evenodd" clip-rule="evenodd" fill="#F2F2F4" d="M653.597,395.998c-0.157-0.155-0.314-0.311-0.472-0.466
			c0.063-0.251,0.14-0.491,0.473-0.476C653.597,395.37,653.597,395.683,653.597,395.998z"/>
		<path fill-rule="evenodd" clip-rule="evenodd" fill="#CDCDD4" d="M647.592,397.175c-0.001-0.459-0.002-0.918-0.003-1.377
			C647.992,396.255,648.006,396.714,647.592,397.175z"/>
		<path fill-rule="evenodd" clip-rule="evenodd" fill="#383758" d="M651.691,403.444c0.012-0.322,0.022-0.646,0.034-0.968
			c0.05,0.001,0.099,0.001,0.147,0.001c0.103,0.317,0.206,0.636,0.309,0.954C652.018,403.436,651.854,403.439,651.691,403.444z"/>
		<path fill-rule="evenodd" clip-rule="evenodd" fill="#BEB085" d="M668.479,410.205c-0.434-0.026-0.867-0.053-1.301-0.079
			C667.632,409.828,668.076,409.677,668.479,410.205z"/>
		<path fill-rule="evenodd" clip-rule="evenodd" fill="#D1D1D8" d="M647.121,398.915c-0.113,0.179-0.284,0.224-0.482,0.205
			c-0.258-0.157-0.469-0.316,0.056-0.326C646.836,398.792,646.979,398.873,647.121,398.915z"/>
		<path fill-rule="evenodd" clip-rule="evenodd" fill="#D5C09F" d="M668.755,411.104c-0.015,0.163-0.028,0.325-0.043,0.487
			c-0.075,0.014-0.149,0.027-0.225,0.044c-0.271-0.019-0.538-0.049-0.727-0.28c-0.077-0.07-0.153-0.141-0.23-0.21
			C667.94,411.176,668.322,410.399,668.755,411.104z"/>
		<path fill-rule="evenodd" clip-rule="evenodd" fill="#D8BB74" d="M667.761,411.355c0.281-0.009,0.542,0.036,0.727,0.279
			C668.002,412.172,667.887,411.75,667.761,411.355z"/>
		<path fill-rule="evenodd" clip-rule="evenodd" fill="#51516D" d="M654.78,399.807c-0.198,0.077-0.396,0.154-0.595,0.232
			c-0.416-0.728-0.274-1.078,0.621-0.921C654.798,399.348,654.789,399.578,654.78,399.807z"/>
		<path fill-rule="evenodd" clip-rule="evenodd" fill="#474765" d="M623.786,402.803c0.073,0.4-0.092,0.69-0.42,0.904
			c-0.149-0.014-0.298-0.026-0.448-0.04c-0.247-0.391-0.235-0.783-0.005-1.177C623.271,402.404,623.528,402.605,623.786,402.803z"/>
		<path fill-rule="evenodd" clip-rule="evenodd" fill="#D7D7DD" d="M622.912,402.49c0.002,0.393,0.003,0.785,0.005,1.177
			C622.548,403.276,622.552,402.885,622.912,402.49z"/>
		<path fill-rule="evenodd" clip-rule="evenodd" fill="#4E4D6A" d="M653.12,403.208c-0.643-0.029-0.783-0.435-0.733-0.98
			C653.006,402.274,653.83,402.167,653.12,403.208z"/>
		<path fill-rule="evenodd" clip-rule="evenodd" fill="#565570" d="M645.418,402.046c0,0.067,0.014,0.132,0.041,0.193
			c-0.093,0.209-0.289,0.226-0.479,0.253c-0.082,0.09-0.154,0.082-0.215-0.023c-0.076-0.209-0.151-0.417-0.227-0.626
			C644.832,401.91,645.125,401.979,645.418,402.046z"/>
		<path fill-rule="evenodd" clip-rule="evenodd" fill="#302F51" d="M649.778,404.907c0.156-0.018,0.313-0.035,0.47-0.054
			c0.386,0.699-0.086,0.565-0.486,0.501C649.768,405.205,649.772,405.057,649.778,404.907z"/>
		<path fill-rule="evenodd" clip-rule="evenodd" fill="#3E3D5C" d="M633.436,403.718c-0.156-0.022-0.311-0.045-0.467-0.067
			c-0.225-0.338-0.216-0.723-0.223-1.104c0.486-0.115,0.949-0.162,1.204,0.406C633.913,403.298,633.723,403.541,633.436,403.718z"/>
		<path fill-rule="evenodd" clip-rule="evenodd" fill="#77768C" d="M644.766,402.469c0.072-0.001,0.145,0.007,0.215,0.023
			c0.097,0.275,0.623,0.27,0.465,0.711C644.967,403.192,644.272,403.381,644.766,402.469z"/>
		<path fill-rule="evenodd" clip-rule="evenodd" fill="#51516D" d="M646.627,404.844c0.165,0.012,0.329,0.024,0.493,0.036
			c0.066,0.296,0.132,0.592,0.197,0.888c-0.184,0.341-0.364,0.688-0.854,0.446C646.043,405.7,646.146,405.25,646.627,404.844z"/>
		<path fill-rule="evenodd" clip-rule="evenodd" fill="#3B3A5A" d="M655.498,396.711c-0.232,0.01-0.465,0.021-0.696,0.031
			c-0.354-0.258-0.313-0.52-0.005-0.782c0.225,0.019,0.448,0.038,0.672,0.056C655.479,396.249,655.488,396.48,655.498,396.711z"/>
	</g>
</g>
</svg>
